G04 #@! TF.GenerationSoftware,KiCad,Pcbnew,(5.0.2)-1*
G04 #@! TF.CreationDate,2020-01-03T22:31:12+01:00*
G04 #@! TF.ProjectId,clock,636c6f63-6b2e-46b6-9963-61645f706362,rev?*
G04 #@! TF.SameCoordinates,Original*
G04 #@! TF.FileFunction,Copper,L2,Bot*
G04 #@! TF.FilePolarity,Positive*
%FSLAX46Y46*%
G04 Gerber Fmt 4.6, Leading zero omitted, Abs format (unit mm)*
G04 Created by KiCad (PCBNEW (5.0.2)-1) date 03/01/2020 22:31:12*
%MOMM*%
%LPD*%
G01*
G04 APERTURE LIST*
G04 #@! TA.AperFunction,ComponentPad*
%ADD10C,1.700000*%
G04 #@! TD*
G04 #@! TA.AperFunction,ComponentPad*
%ADD11O,1.700000X1.700000*%
G04 #@! TD*
G04 #@! TA.AperFunction,ComponentPad*
%ADD12C,3.000000*%
G04 #@! TD*
G04 #@! TA.AperFunction,ComponentPad*
%ADD13R,1.700000X1.700000*%
G04 #@! TD*
G04 #@! TA.AperFunction,ComponentPad*
%ADD14C,2.000000*%
G04 #@! TD*
G04 #@! TA.AperFunction,ComponentPad*
%ADD15C,1.524000*%
G04 #@! TD*
G04 #@! TA.AperFunction,ViaPad*
%ADD16C,0.800000*%
G04 #@! TD*
G04 #@! TA.AperFunction,Conductor*
%ADD17C,0.500000*%
G04 #@! TD*
G04 #@! TA.AperFunction,Conductor*
%ADD18C,0.254000*%
G04 #@! TD*
G04 APERTURE END LIST*
D10*
G04 #@! TO.P,J2,1*
G04 #@! TO.N,SDA*
X167460000Y-81500000D03*
D11*
G04 #@! TO.P,J2,2*
G04 #@! TO.N,SCL*
X170000000Y-81500000D03*
G04 #@! TD*
D12*
G04 #@! TO.P,CR1220,1*
G04 #@! TO.N,Net-(CR1220-Pad1)*
X111000000Y-69900000D03*
X111000000Y-83100000D03*
G04 #@! TD*
D13*
G04 #@! TO.P,J1,1*
G04 #@! TO.N,GND*
X140285000Y-91400000D03*
D11*
G04 #@! TO.P,J1,2*
G04 #@! TO.N,Net-(D1-Pad2)*
X137745000Y-91400000D03*
G04 #@! TD*
D13*
G04 #@! TO.P,J3,1*
G04 #@! TO.N,Net-(J3-Pad1)*
X170000000Y-76000000D03*
D11*
G04 #@! TO.P,J3,2*
G04 #@! TO.N,+5V*
X167460000Y-76000000D03*
G04 #@! TO.P,J3,3*
G04 #@! TO.N,Net-(J3-Pad3)*
X170000000Y-73460000D03*
G04 #@! TO.P,J3,4*
G04 #@! TO.N,Net-(J3-Pad4)*
X167460000Y-73460000D03*
G04 #@! TO.P,J3,5*
G04 #@! TO.N,Net-(J3-Pad5)*
X170000000Y-70920000D03*
G04 #@! TO.P,J3,6*
G04 #@! TO.N,GND*
X167460000Y-70920000D03*
G04 #@! TD*
D13*
G04 #@! TO.P,J4,1*
G04 #@! TO.N,Net-(J4-Pad1)*
X142550000Y-53850000D03*
D11*
G04 #@! TO.P,J4,2*
G04 #@! TO.N,Net-(J4-Pad2)*
X140010000Y-53850000D03*
G04 #@! TO.P,J4,3*
G04 #@! TO.N,Net-(J4-Pad3)*
X137470000Y-53850000D03*
G04 #@! TO.P,J4,4*
G04 #@! TO.N,Net-(J4-Pad4)*
X134930000Y-53850000D03*
G04 #@! TD*
G04 #@! TO.P,J5,4*
G04 #@! TO.N,Net-(J3-Pad1)*
X134930000Y-61150000D03*
G04 #@! TO.P,J5,3*
G04 #@! TO.N,Net-(J5-Pad3)*
X137470000Y-61150000D03*
G04 #@! TO.P,J5,2*
G04 #@! TO.N,Net-(J5-Pad2)*
X140010000Y-61150000D03*
D13*
G04 #@! TO.P,J5,1*
G04 #@! TO.N,GND*
X142550000Y-61150000D03*
G04 #@! TD*
D14*
G04 #@! TO.P,SW1,1*
G04 #@! TO.N,Net-(J4-Pad4)*
X119100000Y-50350000D03*
G04 #@! TO.P,SW1,2*
G04 #@! TO.N,Net-(J4-Pad1)*
X123600000Y-50350000D03*
G04 #@! TO.P,SW1,1*
G04 #@! TO.N,Net-(J4-Pad4)*
X119100000Y-43850000D03*
G04 #@! TO.P,SW1,2*
G04 #@! TO.N,Net-(J4-Pad1)*
X123600000Y-43850000D03*
G04 #@! TD*
G04 #@! TO.P,SW2,1*
G04 #@! TO.N,Net-(J4-Pad3)*
X136400000Y-50350000D03*
G04 #@! TO.P,SW2,2*
G04 #@! TO.N,Net-(J4-Pad1)*
X140900000Y-50350000D03*
G04 #@! TO.P,SW2,1*
G04 #@! TO.N,Net-(J4-Pad3)*
X136400000Y-43850000D03*
G04 #@! TO.P,SW2,2*
G04 #@! TO.N,Net-(J4-Pad1)*
X140900000Y-43850000D03*
G04 #@! TD*
G04 #@! TO.P,SW3,1*
G04 #@! TO.N,Net-(J4-Pad2)*
X153600000Y-50350000D03*
G04 #@! TO.P,SW3,2*
G04 #@! TO.N,Net-(J4-Pad1)*
X158100000Y-50350000D03*
G04 #@! TO.P,SW3,1*
G04 #@! TO.N,Net-(J4-Pad2)*
X153600000Y-43850000D03*
G04 #@! TO.P,SW3,2*
G04 #@! TO.N,Net-(J4-Pad1)*
X158100000Y-43850000D03*
G04 #@! TD*
D15*
G04 #@! TO.P,U4,14*
G04 #@! TO.N,LED_COM1*
X131345000Y-84120000D03*
G04 #@! TO.P,U4,13*
G04 #@! TO.N,A*
X133885000Y-84120000D03*
G04 #@! TO.P,U4,12*
G04 #@! TO.N,F*
X136425000Y-84120000D03*
G04 #@! TO.P,U4,11*
G04 #@! TO.N,LED_COM2*
X138965000Y-84120000D03*
G04 #@! TO.P,U4,10*
G04 #@! TO.N,LED_COM3*
X141505000Y-84120000D03*
G04 #@! TO.P,U4,9*
G04 #@! TO.N,B*
X144045000Y-84120000D03*
G04 #@! TO.P,U4,8*
X146585000Y-84120000D03*
G04 #@! TO.P,U4,7*
G04 #@! TO.N,LED_COM_DOT*
X146585000Y-68880000D03*
G04 #@! TO.P,U4,6*
G04 #@! TO.N,LED_COM4*
X144045000Y-68880000D03*
G04 #@! TO.P,U4,5*
G04 #@! TO.N,G*
X141505000Y-68880000D03*
G04 #@! TO.P,U4,4*
G04 #@! TO.N,C*
X138965000Y-68880000D03*
G04 #@! TO.P,U4,3*
G04 #@! TO.N,DP*
X136425000Y-68880000D03*
G04 #@! TO.P,U4,2*
G04 #@! TO.N,D*
X133885000Y-68880000D03*
G04 #@! TO.P,U4,1*
G04 #@! TO.N,E*
X131345000Y-68880000D03*
G04 #@! TD*
D16*
G04 #@! TO.N,+5V*
X132500000Y-72300000D03*
X132500000Y-75700000D03*
G04 #@! TO.N,GND*
X156595000Y-66605000D03*
X129200000Y-70000000D03*
X130500000Y-78800000D03*
X125200000Y-75700000D03*
X125400000Y-70000000D03*
G04 #@! TO.N,SDA*
X128200000Y-73600000D03*
X157361644Y-83300000D03*
G04 #@! TO.N,SCL*
X127000000Y-74650000D03*
X159901644Y-84500000D03*
G04 #@! TO.N,Net-(J3-Pad1)*
X157900000Y-77035000D03*
X162200000Y-77700000D03*
G04 #@! TO.N,Net-(J3-Pad3)*
X159135000Y-73735000D03*
G04 #@! TO.N,Net-(J3-Pad4)*
X155300000Y-73800000D03*
G04 #@! TO.N,LED_COM1*
X136150000Y-79750000D03*
G04 #@! TO.N,LED_COM_DOT*
X144600000Y-78350000D03*
G04 #@! TO.N,LED_COM4*
X141950000Y-79350000D03*
G04 #@! TO.N,G*
X142300000Y-77400000D03*
G04 #@! TO.N,F*
X139649999Y-76600000D03*
G04 #@! TO.N,E*
X137300000Y-75400000D03*
G04 #@! TO.N,D*
X137700000Y-74300000D03*
G04 #@! TO.N,C*
X141200000Y-73400000D03*
G04 #@! TO.N,B*
X140000000Y-73400000D03*
G04 #@! TO.N,A*
X138700000Y-73300000D03*
G04 #@! TD*
D17*
G04 #@! TO.N,+5V*
X132500000Y-72300000D02*
X132500000Y-72865685D01*
X132500000Y-72865685D02*
X132500000Y-75700000D01*
X132500000Y-75700000D02*
X132500000Y-75700000D01*
G04 #@! TO.N,GND*
X129200000Y-77500000D02*
X130500000Y-78800000D01*
X129200000Y-70000000D02*
X129200000Y-77500000D01*
X125400000Y-75500000D02*
X125200000Y-75700000D01*
X125400000Y-70000000D02*
X125400000Y-75500000D01*
X142550000Y-62500000D02*
X142550000Y-61150000D01*
X138550000Y-66500000D02*
X142550000Y-62500000D01*
X130500000Y-66500000D02*
X138550000Y-66500000D01*
X129200000Y-67800000D02*
X130500000Y-66500000D01*
X129200000Y-70000000D02*
X129200000Y-67800000D01*
X152490000Y-62500000D02*
X156595000Y-66605000D01*
X142550000Y-62500000D02*
X152490000Y-62500000D01*
X140285000Y-90050000D02*
X140285000Y-91400000D01*
X139035000Y-88800000D02*
X140285000Y-90050000D01*
X128400000Y-88800000D02*
X139035000Y-88800000D01*
X125200000Y-85600000D02*
X128400000Y-88800000D01*
X125200000Y-75700000D02*
X125200000Y-85600000D01*
G04 #@! TO.N,Net-(CR1220-Pad1)*
X111000000Y-72021320D02*
X111000000Y-83100000D01*
X111000000Y-69900000D02*
X111000000Y-72021320D01*
G04 #@! TO.N,SDA*
X154861644Y-85800000D02*
X157361644Y-83300000D01*
X129500000Y-85800000D02*
X154861644Y-85800000D01*
X128200000Y-73600000D02*
X128200000Y-84500000D01*
X128200000Y-84500000D02*
X129500000Y-85800000D01*
X167460000Y-82850000D02*
X167460000Y-81500000D01*
X167010000Y-83300000D02*
X167460000Y-82850000D01*
X157361644Y-83300000D02*
X167010000Y-83300000D01*
G04 #@! TO.N,SCL*
X127000000Y-84900000D02*
X128900000Y-86800000D01*
X128900000Y-86800000D02*
X155300000Y-86800000D01*
X157600000Y-84500000D02*
X159901644Y-84500000D01*
X155300000Y-86800000D02*
X157600000Y-84500000D01*
X167000000Y-84500000D02*
X170000000Y-81500000D01*
X159901644Y-84500000D02*
X167000000Y-84500000D01*
X127000000Y-84900000D02*
X127000000Y-74650000D01*
G04 #@! TO.N,Net-(J3-Pad1)*
X161535000Y-77035000D02*
X162200000Y-77700000D01*
X157900000Y-77035000D02*
X161535000Y-77035000D01*
G04 #@! TO.N,Net-(J3-Pad3)*
X162735000Y-73735000D02*
X159135000Y-73735000D01*
X164400000Y-75400000D02*
X162735000Y-73735000D01*
X171202081Y-73460000D02*
X171242081Y-73500000D01*
X170000000Y-73460000D02*
X171202081Y-73460000D01*
X171242081Y-73500000D02*
X171400000Y-73500000D01*
X171400000Y-73500000D02*
X172300000Y-74400000D01*
X172300000Y-74400000D02*
X172300000Y-77200000D01*
X172300000Y-77200000D02*
X171200000Y-78300000D01*
X171200000Y-78300000D02*
X165900000Y-78300000D01*
X164400000Y-76800000D02*
X164400000Y-75400000D01*
X165900000Y-78300000D02*
X164400000Y-76800000D01*
G04 #@! TO.N,Net-(J3-Pad4)*
X155300000Y-73234315D02*
X156534315Y-72000000D01*
X155300000Y-73800000D02*
X155300000Y-73234315D01*
X166000000Y-72000000D02*
X167460000Y-73460000D01*
X156534315Y-72000000D02*
X166000000Y-72000000D01*
G04 #@! TO.N,LED_COM1*
X135715000Y-79750000D02*
X136150000Y-79750000D01*
X131345000Y-84120000D02*
X135715000Y-79750000D01*
G04 #@! TO.N,LED_COM_DOT*
X146585000Y-68880000D02*
X146585000Y-69957630D01*
X146585000Y-69957630D02*
X147250001Y-70622631D01*
X147250001Y-75699999D02*
X144600000Y-78350000D01*
X147250001Y-70622631D02*
X147250001Y-75699999D01*
G04 #@! TO.N,LED_COM4*
X144045000Y-69957630D02*
X144050000Y-69962630D01*
X144045000Y-68880000D02*
X144045000Y-69957630D01*
X144045000Y-77255000D02*
X141950000Y-79350000D01*
X144045000Y-69957630D02*
X144045000Y-77255000D01*
G04 #@! TO.N,G*
X142300000Y-76834315D02*
X142300000Y-77400000D01*
X141505000Y-68880000D02*
X142299999Y-69674999D01*
X142299999Y-69674999D02*
X142300000Y-76834315D01*
G04 #@! TO.N,F*
X136425000Y-84120000D02*
X139649999Y-80895001D01*
X139649999Y-80895001D02*
X139649999Y-76600000D01*
G04 #@! TO.N,E*
X136900001Y-75000001D02*
X137300000Y-75400000D01*
X132106999Y-70206999D02*
X136900001Y-75000001D01*
X132106999Y-69641999D02*
X132106999Y-70206999D01*
X131345000Y-68880000D02*
X132106999Y-69641999D01*
G04 #@! TO.N,D*
X133885000Y-68880000D02*
X137700000Y-72695000D01*
X137700000Y-72695000D02*
X137700000Y-74300000D01*
G04 #@! TO.N,C*
X141200000Y-71115000D02*
X138965000Y-68880000D01*
X141200000Y-73400000D02*
X141200000Y-71115000D01*
G04 #@! TO.N,B*
X144045000Y-83042370D02*
X140800000Y-79797370D01*
X144045000Y-84120000D02*
X144045000Y-83042370D01*
X140800000Y-74893998D02*
X140800000Y-79797370D01*
X140000000Y-74093998D02*
X140800000Y-74893998D01*
X140000000Y-73400000D02*
X140000000Y-74093998D01*
X144045000Y-84120000D02*
X146585000Y-84120000D01*
G04 #@! TO.N,A*
X138700000Y-73300000D02*
X138700000Y-73300000D01*
X133885000Y-84120000D02*
X138700000Y-79305000D01*
X138700000Y-79305000D02*
X138700000Y-73300000D01*
G04 #@! TO.N,Net-(J4-Pad1)*
X123600000Y-48935787D02*
X124485787Y-48050000D01*
X123600000Y-50350000D02*
X123600000Y-48935787D01*
X138600000Y-48050000D02*
X140900000Y-50350000D01*
X124485787Y-48050000D02*
X138600000Y-48050000D01*
X155900000Y-48150000D02*
X158100000Y-50350000D01*
X140900000Y-50350000D02*
X143100000Y-48150000D01*
X143100000Y-48150000D02*
X155900000Y-48150000D01*
X123600000Y-45264213D02*
X123600000Y-50350000D01*
X123600000Y-43850000D02*
X123600000Y-45264213D01*
X140900000Y-43850000D02*
X140900000Y-50350000D01*
X158100000Y-45264213D02*
X158100000Y-50350000D01*
X158100000Y-43850000D02*
X158100000Y-45264213D01*
X140900000Y-50350000D02*
X142550000Y-52000000D01*
X142550000Y-52000000D02*
X142550000Y-53850000D01*
G04 #@! TD*
D18*
G04 #@! TO.N,GND*
G36*
X169759192Y-58780578D02*
X170494389Y-58981705D01*
X171182351Y-59309846D01*
X171801331Y-59754628D01*
X172331761Y-60301988D01*
X172756884Y-60934639D01*
X173063251Y-61632561D01*
X173242499Y-62379183D01*
X173290001Y-63026044D01*
X173290000Y-89968382D01*
X173219422Y-90759193D01*
X173018295Y-91494389D01*
X172690152Y-92182355D01*
X172245374Y-92801328D01*
X171698012Y-93331761D01*
X171065362Y-93756883D01*
X170367439Y-94063251D01*
X169620819Y-94242499D01*
X169137645Y-94277980D01*
X169072388Y-94265000D01*
X108927612Y-94265000D01*
X108873067Y-94275850D01*
X108240807Y-94219422D01*
X107505611Y-94018295D01*
X106817645Y-93690152D01*
X106198672Y-93245374D01*
X105668239Y-92698012D01*
X105243117Y-92065362D01*
X104936749Y-91367439D01*
X104757501Y-90620819D01*
X104710000Y-89973970D01*
X104710000Y-89555431D01*
X106765000Y-89555431D01*
X106765000Y-90444569D01*
X107105259Y-91266026D01*
X107733974Y-91894741D01*
X108555431Y-92235000D01*
X109444569Y-92235000D01*
X110266026Y-91894741D01*
X110760767Y-91400000D01*
X136230908Y-91400000D01*
X136346161Y-91979418D01*
X136674375Y-92470625D01*
X137165582Y-92798839D01*
X137598744Y-92885000D01*
X137891256Y-92885000D01*
X138324418Y-92798839D01*
X138815625Y-92470625D01*
X138830096Y-92448967D01*
X138896673Y-92609698D01*
X139075301Y-92788327D01*
X139308690Y-92885000D01*
X139999250Y-92885000D01*
X140158000Y-92726250D01*
X140158000Y-91527000D01*
X140412000Y-91527000D01*
X140412000Y-92726250D01*
X140570750Y-92885000D01*
X141261310Y-92885000D01*
X141494699Y-92788327D01*
X141673327Y-92609698D01*
X141770000Y-92376309D01*
X141770000Y-91685750D01*
X141611250Y-91527000D01*
X140412000Y-91527000D01*
X140158000Y-91527000D01*
X140138000Y-91527000D01*
X140138000Y-91273000D01*
X140158000Y-91273000D01*
X140158000Y-90073750D01*
X140412000Y-90073750D01*
X140412000Y-91273000D01*
X141611250Y-91273000D01*
X141770000Y-91114250D01*
X141770000Y-90423691D01*
X141673327Y-90190302D01*
X141494699Y-90011673D01*
X141261310Y-89915000D01*
X140570750Y-89915000D01*
X140412000Y-90073750D01*
X140158000Y-90073750D01*
X139999250Y-89915000D01*
X139308690Y-89915000D01*
X139075301Y-90011673D01*
X138896673Y-90190302D01*
X138830096Y-90351033D01*
X138815625Y-90329375D01*
X138324418Y-90001161D01*
X137891256Y-89915000D01*
X137598744Y-89915000D01*
X137165582Y-90001161D01*
X136674375Y-90329375D01*
X136346161Y-90820582D01*
X136230908Y-91400000D01*
X110760767Y-91400000D01*
X110894741Y-91266026D01*
X111235000Y-90444569D01*
X111235000Y-89555431D01*
X166765000Y-89555431D01*
X166765000Y-90444569D01*
X167105259Y-91266026D01*
X167733974Y-91894741D01*
X168555431Y-92235000D01*
X169444569Y-92235000D01*
X170266026Y-91894741D01*
X170894741Y-91266026D01*
X171235000Y-90444569D01*
X171235000Y-89555431D01*
X170894741Y-88733974D01*
X170266026Y-88105259D01*
X169444569Y-87765000D01*
X168555431Y-87765000D01*
X167733974Y-88105259D01*
X167105259Y-88733974D01*
X166765000Y-89555431D01*
X111235000Y-89555431D01*
X110894741Y-88733974D01*
X110266026Y-88105259D01*
X109444569Y-87765000D01*
X108555431Y-87765000D01*
X107733974Y-88105259D01*
X107105259Y-88733974D01*
X106765000Y-89555431D01*
X104710000Y-89555431D01*
X104710000Y-69475322D01*
X108865000Y-69475322D01*
X108865000Y-70324678D01*
X109190034Y-71109380D01*
X109790620Y-71709966D01*
X110115001Y-71844329D01*
X110115001Y-71934151D01*
X110115000Y-71934156D01*
X110115001Y-81155671D01*
X109790620Y-81290034D01*
X109190034Y-81890620D01*
X108865000Y-82675322D01*
X108865000Y-83524678D01*
X109190034Y-84309380D01*
X109790620Y-84909966D01*
X110575322Y-85235000D01*
X111424678Y-85235000D01*
X112209380Y-84909966D01*
X112809966Y-84309380D01*
X113135000Y-83524678D01*
X113135000Y-82675322D01*
X112809966Y-81890620D01*
X112209380Y-81290034D01*
X111885000Y-81155671D01*
X111885000Y-74444126D01*
X125965000Y-74444126D01*
X125965000Y-74855874D01*
X126115001Y-75218009D01*
X126115000Y-84812839D01*
X126097663Y-84900000D01*
X126115000Y-84987161D01*
X126115000Y-84987164D01*
X126166348Y-85245309D01*
X126361951Y-85538049D01*
X126435847Y-85587425D01*
X128212577Y-87364156D01*
X128261951Y-87438049D01*
X128335844Y-87487423D01*
X128335845Y-87487424D01*
X128554690Y-87633652D01*
X128812835Y-87685000D01*
X128812839Y-87685000D01*
X128900000Y-87702337D01*
X128987161Y-87685000D01*
X155212839Y-87685000D01*
X155300000Y-87702337D01*
X155387161Y-87685000D01*
X155387165Y-87685000D01*
X155645310Y-87633652D01*
X155938049Y-87438049D01*
X155987425Y-87364153D01*
X157966579Y-85385000D01*
X159333637Y-85385000D01*
X159695770Y-85535000D01*
X160107518Y-85535000D01*
X160469651Y-85385000D01*
X166912839Y-85385000D01*
X167000000Y-85402337D01*
X167087161Y-85385000D01*
X167087165Y-85385000D01*
X167345310Y-85333652D01*
X167638049Y-85138049D01*
X167687425Y-85064153D01*
X169781040Y-82970538D01*
X169853744Y-82985000D01*
X170146256Y-82985000D01*
X170579418Y-82898839D01*
X171070625Y-82570625D01*
X171398839Y-82079418D01*
X171514092Y-81500000D01*
X171398839Y-80920582D01*
X171070625Y-80429375D01*
X170579418Y-80101161D01*
X170146256Y-80015000D01*
X169853744Y-80015000D01*
X169420582Y-80101161D01*
X168929375Y-80429375D01*
X168740791Y-80711611D01*
X168718922Y-80658815D01*
X168301185Y-80241078D01*
X167755385Y-80015000D01*
X167164615Y-80015000D01*
X166618815Y-80241078D01*
X166201078Y-80658815D01*
X165975000Y-81204615D01*
X165975000Y-81795385D01*
X166201078Y-82341185D01*
X166274893Y-82415000D01*
X157929651Y-82415000D01*
X157567518Y-82265000D01*
X157155770Y-82265000D01*
X156775364Y-82422569D01*
X156484213Y-82713720D01*
X156334213Y-83075852D01*
X154495066Y-84915000D01*
X147765657Y-84915000D01*
X147769320Y-84911337D01*
X147982000Y-84397881D01*
X147982000Y-83842119D01*
X147769320Y-83328663D01*
X147376337Y-82935680D01*
X146862881Y-82723000D01*
X146307119Y-82723000D01*
X145793663Y-82935680D01*
X145494343Y-83235000D01*
X145135657Y-83235000D01*
X144946622Y-83045965D01*
X144947337Y-83042369D01*
X144930000Y-82955208D01*
X144930000Y-82955205D01*
X144878652Y-82697060D01*
X144822201Y-82612576D01*
X144732424Y-82478215D01*
X144732423Y-82478214D01*
X144683049Y-82404321D01*
X144609156Y-82354947D01*
X142497643Y-80243435D01*
X142536280Y-80227431D01*
X142827431Y-79936280D01*
X142977431Y-79574147D01*
X143691150Y-78860428D01*
X143722569Y-78936280D01*
X144013720Y-79227431D01*
X144394126Y-79385000D01*
X144805874Y-79385000D01*
X145186280Y-79227431D01*
X145477431Y-78936280D01*
X145627431Y-78574147D01*
X147372452Y-76829126D01*
X156865000Y-76829126D01*
X156865000Y-77240874D01*
X157022569Y-77621280D01*
X157313720Y-77912431D01*
X157694126Y-78070000D01*
X158105874Y-78070000D01*
X158468007Y-77920000D01*
X161168422Y-77920000D01*
X161172569Y-77924148D01*
X161322569Y-78286280D01*
X161613720Y-78577431D01*
X161994126Y-78735000D01*
X162405874Y-78735000D01*
X162786280Y-78577431D01*
X163077431Y-78286280D01*
X163235000Y-77905874D01*
X163235000Y-77494126D01*
X163077431Y-77113720D01*
X162786280Y-76822569D01*
X162424148Y-76672569D01*
X162222425Y-76470847D01*
X162173049Y-76396951D01*
X161880310Y-76201348D01*
X161622165Y-76150000D01*
X161622161Y-76150000D01*
X161535000Y-76132663D01*
X161447839Y-76150000D01*
X158468007Y-76150000D01*
X158105874Y-76000000D01*
X157694126Y-76000000D01*
X157313720Y-76157569D01*
X157022569Y-76448720D01*
X156865000Y-76829126D01*
X147372452Y-76829126D01*
X147814157Y-76387422D01*
X147888050Y-76338048D01*
X147943749Y-76254690D01*
X148038706Y-76112576D01*
X148083653Y-76045309D01*
X148135001Y-75787164D01*
X148135001Y-75787160D01*
X148152338Y-75700000D01*
X148135001Y-75612840D01*
X148135001Y-73594126D01*
X154265000Y-73594126D01*
X154265000Y-74005874D01*
X154422569Y-74386280D01*
X154713720Y-74677431D01*
X155094126Y-74835000D01*
X155505874Y-74835000D01*
X155886280Y-74677431D01*
X156177431Y-74386280D01*
X156335000Y-74005874D01*
X156335000Y-73594126D01*
X156293048Y-73492845D01*
X156900894Y-72885000D01*
X158521289Y-72885000D01*
X158257569Y-73148720D01*
X158100000Y-73529126D01*
X158100000Y-73940874D01*
X158257569Y-74321280D01*
X158548720Y-74612431D01*
X158929126Y-74770000D01*
X159340874Y-74770000D01*
X159703007Y-74620000D01*
X162368422Y-74620000D01*
X163515001Y-75766580D01*
X163515000Y-76712839D01*
X163497663Y-76800000D01*
X163515000Y-76887161D01*
X163515000Y-76887164D01*
X163566348Y-77145309D01*
X163761951Y-77438049D01*
X163835847Y-77487425D01*
X165212577Y-78864156D01*
X165261951Y-78938049D01*
X165335844Y-78987423D01*
X165335845Y-78987424D01*
X165361687Y-79004691D01*
X165554690Y-79133652D01*
X165812835Y-79185000D01*
X165812839Y-79185000D01*
X165899999Y-79202337D01*
X165987159Y-79185000D01*
X171112839Y-79185000D01*
X171200000Y-79202337D01*
X171287161Y-79185000D01*
X171287165Y-79185000D01*
X171545310Y-79133652D01*
X171838049Y-78938049D01*
X171887425Y-78864153D01*
X172864156Y-77887423D01*
X172938049Y-77838049D01*
X172987715Y-77763720D01*
X173133652Y-77545310D01*
X173159572Y-77415000D01*
X173185000Y-77287165D01*
X173185000Y-77287161D01*
X173202337Y-77200000D01*
X173185000Y-77112839D01*
X173185000Y-74487159D01*
X173202337Y-74399999D01*
X173185000Y-74312839D01*
X173185000Y-74312835D01*
X173133652Y-74054690D01*
X173021714Y-73887164D01*
X172987424Y-73835845D01*
X172987423Y-73835844D01*
X172938049Y-73761951D01*
X172864156Y-73712577D01*
X172087424Y-72935846D01*
X172038049Y-72861951D01*
X171745310Y-72666348D01*
X171548737Y-72627247D01*
X171547391Y-72626348D01*
X171289246Y-72575000D01*
X171289242Y-72575000D01*
X171202081Y-72557663D01*
X171185302Y-72561001D01*
X171070625Y-72389375D01*
X170772239Y-72190000D01*
X171070625Y-71990625D01*
X171398839Y-71499418D01*
X171514092Y-70920000D01*
X171398839Y-70340582D01*
X171070625Y-69849375D01*
X170579418Y-69521161D01*
X170146256Y-69435000D01*
X169853744Y-69435000D01*
X169420582Y-69521161D01*
X168929375Y-69849375D01*
X168728647Y-70149786D01*
X168341358Y-69724817D01*
X167816892Y-69478514D01*
X167587000Y-69599181D01*
X167587000Y-70793000D01*
X167607000Y-70793000D01*
X167607000Y-71047000D01*
X167587000Y-71047000D01*
X167587000Y-71067000D01*
X167333000Y-71067000D01*
X167333000Y-71047000D01*
X166139845Y-71047000D01*
X166102364Y-71118023D01*
X166087165Y-71115000D01*
X166087161Y-71115000D01*
X166000000Y-71097663D01*
X165912839Y-71115000D01*
X156621475Y-71115000D01*
X156534314Y-71097663D01*
X156447153Y-71115000D01*
X156447150Y-71115000D01*
X156189005Y-71166348D01*
X155970160Y-71312576D01*
X155970159Y-71312577D01*
X155896266Y-71361951D01*
X155846892Y-71435844D01*
X154735845Y-72546892D01*
X154661952Y-72596266D01*
X154612577Y-72670160D01*
X154612576Y-72670161D01*
X154592638Y-72700000D01*
X154466348Y-72889005D01*
X154415000Y-73147150D01*
X154415000Y-73147154D01*
X154397663Y-73234315D01*
X154402975Y-73261023D01*
X154265000Y-73594126D01*
X148135001Y-73594126D01*
X148135001Y-70709790D01*
X148152338Y-70622630D01*
X148140499Y-70563110D01*
X166018524Y-70563110D01*
X166139845Y-70793000D01*
X167333000Y-70793000D01*
X167333000Y-69599181D01*
X167103108Y-69478514D01*
X166578642Y-69724817D01*
X166188355Y-70153076D01*
X166018524Y-70563110D01*
X148140499Y-70563110D01*
X148135001Y-70535470D01*
X148135001Y-70535466D01*
X148083653Y-70277321D01*
X147888050Y-69984582D01*
X147814157Y-69935208D01*
X147659803Y-69780854D01*
X147769320Y-69671337D01*
X147982000Y-69157881D01*
X147982000Y-68602119D01*
X147769320Y-68088663D01*
X147376337Y-67695680D01*
X146862881Y-67483000D01*
X146307119Y-67483000D01*
X145793663Y-67695680D01*
X145400680Y-68088663D01*
X145315000Y-68295513D01*
X145229320Y-68088663D01*
X144836337Y-67695680D01*
X144322881Y-67483000D01*
X143767119Y-67483000D01*
X143253663Y-67695680D01*
X142860680Y-68088663D01*
X142775000Y-68295513D01*
X142689320Y-68088663D01*
X142296337Y-67695680D01*
X141782881Y-67483000D01*
X141227119Y-67483000D01*
X140713663Y-67695680D01*
X140320680Y-68088663D01*
X140235000Y-68295513D01*
X140149320Y-68088663D01*
X139756337Y-67695680D01*
X139242881Y-67483000D01*
X138687119Y-67483000D01*
X138173663Y-67695680D01*
X137780680Y-68088663D01*
X137695000Y-68295513D01*
X137609320Y-68088663D01*
X137216337Y-67695680D01*
X136702881Y-67483000D01*
X136147119Y-67483000D01*
X135633663Y-67695680D01*
X135240680Y-68088663D01*
X135155000Y-68295513D01*
X135069320Y-68088663D01*
X134676337Y-67695680D01*
X134162881Y-67483000D01*
X133607119Y-67483000D01*
X133093663Y-67695680D01*
X132700680Y-68088663D01*
X132615000Y-68295513D01*
X132529320Y-68088663D01*
X132136337Y-67695680D01*
X131622881Y-67483000D01*
X131067119Y-67483000D01*
X130553663Y-67695680D01*
X130160680Y-68088663D01*
X129948000Y-68602119D01*
X129948000Y-69157881D01*
X130160680Y-69671337D01*
X130553663Y-70064320D01*
X131067119Y-70277000D01*
X131218586Y-70277000D01*
X131221999Y-70294160D01*
X131221999Y-70294164D01*
X131273347Y-70552309D01*
X131338659Y-70650054D01*
X131418598Y-70769690D01*
X131468951Y-70845048D01*
X131542844Y-70894422D01*
X132024927Y-71376505D01*
X131913720Y-71422569D01*
X131622569Y-71713720D01*
X131465000Y-72094126D01*
X131465000Y-72505874D01*
X131615000Y-72868007D01*
X131615001Y-75131991D01*
X131465000Y-75494126D01*
X131465000Y-75905874D01*
X131622569Y-76286280D01*
X131913720Y-76577431D01*
X132294126Y-76735000D01*
X132705874Y-76735000D01*
X133086280Y-76577431D01*
X133377431Y-76286280D01*
X133535000Y-75905874D01*
X133535000Y-75494126D01*
X133385000Y-75131993D01*
X133385000Y-72868007D01*
X133423494Y-72775073D01*
X136272570Y-75624149D01*
X136422569Y-75986280D01*
X136713720Y-76277431D01*
X137094126Y-76435000D01*
X137505874Y-76435000D01*
X137815000Y-76306956D01*
X137815000Y-78938421D01*
X137185000Y-79568421D01*
X137185000Y-79544126D01*
X137027431Y-79163720D01*
X136736280Y-78872569D01*
X136355874Y-78715000D01*
X135944126Y-78715000D01*
X135563720Y-78872569D01*
X135557249Y-78879040D01*
X135369690Y-78916348D01*
X135304823Y-78959691D01*
X135150845Y-79062576D01*
X135150844Y-79062577D01*
X135076951Y-79111951D01*
X135027577Y-79185844D01*
X131490422Y-82723000D01*
X131067119Y-82723000D01*
X130553663Y-82935680D01*
X130160680Y-83328663D01*
X129948000Y-83842119D01*
X129948000Y-84397881D01*
X130160680Y-84911337D01*
X130164343Y-84915000D01*
X129866579Y-84915000D01*
X129085000Y-84133422D01*
X129085000Y-74168007D01*
X129235000Y-73805874D01*
X129235000Y-73394126D01*
X129077431Y-73013720D01*
X128786280Y-72722569D01*
X128405874Y-72565000D01*
X127994126Y-72565000D01*
X127613720Y-72722569D01*
X127322569Y-73013720D01*
X127165000Y-73394126D01*
X127165000Y-73615000D01*
X126794126Y-73615000D01*
X126413720Y-73772569D01*
X126122569Y-74063720D01*
X125965000Y-74444126D01*
X111885000Y-74444126D01*
X111885000Y-71844329D01*
X112209380Y-71709966D01*
X112809966Y-71109380D01*
X113135000Y-70324678D01*
X113135000Y-69475322D01*
X112809966Y-68690620D01*
X112209380Y-68090034D01*
X111424678Y-67765000D01*
X110575322Y-67765000D01*
X109790620Y-68090034D01*
X109190034Y-68690620D01*
X108865000Y-69475322D01*
X104710000Y-69475322D01*
X104710000Y-63031618D01*
X104752498Y-62555431D01*
X106765000Y-62555431D01*
X106765000Y-63444569D01*
X107105259Y-64266026D01*
X107733974Y-64894741D01*
X108555431Y-65235000D01*
X109444569Y-65235000D01*
X110266026Y-64894741D01*
X110894741Y-64266026D01*
X111235000Y-63444569D01*
X111235000Y-62555431D01*
X110894741Y-61733974D01*
X110310767Y-61150000D01*
X133415908Y-61150000D01*
X133531161Y-61729418D01*
X133859375Y-62220625D01*
X134350582Y-62548839D01*
X134783744Y-62635000D01*
X135076256Y-62635000D01*
X135509418Y-62548839D01*
X136000625Y-62220625D01*
X136200000Y-61922239D01*
X136399375Y-62220625D01*
X136890582Y-62548839D01*
X137323744Y-62635000D01*
X137616256Y-62635000D01*
X138049418Y-62548839D01*
X138540625Y-62220625D01*
X138740000Y-61922239D01*
X138939375Y-62220625D01*
X139430582Y-62548839D01*
X139863744Y-62635000D01*
X140156256Y-62635000D01*
X140589418Y-62548839D01*
X141080625Y-62220625D01*
X141095096Y-62198967D01*
X141161673Y-62359698D01*
X141340301Y-62538327D01*
X141573690Y-62635000D01*
X142264250Y-62635000D01*
X142423000Y-62476250D01*
X142423000Y-61277000D01*
X142677000Y-61277000D01*
X142677000Y-62476250D01*
X142835750Y-62635000D01*
X143526310Y-62635000D01*
X143718406Y-62555431D01*
X166765000Y-62555431D01*
X166765000Y-63444569D01*
X167105259Y-64266026D01*
X167733974Y-64894741D01*
X168555431Y-65235000D01*
X169444569Y-65235000D01*
X170266026Y-64894741D01*
X170894741Y-64266026D01*
X171235000Y-63444569D01*
X171235000Y-62555431D01*
X170894741Y-61733974D01*
X170266026Y-61105259D01*
X169444569Y-60765000D01*
X168555431Y-60765000D01*
X167733974Y-61105259D01*
X167105259Y-61733974D01*
X166765000Y-62555431D01*
X143718406Y-62555431D01*
X143759699Y-62538327D01*
X143938327Y-62359698D01*
X144035000Y-62126309D01*
X144035000Y-61435750D01*
X143876250Y-61277000D01*
X142677000Y-61277000D01*
X142423000Y-61277000D01*
X142403000Y-61277000D01*
X142403000Y-61023000D01*
X142423000Y-61023000D01*
X142423000Y-59823750D01*
X142677000Y-59823750D01*
X142677000Y-61023000D01*
X143876250Y-61023000D01*
X144035000Y-60864250D01*
X144035000Y-60173691D01*
X143938327Y-59940302D01*
X143759699Y-59761673D01*
X143526310Y-59665000D01*
X142835750Y-59665000D01*
X142677000Y-59823750D01*
X142423000Y-59823750D01*
X142264250Y-59665000D01*
X141573690Y-59665000D01*
X141340301Y-59761673D01*
X141161673Y-59940302D01*
X141095096Y-60101033D01*
X141080625Y-60079375D01*
X140589418Y-59751161D01*
X140156256Y-59665000D01*
X139863744Y-59665000D01*
X139430582Y-59751161D01*
X138939375Y-60079375D01*
X138740000Y-60377761D01*
X138540625Y-60079375D01*
X138049418Y-59751161D01*
X137616256Y-59665000D01*
X137323744Y-59665000D01*
X136890582Y-59751161D01*
X136399375Y-60079375D01*
X136200000Y-60377761D01*
X136000625Y-60079375D01*
X135509418Y-59751161D01*
X135076256Y-59665000D01*
X134783744Y-59665000D01*
X134350582Y-59751161D01*
X133859375Y-60079375D01*
X133531161Y-60570582D01*
X133415908Y-61150000D01*
X110310767Y-61150000D01*
X110266026Y-61105259D01*
X109444569Y-60765000D01*
X108555431Y-60765000D01*
X107733974Y-61105259D01*
X107105259Y-61733974D01*
X106765000Y-62555431D01*
X104752498Y-62555431D01*
X104780578Y-62240808D01*
X104981705Y-61505611D01*
X105309846Y-60817649D01*
X105754628Y-60198669D01*
X106301988Y-59668239D01*
X106934639Y-59243116D01*
X107632561Y-58936749D01*
X108379183Y-58757501D01*
X108794532Y-58727000D01*
X169158863Y-58727000D01*
X169759192Y-58780578D01*
X169759192Y-58780578D01*
G37*
X169759192Y-58780578D02*
X170494389Y-58981705D01*
X171182351Y-59309846D01*
X171801331Y-59754628D01*
X172331761Y-60301988D01*
X172756884Y-60934639D01*
X173063251Y-61632561D01*
X173242499Y-62379183D01*
X173290001Y-63026044D01*
X173290000Y-89968382D01*
X173219422Y-90759193D01*
X173018295Y-91494389D01*
X172690152Y-92182355D01*
X172245374Y-92801328D01*
X171698012Y-93331761D01*
X171065362Y-93756883D01*
X170367439Y-94063251D01*
X169620819Y-94242499D01*
X169137645Y-94277980D01*
X169072388Y-94265000D01*
X108927612Y-94265000D01*
X108873067Y-94275850D01*
X108240807Y-94219422D01*
X107505611Y-94018295D01*
X106817645Y-93690152D01*
X106198672Y-93245374D01*
X105668239Y-92698012D01*
X105243117Y-92065362D01*
X104936749Y-91367439D01*
X104757501Y-90620819D01*
X104710000Y-89973970D01*
X104710000Y-89555431D01*
X106765000Y-89555431D01*
X106765000Y-90444569D01*
X107105259Y-91266026D01*
X107733974Y-91894741D01*
X108555431Y-92235000D01*
X109444569Y-92235000D01*
X110266026Y-91894741D01*
X110760767Y-91400000D01*
X136230908Y-91400000D01*
X136346161Y-91979418D01*
X136674375Y-92470625D01*
X137165582Y-92798839D01*
X137598744Y-92885000D01*
X137891256Y-92885000D01*
X138324418Y-92798839D01*
X138815625Y-92470625D01*
X138830096Y-92448967D01*
X138896673Y-92609698D01*
X139075301Y-92788327D01*
X139308690Y-92885000D01*
X139999250Y-92885000D01*
X140158000Y-92726250D01*
X140158000Y-91527000D01*
X140412000Y-91527000D01*
X140412000Y-92726250D01*
X140570750Y-92885000D01*
X141261310Y-92885000D01*
X141494699Y-92788327D01*
X141673327Y-92609698D01*
X141770000Y-92376309D01*
X141770000Y-91685750D01*
X141611250Y-91527000D01*
X140412000Y-91527000D01*
X140158000Y-91527000D01*
X140138000Y-91527000D01*
X140138000Y-91273000D01*
X140158000Y-91273000D01*
X140158000Y-90073750D01*
X140412000Y-90073750D01*
X140412000Y-91273000D01*
X141611250Y-91273000D01*
X141770000Y-91114250D01*
X141770000Y-90423691D01*
X141673327Y-90190302D01*
X141494699Y-90011673D01*
X141261310Y-89915000D01*
X140570750Y-89915000D01*
X140412000Y-90073750D01*
X140158000Y-90073750D01*
X139999250Y-89915000D01*
X139308690Y-89915000D01*
X139075301Y-90011673D01*
X138896673Y-90190302D01*
X138830096Y-90351033D01*
X138815625Y-90329375D01*
X138324418Y-90001161D01*
X137891256Y-89915000D01*
X137598744Y-89915000D01*
X137165582Y-90001161D01*
X136674375Y-90329375D01*
X136346161Y-90820582D01*
X136230908Y-91400000D01*
X110760767Y-91400000D01*
X110894741Y-91266026D01*
X111235000Y-90444569D01*
X111235000Y-89555431D01*
X166765000Y-89555431D01*
X166765000Y-90444569D01*
X167105259Y-91266026D01*
X167733974Y-91894741D01*
X168555431Y-92235000D01*
X169444569Y-92235000D01*
X170266026Y-91894741D01*
X170894741Y-91266026D01*
X171235000Y-90444569D01*
X171235000Y-89555431D01*
X170894741Y-88733974D01*
X170266026Y-88105259D01*
X169444569Y-87765000D01*
X168555431Y-87765000D01*
X167733974Y-88105259D01*
X167105259Y-88733974D01*
X166765000Y-89555431D01*
X111235000Y-89555431D01*
X110894741Y-88733974D01*
X110266026Y-88105259D01*
X109444569Y-87765000D01*
X108555431Y-87765000D01*
X107733974Y-88105259D01*
X107105259Y-88733974D01*
X106765000Y-89555431D01*
X104710000Y-89555431D01*
X104710000Y-69475322D01*
X108865000Y-69475322D01*
X108865000Y-70324678D01*
X109190034Y-71109380D01*
X109790620Y-71709966D01*
X110115001Y-71844329D01*
X110115001Y-71934151D01*
X110115000Y-71934156D01*
X110115001Y-81155671D01*
X109790620Y-81290034D01*
X109190034Y-81890620D01*
X108865000Y-82675322D01*
X108865000Y-83524678D01*
X109190034Y-84309380D01*
X109790620Y-84909966D01*
X110575322Y-85235000D01*
X111424678Y-85235000D01*
X112209380Y-84909966D01*
X112809966Y-84309380D01*
X113135000Y-83524678D01*
X113135000Y-82675322D01*
X112809966Y-81890620D01*
X112209380Y-81290034D01*
X111885000Y-81155671D01*
X111885000Y-74444126D01*
X125965000Y-74444126D01*
X125965000Y-74855874D01*
X126115001Y-75218009D01*
X126115000Y-84812839D01*
X126097663Y-84900000D01*
X126115000Y-84987161D01*
X126115000Y-84987164D01*
X126166348Y-85245309D01*
X126361951Y-85538049D01*
X126435847Y-85587425D01*
X128212577Y-87364156D01*
X128261951Y-87438049D01*
X128335844Y-87487423D01*
X128335845Y-87487424D01*
X128554690Y-87633652D01*
X128812835Y-87685000D01*
X128812839Y-87685000D01*
X128900000Y-87702337D01*
X128987161Y-87685000D01*
X155212839Y-87685000D01*
X155300000Y-87702337D01*
X155387161Y-87685000D01*
X155387165Y-87685000D01*
X155645310Y-87633652D01*
X155938049Y-87438049D01*
X155987425Y-87364153D01*
X157966579Y-85385000D01*
X159333637Y-85385000D01*
X159695770Y-85535000D01*
X160107518Y-85535000D01*
X160469651Y-85385000D01*
X166912839Y-85385000D01*
X167000000Y-85402337D01*
X167087161Y-85385000D01*
X167087165Y-85385000D01*
X167345310Y-85333652D01*
X167638049Y-85138049D01*
X167687425Y-85064153D01*
X169781040Y-82970538D01*
X169853744Y-82985000D01*
X170146256Y-82985000D01*
X170579418Y-82898839D01*
X171070625Y-82570625D01*
X171398839Y-82079418D01*
X171514092Y-81500000D01*
X171398839Y-80920582D01*
X171070625Y-80429375D01*
X170579418Y-80101161D01*
X170146256Y-80015000D01*
X169853744Y-80015000D01*
X169420582Y-80101161D01*
X168929375Y-80429375D01*
X168740791Y-80711611D01*
X168718922Y-80658815D01*
X168301185Y-80241078D01*
X167755385Y-80015000D01*
X167164615Y-80015000D01*
X166618815Y-80241078D01*
X166201078Y-80658815D01*
X165975000Y-81204615D01*
X165975000Y-81795385D01*
X166201078Y-82341185D01*
X166274893Y-82415000D01*
X157929651Y-82415000D01*
X157567518Y-82265000D01*
X157155770Y-82265000D01*
X156775364Y-82422569D01*
X156484213Y-82713720D01*
X156334213Y-83075852D01*
X154495066Y-84915000D01*
X147765657Y-84915000D01*
X147769320Y-84911337D01*
X147982000Y-84397881D01*
X147982000Y-83842119D01*
X147769320Y-83328663D01*
X147376337Y-82935680D01*
X146862881Y-82723000D01*
X146307119Y-82723000D01*
X145793663Y-82935680D01*
X145494343Y-83235000D01*
X145135657Y-83235000D01*
X144946622Y-83045965D01*
X144947337Y-83042369D01*
X144930000Y-82955208D01*
X144930000Y-82955205D01*
X144878652Y-82697060D01*
X144822201Y-82612576D01*
X144732424Y-82478215D01*
X144732423Y-82478214D01*
X144683049Y-82404321D01*
X144609156Y-82354947D01*
X142497643Y-80243435D01*
X142536280Y-80227431D01*
X142827431Y-79936280D01*
X142977431Y-79574147D01*
X143691150Y-78860428D01*
X143722569Y-78936280D01*
X144013720Y-79227431D01*
X144394126Y-79385000D01*
X144805874Y-79385000D01*
X145186280Y-79227431D01*
X145477431Y-78936280D01*
X145627431Y-78574147D01*
X147372452Y-76829126D01*
X156865000Y-76829126D01*
X156865000Y-77240874D01*
X157022569Y-77621280D01*
X157313720Y-77912431D01*
X157694126Y-78070000D01*
X158105874Y-78070000D01*
X158468007Y-77920000D01*
X161168422Y-77920000D01*
X161172569Y-77924148D01*
X161322569Y-78286280D01*
X161613720Y-78577431D01*
X161994126Y-78735000D01*
X162405874Y-78735000D01*
X162786280Y-78577431D01*
X163077431Y-78286280D01*
X163235000Y-77905874D01*
X163235000Y-77494126D01*
X163077431Y-77113720D01*
X162786280Y-76822569D01*
X162424148Y-76672569D01*
X162222425Y-76470847D01*
X162173049Y-76396951D01*
X161880310Y-76201348D01*
X161622165Y-76150000D01*
X161622161Y-76150000D01*
X161535000Y-76132663D01*
X161447839Y-76150000D01*
X158468007Y-76150000D01*
X158105874Y-76000000D01*
X157694126Y-76000000D01*
X157313720Y-76157569D01*
X157022569Y-76448720D01*
X156865000Y-76829126D01*
X147372452Y-76829126D01*
X147814157Y-76387422D01*
X147888050Y-76338048D01*
X147943749Y-76254690D01*
X148038706Y-76112576D01*
X148083653Y-76045309D01*
X148135001Y-75787164D01*
X148135001Y-75787160D01*
X148152338Y-75700000D01*
X148135001Y-75612840D01*
X148135001Y-73594126D01*
X154265000Y-73594126D01*
X154265000Y-74005874D01*
X154422569Y-74386280D01*
X154713720Y-74677431D01*
X155094126Y-74835000D01*
X155505874Y-74835000D01*
X155886280Y-74677431D01*
X156177431Y-74386280D01*
X156335000Y-74005874D01*
X156335000Y-73594126D01*
X156293048Y-73492845D01*
X156900894Y-72885000D01*
X158521289Y-72885000D01*
X158257569Y-73148720D01*
X158100000Y-73529126D01*
X158100000Y-73940874D01*
X158257569Y-74321280D01*
X158548720Y-74612431D01*
X158929126Y-74770000D01*
X159340874Y-74770000D01*
X159703007Y-74620000D01*
X162368422Y-74620000D01*
X163515001Y-75766580D01*
X163515000Y-76712839D01*
X163497663Y-76800000D01*
X163515000Y-76887161D01*
X163515000Y-76887164D01*
X163566348Y-77145309D01*
X163761951Y-77438049D01*
X163835847Y-77487425D01*
X165212577Y-78864156D01*
X165261951Y-78938049D01*
X165335844Y-78987423D01*
X165335845Y-78987424D01*
X165361687Y-79004691D01*
X165554690Y-79133652D01*
X165812835Y-79185000D01*
X165812839Y-79185000D01*
X165899999Y-79202337D01*
X165987159Y-79185000D01*
X171112839Y-79185000D01*
X171200000Y-79202337D01*
X171287161Y-79185000D01*
X171287165Y-79185000D01*
X171545310Y-79133652D01*
X171838049Y-78938049D01*
X171887425Y-78864153D01*
X172864156Y-77887423D01*
X172938049Y-77838049D01*
X172987715Y-77763720D01*
X173133652Y-77545310D01*
X173159572Y-77415000D01*
X173185000Y-77287165D01*
X173185000Y-77287161D01*
X173202337Y-77200000D01*
X173185000Y-77112839D01*
X173185000Y-74487159D01*
X173202337Y-74399999D01*
X173185000Y-74312839D01*
X173185000Y-74312835D01*
X173133652Y-74054690D01*
X173021714Y-73887164D01*
X172987424Y-73835845D01*
X172987423Y-73835844D01*
X172938049Y-73761951D01*
X172864156Y-73712577D01*
X172087424Y-72935846D01*
X172038049Y-72861951D01*
X171745310Y-72666348D01*
X171548737Y-72627247D01*
X171547391Y-72626348D01*
X171289246Y-72575000D01*
X171289242Y-72575000D01*
X171202081Y-72557663D01*
X171185302Y-72561001D01*
X171070625Y-72389375D01*
X170772239Y-72190000D01*
X171070625Y-71990625D01*
X171398839Y-71499418D01*
X171514092Y-70920000D01*
X171398839Y-70340582D01*
X171070625Y-69849375D01*
X170579418Y-69521161D01*
X170146256Y-69435000D01*
X169853744Y-69435000D01*
X169420582Y-69521161D01*
X168929375Y-69849375D01*
X168728647Y-70149786D01*
X168341358Y-69724817D01*
X167816892Y-69478514D01*
X167587000Y-69599181D01*
X167587000Y-70793000D01*
X167607000Y-70793000D01*
X167607000Y-71047000D01*
X167587000Y-71047000D01*
X167587000Y-71067000D01*
X167333000Y-71067000D01*
X167333000Y-71047000D01*
X166139845Y-71047000D01*
X166102364Y-71118023D01*
X166087165Y-71115000D01*
X166087161Y-71115000D01*
X166000000Y-71097663D01*
X165912839Y-71115000D01*
X156621475Y-71115000D01*
X156534314Y-71097663D01*
X156447153Y-71115000D01*
X156447150Y-71115000D01*
X156189005Y-71166348D01*
X155970160Y-71312576D01*
X155970159Y-71312577D01*
X155896266Y-71361951D01*
X155846892Y-71435844D01*
X154735845Y-72546892D01*
X154661952Y-72596266D01*
X154612577Y-72670160D01*
X154612576Y-72670161D01*
X154592638Y-72700000D01*
X154466348Y-72889005D01*
X154415000Y-73147150D01*
X154415000Y-73147154D01*
X154397663Y-73234315D01*
X154402975Y-73261023D01*
X154265000Y-73594126D01*
X148135001Y-73594126D01*
X148135001Y-70709790D01*
X148152338Y-70622630D01*
X148140499Y-70563110D01*
X166018524Y-70563110D01*
X166139845Y-70793000D01*
X167333000Y-70793000D01*
X167333000Y-69599181D01*
X167103108Y-69478514D01*
X166578642Y-69724817D01*
X166188355Y-70153076D01*
X166018524Y-70563110D01*
X148140499Y-70563110D01*
X148135001Y-70535470D01*
X148135001Y-70535466D01*
X148083653Y-70277321D01*
X147888050Y-69984582D01*
X147814157Y-69935208D01*
X147659803Y-69780854D01*
X147769320Y-69671337D01*
X147982000Y-69157881D01*
X147982000Y-68602119D01*
X147769320Y-68088663D01*
X147376337Y-67695680D01*
X146862881Y-67483000D01*
X146307119Y-67483000D01*
X145793663Y-67695680D01*
X145400680Y-68088663D01*
X145315000Y-68295513D01*
X145229320Y-68088663D01*
X144836337Y-67695680D01*
X144322881Y-67483000D01*
X143767119Y-67483000D01*
X143253663Y-67695680D01*
X142860680Y-68088663D01*
X142775000Y-68295513D01*
X142689320Y-68088663D01*
X142296337Y-67695680D01*
X141782881Y-67483000D01*
X141227119Y-67483000D01*
X140713663Y-67695680D01*
X140320680Y-68088663D01*
X140235000Y-68295513D01*
X140149320Y-68088663D01*
X139756337Y-67695680D01*
X139242881Y-67483000D01*
X138687119Y-67483000D01*
X138173663Y-67695680D01*
X137780680Y-68088663D01*
X137695000Y-68295513D01*
X137609320Y-68088663D01*
X137216337Y-67695680D01*
X136702881Y-67483000D01*
X136147119Y-67483000D01*
X135633663Y-67695680D01*
X135240680Y-68088663D01*
X135155000Y-68295513D01*
X135069320Y-68088663D01*
X134676337Y-67695680D01*
X134162881Y-67483000D01*
X133607119Y-67483000D01*
X133093663Y-67695680D01*
X132700680Y-68088663D01*
X132615000Y-68295513D01*
X132529320Y-68088663D01*
X132136337Y-67695680D01*
X131622881Y-67483000D01*
X131067119Y-67483000D01*
X130553663Y-67695680D01*
X130160680Y-68088663D01*
X129948000Y-68602119D01*
X129948000Y-69157881D01*
X130160680Y-69671337D01*
X130553663Y-70064320D01*
X131067119Y-70277000D01*
X131218586Y-70277000D01*
X131221999Y-70294160D01*
X131221999Y-70294164D01*
X131273347Y-70552309D01*
X131338659Y-70650054D01*
X131418598Y-70769690D01*
X131468951Y-70845048D01*
X131542844Y-70894422D01*
X132024927Y-71376505D01*
X131913720Y-71422569D01*
X131622569Y-71713720D01*
X131465000Y-72094126D01*
X131465000Y-72505874D01*
X131615000Y-72868007D01*
X131615001Y-75131991D01*
X131465000Y-75494126D01*
X131465000Y-75905874D01*
X131622569Y-76286280D01*
X131913720Y-76577431D01*
X132294126Y-76735000D01*
X132705874Y-76735000D01*
X133086280Y-76577431D01*
X133377431Y-76286280D01*
X133535000Y-75905874D01*
X133535000Y-75494126D01*
X133385000Y-75131993D01*
X133385000Y-72868007D01*
X133423494Y-72775073D01*
X136272570Y-75624149D01*
X136422569Y-75986280D01*
X136713720Y-76277431D01*
X137094126Y-76435000D01*
X137505874Y-76435000D01*
X137815000Y-76306956D01*
X137815000Y-78938421D01*
X137185000Y-79568421D01*
X137185000Y-79544126D01*
X137027431Y-79163720D01*
X136736280Y-78872569D01*
X136355874Y-78715000D01*
X135944126Y-78715000D01*
X135563720Y-78872569D01*
X135557249Y-78879040D01*
X135369690Y-78916348D01*
X135304823Y-78959691D01*
X135150845Y-79062576D01*
X135150844Y-79062577D01*
X135076951Y-79111951D01*
X135027577Y-79185844D01*
X131490422Y-82723000D01*
X131067119Y-82723000D01*
X130553663Y-82935680D01*
X130160680Y-83328663D01*
X129948000Y-83842119D01*
X129948000Y-84397881D01*
X130160680Y-84911337D01*
X130164343Y-84915000D01*
X129866579Y-84915000D01*
X129085000Y-84133422D01*
X129085000Y-74168007D01*
X129235000Y-73805874D01*
X129235000Y-73394126D01*
X129077431Y-73013720D01*
X128786280Y-72722569D01*
X128405874Y-72565000D01*
X127994126Y-72565000D01*
X127613720Y-72722569D01*
X127322569Y-73013720D01*
X127165000Y-73394126D01*
X127165000Y-73615000D01*
X126794126Y-73615000D01*
X126413720Y-73772569D01*
X126122569Y-74063720D01*
X125965000Y-74444126D01*
X111885000Y-74444126D01*
X111885000Y-71844329D01*
X112209380Y-71709966D01*
X112809966Y-71109380D01*
X113135000Y-70324678D01*
X113135000Y-69475322D01*
X112809966Y-68690620D01*
X112209380Y-68090034D01*
X111424678Y-67765000D01*
X110575322Y-67765000D01*
X109790620Y-68090034D01*
X109190034Y-68690620D01*
X108865000Y-69475322D01*
X104710000Y-69475322D01*
X104710000Y-63031618D01*
X104752498Y-62555431D01*
X106765000Y-62555431D01*
X106765000Y-63444569D01*
X107105259Y-64266026D01*
X107733974Y-64894741D01*
X108555431Y-65235000D01*
X109444569Y-65235000D01*
X110266026Y-64894741D01*
X110894741Y-64266026D01*
X111235000Y-63444569D01*
X111235000Y-62555431D01*
X110894741Y-61733974D01*
X110310767Y-61150000D01*
X133415908Y-61150000D01*
X133531161Y-61729418D01*
X133859375Y-62220625D01*
X134350582Y-62548839D01*
X134783744Y-62635000D01*
X135076256Y-62635000D01*
X135509418Y-62548839D01*
X136000625Y-62220625D01*
X136200000Y-61922239D01*
X136399375Y-62220625D01*
X136890582Y-62548839D01*
X137323744Y-62635000D01*
X137616256Y-62635000D01*
X138049418Y-62548839D01*
X138540625Y-62220625D01*
X138740000Y-61922239D01*
X138939375Y-62220625D01*
X139430582Y-62548839D01*
X139863744Y-62635000D01*
X140156256Y-62635000D01*
X140589418Y-62548839D01*
X141080625Y-62220625D01*
X141095096Y-62198967D01*
X141161673Y-62359698D01*
X141340301Y-62538327D01*
X141573690Y-62635000D01*
X142264250Y-62635000D01*
X142423000Y-62476250D01*
X142423000Y-61277000D01*
X142677000Y-61277000D01*
X142677000Y-62476250D01*
X142835750Y-62635000D01*
X143526310Y-62635000D01*
X143718406Y-62555431D01*
X166765000Y-62555431D01*
X166765000Y-63444569D01*
X167105259Y-64266026D01*
X167733974Y-64894741D01*
X168555431Y-65235000D01*
X169444569Y-65235000D01*
X170266026Y-64894741D01*
X170894741Y-64266026D01*
X171235000Y-63444569D01*
X171235000Y-62555431D01*
X170894741Y-61733974D01*
X170266026Y-61105259D01*
X169444569Y-60765000D01*
X168555431Y-60765000D01*
X167733974Y-61105259D01*
X167105259Y-61733974D01*
X166765000Y-62555431D01*
X143718406Y-62555431D01*
X143759699Y-62538327D01*
X143938327Y-62359698D01*
X144035000Y-62126309D01*
X144035000Y-61435750D01*
X143876250Y-61277000D01*
X142677000Y-61277000D01*
X142423000Y-61277000D01*
X142403000Y-61277000D01*
X142403000Y-61023000D01*
X142423000Y-61023000D01*
X142423000Y-59823750D01*
X142677000Y-59823750D01*
X142677000Y-61023000D01*
X143876250Y-61023000D01*
X144035000Y-60864250D01*
X144035000Y-60173691D01*
X143938327Y-59940302D01*
X143759699Y-59761673D01*
X143526310Y-59665000D01*
X142835750Y-59665000D01*
X142677000Y-59823750D01*
X142423000Y-59823750D01*
X142264250Y-59665000D01*
X141573690Y-59665000D01*
X141340301Y-59761673D01*
X141161673Y-59940302D01*
X141095096Y-60101033D01*
X141080625Y-60079375D01*
X140589418Y-59751161D01*
X140156256Y-59665000D01*
X139863744Y-59665000D01*
X139430582Y-59751161D01*
X138939375Y-60079375D01*
X138740000Y-60377761D01*
X138540625Y-60079375D01*
X138049418Y-59751161D01*
X137616256Y-59665000D01*
X137323744Y-59665000D01*
X136890582Y-59751161D01*
X136399375Y-60079375D01*
X136200000Y-60377761D01*
X136000625Y-60079375D01*
X135509418Y-59751161D01*
X135076256Y-59665000D01*
X134783744Y-59665000D01*
X134350582Y-59751161D01*
X133859375Y-60079375D01*
X133531161Y-60570582D01*
X133415908Y-61150000D01*
X110310767Y-61150000D01*
X110266026Y-61105259D01*
X109444569Y-60765000D01*
X108555431Y-60765000D01*
X107733974Y-61105259D01*
X107105259Y-61733974D01*
X106765000Y-62555431D01*
X104752498Y-62555431D01*
X104780578Y-62240808D01*
X104981705Y-61505611D01*
X105309846Y-60817649D01*
X105754628Y-60198669D01*
X106301988Y-59668239D01*
X106934639Y-59243116D01*
X107632561Y-58936749D01*
X108379183Y-58757501D01*
X108794532Y-58727000D01*
X169158863Y-58727000D01*
X169759192Y-58780578D01*
G04 #@! TD*
M02*
