G04 #@! TF.GenerationSoftware,KiCad,Pcbnew,(5.0.2)-1*
G04 #@! TF.CreationDate,2020-01-03T22:31:12+01:00*
G04 #@! TF.ProjectId,clock,636c6f63-6b2e-46b6-9963-61645f706362,rev?*
G04 #@! TF.SameCoordinates,Original*
G04 #@! TF.FileFunction,Soldermask,Bot*
G04 #@! TF.FilePolarity,Negative*
%FSLAX46Y46*%
G04 Gerber Fmt 4.6, Leading zero omitted, Abs format (unit mm)*
G04 Created by KiCad (PCBNEW (5.0.2)-1) date 03/01/2020 22:31:12*
%MOMM*%
%LPD*%
G01*
G04 APERTURE LIST*
%ADD10C,0.100000*%
G04 APERTURE END LIST*
D10*
G36*
X141186000Y-92301000D02*
X139384000Y-92301000D01*
X139384000Y-90499000D01*
X141186000Y-90499000D01*
X141186000Y-92301000D01*
X141186000Y-92301000D01*
G37*
G36*
X137855442Y-90505518D02*
X137921627Y-90512037D01*
X138034853Y-90546384D01*
X138091467Y-90563557D01*
X138230087Y-90637652D01*
X138247991Y-90647222D01*
X138283729Y-90676552D01*
X138385186Y-90759814D01*
X138468448Y-90861271D01*
X138497778Y-90897009D01*
X138497779Y-90897011D01*
X138581443Y-91053533D01*
X138581443Y-91053534D01*
X138632963Y-91223373D01*
X138650359Y-91400000D01*
X138632963Y-91576627D01*
X138610402Y-91651000D01*
X138581443Y-91746467D01*
X138507348Y-91885087D01*
X138497778Y-91902991D01*
X138468448Y-91938729D01*
X138385186Y-92040186D01*
X138283729Y-92123448D01*
X138247991Y-92152778D01*
X138247989Y-92152779D01*
X138091467Y-92236443D01*
X138034853Y-92253616D01*
X137921627Y-92287963D01*
X137855442Y-92294482D01*
X137789260Y-92301000D01*
X137700740Y-92301000D01*
X137634558Y-92294482D01*
X137568373Y-92287963D01*
X137455147Y-92253616D01*
X137398533Y-92236443D01*
X137242011Y-92152779D01*
X137242009Y-92152778D01*
X137206271Y-92123448D01*
X137104814Y-92040186D01*
X137021552Y-91938729D01*
X136992222Y-91902991D01*
X136982652Y-91885087D01*
X136908557Y-91746467D01*
X136879598Y-91651000D01*
X136857037Y-91576627D01*
X136839641Y-91400000D01*
X136857037Y-91223373D01*
X136908557Y-91053534D01*
X136908557Y-91053533D01*
X136992221Y-90897011D01*
X136992222Y-90897009D01*
X137021552Y-90861271D01*
X137104814Y-90759814D01*
X137206271Y-90676552D01*
X137242009Y-90647222D01*
X137259913Y-90637652D01*
X137398533Y-90563557D01*
X137455147Y-90546384D01*
X137568373Y-90512037D01*
X137634558Y-90505518D01*
X137700740Y-90499000D01*
X137789260Y-90499000D01*
X137855442Y-90505518D01*
X137855442Y-90505518D01*
G37*
G36*
X169375256Y-88391298D02*
X169481579Y-88412447D01*
X169782042Y-88536903D01*
X170048852Y-88715180D01*
X170052454Y-88717587D01*
X170282413Y-88947546D01*
X170282415Y-88947549D01*
X170463097Y-89217958D01*
X170587553Y-89518421D01*
X170651000Y-89837391D01*
X170651000Y-90162609D01*
X170587553Y-90481579D01*
X170518942Y-90647221D01*
X170463098Y-90782040D01*
X170282413Y-91052454D01*
X170052454Y-91282413D01*
X170052451Y-91282415D01*
X169782042Y-91463097D01*
X169481579Y-91587553D01*
X169375256Y-91608702D01*
X169162611Y-91651000D01*
X168837389Y-91651000D01*
X168624744Y-91608702D01*
X168518421Y-91587553D01*
X168217958Y-91463097D01*
X167947549Y-91282415D01*
X167947546Y-91282413D01*
X167717587Y-91052454D01*
X167536902Y-90782040D01*
X167481058Y-90647221D01*
X167412447Y-90481579D01*
X167349000Y-90162609D01*
X167349000Y-89837391D01*
X167412447Y-89518421D01*
X167536903Y-89217958D01*
X167717585Y-88947549D01*
X167717587Y-88947546D01*
X167947546Y-88717587D01*
X167951148Y-88715180D01*
X168217958Y-88536903D01*
X168518421Y-88412447D01*
X168624744Y-88391298D01*
X168837389Y-88349000D01*
X169162611Y-88349000D01*
X169375256Y-88391298D01*
X169375256Y-88391298D01*
G37*
G36*
X109375256Y-88391298D02*
X109481579Y-88412447D01*
X109782042Y-88536903D01*
X110048852Y-88715180D01*
X110052454Y-88717587D01*
X110282413Y-88947546D01*
X110282415Y-88947549D01*
X110463097Y-89217958D01*
X110587553Y-89518421D01*
X110651000Y-89837391D01*
X110651000Y-90162609D01*
X110587553Y-90481579D01*
X110518942Y-90647221D01*
X110463098Y-90782040D01*
X110282413Y-91052454D01*
X110052454Y-91282413D01*
X110052451Y-91282415D01*
X109782042Y-91463097D01*
X109481579Y-91587553D01*
X109375256Y-91608702D01*
X109162611Y-91651000D01*
X108837389Y-91651000D01*
X108624744Y-91608702D01*
X108518421Y-91587553D01*
X108217958Y-91463097D01*
X107947549Y-91282415D01*
X107947546Y-91282413D01*
X107717587Y-91052454D01*
X107536902Y-90782040D01*
X107481058Y-90647221D01*
X107412447Y-90481579D01*
X107349000Y-90162609D01*
X107349000Y-89837391D01*
X107412447Y-89518421D01*
X107536903Y-89217958D01*
X107717585Y-88947549D01*
X107717587Y-88947546D01*
X107947546Y-88717587D01*
X107951148Y-88715180D01*
X108217958Y-88536903D01*
X108518421Y-88412447D01*
X108624744Y-88391298D01*
X108837389Y-88349000D01*
X109162611Y-88349000D01*
X109375256Y-88391298D01*
X109375256Y-88391298D01*
G37*
G36*
X144282142Y-83338242D02*
X144430102Y-83399530D01*
X144563258Y-83488502D01*
X144676498Y-83601742D01*
X144765470Y-83734898D01*
X144826758Y-83882858D01*
X144858000Y-84039925D01*
X144858000Y-84200075D01*
X144826758Y-84357142D01*
X144765470Y-84505102D01*
X144676498Y-84638258D01*
X144563258Y-84751498D01*
X144430102Y-84840470D01*
X144282142Y-84901758D01*
X144125075Y-84933000D01*
X143964925Y-84933000D01*
X143807858Y-84901758D01*
X143659898Y-84840470D01*
X143526742Y-84751498D01*
X143413502Y-84638258D01*
X143324530Y-84505102D01*
X143263242Y-84357142D01*
X143232000Y-84200075D01*
X143232000Y-84039925D01*
X143263242Y-83882858D01*
X143324530Y-83734898D01*
X143413502Y-83601742D01*
X143526742Y-83488502D01*
X143659898Y-83399530D01*
X143807858Y-83338242D01*
X143964925Y-83307000D01*
X144125075Y-83307000D01*
X144282142Y-83338242D01*
X144282142Y-83338242D01*
G37*
G36*
X131582142Y-83338242D02*
X131730102Y-83399530D01*
X131863258Y-83488502D01*
X131976498Y-83601742D01*
X132065470Y-83734898D01*
X132126758Y-83882858D01*
X132158000Y-84039925D01*
X132158000Y-84200075D01*
X132126758Y-84357142D01*
X132065470Y-84505102D01*
X131976498Y-84638258D01*
X131863258Y-84751498D01*
X131730102Y-84840470D01*
X131582142Y-84901758D01*
X131425075Y-84933000D01*
X131264925Y-84933000D01*
X131107858Y-84901758D01*
X130959898Y-84840470D01*
X130826742Y-84751498D01*
X130713502Y-84638258D01*
X130624530Y-84505102D01*
X130563242Y-84357142D01*
X130532000Y-84200075D01*
X130532000Y-84039925D01*
X130563242Y-83882858D01*
X130624530Y-83734898D01*
X130713502Y-83601742D01*
X130826742Y-83488502D01*
X130959898Y-83399530D01*
X131107858Y-83338242D01*
X131264925Y-83307000D01*
X131425075Y-83307000D01*
X131582142Y-83338242D01*
X131582142Y-83338242D01*
G37*
G36*
X134122142Y-83338242D02*
X134270102Y-83399530D01*
X134403258Y-83488502D01*
X134516498Y-83601742D01*
X134605470Y-83734898D01*
X134666758Y-83882858D01*
X134698000Y-84039925D01*
X134698000Y-84200075D01*
X134666758Y-84357142D01*
X134605470Y-84505102D01*
X134516498Y-84638258D01*
X134403258Y-84751498D01*
X134270102Y-84840470D01*
X134122142Y-84901758D01*
X133965075Y-84933000D01*
X133804925Y-84933000D01*
X133647858Y-84901758D01*
X133499898Y-84840470D01*
X133366742Y-84751498D01*
X133253502Y-84638258D01*
X133164530Y-84505102D01*
X133103242Y-84357142D01*
X133072000Y-84200075D01*
X133072000Y-84039925D01*
X133103242Y-83882858D01*
X133164530Y-83734898D01*
X133253502Y-83601742D01*
X133366742Y-83488502D01*
X133499898Y-83399530D01*
X133647858Y-83338242D01*
X133804925Y-83307000D01*
X133965075Y-83307000D01*
X134122142Y-83338242D01*
X134122142Y-83338242D01*
G37*
G36*
X136662142Y-83338242D02*
X136810102Y-83399530D01*
X136943258Y-83488502D01*
X137056498Y-83601742D01*
X137145470Y-83734898D01*
X137206758Y-83882858D01*
X137238000Y-84039925D01*
X137238000Y-84200075D01*
X137206758Y-84357142D01*
X137145470Y-84505102D01*
X137056498Y-84638258D01*
X136943258Y-84751498D01*
X136810102Y-84840470D01*
X136662142Y-84901758D01*
X136505075Y-84933000D01*
X136344925Y-84933000D01*
X136187858Y-84901758D01*
X136039898Y-84840470D01*
X135906742Y-84751498D01*
X135793502Y-84638258D01*
X135704530Y-84505102D01*
X135643242Y-84357142D01*
X135612000Y-84200075D01*
X135612000Y-84039925D01*
X135643242Y-83882858D01*
X135704530Y-83734898D01*
X135793502Y-83601742D01*
X135906742Y-83488502D01*
X136039898Y-83399530D01*
X136187858Y-83338242D01*
X136344925Y-83307000D01*
X136505075Y-83307000D01*
X136662142Y-83338242D01*
X136662142Y-83338242D01*
G37*
G36*
X139202142Y-83338242D02*
X139350102Y-83399530D01*
X139483258Y-83488502D01*
X139596498Y-83601742D01*
X139685470Y-83734898D01*
X139746758Y-83882858D01*
X139778000Y-84039925D01*
X139778000Y-84200075D01*
X139746758Y-84357142D01*
X139685470Y-84505102D01*
X139596498Y-84638258D01*
X139483258Y-84751498D01*
X139350102Y-84840470D01*
X139202142Y-84901758D01*
X139045075Y-84933000D01*
X138884925Y-84933000D01*
X138727858Y-84901758D01*
X138579898Y-84840470D01*
X138446742Y-84751498D01*
X138333502Y-84638258D01*
X138244530Y-84505102D01*
X138183242Y-84357142D01*
X138152000Y-84200075D01*
X138152000Y-84039925D01*
X138183242Y-83882858D01*
X138244530Y-83734898D01*
X138333502Y-83601742D01*
X138446742Y-83488502D01*
X138579898Y-83399530D01*
X138727858Y-83338242D01*
X138884925Y-83307000D01*
X139045075Y-83307000D01*
X139202142Y-83338242D01*
X139202142Y-83338242D01*
G37*
G36*
X141742142Y-83338242D02*
X141890102Y-83399530D01*
X142023258Y-83488502D01*
X142136498Y-83601742D01*
X142225470Y-83734898D01*
X142286758Y-83882858D01*
X142318000Y-84039925D01*
X142318000Y-84200075D01*
X142286758Y-84357142D01*
X142225470Y-84505102D01*
X142136498Y-84638258D01*
X142023258Y-84751498D01*
X141890102Y-84840470D01*
X141742142Y-84901758D01*
X141585075Y-84933000D01*
X141424925Y-84933000D01*
X141267858Y-84901758D01*
X141119898Y-84840470D01*
X140986742Y-84751498D01*
X140873502Y-84638258D01*
X140784530Y-84505102D01*
X140723242Y-84357142D01*
X140692000Y-84200075D01*
X140692000Y-84039925D01*
X140723242Y-83882858D01*
X140784530Y-83734898D01*
X140873502Y-83601742D01*
X140986742Y-83488502D01*
X141119898Y-83399530D01*
X141267858Y-83338242D01*
X141424925Y-83307000D01*
X141585075Y-83307000D01*
X141742142Y-83338242D01*
X141742142Y-83338242D01*
G37*
G36*
X146822142Y-83338242D02*
X146970102Y-83399530D01*
X147103258Y-83488502D01*
X147216498Y-83601742D01*
X147305470Y-83734898D01*
X147366758Y-83882858D01*
X147398000Y-84039925D01*
X147398000Y-84200075D01*
X147366758Y-84357142D01*
X147305470Y-84505102D01*
X147216498Y-84638258D01*
X147103258Y-84751498D01*
X146970102Y-84840470D01*
X146822142Y-84901758D01*
X146665075Y-84933000D01*
X146504925Y-84933000D01*
X146347858Y-84901758D01*
X146199898Y-84840470D01*
X146066742Y-84751498D01*
X145953502Y-84638258D01*
X145864530Y-84505102D01*
X145803242Y-84357142D01*
X145772000Y-84200075D01*
X145772000Y-84039925D01*
X145803242Y-83882858D01*
X145864530Y-83734898D01*
X145953502Y-83601742D01*
X146066742Y-83488502D01*
X146199898Y-83399530D01*
X146347858Y-83338242D01*
X146504925Y-83307000D01*
X146665075Y-83307000D01*
X146822142Y-83338242D01*
X146822142Y-83338242D01*
G37*
G36*
X111352527Y-81588736D02*
X111452410Y-81608604D01*
X111734674Y-81725521D01*
X111988705Y-81895259D01*
X112204741Y-82111295D01*
X112374479Y-82365326D01*
X112491396Y-82647590D01*
X112491396Y-82647591D01*
X112551000Y-82947238D01*
X112551000Y-83252762D01*
X112521806Y-83399529D01*
X112491396Y-83552410D01*
X112374479Y-83834674D01*
X112204741Y-84088705D01*
X111988705Y-84304741D01*
X111734674Y-84474479D01*
X111452410Y-84591396D01*
X111352527Y-84611264D01*
X111152762Y-84651000D01*
X110847238Y-84651000D01*
X110647473Y-84611264D01*
X110547590Y-84591396D01*
X110265326Y-84474479D01*
X110011295Y-84304741D01*
X109795259Y-84088705D01*
X109625521Y-83834674D01*
X109508604Y-83552410D01*
X109478194Y-83399529D01*
X109449000Y-83252762D01*
X109449000Y-82947238D01*
X109508604Y-82647591D01*
X109508604Y-82647590D01*
X109625521Y-82365326D01*
X109795259Y-82111295D01*
X110011295Y-81895259D01*
X110265326Y-81725521D01*
X110547590Y-81608604D01*
X110647473Y-81588736D01*
X110847238Y-81549000D01*
X111152762Y-81549000D01*
X111352527Y-81588736D01*
X111352527Y-81588736D01*
G37*
G36*
X170110443Y-80605519D02*
X170176627Y-80612037D01*
X170289853Y-80646384D01*
X170346467Y-80663557D01*
X170485087Y-80737652D01*
X170502991Y-80747222D01*
X170538729Y-80776552D01*
X170640186Y-80859814D01*
X170723448Y-80961271D01*
X170752778Y-80997009D01*
X170752779Y-80997011D01*
X170836443Y-81153533D01*
X170836443Y-81153534D01*
X170887963Y-81323373D01*
X170905359Y-81500000D01*
X170887963Y-81676627D01*
X170873131Y-81725521D01*
X170836443Y-81846467D01*
X170810361Y-81895262D01*
X170752778Y-82002991D01*
X170723448Y-82038729D01*
X170640186Y-82140186D01*
X170567480Y-82199853D01*
X170502991Y-82252778D01*
X170502989Y-82252779D01*
X170346467Y-82336443D01*
X170289853Y-82353616D01*
X170176627Y-82387963D01*
X170110442Y-82394482D01*
X170044260Y-82401000D01*
X169955740Y-82401000D01*
X169889558Y-82394482D01*
X169823373Y-82387963D01*
X169710147Y-82353616D01*
X169653533Y-82336443D01*
X169497011Y-82252779D01*
X169497009Y-82252778D01*
X169432520Y-82199853D01*
X169359814Y-82140186D01*
X169276552Y-82038729D01*
X169247222Y-82002991D01*
X169189639Y-81895262D01*
X169163557Y-81846467D01*
X169126869Y-81725521D01*
X169112037Y-81676627D01*
X169094641Y-81500000D01*
X169112037Y-81323373D01*
X169163557Y-81153534D01*
X169163557Y-81153533D01*
X169247221Y-80997011D01*
X169247222Y-80997009D01*
X169276552Y-80961271D01*
X169359814Y-80859814D01*
X169461271Y-80776552D01*
X169497009Y-80747222D01*
X169514913Y-80737652D01*
X169653533Y-80663557D01*
X169710147Y-80646384D01*
X169823373Y-80612037D01*
X169889557Y-80605519D01*
X169955740Y-80599000D01*
X170044260Y-80599000D01*
X170110443Y-80605519D01*
X170110443Y-80605519D01*
G37*
G36*
X167722812Y-80633624D02*
X167886784Y-80701544D01*
X168034354Y-80800147D01*
X168159853Y-80925646D01*
X168258456Y-81073216D01*
X168326376Y-81237188D01*
X168361000Y-81411259D01*
X168361000Y-81588741D01*
X168326376Y-81762812D01*
X168258456Y-81926784D01*
X168159853Y-82074354D01*
X168034354Y-82199853D01*
X167886784Y-82298456D01*
X167722812Y-82366376D01*
X167548741Y-82401000D01*
X167371259Y-82401000D01*
X167197188Y-82366376D01*
X167033216Y-82298456D01*
X166885646Y-82199853D01*
X166760147Y-82074354D01*
X166661544Y-81926784D01*
X166593624Y-81762812D01*
X166559000Y-81588741D01*
X166559000Y-81411259D01*
X166593624Y-81237188D01*
X166661544Y-81073216D01*
X166760147Y-80925646D01*
X166885646Y-80800147D01*
X167033216Y-80701544D01*
X167197188Y-80633624D01*
X167371259Y-80599000D01*
X167548741Y-80599000D01*
X167722812Y-80633624D01*
X167722812Y-80633624D01*
G37*
G36*
X167570442Y-75105518D02*
X167636627Y-75112037D01*
X167749853Y-75146384D01*
X167806467Y-75163557D01*
X167945087Y-75237652D01*
X167962991Y-75247222D01*
X167998729Y-75276552D01*
X168100186Y-75359814D01*
X168183448Y-75461271D01*
X168212778Y-75497009D01*
X168212779Y-75497011D01*
X168296443Y-75653533D01*
X168296443Y-75653534D01*
X168347963Y-75823373D01*
X168365359Y-76000000D01*
X168347963Y-76176627D01*
X168313616Y-76289853D01*
X168296443Y-76346467D01*
X168222348Y-76485087D01*
X168212778Y-76502991D01*
X168183448Y-76538729D01*
X168100186Y-76640186D01*
X167998729Y-76723448D01*
X167962991Y-76752778D01*
X167962989Y-76752779D01*
X167806467Y-76836443D01*
X167749853Y-76853616D01*
X167636627Y-76887963D01*
X167570442Y-76894482D01*
X167504260Y-76901000D01*
X167415740Y-76901000D01*
X167349558Y-76894482D01*
X167283373Y-76887963D01*
X167170147Y-76853616D01*
X167113533Y-76836443D01*
X166957011Y-76752779D01*
X166957009Y-76752778D01*
X166921271Y-76723448D01*
X166819814Y-76640186D01*
X166736552Y-76538729D01*
X166707222Y-76502991D01*
X166697652Y-76485087D01*
X166623557Y-76346467D01*
X166606384Y-76289853D01*
X166572037Y-76176627D01*
X166554641Y-76000000D01*
X166572037Y-75823373D01*
X166623557Y-75653534D01*
X166623557Y-75653533D01*
X166707221Y-75497011D01*
X166707222Y-75497009D01*
X166736552Y-75461271D01*
X166819814Y-75359814D01*
X166921271Y-75276552D01*
X166957009Y-75247222D01*
X166974913Y-75237652D01*
X167113533Y-75163557D01*
X167170147Y-75146384D01*
X167283373Y-75112037D01*
X167349558Y-75105518D01*
X167415740Y-75099000D01*
X167504260Y-75099000D01*
X167570442Y-75105518D01*
X167570442Y-75105518D01*
G37*
G36*
X170901000Y-76901000D02*
X169099000Y-76901000D01*
X169099000Y-75099000D01*
X170901000Y-75099000D01*
X170901000Y-76901000D01*
X170901000Y-76901000D01*
G37*
G36*
X167570443Y-72565519D02*
X167636627Y-72572037D01*
X167749853Y-72606384D01*
X167806467Y-72623557D01*
X167945087Y-72697652D01*
X167962991Y-72707222D01*
X167998729Y-72736552D01*
X168100186Y-72819814D01*
X168183448Y-72921271D01*
X168212778Y-72957009D01*
X168212779Y-72957011D01*
X168296443Y-73113533D01*
X168296443Y-73113534D01*
X168347963Y-73283373D01*
X168365359Y-73460000D01*
X168347963Y-73636627D01*
X168313616Y-73749853D01*
X168296443Y-73806467D01*
X168222348Y-73945087D01*
X168212778Y-73962991D01*
X168183448Y-73998729D01*
X168100186Y-74100186D01*
X167998729Y-74183448D01*
X167962991Y-74212778D01*
X167962989Y-74212779D01*
X167806467Y-74296443D01*
X167749853Y-74313616D01*
X167636627Y-74347963D01*
X167570442Y-74354482D01*
X167504260Y-74361000D01*
X167415740Y-74361000D01*
X167349558Y-74354482D01*
X167283373Y-74347963D01*
X167170147Y-74313616D01*
X167113533Y-74296443D01*
X166957011Y-74212779D01*
X166957009Y-74212778D01*
X166921271Y-74183448D01*
X166819814Y-74100186D01*
X166736552Y-73998729D01*
X166707222Y-73962991D01*
X166697652Y-73945087D01*
X166623557Y-73806467D01*
X166606384Y-73749853D01*
X166572037Y-73636627D01*
X166554641Y-73460000D01*
X166572037Y-73283373D01*
X166623557Y-73113534D01*
X166623557Y-73113533D01*
X166707221Y-72957011D01*
X166707222Y-72957009D01*
X166736552Y-72921271D01*
X166819814Y-72819814D01*
X166921271Y-72736552D01*
X166957009Y-72707222D01*
X166974913Y-72697652D01*
X167113533Y-72623557D01*
X167170147Y-72606384D01*
X167283373Y-72572037D01*
X167349557Y-72565519D01*
X167415740Y-72559000D01*
X167504260Y-72559000D01*
X167570443Y-72565519D01*
X167570443Y-72565519D01*
G37*
G36*
X170110443Y-72565519D02*
X170176627Y-72572037D01*
X170289853Y-72606384D01*
X170346467Y-72623557D01*
X170485087Y-72697652D01*
X170502991Y-72707222D01*
X170538729Y-72736552D01*
X170640186Y-72819814D01*
X170723448Y-72921271D01*
X170752778Y-72957009D01*
X170752779Y-72957011D01*
X170836443Y-73113533D01*
X170836443Y-73113534D01*
X170887963Y-73283373D01*
X170905359Y-73460000D01*
X170887963Y-73636627D01*
X170853616Y-73749853D01*
X170836443Y-73806467D01*
X170762348Y-73945087D01*
X170752778Y-73962991D01*
X170723448Y-73998729D01*
X170640186Y-74100186D01*
X170538729Y-74183448D01*
X170502991Y-74212778D01*
X170502989Y-74212779D01*
X170346467Y-74296443D01*
X170289853Y-74313616D01*
X170176627Y-74347963D01*
X170110442Y-74354482D01*
X170044260Y-74361000D01*
X169955740Y-74361000D01*
X169889558Y-74354482D01*
X169823373Y-74347963D01*
X169710147Y-74313616D01*
X169653533Y-74296443D01*
X169497011Y-74212779D01*
X169497009Y-74212778D01*
X169461271Y-74183448D01*
X169359814Y-74100186D01*
X169276552Y-73998729D01*
X169247222Y-73962991D01*
X169237652Y-73945087D01*
X169163557Y-73806467D01*
X169146384Y-73749853D01*
X169112037Y-73636627D01*
X169094641Y-73460000D01*
X169112037Y-73283373D01*
X169163557Y-73113534D01*
X169163557Y-73113533D01*
X169247221Y-72957011D01*
X169247222Y-72957009D01*
X169276552Y-72921271D01*
X169359814Y-72819814D01*
X169461271Y-72736552D01*
X169497009Y-72707222D01*
X169514913Y-72697652D01*
X169653533Y-72623557D01*
X169710147Y-72606384D01*
X169823373Y-72572037D01*
X169889557Y-72565519D01*
X169955740Y-72559000D01*
X170044260Y-72559000D01*
X170110443Y-72565519D01*
X170110443Y-72565519D01*
G37*
G36*
X167570442Y-70025518D02*
X167636627Y-70032037D01*
X167704948Y-70052762D01*
X167806467Y-70083557D01*
X167945087Y-70157652D01*
X167962991Y-70167222D01*
X167998729Y-70196552D01*
X168100186Y-70279814D01*
X168159762Y-70352409D01*
X168212778Y-70417009D01*
X168212779Y-70417011D01*
X168296443Y-70573533D01*
X168296443Y-70573534D01*
X168347963Y-70743373D01*
X168365359Y-70920000D01*
X168347963Y-71096627D01*
X168313616Y-71209853D01*
X168296443Y-71266467D01*
X168292160Y-71274479D01*
X168212778Y-71422991D01*
X168189791Y-71451000D01*
X168100186Y-71560186D01*
X167998729Y-71643448D01*
X167962991Y-71672778D01*
X167962989Y-71672779D01*
X167806467Y-71756443D01*
X167749853Y-71773616D01*
X167636627Y-71807963D01*
X167570443Y-71814481D01*
X167504260Y-71821000D01*
X167415740Y-71821000D01*
X167349557Y-71814481D01*
X167283373Y-71807963D01*
X167170147Y-71773616D01*
X167113533Y-71756443D01*
X166957011Y-71672779D01*
X166957009Y-71672778D01*
X166921271Y-71643448D01*
X166819814Y-71560186D01*
X166730209Y-71451000D01*
X166707222Y-71422991D01*
X166627840Y-71274479D01*
X166623557Y-71266467D01*
X166606384Y-71209853D01*
X166572037Y-71096627D01*
X166554641Y-70920000D01*
X166572037Y-70743373D01*
X166623557Y-70573534D01*
X166623557Y-70573533D01*
X166707221Y-70417011D01*
X166707222Y-70417009D01*
X166760238Y-70352409D01*
X166819814Y-70279814D01*
X166921271Y-70196552D01*
X166957009Y-70167222D01*
X166974913Y-70157652D01*
X167113533Y-70083557D01*
X167215052Y-70052762D01*
X167283373Y-70032037D01*
X167349558Y-70025518D01*
X167415740Y-70019000D01*
X167504260Y-70019000D01*
X167570442Y-70025518D01*
X167570442Y-70025518D01*
G37*
G36*
X170110442Y-70025518D02*
X170176627Y-70032037D01*
X170244948Y-70052762D01*
X170346467Y-70083557D01*
X170485087Y-70157652D01*
X170502991Y-70167222D01*
X170538729Y-70196552D01*
X170640186Y-70279814D01*
X170699762Y-70352409D01*
X170752778Y-70417009D01*
X170752779Y-70417011D01*
X170836443Y-70573533D01*
X170836443Y-70573534D01*
X170887963Y-70743373D01*
X170905359Y-70920000D01*
X170887963Y-71096627D01*
X170853616Y-71209853D01*
X170836443Y-71266467D01*
X170832160Y-71274479D01*
X170752778Y-71422991D01*
X170729791Y-71451000D01*
X170640186Y-71560186D01*
X170538729Y-71643448D01*
X170502991Y-71672778D01*
X170502989Y-71672779D01*
X170346467Y-71756443D01*
X170289853Y-71773616D01*
X170176627Y-71807963D01*
X170110443Y-71814481D01*
X170044260Y-71821000D01*
X169955740Y-71821000D01*
X169889557Y-71814481D01*
X169823373Y-71807963D01*
X169710147Y-71773616D01*
X169653533Y-71756443D01*
X169497011Y-71672779D01*
X169497009Y-71672778D01*
X169461271Y-71643448D01*
X169359814Y-71560186D01*
X169270209Y-71451000D01*
X169247222Y-71422991D01*
X169167840Y-71274479D01*
X169163557Y-71266467D01*
X169146384Y-71209853D01*
X169112037Y-71096627D01*
X169094641Y-70920000D01*
X169112037Y-70743373D01*
X169163557Y-70573534D01*
X169163557Y-70573533D01*
X169247221Y-70417011D01*
X169247222Y-70417009D01*
X169300238Y-70352409D01*
X169359814Y-70279814D01*
X169461271Y-70196552D01*
X169497009Y-70167222D01*
X169514913Y-70157652D01*
X169653533Y-70083557D01*
X169755052Y-70052762D01*
X169823373Y-70032037D01*
X169889558Y-70025518D01*
X169955740Y-70019000D01*
X170044260Y-70019000D01*
X170110442Y-70025518D01*
X170110442Y-70025518D01*
G37*
G36*
X111352527Y-68388736D02*
X111452410Y-68408604D01*
X111734674Y-68525521D01*
X111988705Y-68695259D01*
X112204741Y-68911295D01*
X112374479Y-69165326D01*
X112470962Y-69398258D01*
X112491396Y-69447591D01*
X112533997Y-69661757D01*
X112551000Y-69747240D01*
X112551000Y-70052760D01*
X112491396Y-70352410D01*
X112374479Y-70634674D01*
X112204741Y-70888705D01*
X111988705Y-71104741D01*
X111734674Y-71274479D01*
X111452410Y-71391396D01*
X111352527Y-71411264D01*
X111152762Y-71451000D01*
X110847238Y-71451000D01*
X110647473Y-71411264D01*
X110547590Y-71391396D01*
X110265326Y-71274479D01*
X110011295Y-71104741D01*
X109795259Y-70888705D01*
X109625521Y-70634674D01*
X109508604Y-70352410D01*
X109449000Y-70052760D01*
X109449000Y-69747240D01*
X109466004Y-69661757D01*
X109508604Y-69447591D01*
X109529038Y-69398258D01*
X109625521Y-69165326D01*
X109795259Y-68911295D01*
X110011295Y-68695259D01*
X110265326Y-68525521D01*
X110547590Y-68408604D01*
X110647473Y-68388736D01*
X110847238Y-68349000D01*
X111152762Y-68349000D01*
X111352527Y-68388736D01*
X111352527Y-68388736D01*
G37*
G36*
X131582142Y-68098242D02*
X131730102Y-68159530D01*
X131863258Y-68248502D01*
X131976498Y-68361742D01*
X132065470Y-68494898D01*
X132126758Y-68642858D01*
X132158000Y-68799925D01*
X132158000Y-68960075D01*
X132126758Y-69117142D01*
X132065470Y-69265102D01*
X131976498Y-69398258D01*
X131863258Y-69511498D01*
X131730102Y-69600470D01*
X131582142Y-69661758D01*
X131425075Y-69693000D01*
X131264925Y-69693000D01*
X131107858Y-69661758D01*
X130959898Y-69600470D01*
X130826742Y-69511498D01*
X130713502Y-69398258D01*
X130624530Y-69265102D01*
X130563242Y-69117142D01*
X130532000Y-68960075D01*
X130532000Y-68799925D01*
X130563242Y-68642858D01*
X130624530Y-68494898D01*
X130713502Y-68361742D01*
X130826742Y-68248502D01*
X130959898Y-68159530D01*
X131107858Y-68098242D01*
X131264925Y-68067000D01*
X131425075Y-68067000D01*
X131582142Y-68098242D01*
X131582142Y-68098242D01*
G37*
G36*
X134122142Y-68098242D02*
X134270102Y-68159530D01*
X134403258Y-68248502D01*
X134516498Y-68361742D01*
X134605470Y-68494898D01*
X134666758Y-68642858D01*
X134698000Y-68799925D01*
X134698000Y-68960075D01*
X134666758Y-69117142D01*
X134605470Y-69265102D01*
X134516498Y-69398258D01*
X134403258Y-69511498D01*
X134270102Y-69600470D01*
X134122142Y-69661758D01*
X133965075Y-69693000D01*
X133804925Y-69693000D01*
X133647858Y-69661758D01*
X133499898Y-69600470D01*
X133366742Y-69511498D01*
X133253502Y-69398258D01*
X133164530Y-69265102D01*
X133103242Y-69117142D01*
X133072000Y-68960075D01*
X133072000Y-68799925D01*
X133103242Y-68642858D01*
X133164530Y-68494898D01*
X133253502Y-68361742D01*
X133366742Y-68248502D01*
X133499898Y-68159530D01*
X133647858Y-68098242D01*
X133804925Y-68067000D01*
X133965075Y-68067000D01*
X134122142Y-68098242D01*
X134122142Y-68098242D01*
G37*
G36*
X146822142Y-68098242D02*
X146970102Y-68159530D01*
X147103258Y-68248502D01*
X147216498Y-68361742D01*
X147305470Y-68494898D01*
X147366758Y-68642858D01*
X147398000Y-68799925D01*
X147398000Y-68960075D01*
X147366758Y-69117142D01*
X147305470Y-69265102D01*
X147216498Y-69398258D01*
X147103258Y-69511498D01*
X146970102Y-69600470D01*
X146822142Y-69661758D01*
X146665075Y-69693000D01*
X146504925Y-69693000D01*
X146347858Y-69661758D01*
X146199898Y-69600470D01*
X146066742Y-69511498D01*
X145953502Y-69398258D01*
X145864530Y-69265102D01*
X145803242Y-69117142D01*
X145772000Y-68960075D01*
X145772000Y-68799925D01*
X145803242Y-68642858D01*
X145864530Y-68494898D01*
X145953502Y-68361742D01*
X146066742Y-68248502D01*
X146199898Y-68159530D01*
X146347858Y-68098242D01*
X146504925Y-68067000D01*
X146665075Y-68067000D01*
X146822142Y-68098242D01*
X146822142Y-68098242D01*
G37*
G36*
X141742142Y-68098242D02*
X141890102Y-68159530D01*
X142023258Y-68248502D01*
X142136498Y-68361742D01*
X142225470Y-68494898D01*
X142286758Y-68642858D01*
X142318000Y-68799925D01*
X142318000Y-68960075D01*
X142286758Y-69117142D01*
X142225470Y-69265102D01*
X142136498Y-69398258D01*
X142023258Y-69511498D01*
X141890102Y-69600470D01*
X141742142Y-69661758D01*
X141585075Y-69693000D01*
X141424925Y-69693000D01*
X141267858Y-69661758D01*
X141119898Y-69600470D01*
X140986742Y-69511498D01*
X140873502Y-69398258D01*
X140784530Y-69265102D01*
X140723242Y-69117142D01*
X140692000Y-68960075D01*
X140692000Y-68799925D01*
X140723242Y-68642858D01*
X140784530Y-68494898D01*
X140873502Y-68361742D01*
X140986742Y-68248502D01*
X141119898Y-68159530D01*
X141267858Y-68098242D01*
X141424925Y-68067000D01*
X141585075Y-68067000D01*
X141742142Y-68098242D01*
X141742142Y-68098242D01*
G37*
G36*
X139202142Y-68098242D02*
X139350102Y-68159530D01*
X139483258Y-68248502D01*
X139596498Y-68361742D01*
X139685470Y-68494898D01*
X139746758Y-68642858D01*
X139778000Y-68799925D01*
X139778000Y-68960075D01*
X139746758Y-69117142D01*
X139685470Y-69265102D01*
X139596498Y-69398258D01*
X139483258Y-69511498D01*
X139350102Y-69600470D01*
X139202142Y-69661758D01*
X139045075Y-69693000D01*
X138884925Y-69693000D01*
X138727858Y-69661758D01*
X138579898Y-69600470D01*
X138446742Y-69511498D01*
X138333502Y-69398258D01*
X138244530Y-69265102D01*
X138183242Y-69117142D01*
X138152000Y-68960075D01*
X138152000Y-68799925D01*
X138183242Y-68642858D01*
X138244530Y-68494898D01*
X138333502Y-68361742D01*
X138446742Y-68248502D01*
X138579898Y-68159530D01*
X138727858Y-68098242D01*
X138884925Y-68067000D01*
X139045075Y-68067000D01*
X139202142Y-68098242D01*
X139202142Y-68098242D01*
G37*
G36*
X136662142Y-68098242D02*
X136810102Y-68159530D01*
X136943258Y-68248502D01*
X137056498Y-68361742D01*
X137145470Y-68494898D01*
X137206758Y-68642858D01*
X137238000Y-68799925D01*
X137238000Y-68960075D01*
X137206758Y-69117142D01*
X137145470Y-69265102D01*
X137056498Y-69398258D01*
X136943258Y-69511498D01*
X136810102Y-69600470D01*
X136662142Y-69661758D01*
X136505075Y-69693000D01*
X136344925Y-69693000D01*
X136187858Y-69661758D01*
X136039898Y-69600470D01*
X135906742Y-69511498D01*
X135793502Y-69398258D01*
X135704530Y-69265102D01*
X135643242Y-69117142D01*
X135612000Y-68960075D01*
X135612000Y-68799925D01*
X135643242Y-68642858D01*
X135704530Y-68494898D01*
X135793502Y-68361742D01*
X135906742Y-68248502D01*
X136039898Y-68159530D01*
X136187858Y-68098242D01*
X136344925Y-68067000D01*
X136505075Y-68067000D01*
X136662142Y-68098242D01*
X136662142Y-68098242D01*
G37*
G36*
X144282142Y-68098242D02*
X144430102Y-68159530D01*
X144563258Y-68248502D01*
X144676498Y-68361742D01*
X144765470Y-68494898D01*
X144826758Y-68642858D01*
X144858000Y-68799925D01*
X144858000Y-68960075D01*
X144826758Y-69117142D01*
X144765470Y-69265102D01*
X144676498Y-69398258D01*
X144563258Y-69511498D01*
X144430102Y-69600470D01*
X144282142Y-69661758D01*
X144125075Y-69693000D01*
X143964925Y-69693000D01*
X143807858Y-69661758D01*
X143659898Y-69600470D01*
X143526742Y-69511498D01*
X143413502Y-69398258D01*
X143324530Y-69265102D01*
X143263242Y-69117142D01*
X143232000Y-68960075D01*
X143232000Y-68799925D01*
X143263242Y-68642858D01*
X143324530Y-68494898D01*
X143413502Y-68361742D01*
X143526742Y-68248502D01*
X143659898Y-68159530D01*
X143807858Y-68098242D01*
X143964925Y-68067000D01*
X144125075Y-68067000D01*
X144282142Y-68098242D01*
X144282142Y-68098242D01*
G37*
G36*
X169375256Y-61391298D02*
X169481579Y-61412447D01*
X169782042Y-61536903D01*
X170048852Y-61715180D01*
X170052454Y-61717587D01*
X170282413Y-61947546D01*
X170463098Y-62217960D01*
X170587553Y-62518422D01*
X170651000Y-62837389D01*
X170651000Y-63162611D01*
X170587553Y-63481578D01*
X170463098Y-63782040D01*
X170282413Y-64052454D01*
X170052454Y-64282413D01*
X170052451Y-64282415D01*
X169782042Y-64463097D01*
X169481579Y-64587553D01*
X169375256Y-64608702D01*
X169162611Y-64651000D01*
X168837389Y-64651000D01*
X168624744Y-64608702D01*
X168518421Y-64587553D01*
X168217958Y-64463097D01*
X167947549Y-64282415D01*
X167947546Y-64282413D01*
X167717587Y-64052454D01*
X167536902Y-63782040D01*
X167412447Y-63481578D01*
X167349000Y-63162611D01*
X167349000Y-62837389D01*
X167412447Y-62518422D01*
X167536902Y-62217960D01*
X167717587Y-61947546D01*
X167947546Y-61717587D01*
X167951148Y-61715180D01*
X168217958Y-61536903D01*
X168518421Y-61412447D01*
X168624744Y-61391298D01*
X168837389Y-61349000D01*
X169162611Y-61349000D01*
X169375256Y-61391298D01*
X169375256Y-61391298D01*
G37*
G36*
X109375256Y-61391298D02*
X109481579Y-61412447D01*
X109782042Y-61536903D01*
X110048852Y-61715180D01*
X110052454Y-61717587D01*
X110282413Y-61947546D01*
X110463098Y-62217960D01*
X110587553Y-62518422D01*
X110651000Y-62837389D01*
X110651000Y-63162611D01*
X110587553Y-63481578D01*
X110463098Y-63782040D01*
X110282413Y-64052454D01*
X110052454Y-64282413D01*
X110052451Y-64282415D01*
X109782042Y-64463097D01*
X109481579Y-64587553D01*
X109375256Y-64608702D01*
X109162611Y-64651000D01*
X108837389Y-64651000D01*
X108624744Y-64608702D01*
X108518421Y-64587553D01*
X108217958Y-64463097D01*
X107947549Y-64282415D01*
X107947546Y-64282413D01*
X107717587Y-64052454D01*
X107536902Y-63782040D01*
X107412447Y-63481578D01*
X107349000Y-63162611D01*
X107349000Y-62837389D01*
X107412447Y-62518422D01*
X107536902Y-62217960D01*
X107717587Y-61947546D01*
X107947546Y-61717587D01*
X107951148Y-61715180D01*
X108217958Y-61536903D01*
X108518421Y-61412447D01*
X108624744Y-61391298D01*
X108837389Y-61349000D01*
X109162611Y-61349000D01*
X109375256Y-61391298D01*
X109375256Y-61391298D01*
G37*
G36*
X143451000Y-62051000D02*
X141649000Y-62051000D01*
X141649000Y-60249000D01*
X143451000Y-60249000D01*
X143451000Y-62051000D01*
X143451000Y-62051000D01*
G37*
G36*
X137580442Y-60255518D02*
X137646627Y-60262037D01*
X137759853Y-60296384D01*
X137816467Y-60313557D01*
X137955087Y-60387652D01*
X137972991Y-60397222D01*
X138008729Y-60426552D01*
X138110186Y-60509814D01*
X138193448Y-60611271D01*
X138222778Y-60647009D01*
X138222779Y-60647011D01*
X138306443Y-60803533D01*
X138306443Y-60803534D01*
X138357963Y-60973373D01*
X138375359Y-61150000D01*
X138357963Y-61326627D01*
X138351176Y-61349000D01*
X138306443Y-61496467D01*
X138284829Y-61536903D01*
X138222778Y-61652991D01*
X138193448Y-61688729D01*
X138110186Y-61790186D01*
X138008729Y-61873448D01*
X137972991Y-61902778D01*
X137972989Y-61902779D01*
X137816467Y-61986443D01*
X137759853Y-62003616D01*
X137646627Y-62037963D01*
X137580443Y-62044481D01*
X137514260Y-62051000D01*
X137425740Y-62051000D01*
X137359557Y-62044481D01*
X137293373Y-62037963D01*
X137180147Y-62003616D01*
X137123533Y-61986443D01*
X136967011Y-61902779D01*
X136967009Y-61902778D01*
X136931271Y-61873448D01*
X136829814Y-61790186D01*
X136746552Y-61688729D01*
X136717222Y-61652991D01*
X136655171Y-61536903D01*
X136633557Y-61496467D01*
X136588824Y-61349000D01*
X136582037Y-61326627D01*
X136564641Y-61150000D01*
X136582037Y-60973373D01*
X136633557Y-60803534D01*
X136633557Y-60803533D01*
X136717221Y-60647011D01*
X136717222Y-60647009D01*
X136746552Y-60611271D01*
X136829814Y-60509814D01*
X136931271Y-60426552D01*
X136967009Y-60397222D01*
X136984913Y-60387652D01*
X137123533Y-60313557D01*
X137180147Y-60296384D01*
X137293373Y-60262037D01*
X137359558Y-60255518D01*
X137425740Y-60249000D01*
X137514260Y-60249000D01*
X137580442Y-60255518D01*
X137580442Y-60255518D01*
G37*
G36*
X135040442Y-60255518D02*
X135106627Y-60262037D01*
X135219853Y-60296384D01*
X135276467Y-60313557D01*
X135415087Y-60387652D01*
X135432991Y-60397222D01*
X135468729Y-60426552D01*
X135570186Y-60509814D01*
X135653448Y-60611271D01*
X135682778Y-60647009D01*
X135682779Y-60647011D01*
X135766443Y-60803533D01*
X135766443Y-60803534D01*
X135817963Y-60973373D01*
X135835359Y-61150000D01*
X135817963Y-61326627D01*
X135811176Y-61349000D01*
X135766443Y-61496467D01*
X135744829Y-61536903D01*
X135682778Y-61652991D01*
X135653448Y-61688729D01*
X135570186Y-61790186D01*
X135468729Y-61873448D01*
X135432991Y-61902778D01*
X135432989Y-61902779D01*
X135276467Y-61986443D01*
X135219853Y-62003616D01*
X135106627Y-62037963D01*
X135040443Y-62044481D01*
X134974260Y-62051000D01*
X134885740Y-62051000D01*
X134819557Y-62044481D01*
X134753373Y-62037963D01*
X134640147Y-62003616D01*
X134583533Y-61986443D01*
X134427011Y-61902779D01*
X134427009Y-61902778D01*
X134391271Y-61873448D01*
X134289814Y-61790186D01*
X134206552Y-61688729D01*
X134177222Y-61652991D01*
X134115171Y-61536903D01*
X134093557Y-61496467D01*
X134048824Y-61349000D01*
X134042037Y-61326627D01*
X134024641Y-61150000D01*
X134042037Y-60973373D01*
X134093557Y-60803534D01*
X134093557Y-60803533D01*
X134177221Y-60647011D01*
X134177222Y-60647009D01*
X134206552Y-60611271D01*
X134289814Y-60509814D01*
X134391271Y-60426552D01*
X134427009Y-60397222D01*
X134444913Y-60387652D01*
X134583533Y-60313557D01*
X134640147Y-60296384D01*
X134753373Y-60262037D01*
X134819558Y-60255518D01*
X134885740Y-60249000D01*
X134974260Y-60249000D01*
X135040442Y-60255518D01*
X135040442Y-60255518D01*
G37*
G36*
X140120442Y-60255518D02*
X140186627Y-60262037D01*
X140299853Y-60296384D01*
X140356467Y-60313557D01*
X140495087Y-60387652D01*
X140512991Y-60397222D01*
X140548729Y-60426552D01*
X140650186Y-60509814D01*
X140733448Y-60611271D01*
X140762778Y-60647009D01*
X140762779Y-60647011D01*
X140846443Y-60803533D01*
X140846443Y-60803534D01*
X140897963Y-60973373D01*
X140915359Y-61150000D01*
X140897963Y-61326627D01*
X140891176Y-61349000D01*
X140846443Y-61496467D01*
X140824829Y-61536903D01*
X140762778Y-61652991D01*
X140733448Y-61688729D01*
X140650186Y-61790186D01*
X140548729Y-61873448D01*
X140512991Y-61902778D01*
X140512989Y-61902779D01*
X140356467Y-61986443D01*
X140299853Y-62003616D01*
X140186627Y-62037963D01*
X140120443Y-62044481D01*
X140054260Y-62051000D01*
X139965740Y-62051000D01*
X139899557Y-62044481D01*
X139833373Y-62037963D01*
X139720147Y-62003616D01*
X139663533Y-61986443D01*
X139507011Y-61902779D01*
X139507009Y-61902778D01*
X139471271Y-61873448D01*
X139369814Y-61790186D01*
X139286552Y-61688729D01*
X139257222Y-61652991D01*
X139195171Y-61536903D01*
X139173557Y-61496467D01*
X139128824Y-61349000D01*
X139122037Y-61326627D01*
X139104641Y-61150000D01*
X139122037Y-60973373D01*
X139173557Y-60803534D01*
X139173557Y-60803533D01*
X139257221Y-60647011D01*
X139257222Y-60647009D01*
X139286552Y-60611271D01*
X139369814Y-60509814D01*
X139471271Y-60426552D01*
X139507009Y-60397222D01*
X139524913Y-60387652D01*
X139663533Y-60313557D01*
X139720147Y-60296384D01*
X139833373Y-60262037D01*
X139899558Y-60255518D01*
X139965740Y-60249000D01*
X140054260Y-60249000D01*
X140120442Y-60255518D01*
X140120442Y-60255518D01*
G37*
G36*
X137580442Y-52955518D02*
X137646627Y-52962037D01*
X137759853Y-52996384D01*
X137816467Y-53013557D01*
X137955087Y-53087652D01*
X137972991Y-53097222D01*
X138008729Y-53126552D01*
X138110186Y-53209814D01*
X138193448Y-53311271D01*
X138222778Y-53347009D01*
X138222779Y-53347011D01*
X138306443Y-53503533D01*
X138306443Y-53503534D01*
X138357963Y-53673373D01*
X138375359Y-53850000D01*
X138357963Y-54026627D01*
X138323616Y-54139853D01*
X138306443Y-54196467D01*
X138232348Y-54335087D01*
X138222778Y-54352991D01*
X138193448Y-54388729D01*
X138110186Y-54490186D01*
X138008729Y-54573448D01*
X137972991Y-54602778D01*
X137972989Y-54602779D01*
X137816467Y-54686443D01*
X137759853Y-54703616D01*
X137646627Y-54737963D01*
X137580442Y-54744482D01*
X137514260Y-54751000D01*
X137425740Y-54751000D01*
X137359558Y-54744482D01*
X137293373Y-54737963D01*
X137180147Y-54703616D01*
X137123533Y-54686443D01*
X136967011Y-54602779D01*
X136967009Y-54602778D01*
X136931271Y-54573448D01*
X136829814Y-54490186D01*
X136746552Y-54388729D01*
X136717222Y-54352991D01*
X136707652Y-54335087D01*
X136633557Y-54196467D01*
X136616384Y-54139853D01*
X136582037Y-54026627D01*
X136564641Y-53850000D01*
X136582037Y-53673373D01*
X136633557Y-53503534D01*
X136633557Y-53503533D01*
X136717221Y-53347011D01*
X136717222Y-53347009D01*
X136746552Y-53311271D01*
X136829814Y-53209814D01*
X136931271Y-53126552D01*
X136967009Y-53097222D01*
X136984913Y-53087652D01*
X137123533Y-53013557D01*
X137180147Y-52996384D01*
X137293373Y-52962037D01*
X137359558Y-52955518D01*
X137425740Y-52949000D01*
X137514260Y-52949000D01*
X137580442Y-52955518D01*
X137580442Y-52955518D01*
G37*
G36*
X135040442Y-52955518D02*
X135106627Y-52962037D01*
X135219853Y-52996384D01*
X135276467Y-53013557D01*
X135415087Y-53087652D01*
X135432991Y-53097222D01*
X135468729Y-53126552D01*
X135570186Y-53209814D01*
X135653448Y-53311271D01*
X135682778Y-53347009D01*
X135682779Y-53347011D01*
X135766443Y-53503533D01*
X135766443Y-53503534D01*
X135817963Y-53673373D01*
X135835359Y-53850000D01*
X135817963Y-54026627D01*
X135783616Y-54139853D01*
X135766443Y-54196467D01*
X135692348Y-54335087D01*
X135682778Y-54352991D01*
X135653448Y-54388729D01*
X135570186Y-54490186D01*
X135468729Y-54573448D01*
X135432991Y-54602778D01*
X135432989Y-54602779D01*
X135276467Y-54686443D01*
X135219853Y-54703616D01*
X135106627Y-54737963D01*
X135040442Y-54744482D01*
X134974260Y-54751000D01*
X134885740Y-54751000D01*
X134819558Y-54744482D01*
X134753373Y-54737963D01*
X134640147Y-54703616D01*
X134583533Y-54686443D01*
X134427011Y-54602779D01*
X134427009Y-54602778D01*
X134391271Y-54573448D01*
X134289814Y-54490186D01*
X134206552Y-54388729D01*
X134177222Y-54352991D01*
X134167652Y-54335087D01*
X134093557Y-54196467D01*
X134076384Y-54139853D01*
X134042037Y-54026627D01*
X134024641Y-53850000D01*
X134042037Y-53673373D01*
X134093557Y-53503534D01*
X134093557Y-53503533D01*
X134177221Y-53347011D01*
X134177222Y-53347009D01*
X134206552Y-53311271D01*
X134289814Y-53209814D01*
X134391271Y-53126552D01*
X134427009Y-53097222D01*
X134444913Y-53087652D01*
X134583533Y-53013557D01*
X134640147Y-52996384D01*
X134753373Y-52962037D01*
X134819558Y-52955518D01*
X134885740Y-52949000D01*
X134974260Y-52949000D01*
X135040442Y-52955518D01*
X135040442Y-52955518D01*
G37*
G36*
X140120442Y-52955518D02*
X140186627Y-52962037D01*
X140299853Y-52996384D01*
X140356467Y-53013557D01*
X140495087Y-53087652D01*
X140512991Y-53097222D01*
X140548729Y-53126552D01*
X140650186Y-53209814D01*
X140733448Y-53311271D01*
X140762778Y-53347009D01*
X140762779Y-53347011D01*
X140846443Y-53503533D01*
X140846443Y-53503534D01*
X140897963Y-53673373D01*
X140915359Y-53850000D01*
X140897963Y-54026627D01*
X140863616Y-54139853D01*
X140846443Y-54196467D01*
X140772348Y-54335087D01*
X140762778Y-54352991D01*
X140733448Y-54388729D01*
X140650186Y-54490186D01*
X140548729Y-54573448D01*
X140512991Y-54602778D01*
X140512989Y-54602779D01*
X140356467Y-54686443D01*
X140299853Y-54703616D01*
X140186627Y-54737963D01*
X140120442Y-54744482D01*
X140054260Y-54751000D01*
X139965740Y-54751000D01*
X139899558Y-54744482D01*
X139833373Y-54737963D01*
X139720147Y-54703616D01*
X139663533Y-54686443D01*
X139507011Y-54602779D01*
X139507009Y-54602778D01*
X139471271Y-54573448D01*
X139369814Y-54490186D01*
X139286552Y-54388729D01*
X139257222Y-54352991D01*
X139247652Y-54335087D01*
X139173557Y-54196467D01*
X139156384Y-54139853D01*
X139122037Y-54026627D01*
X139104641Y-53850000D01*
X139122037Y-53673373D01*
X139173557Y-53503534D01*
X139173557Y-53503533D01*
X139257221Y-53347011D01*
X139257222Y-53347009D01*
X139286552Y-53311271D01*
X139369814Y-53209814D01*
X139471271Y-53126552D01*
X139507009Y-53097222D01*
X139524913Y-53087652D01*
X139663533Y-53013557D01*
X139720147Y-52996384D01*
X139833373Y-52962037D01*
X139899558Y-52955518D01*
X139965740Y-52949000D01*
X140054260Y-52949000D01*
X140120442Y-52955518D01*
X140120442Y-52955518D01*
G37*
G36*
X143451000Y-54751000D02*
X141649000Y-54751000D01*
X141649000Y-52949000D01*
X143451000Y-52949000D01*
X143451000Y-54751000D01*
X143451000Y-54751000D01*
G37*
G36*
X158406565Y-49339389D02*
X158597834Y-49418615D01*
X158769976Y-49533637D01*
X158916363Y-49680024D01*
X159031385Y-49852166D01*
X159110611Y-50043435D01*
X159151000Y-50246484D01*
X159151000Y-50453516D01*
X159110611Y-50656565D01*
X159031385Y-50847834D01*
X158916363Y-51019976D01*
X158769976Y-51166363D01*
X158597834Y-51281385D01*
X158406565Y-51360611D01*
X158203516Y-51401000D01*
X157996484Y-51401000D01*
X157793435Y-51360611D01*
X157602166Y-51281385D01*
X157430024Y-51166363D01*
X157283637Y-51019976D01*
X157168615Y-50847834D01*
X157089389Y-50656565D01*
X157049000Y-50453516D01*
X157049000Y-50246484D01*
X157089389Y-50043435D01*
X157168615Y-49852166D01*
X157283637Y-49680024D01*
X157430024Y-49533637D01*
X157602166Y-49418615D01*
X157793435Y-49339389D01*
X157996484Y-49299000D01*
X158203516Y-49299000D01*
X158406565Y-49339389D01*
X158406565Y-49339389D01*
G37*
G36*
X119406565Y-49339389D02*
X119597834Y-49418615D01*
X119769976Y-49533637D01*
X119916363Y-49680024D01*
X120031385Y-49852166D01*
X120110611Y-50043435D01*
X120151000Y-50246484D01*
X120151000Y-50453516D01*
X120110611Y-50656565D01*
X120031385Y-50847834D01*
X119916363Y-51019976D01*
X119769976Y-51166363D01*
X119597834Y-51281385D01*
X119406565Y-51360611D01*
X119203516Y-51401000D01*
X118996484Y-51401000D01*
X118793435Y-51360611D01*
X118602166Y-51281385D01*
X118430024Y-51166363D01*
X118283637Y-51019976D01*
X118168615Y-50847834D01*
X118089389Y-50656565D01*
X118049000Y-50453516D01*
X118049000Y-50246484D01*
X118089389Y-50043435D01*
X118168615Y-49852166D01*
X118283637Y-49680024D01*
X118430024Y-49533637D01*
X118602166Y-49418615D01*
X118793435Y-49339389D01*
X118996484Y-49299000D01*
X119203516Y-49299000D01*
X119406565Y-49339389D01*
X119406565Y-49339389D01*
G37*
G36*
X123906565Y-49339389D02*
X124097834Y-49418615D01*
X124269976Y-49533637D01*
X124416363Y-49680024D01*
X124531385Y-49852166D01*
X124610611Y-50043435D01*
X124651000Y-50246484D01*
X124651000Y-50453516D01*
X124610611Y-50656565D01*
X124531385Y-50847834D01*
X124416363Y-51019976D01*
X124269976Y-51166363D01*
X124097834Y-51281385D01*
X123906565Y-51360611D01*
X123703516Y-51401000D01*
X123496484Y-51401000D01*
X123293435Y-51360611D01*
X123102166Y-51281385D01*
X122930024Y-51166363D01*
X122783637Y-51019976D01*
X122668615Y-50847834D01*
X122589389Y-50656565D01*
X122549000Y-50453516D01*
X122549000Y-50246484D01*
X122589389Y-50043435D01*
X122668615Y-49852166D01*
X122783637Y-49680024D01*
X122930024Y-49533637D01*
X123102166Y-49418615D01*
X123293435Y-49339389D01*
X123496484Y-49299000D01*
X123703516Y-49299000D01*
X123906565Y-49339389D01*
X123906565Y-49339389D01*
G37*
G36*
X136706565Y-49339389D02*
X136897834Y-49418615D01*
X137069976Y-49533637D01*
X137216363Y-49680024D01*
X137331385Y-49852166D01*
X137410611Y-50043435D01*
X137451000Y-50246484D01*
X137451000Y-50453516D01*
X137410611Y-50656565D01*
X137331385Y-50847834D01*
X137216363Y-51019976D01*
X137069976Y-51166363D01*
X136897834Y-51281385D01*
X136706565Y-51360611D01*
X136503516Y-51401000D01*
X136296484Y-51401000D01*
X136093435Y-51360611D01*
X135902166Y-51281385D01*
X135730024Y-51166363D01*
X135583637Y-51019976D01*
X135468615Y-50847834D01*
X135389389Y-50656565D01*
X135349000Y-50453516D01*
X135349000Y-50246484D01*
X135389389Y-50043435D01*
X135468615Y-49852166D01*
X135583637Y-49680024D01*
X135730024Y-49533637D01*
X135902166Y-49418615D01*
X136093435Y-49339389D01*
X136296484Y-49299000D01*
X136503516Y-49299000D01*
X136706565Y-49339389D01*
X136706565Y-49339389D01*
G37*
G36*
X141206565Y-49339389D02*
X141397834Y-49418615D01*
X141569976Y-49533637D01*
X141716363Y-49680024D01*
X141831385Y-49852166D01*
X141910611Y-50043435D01*
X141951000Y-50246484D01*
X141951000Y-50453516D01*
X141910611Y-50656565D01*
X141831385Y-50847834D01*
X141716363Y-51019976D01*
X141569976Y-51166363D01*
X141397834Y-51281385D01*
X141206565Y-51360611D01*
X141003516Y-51401000D01*
X140796484Y-51401000D01*
X140593435Y-51360611D01*
X140402166Y-51281385D01*
X140230024Y-51166363D01*
X140083637Y-51019976D01*
X139968615Y-50847834D01*
X139889389Y-50656565D01*
X139849000Y-50453516D01*
X139849000Y-50246484D01*
X139889389Y-50043435D01*
X139968615Y-49852166D01*
X140083637Y-49680024D01*
X140230024Y-49533637D01*
X140402166Y-49418615D01*
X140593435Y-49339389D01*
X140796484Y-49299000D01*
X141003516Y-49299000D01*
X141206565Y-49339389D01*
X141206565Y-49339389D01*
G37*
G36*
X153906565Y-49339389D02*
X154097834Y-49418615D01*
X154269976Y-49533637D01*
X154416363Y-49680024D01*
X154531385Y-49852166D01*
X154610611Y-50043435D01*
X154651000Y-50246484D01*
X154651000Y-50453516D01*
X154610611Y-50656565D01*
X154531385Y-50847834D01*
X154416363Y-51019976D01*
X154269976Y-51166363D01*
X154097834Y-51281385D01*
X153906565Y-51360611D01*
X153703516Y-51401000D01*
X153496484Y-51401000D01*
X153293435Y-51360611D01*
X153102166Y-51281385D01*
X152930024Y-51166363D01*
X152783637Y-51019976D01*
X152668615Y-50847834D01*
X152589389Y-50656565D01*
X152549000Y-50453516D01*
X152549000Y-50246484D01*
X152589389Y-50043435D01*
X152668615Y-49852166D01*
X152783637Y-49680024D01*
X152930024Y-49533637D01*
X153102166Y-49418615D01*
X153293435Y-49339389D01*
X153496484Y-49299000D01*
X153703516Y-49299000D01*
X153906565Y-49339389D01*
X153906565Y-49339389D01*
G37*
G36*
X109375256Y-44891298D02*
X109481579Y-44912447D01*
X109782042Y-45036903D01*
X110048852Y-45215180D01*
X110052454Y-45217587D01*
X110282413Y-45447546D01*
X110463098Y-45717960D01*
X110587553Y-46018422D01*
X110651000Y-46337389D01*
X110651000Y-46662611D01*
X110587553Y-46981578D01*
X110463098Y-47282040D01*
X110282413Y-47552454D01*
X110052454Y-47782413D01*
X110052451Y-47782415D01*
X109782042Y-47963097D01*
X109481579Y-48087553D01*
X109375256Y-48108702D01*
X109162611Y-48151000D01*
X108837389Y-48151000D01*
X108624744Y-48108702D01*
X108518421Y-48087553D01*
X108217958Y-47963097D01*
X107947549Y-47782415D01*
X107947546Y-47782413D01*
X107717587Y-47552454D01*
X107536902Y-47282040D01*
X107412447Y-46981578D01*
X107349000Y-46662611D01*
X107349000Y-46337389D01*
X107412447Y-46018422D01*
X107536902Y-45717960D01*
X107717587Y-45447546D01*
X107947546Y-45217587D01*
X107951148Y-45215180D01*
X108217958Y-45036903D01*
X108518421Y-44912447D01*
X108624744Y-44891298D01*
X108837389Y-44849000D01*
X109162611Y-44849000D01*
X109375256Y-44891298D01*
X109375256Y-44891298D01*
G37*
G36*
X169375256Y-44891298D02*
X169481579Y-44912447D01*
X169782042Y-45036903D01*
X170048852Y-45215180D01*
X170052454Y-45217587D01*
X170282413Y-45447546D01*
X170463098Y-45717960D01*
X170587553Y-46018422D01*
X170651000Y-46337389D01*
X170651000Y-46662611D01*
X170587553Y-46981578D01*
X170463098Y-47282040D01*
X170282413Y-47552454D01*
X170052454Y-47782413D01*
X170052451Y-47782415D01*
X169782042Y-47963097D01*
X169481579Y-48087553D01*
X169375256Y-48108702D01*
X169162611Y-48151000D01*
X168837389Y-48151000D01*
X168624744Y-48108702D01*
X168518421Y-48087553D01*
X168217958Y-47963097D01*
X167947549Y-47782415D01*
X167947546Y-47782413D01*
X167717587Y-47552454D01*
X167536902Y-47282040D01*
X167412447Y-46981578D01*
X167349000Y-46662611D01*
X167349000Y-46337389D01*
X167412447Y-46018422D01*
X167536902Y-45717960D01*
X167717587Y-45447546D01*
X167947546Y-45217587D01*
X167951148Y-45215180D01*
X168217958Y-45036903D01*
X168518421Y-44912447D01*
X168624744Y-44891298D01*
X168837389Y-44849000D01*
X169162611Y-44849000D01*
X169375256Y-44891298D01*
X169375256Y-44891298D01*
G37*
G36*
X123906565Y-42839389D02*
X124097834Y-42918615D01*
X124269976Y-43033637D01*
X124416363Y-43180024D01*
X124531385Y-43352166D01*
X124610611Y-43543435D01*
X124651000Y-43746484D01*
X124651000Y-43953516D01*
X124610611Y-44156565D01*
X124531385Y-44347834D01*
X124416363Y-44519976D01*
X124269976Y-44666363D01*
X124097834Y-44781385D01*
X123906565Y-44860611D01*
X123703516Y-44901000D01*
X123496484Y-44901000D01*
X123293435Y-44860611D01*
X123102166Y-44781385D01*
X122930024Y-44666363D01*
X122783637Y-44519976D01*
X122668615Y-44347834D01*
X122589389Y-44156565D01*
X122549000Y-43953516D01*
X122549000Y-43746484D01*
X122589389Y-43543435D01*
X122668615Y-43352166D01*
X122783637Y-43180024D01*
X122930024Y-43033637D01*
X123102166Y-42918615D01*
X123293435Y-42839389D01*
X123496484Y-42799000D01*
X123703516Y-42799000D01*
X123906565Y-42839389D01*
X123906565Y-42839389D01*
G37*
G36*
X158406565Y-42839389D02*
X158597834Y-42918615D01*
X158769976Y-43033637D01*
X158916363Y-43180024D01*
X159031385Y-43352166D01*
X159110611Y-43543435D01*
X159151000Y-43746484D01*
X159151000Y-43953516D01*
X159110611Y-44156565D01*
X159031385Y-44347834D01*
X158916363Y-44519976D01*
X158769976Y-44666363D01*
X158597834Y-44781385D01*
X158406565Y-44860611D01*
X158203516Y-44901000D01*
X157996484Y-44901000D01*
X157793435Y-44860611D01*
X157602166Y-44781385D01*
X157430024Y-44666363D01*
X157283637Y-44519976D01*
X157168615Y-44347834D01*
X157089389Y-44156565D01*
X157049000Y-43953516D01*
X157049000Y-43746484D01*
X157089389Y-43543435D01*
X157168615Y-43352166D01*
X157283637Y-43180024D01*
X157430024Y-43033637D01*
X157602166Y-42918615D01*
X157793435Y-42839389D01*
X157996484Y-42799000D01*
X158203516Y-42799000D01*
X158406565Y-42839389D01*
X158406565Y-42839389D01*
G37*
G36*
X136706565Y-42839389D02*
X136897834Y-42918615D01*
X137069976Y-43033637D01*
X137216363Y-43180024D01*
X137331385Y-43352166D01*
X137410611Y-43543435D01*
X137451000Y-43746484D01*
X137451000Y-43953516D01*
X137410611Y-44156565D01*
X137331385Y-44347834D01*
X137216363Y-44519976D01*
X137069976Y-44666363D01*
X136897834Y-44781385D01*
X136706565Y-44860611D01*
X136503516Y-44901000D01*
X136296484Y-44901000D01*
X136093435Y-44860611D01*
X135902166Y-44781385D01*
X135730024Y-44666363D01*
X135583637Y-44519976D01*
X135468615Y-44347834D01*
X135389389Y-44156565D01*
X135349000Y-43953516D01*
X135349000Y-43746484D01*
X135389389Y-43543435D01*
X135468615Y-43352166D01*
X135583637Y-43180024D01*
X135730024Y-43033637D01*
X135902166Y-42918615D01*
X136093435Y-42839389D01*
X136296484Y-42799000D01*
X136503516Y-42799000D01*
X136706565Y-42839389D01*
X136706565Y-42839389D01*
G37*
G36*
X141206565Y-42839389D02*
X141397834Y-42918615D01*
X141569976Y-43033637D01*
X141716363Y-43180024D01*
X141831385Y-43352166D01*
X141910611Y-43543435D01*
X141951000Y-43746484D01*
X141951000Y-43953516D01*
X141910611Y-44156565D01*
X141831385Y-44347834D01*
X141716363Y-44519976D01*
X141569976Y-44666363D01*
X141397834Y-44781385D01*
X141206565Y-44860611D01*
X141003516Y-44901000D01*
X140796484Y-44901000D01*
X140593435Y-44860611D01*
X140402166Y-44781385D01*
X140230024Y-44666363D01*
X140083637Y-44519976D01*
X139968615Y-44347834D01*
X139889389Y-44156565D01*
X139849000Y-43953516D01*
X139849000Y-43746484D01*
X139889389Y-43543435D01*
X139968615Y-43352166D01*
X140083637Y-43180024D01*
X140230024Y-43033637D01*
X140402166Y-42918615D01*
X140593435Y-42839389D01*
X140796484Y-42799000D01*
X141003516Y-42799000D01*
X141206565Y-42839389D01*
X141206565Y-42839389D01*
G37*
G36*
X153906565Y-42839389D02*
X154097834Y-42918615D01*
X154269976Y-43033637D01*
X154416363Y-43180024D01*
X154531385Y-43352166D01*
X154610611Y-43543435D01*
X154651000Y-43746484D01*
X154651000Y-43953516D01*
X154610611Y-44156565D01*
X154531385Y-44347834D01*
X154416363Y-44519976D01*
X154269976Y-44666363D01*
X154097834Y-44781385D01*
X153906565Y-44860611D01*
X153703516Y-44901000D01*
X153496484Y-44901000D01*
X153293435Y-44860611D01*
X153102166Y-44781385D01*
X152930024Y-44666363D01*
X152783637Y-44519976D01*
X152668615Y-44347834D01*
X152589389Y-44156565D01*
X152549000Y-43953516D01*
X152549000Y-43746484D01*
X152589389Y-43543435D01*
X152668615Y-43352166D01*
X152783637Y-43180024D01*
X152930024Y-43033637D01*
X153102166Y-42918615D01*
X153293435Y-42839389D01*
X153496484Y-42799000D01*
X153703516Y-42799000D01*
X153906565Y-42839389D01*
X153906565Y-42839389D01*
G37*
G36*
X119406565Y-42839389D02*
X119597834Y-42918615D01*
X119769976Y-43033637D01*
X119916363Y-43180024D01*
X120031385Y-43352166D01*
X120110611Y-43543435D01*
X120151000Y-43746484D01*
X120151000Y-43953516D01*
X120110611Y-44156565D01*
X120031385Y-44347834D01*
X119916363Y-44519976D01*
X119769976Y-44666363D01*
X119597834Y-44781385D01*
X119406565Y-44860611D01*
X119203516Y-44901000D01*
X118996484Y-44901000D01*
X118793435Y-44860611D01*
X118602166Y-44781385D01*
X118430024Y-44666363D01*
X118283637Y-44519976D01*
X118168615Y-44347834D01*
X118089389Y-44156565D01*
X118049000Y-43953516D01*
X118049000Y-43746484D01*
X118089389Y-43543435D01*
X118168615Y-43352166D01*
X118283637Y-43180024D01*
X118430024Y-43033637D01*
X118602166Y-42918615D01*
X118793435Y-42839389D01*
X118996484Y-42799000D01*
X119203516Y-42799000D01*
X119406565Y-42839389D01*
X119406565Y-42839389D01*
G37*
M02*
