G04 #@! TF.GenerationSoftware,KiCad,Pcbnew,(5.0.2)-1*
G04 #@! TF.CreationDate,2020-01-01T22:46:37+01:00*
G04 #@! TF.ProjectId,clock,636c6f63-6b2e-46b6-9963-61645f706362,rev?*
G04 #@! TF.SameCoordinates,Original*
G04 #@! TF.FileFunction,Copper,L1,Top*
G04 #@! TF.FilePolarity,Positive*
%FSLAX46Y46*%
G04 Gerber Fmt 4.6, Leading zero omitted, Abs format (unit mm)*
G04 Created by KiCad (PCBNEW (5.0.2)-1) date 01/01/2020 22:46:37*
%MOMM*%
%LPD*%
G01*
G04 APERTURE LIST*
G04 #@! TA.AperFunction,ComponentPad*
%ADD10C,1.700000*%
G04 #@! TD*
G04 #@! TA.AperFunction,ComponentPad*
%ADD11O,1.700000X1.700000*%
G04 #@! TD*
G04 #@! TA.AperFunction,Conductor*
%ADD12C,0.100000*%
G04 #@! TD*
G04 #@! TA.AperFunction,SMDPad,CuDef*
%ADD13C,1.150000*%
G04 #@! TD*
G04 #@! TA.AperFunction,ComponentPad*
%ADD14C,3.000000*%
G04 #@! TD*
G04 #@! TA.AperFunction,SMDPad,CuDef*
%ADD15R,4.000000X4.000000*%
G04 #@! TD*
G04 #@! TA.AperFunction,ComponentPad*
%ADD16R,1.700000X1.700000*%
G04 #@! TD*
G04 #@! TA.AperFunction,SMDPad,CuDef*
%ADD17C,0.500000*%
G04 #@! TD*
G04 #@! TA.AperFunction,ComponentPad*
%ADD18C,2.000000*%
G04 #@! TD*
G04 #@! TA.AperFunction,SMDPad,CuDef*
%ADD19R,0.650000X1.700000*%
G04 #@! TD*
G04 #@! TA.AperFunction,SMDPad,CuDef*
%ADD20R,0.600000X1.500000*%
G04 #@! TD*
G04 #@! TA.AperFunction,SMDPad,CuDef*
%ADD21R,0.600000X2.159000*%
G04 #@! TD*
G04 #@! TA.AperFunction,ComponentPad*
%ADD22C,1.524000*%
G04 #@! TD*
G04 #@! TA.AperFunction,ViaPad*
%ADD23C,0.800000*%
G04 #@! TD*
G04 #@! TA.AperFunction,Conductor*
%ADD24C,0.500000*%
G04 #@! TD*
G04 #@! TA.AperFunction,Conductor*
%ADD25C,0.254000*%
G04 #@! TD*
G04 APERTURE END LIST*
D10*
G04 #@! TO.P,J2,1*
G04 #@! TO.N,SDA*
X167460000Y-81500000D03*
D11*
G04 #@! TO.P,J2,2*
G04 #@! TO.N,SCL*
X170000000Y-81500000D03*
G04 #@! TD*
D12*
G04 #@! TO.N,+5V*
G04 #@! TO.C,C1*
G36*
X140759505Y-85776204D02*
X140783773Y-85779804D01*
X140807572Y-85785765D01*
X140830671Y-85794030D01*
X140852850Y-85804520D01*
X140873893Y-85817132D01*
X140893599Y-85831747D01*
X140911777Y-85848223D01*
X140928253Y-85866401D01*
X140942868Y-85886107D01*
X140955480Y-85907150D01*
X140965970Y-85929329D01*
X140974235Y-85952428D01*
X140980196Y-85976227D01*
X140983796Y-86000495D01*
X140985000Y-86024999D01*
X140985000Y-86675001D01*
X140983796Y-86699505D01*
X140980196Y-86723773D01*
X140974235Y-86747572D01*
X140965970Y-86770671D01*
X140955480Y-86792850D01*
X140942868Y-86813893D01*
X140928253Y-86833599D01*
X140911777Y-86851777D01*
X140893599Y-86868253D01*
X140873893Y-86882868D01*
X140852850Y-86895480D01*
X140830671Y-86905970D01*
X140807572Y-86914235D01*
X140783773Y-86920196D01*
X140759505Y-86923796D01*
X140735001Y-86925000D01*
X139834999Y-86925000D01*
X139810495Y-86923796D01*
X139786227Y-86920196D01*
X139762428Y-86914235D01*
X139739329Y-86905970D01*
X139717150Y-86895480D01*
X139696107Y-86882868D01*
X139676401Y-86868253D01*
X139658223Y-86851777D01*
X139641747Y-86833599D01*
X139627132Y-86813893D01*
X139614520Y-86792850D01*
X139604030Y-86770671D01*
X139595765Y-86747572D01*
X139589804Y-86723773D01*
X139586204Y-86699505D01*
X139585000Y-86675001D01*
X139585000Y-86024999D01*
X139586204Y-86000495D01*
X139589804Y-85976227D01*
X139595765Y-85952428D01*
X139604030Y-85929329D01*
X139614520Y-85907150D01*
X139627132Y-85886107D01*
X139641747Y-85866401D01*
X139658223Y-85848223D01*
X139676401Y-85831747D01*
X139696107Y-85817132D01*
X139717150Y-85804520D01*
X139739329Y-85794030D01*
X139762428Y-85785765D01*
X139786227Y-85779804D01*
X139810495Y-85776204D01*
X139834999Y-85775000D01*
X140735001Y-85775000D01*
X140759505Y-85776204D01*
X140759505Y-85776204D01*
G37*
D13*
G04 #@! TD*
G04 #@! TO.P,C1,1*
G04 #@! TO.N,+5V*
X140285000Y-86350000D03*
D12*
G04 #@! TO.N,GND*
G04 #@! TO.C,C1*
G36*
X140759505Y-87826204D02*
X140783773Y-87829804D01*
X140807572Y-87835765D01*
X140830671Y-87844030D01*
X140852850Y-87854520D01*
X140873893Y-87867132D01*
X140893599Y-87881747D01*
X140911777Y-87898223D01*
X140928253Y-87916401D01*
X140942868Y-87936107D01*
X140955480Y-87957150D01*
X140965970Y-87979329D01*
X140974235Y-88002428D01*
X140980196Y-88026227D01*
X140983796Y-88050495D01*
X140985000Y-88074999D01*
X140985000Y-88725001D01*
X140983796Y-88749505D01*
X140980196Y-88773773D01*
X140974235Y-88797572D01*
X140965970Y-88820671D01*
X140955480Y-88842850D01*
X140942868Y-88863893D01*
X140928253Y-88883599D01*
X140911777Y-88901777D01*
X140893599Y-88918253D01*
X140873893Y-88932868D01*
X140852850Y-88945480D01*
X140830671Y-88955970D01*
X140807572Y-88964235D01*
X140783773Y-88970196D01*
X140759505Y-88973796D01*
X140735001Y-88975000D01*
X139834999Y-88975000D01*
X139810495Y-88973796D01*
X139786227Y-88970196D01*
X139762428Y-88964235D01*
X139739329Y-88955970D01*
X139717150Y-88945480D01*
X139696107Y-88932868D01*
X139676401Y-88918253D01*
X139658223Y-88901777D01*
X139641747Y-88883599D01*
X139627132Y-88863893D01*
X139614520Y-88842850D01*
X139604030Y-88820671D01*
X139595765Y-88797572D01*
X139589804Y-88773773D01*
X139586204Y-88749505D01*
X139585000Y-88725001D01*
X139585000Y-88074999D01*
X139586204Y-88050495D01*
X139589804Y-88026227D01*
X139595765Y-88002428D01*
X139604030Y-87979329D01*
X139614520Y-87957150D01*
X139627132Y-87936107D01*
X139641747Y-87916401D01*
X139658223Y-87898223D01*
X139676401Y-87881747D01*
X139696107Y-87867132D01*
X139717150Y-87854520D01*
X139739329Y-87844030D01*
X139762428Y-87835765D01*
X139786227Y-87829804D01*
X139810495Y-87826204D01*
X139834999Y-87825000D01*
X140735001Y-87825000D01*
X140759505Y-87826204D01*
X140759505Y-87826204D01*
G37*
D13*
G04 #@! TD*
G04 #@! TO.P,C1,2*
G04 #@! TO.N,GND*
X140285000Y-88400000D03*
D14*
G04 #@! TO.P,CR1220,1*
G04 #@! TO.N,Net-(CR1220-Pad1)*
X111000000Y-69900000D03*
X111000000Y-83100000D03*
D15*
G04 #@! TO.P,CR1220,2*
G04 #@! TO.N,GND*
X111000000Y-76500000D03*
G04 #@! TD*
D12*
G04 #@! TO.N,Net-(D1-Pad2)*
G04 #@! TO.C,D1*
G36*
X138219505Y-87826204D02*
X138243773Y-87829804D01*
X138267572Y-87835765D01*
X138290671Y-87844030D01*
X138312850Y-87854520D01*
X138333893Y-87867132D01*
X138353599Y-87881747D01*
X138371777Y-87898223D01*
X138388253Y-87916401D01*
X138402868Y-87936107D01*
X138415480Y-87957150D01*
X138425970Y-87979329D01*
X138434235Y-88002428D01*
X138440196Y-88026227D01*
X138443796Y-88050495D01*
X138445000Y-88074999D01*
X138445000Y-88725001D01*
X138443796Y-88749505D01*
X138440196Y-88773773D01*
X138434235Y-88797572D01*
X138425970Y-88820671D01*
X138415480Y-88842850D01*
X138402868Y-88863893D01*
X138388253Y-88883599D01*
X138371777Y-88901777D01*
X138353599Y-88918253D01*
X138333893Y-88932868D01*
X138312850Y-88945480D01*
X138290671Y-88955970D01*
X138267572Y-88964235D01*
X138243773Y-88970196D01*
X138219505Y-88973796D01*
X138195001Y-88975000D01*
X137294999Y-88975000D01*
X137270495Y-88973796D01*
X137246227Y-88970196D01*
X137222428Y-88964235D01*
X137199329Y-88955970D01*
X137177150Y-88945480D01*
X137156107Y-88932868D01*
X137136401Y-88918253D01*
X137118223Y-88901777D01*
X137101747Y-88883599D01*
X137087132Y-88863893D01*
X137074520Y-88842850D01*
X137064030Y-88820671D01*
X137055765Y-88797572D01*
X137049804Y-88773773D01*
X137046204Y-88749505D01*
X137045000Y-88725001D01*
X137045000Y-88074999D01*
X137046204Y-88050495D01*
X137049804Y-88026227D01*
X137055765Y-88002428D01*
X137064030Y-87979329D01*
X137074520Y-87957150D01*
X137087132Y-87936107D01*
X137101747Y-87916401D01*
X137118223Y-87898223D01*
X137136401Y-87881747D01*
X137156107Y-87867132D01*
X137177150Y-87854520D01*
X137199329Y-87844030D01*
X137222428Y-87835765D01*
X137246227Y-87829804D01*
X137270495Y-87826204D01*
X137294999Y-87825000D01*
X138195001Y-87825000D01*
X138219505Y-87826204D01*
X138219505Y-87826204D01*
G37*
D13*
G04 #@! TD*
G04 #@! TO.P,D1,2*
G04 #@! TO.N,Net-(D1-Pad2)*
X137745000Y-88400000D03*
D12*
G04 #@! TO.N,+5V*
G04 #@! TO.C,D1*
G36*
X138219505Y-85776204D02*
X138243773Y-85779804D01*
X138267572Y-85785765D01*
X138290671Y-85794030D01*
X138312850Y-85804520D01*
X138333893Y-85817132D01*
X138353599Y-85831747D01*
X138371777Y-85848223D01*
X138388253Y-85866401D01*
X138402868Y-85886107D01*
X138415480Y-85907150D01*
X138425970Y-85929329D01*
X138434235Y-85952428D01*
X138440196Y-85976227D01*
X138443796Y-86000495D01*
X138445000Y-86024999D01*
X138445000Y-86675001D01*
X138443796Y-86699505D01*
X138440196Y-86723773D01*
X138434235Y-86747572D01*
X138425970Y-86770671D01*
X138415480Y-86792850D01*
X138402868Y-86813893D01*
X138388253Y-86833599D01*
X138371777Y-86851777D01*
X138353599Y-86868253D01*
X138333893Y-86882868D01*
X138312850Y-86895480D01*
X138290671Y-86905970D01*
X138267572Y-86914235D01*
X138243773Y-86920196D01*
X138219505Y-86923796D01*
X138195001Y-86925000D01*
X137294999Y-86925000D01*
X137270495Y-86923796D01*
X137246227Y-86920196D01*
X137222428Y-86914235D01*
X137199329Y-86905970D01*
X137177150Y-86895480D01*
X137156107Y-86882868D01*
X137136401Y-86868253D01*
X137118223Y-86851777D01*
X137101747Y-86833599D01*
X137087132Y-86813893D01*
X137074520Y-86792850D01*
X137064030Y-86770671D01*
X137055765Y-86747572D01*
X137049804Y-86723773D01*
X137046204Y-86699505D01*
X137045000Y-86675001D01*
X137045000Y-86024999D01*
X137046204Y-86000495D01*
X137049804Y-85976227D01*
X137055765Y-85952428D01*
X137064030Y-85929329D01*
X137074520Y-85907150D01*
X137087132Y-85886107D01*
X137101747Y-85866401D01*
X137118223Y-85848223D01*
X137136401Y-85831747D01*
X137156107Y-85817132D01*
X137177150Y-85804520D01*
X137199329Y-85794030D01*
X137222428Y-85785765D01*
X137246227Y-85779804D01*
X137270495Y-85776204D01*
X137294999Y-85775000D01*
X138195001Y-85775000D01*
X138219505Y-85776204D01*
X138219505Y-85776204D01*
G37*
D13*
G04 #@! TD*
G04 #@! TO.P,D1,1*
G04 #@! TO.N,+5V*
X137745000Y-86350000D03*
D16*
G04 #@! TO.P,J1,1*
G04 #@! TO.N,GND*
X140285000Y-91400000D03*
D11*
G04 #@! TO.P,J1,2*
G04 #@! TO.N,Net-(D1-Pad2)*
X137745000Y-91400000D03*
G04 #@! TD*
D16*
G04 #@! TO.P,J3,1*
G04 #@! TO.N,Net-(J3-Pad1)*
X170000000Y-76000000D03*
D11*
G04 #@! TO.P,J3,2*
G04 #@! TO.N,+5V*
X167460000Y-76000000D03*
G04 #@! TO.P,J3,3*
G04 #@! TO.N,Net-(J3-Pad3)*
X170000000Y-73460000D03*
G04 #@! TO.P,J3,4*
G04 #@! TO.N,Net-(J3-Pad4)*
X167460000Y-73460000D03*
G04 #@! TO.P,J3,5*
G04 #@! TO.N,Net-(J3-Pad5)*
X170000000Y-70920000D03*
G04 #@! TO.P,J3,6*
G04 #@! TO.N,GND*
X167460000Y-70920000D03*
G04 #@! TD*
D16*
G04 #@! TO.P,J4,1*
G04 #@! TO.N,Net-(J4-Pad1)*
X142550000Y-53850000D03*
D11*
G04 #@! TO.P,J4,2*
G04 #@! TO.N,Net-(J4-Pad2)*
X140010000Y-53850000D03*
G04 #@! TO.P,J4,3*
G04 #@! TO.N,Net-(J4-Pad3)*
X137470000Y-53850000D03*
G04 #@! TO.P,J4,4*
G04 #@! TO.N,Net-(J4-Pad4)*
X134930000Y-53850000D03*
G04 #@! TD*
G04 #@! TO.P,J5,4*
G04 #@! TO.N,Net-(J3-Pad1)*
X134930000Y-61150000D03*
G04 #@! TO.P,J5,3*
G04 #@! TO.N,Net-(J5-Pad3)*
X137470000Y-61150000D03*
G04 #@! TO.P,J5,2*
G04 #@! TO.N,Net-(J5-Pad2)*
X140010000Y-61150000D03*
D16*
G04 #@! TO.P,J5,1*
G04 #@! TO.N,GND*
X142550000Y-61150000D03*
G04 #@! TD*
D17*
G04 #@! TO.P,JP1,2*
G04 #@! TO.N,Net-(J3-Pad4)*
X157361644Y-80701010D03*
D12*
G04 #@! TD*
G04 #@! TO.N,Net-(J3-Pad4)*
G04 #@! TO.C,JP1*
G36*
X156612246Y-80701010D02*
X156612246Y-80676476D01*
X156617056Y-80627645D01*
X156626628Y-80579520D01*
X156640872Y-80532565D01*
X156659649Y-80487232D01*
X156682780Y-80443959D01*
X156710040Y-80403160D01*
X156741168Y-80365231D01*
X156775865Y-80330534D01*
X156813794Y-80299406D01*
X156854593Y-80272146D01*
X156897866Y-80249015D01*
X156943199Y-80230238D01*
X156990154Y-80215994D01*
X157038279Y-80206422D01*
X157087110Y-80201612D01*
X157111644Y-80201612D01*
X157111644Y-80201010D01*
X157611644Y-80201010D01*
X157611644Y-80201612D01*
X157636178Y-80201612D01*
X157685009Y-80206422D01*
X157733134Y-80215994D01*
X157780089Y-80230238D01*
X157825422Y-80249015D01*
X157868695Y-80272146D01*
X157909494Y-80299406D01*
X157947423Y-80330534D01*
X157982120Y-80365231D01*
X158013248Y-80403160D01*
X158040508Y-80443959D01*
X158063639Y-80487232D01*
X158082416Y-80532565D01*
X158096660Y-80579520D01*
X158106232Y-80627645D01*
X158111042Y-80676476D01*
X158111042Y-80701010D01*
X158111644Y-80701010D01*
X158111644Y-81201010D01*
X156611644Y-81201010D01*
X156611644Y-80701010D01*
X156612246Y-80701010D01*
X156612246Y-80701010D01*
G37*
D17*
G04 #@! TO.P,JP1,1*
G04 #@! TO.N,SDA*
X157361644Y-82001010D03*
D12*
G04 #@! TD*
G04 #@! TO.N,SDA*
G04 #@! TO.C,JP1*
G36*
X158111644Y-81501010D02*
X158111644Y-82001010D01*
X158111042Y-82001010D01*
X158111042Y-82025544D01*
X158106232Y-82074375D01*
X158096660Y-82122500D01*
X158082416Y-82169455D01*
X158063639Y-82214788D01*
X158040508Y-82258061D01*
X158013248Y-82298860D01*
X157982120Y-82336789D01*
X157947423Y-82371486D01*
X157909494Y-82402614D01*
X157868695Y-82429874D01*
X157825422Y-82453005D01*
X157780089Y-82471782D01*
X157733134Y-82486026D01*
X157685009Y-82495598D01*
X157636178Y-82500408D01*
X157611644Y-82500408D01*
X157611644Y-82501010D01*
X157111644Y-82501010D01*
X157111644Y-82500408D01*
X157087110Y-82500408D01*
X157038279Y-82495598D01*
X156990154Y-82486026D01*
X156943199Y-82471782D01*
X156897866Y-82453005D01*
X156854593Y-82429874D01*
X156813794Y-82402614D01*
X156775865Y-82371486D01*
X156741168Y-82336789D01*
X156710040Y-82298860D01*
X156682780Y-82258061D01*
X156659649Y-82214788D01*
X156640872Y-82169455D01*
X156626628Y-82122500D01*
X156617056Y-82074375D01*
X156612246Y-82025544D01*
X156612246Y-82001010D01*
X156611644Y-82001010D01*
X156611644Y-81501010D01*
X158111644Y-81501010D01*
X158111644Y-81501010D01*
G37*
D17*
G04 #@! TO.P,JP2,2*
G04 #@! TO.N,Net-(J3-Pad3)*
X159901644Y-80686010D03*
D12*
G04 #@! TD*
G04 #@! TO.N,Net-(J3-Pad3)*
G04 #@! TO.C,JP2*
G36*
X159152246Y-80686010D02*
X159152246Y-80661476D01*
X159157056Y-80612645D01*
X159166628Y-80564520D01*
X159180872Y-80517565D01*
X159199649Y-80472232D01*
X159222780Y-80428959D01*
X159250040Y-80388160D01*
X159281168Y-80350231D01*
X159315865Y-80315534D01*
X159353794Y-80284406D01*
X159394593Y-80257146D01*
X159437866Y-80234015D01*
X159483199Y-80215238D01*
X159530154Y-80200994D01*
X159578279Y-80191422D01*
X159627110Y-80186612D01*
X159651644Y-80186612D01*
X159651644Y-80186010D01*
X160151644Y-80186010D01*
X160151644Y-80186612D01*
X160176178Y-80186612D01*
X160225009Y-80191422D01*
X160273134Y-80200994D01*
X160320089Y-80215238D01*
X160365422Y-80234015D01*
X160408695Y-80257146D01*
X160449494Y-80284406D01*
X160487423Y-80315534D01*
X160522120Y-80350231D01*
X160553248Y-80388160D01*
X160580508Y-80428959D01*
X160603639Y-80472232D01*
X160622416Y-80517565D01*
X160636660Y-80564520D01*
X160646232Y-80612645D01*
X160651042Y-80661476D01*
X160651042Y-80686010D01*
X160651644Y-80686010D01*
X160651644Y-81186010D01*
X159151644Y-81186010D01*
X159151644Y-80686010D01*
X159152246Y-80686010D01*
X159152246Y-80686010D01*
G37*
D17*
G04 #@! TO.P,JP2,1*
G04 #@! TO.N,SCL*
X159901644Y-81986010D03*
D12*
G04 #@! TD*
G04 #@! TO.N,SCL*
G04 #@! TO.C,JP2*
G36*
X160651644Y-81486010D02*
X160651644Y-81986010D01*
X160651042Y-81986010D01*
X160651042Y-82010544D01*
X160646232Y-82059375D01*
X160636660Y-82107500D01*
X160622416Y-82154455D01*
X160603639Y-82199788D01*
X160580508Y-82243061D01*
X160553248Y-82283860D01*
X160522120Y-82321789D01*
X160487423Y-82356486D01*
X160449494Y-82387614D01*
X160408695Y-82414874D01*
X160365422Y-82438005D01*
X160320089Y-82456782D01*
X160273134Y-82471026D01*
X160225009Y-82480598D01*
X160176178Y-82485408D01*
X160151644Y-82485408D01*
X160151644Y-82486010D01*
X159651644Y-82486010D01*
X159651644Y-82485408D01*
X159627110Y-82485408D01*
X159578279Y-82480598D01*
X159530154Y-82471026D01*
X159483199Y-82456782D01*
X159437866Y-82438005D01*
X159394593Y-82414874D01*
X159353794Y-82387614D01*
X159315865Y-82356486D01*
X159281168Y-82321789D01*
X159250040Y-82283860D01*
X159222780Y-82243061D01*
X159199649Y-82199788D01*
X159180872Y-82154455D01*
X159166628Y-82107500D01*
X159157056Y-82059375D01*
X159152246Y-82010544D01*
X159152246Y-81986010D01*
X159151644Y-81986010D01*
X159151644Y-81486010D01*
X160651644Y-81486010D01*
X160651644Y-81486010D01*
G37*
G04 #@! TO.N,SCL*
G04 #@! TO.C,R1*
G36*
X160376149Y-85437214D02*
X160400417Y-85440814D01*
X160424216Y-85446775D01*
X160447315Y-85455040D01*
X160469494Y-85465530D01*
X160490537Y-85478142D01*
X160510243Y-85492757D01*
X160528421Y-85509233D01*
X160544897Y-85527411D01*
X160559512Y-85547117D01*
X160572124Y-85568160D01*
X160582614Y-85590339D01*
X160590879Y-85613438D01*
X160596840Y-85637237D01*
X160600440Y-85661505D01*
X160601644Y-85686009D01*
X160601644Y-86336011D01*
X160600440Y-86360515D01*
X160596840Y-86384783D01*
X160590879Y-86408582D01*
X160582614Y-86431681D01*
X160572124Y-86453860D01*
X160559512Y-86474903D01*
X160544897Y-86494609D01*
X160528421Y-86512787D01*
X160510243Y-86529263D01*
X160490537Y-86543878D01*
X160469494Y-86556490D01*
X160447315Y-86566980D01*
X160424216Y-86575245D01*
X160400417Y-86581206D01*
X160376149Y-86584806D01*
X160351645Y-86586010D01*
X159451643Y-86586010D01*
X159427139Y-86584806D01*
X159402871Y-86581206D01*
X159379072Y-86575245D01*
X159355973Y-86566980D01*
X159333794Y-86556490D01*
X159312751Y-86543878D01*
X159293045Y-86529263D01*
X159274867Y-86512787D01*
X159258391Y-86494609D01*
X159243776Y-86474903D01*
X159231164Y-86453860D01*
X159220674Y-86431681D01*
X159212409Y-86408582D01*
X159206448Y-86384783D01*
X159202848Y-86360515D01*
X159201644Y-86336011D01*
X159201644Y-85686009D01*
X159202848Y-85661505D01*
X159206448Y-85637237D01*
X159212409Y-85613438D01*
X159220674Y-85590339D01*
X159231164Y-85568160D01*
X159243776Y-85547117D01*
X159258391Y-85527411D01*
X159274867Y-85509233D01*
X159293045Y-85492757D01*
X159312751Y-85478142D01*
X159333794Y-85465530D01*
X159355973Y-85455040D01*
X159379072Y-85446775D01*
X159402871Y-85440814D01*
X159427139Y-85437214D01*
X159451643Y-85436010D01*
X160351645Y-85436010D01*
X160376149Y-85437214D01*
X160376149Y-85437214D01*
G37*
D13*
G04 #@! TD*
G04 #@! TO.P,R1,2*
G04 #@! TO.N,SCL*
X159901644Y-86011010D03*
D12*
G04 #@! TO.N,+5V*
G04 #@! TO.C,R1*
G36*
X160376149Y-87487214D02*
X160400417Y-87490814D01*
X160424216Y-87496775D01*
X160447315Y-87505040D01*
X160469494Y-87515530D01*
X160490537Y-87528142D01*
X160510243Y-87542757D01*
X160528421Y-87559233D01*
X160544897Y-87577411D01*
X160559512Y-87597117D01*
X160572124Y-87618160D01*
X160582614Y-87640339D01*
X160590879Y-87663438D01*
X160596840Y-87687237D01*
X160600440Y-87711505D01*
X160601644Y-87736009D01*
X160601644Y-88386011D01*
X160600440Y-88410515D01*
X160596840Y-88434783D01*
X160590879Y-88458582D01*
X160582614Y-88481681D01*
X160572124Y-88503860D01*
X160559512Y-88524903D01*
X160544897Y-88544609D01*
X160528421Y-88562787D01*
X160510243Y-88579263D01*
X160490537Y-88593878D01*
X160469494Y-88606490D01*
X160447315Y-88616980D01*
X160424216Y-88625245D01*
X160400417Y-88631206D01*
X160376149Y-88634806D01*
X160351645Y-88636010D01*
X159451643Y-88636010D01*
X159427139Y-88634806D01*
X159402871Y-88631206D01*
X159379072Y-88625245D01*
X159355973Y-88616980D01*
X159333794Y-88606490D01*
X159312751Y-88593878D01*
X159293045Y-88579263D01*
X159274867Y-88562787D01*
X159258391Y-88544609D01*
X159243776Y-88524903D01*
X159231164Y-88503860D01*
X159220674Y-88481681D01*
X159212409Y-88458582D01*
X159206448Y-88434783D01*
X159202848Y-88410515D01*
X159201644Y-88386011D01*
X159201644Y-87736009D01*
X159202848Y-87711505D01*
X159206448Y-87687237D01*
X159212409Y-87663438D01*
X159220674Y-87640339D01*
X159231164Y-87618160D01*
X159243776Y-87597117D01*
X159258391Y-87577411D01*
X159274867Y-87559233D01*
X159293045Y-87542757D01*
X159312751Y-87528142D01*
X159333794Y-87515530D01*
X159355973Y-87505040D01*
X159379072Y-87496775D01*
X159402871Y-87490814D01*
X159427139Y-87487214D01*
X159451643Y-87486010D01*
X160351645Y-87486010D01*
X160376149Y-87487214D01*
X160376149Y-87487214D01*
G37*
D13*
G04 #@! TD*
G04 #@! TO.P,R1,1*
G04 #@! TO.N,+5V*
X159901644Y-88061010D03*
D12*
G04 #@! TO.N,SDA*
G04 #@! TO.C,R2*
G36*
X157836149Y-85437214D02*
X157860417Y-85440814D01*
X157884216Y-85446775D01*
X157907315Y-85455040D01*
X157929494Y-85465530D01*
X157950537Y-85478142D01*
X157970243Y-85492757D01*
X157988421Y-85509233D01*
X158004897Y-85527411D01*
X158019512Y-85547117D01*
X158032124Y-85568160D01*
X158042614Y-85590339D01*
X158050879Y-85613438D01*
X158056840Y-85637237D01*
X158060440Y-85661505D01*
X158061644Y-85686009D01*
X158061644Y-86336011D01*
X158060440Y-86360515D01*
X158056840Y-86384783D01*
X158050879Y-86408582D01*
X158042614Y-86431681D01*
X158032124Y-86453860D01*
X158019512Y-86474903D01*
X158004897Y-86494609D01*
X157988421Y-86512787D01*
X157970243Y-86529263D01*
X157950537Y-86543878D01*
X157929494Y-86556490D01*
X157907315Y-86566980D01*
X157884216Y-86575245D01*
X157860417Y-86581206D01*
X157836149Y-86584806D01*
X157811645Y-86586010D01*
X156911643Y-86586010D01*
X156887139Y-86584806D01*
X156862871Y-86581206D01*
X156839072Y-86575245D01*
X156815973Y-86566980D01*
X156793794Y-86556490D01*
X156772751Y-86543878D01*
X156753045Y-86529263D01*
X156734867Y-86512787D01*
X156718391Y-86494609D01*
X156703776Y-86474903D01*
X156691164Y-86453860D01*
X156680674Y-86431681D01*
X156672409Y-86408582D01*
X156666448Y-86384783D01*
X156662848Y-86360515D01*
X156661644Y-86336011D01*
X156661644Y-85686009D01*
X156662848Y-85661505D01*
X156666448Y-85637237D01*
X156672409Y-85613438D01*
X156680674Y-85590339D01*
X156691164Y-85568160D01*
X156703776Y-85547117D01*
X156718391Y-85527411D01*
X156734867Y-85509233D01*
X156753045Y-85492757D01*
X156772751Y-85478142D01*
X156793794Y-85465530D01*
X156815973Y-85455040D01*
X156839072Y-85446775D01*
X156862871Y-85440814D01*
X156887139Y-85437214D01*
X156911643Y-85436010D01*
X157811645Y-85436010D01*
X157836149Y-85437214D01*
X157836149Y-85437214D01*
G37*
D13*
G04 #@! TD*
G04 #@! TO.P,R2,2*
G04 #@! TO.N,SDA*
X157361644Y-86011010D03*
D12*
G04 #@! TO.N,+5V*
G04 #@! TO.C,R2*
G36*
X157836149Y-87487214D02*
X157860417Y-87490814D01*
X157884216Y-87496775D01*
X157907315Y-87505040D01*
X157929494Y-87515530D01*
X157950537Y-87528142D01*
X157970243Y-87542757D01*
X157988421Y-87559233D01*
X158004897Y-87577411D01*
X158019512Y-87597117D01*
X158032124Y-87618160D01*
X158042614Y-87640339D01*
X158050879Y-87663438D01*
X158056840Y-87687237D01*
X158060440Y-87711505D01*
X158061644Y-87736009D01*
X158061644Y-88386011D01*
X158060440Y-88410515D01*
X158056840Y-88434783D01*
X158050879Y-88458582D01*
X158042614Y-88481681D01*
X158032124Y-88503860D01*
X158019512Y-88524903D01*
X158004897Y-88544609D01*
X157988421Y-88562787D01*
X157970243Y-88579263D01*
X157950537Y-88593878D01*
X157929494Y-88606490D01*
X157907315Y-88616980D01*
X157884216Y-88625245D01*
X157860417Y-88631206D01*
X157836149Y-88634806D01*
X157811645Y-88636010D01*
X156911643Y-88636010D01*
X156887139Y-88634806D01*
X156862871Y-88631206D01*
X156839072Y-88625245D01*
X156815973Y-88616980D01*
X156793794Y-88606490D01*
X156772751Y-88593878D01*
X156753045Y-88579263D01*
X156734867Y-88562787D01*
X156718391Y-88544609D01*
X156703776Y-88524903D01*
X156691164Y-88503860D01*
X156680674Y-88481681D01*
X156672409Y-88458582D01*
X156666448Y-88434783D01*
X156662848Y-88410515D01*
X156661644Y-88386011D01*
X156661644Y-87736009D01*
X156662848Y-87711505D01*
X156666448Y-87687237D01*
X156672409Y-87663438D01*
X156680674Y-87640339D01*
X156691164Y-87618160D01*
X156703776Y-87597117D01*
X156718391Y-87577411D01*
X156734867Y-87559233D01*
X156753045Y-87542757D01*
X156772751Y-87528142D01*
X156793794Y-87515530D01*
X156815973Y-87505040D01*
X156839072Y-87496775D01*
X156862871Y-87490814D01*
X156887139Y-87487214D01*
X156911643Y-87486010D01*
X157811645Y-87486010D01*
X157836149Y-87487214D01*
X157836149Y-87487214D01*
G37*
D13*
G04 #@! TD*
G04 #@! TO.P,R2,1*
G04 #@! TO.N,+5V*
X157361644Y-88061010D03*
D18*
G04 #@! TO.P,SW1,1*
G04 #@! TO.N,Net-(J4-Pad4)*
X119100000Y-50350000D03*
G04 #@! TO.P,SW1,2*
G04 #@! TO.N,Net-(J4-Pad1)*
X123600000Y-50350000D03*
G04 #@! TO.P,SW1,1*
G04 #@! TO.N,Net-(J4-Pad4)*
X119100000Y-43850000D03*
G04 #@! TO.P,SW1,2*
G04 #@! TO.N,Net-(J4-Pad1)*
X123600000Y-43850000D03*
G04 #@! TD*
G04 #@! TO.P,SW2,1*
G04 #@! TO.N,Net-(J4-Pad3)*
X136400000Y-50350000D03*
G04 #@! TO.P,SW2,2*
G04 #@! TO.N,Net-(J4-Pad1)*
X140900000Y-50350000D03*
G04 #@! TO.P,SW2,1*
G04 #@! TO.N,Net-(J4-Pad3)*
X136400000Y-43850000D03*
G04 #@! TO.P,SW2,2*
G04 #@! TO.N,Net-(J4-Pad1)*
X140900000Y-43850000D03*
G04 #@! TD*
G04 #@! TO.P,SW3,1*
G04 #@! TO.N,Net-(J4-Pad2)*
X153600000Y-50350000D03*
G04 #@! TO.P,SW3,2*
G04 #@! TO.N,Net-(J4-Pad1)*
X158100000Y-50350000D03*
G04 #@! TO.P,SW3,1*
G04 #@! TO.N,Net-(J4-Pad2)*
X153600000Y-43850000D03*
G04 #@! TO.P,SW3,2*
G04 #@! TO.N,Net-(J4-Pad1)*
X158100000Y-43850000D03*
G04 #@! TD*
D19*
G04 #@! TO.P,U1,8*
G04 #@! TO.N,+5V*
X160405000Y-75650000D03*
G04 #@! TO.P,U1,7*
G04 #@! TO.N,Net-(J3-Pad3)*
X159135000Y-75650000D03*
G04 #@! TO.P,U1,6*
G04 #@! TO.N,Net-(J3-Pad1)*
X157865000Y-75650000D03*
G04 #@! TO.P,U1,5*
G04 #@! TO.N,Net-(J3-Pad4)*
X156595000Y-75650000D03*
G04 #@! TO.P,U1,4*
G04 #@! TO.N,GND*
X156595000Y-68350000D03*
G04 #@! TO.P,U1,3*
G04 #@! TO.N,Net-(J5-Pad3)*
X157865000Y-68350000D03*
G04 #@! TO.P,U1,2*
G04 #@! TO.N,Net-(J5-Pad2)*
X159135000Y-68350000D03*
G04 #@! TO.P,U1,1*
G04 #@! TO.N,Net-(J3-Pad5)*
X160405000Y-68350000D03*
G04 #@! TD*
D20*
G04 #@! TO.P,U2,16*
G04 #@! TO.N,SCL*
X121555000Y-71850000D03*
G04 #@! TO.P,U2,15*
G04 #@! TO.N,SDA*
X122825000Y-71850000D03*
G04 #@! TO.P,U2,14*
G04 #@! TO.N,Net-(CR1220-Pad1)*
X124095000Y-71850000D03*
G04 #@! TO.P,U2,13*
G04 #@! TO.N,GND*
X125365000Y-71850000D03*
G04 #@! TO.P,U2,12*
X126635000Y-71850000D03*
G04 #@! TO.P,U2,11*
X127905000Y-71850000D03*
G04 #@! TO.P,U2,10*
X129175000Y-71850000D03*
G04 #@! TO.P,U2,9*
X130445000Y-71850000D03*
G04 #@! TO.P,U2,8*
X130445000Y-81150000D03*
G04 #@! TO.P,U2,7*
X129175000Y-81150000D03*
G04 #@! TO.P,U2,6*
X127905000Y-81150000D03*
G04 #@! TO.P,U2,5*
X126635000Y-81150000D03*
G04 #@! TO.P,U2,4*
G04 #@! TO.N,Net-(U2-Pad4)*
X125365000Y-81150000D03*
G04 #@! TO.P,U2,3*
G04 #@! TO.N,Net-(U2-Pad3)*
X124095000Y-81150000D03*
G04 #@! TO.P,U2,2*
G04 #@! TO.N,+5V*
X122825000Y-81150000D03*
G04 #@! TO.P,U2,1*
G04 #@! TO.N,Net-(U2-Pad1)*
X121555000Y-81150000D03*
G04 #@! TD*
D21*
G04 #@! TO.P,U3,28*
G04 #@! TO.N,+5V*
X134880000Y-71420000D03*
G04 #@! TO.P,U3,27*
G04 #@! TO.N,SDA*
X136150000Y-71420000D03*
G04 #@! TO.P,U3,26*
G04 #@! TO.N,SCL*
X137420000Y-71420000D03*
G04 #@! TO.P,U3,25*
G04 #@! TO.N,A*
X138690000Y-71420000D03*
G04 #@! TO.P,U3,24*
G04 #@! TO.N,B*
X139960000Y-71420000D03*
G04 #@! TO.P,U3,23*
G04 #@! TO.N,C*
X141230000Y-71420000D03*
G04 #@! TO.P,U3,22*
G04 #@! TO.N,D*
X142500000Y-71420000D03*
G04 #@! TO.P,U3,21*
G04 #@! TO.N,E*
X143770000Y-71420000D03*
G04 #@! TO.P,U3,20*
G04 #@! TO.N,F*
X145040000Y-71420000D03*
G04 #@! TO.P,U3,19*
G04 #@! TO.N,G*
X146310000Y-71420000D03*
G04 #@! TO.P,U3,18*
G04 #@! TO.N,DP*
X147580000Y-71420000D03*
G04 #@! TO.P,U3,17*
G04 #@! TO.N,Net-(U3-Pad17)*
X148850000Y-71420000D03*
G04 #@! TO.P,U3,16*
G04 #@! TO.N,Net-(U3-Pad16)*
X150120000Y-71420000D03*
G04 #@! TO.P,U3,15*
G04 #@! TO.N,Net-(U3-Pad15)*
X151390000Y-71420000D03*
G04 #@! TO.P,U3,14*
G04 #@! TO.N,Net-(U3-Pad14)*
X151390000Y-81580000D03*
G04 #@! TO.P,U3,13*
G04 #@! TO.N,Net-(U3-Pad13)*
X150120000Y-81580000D03*
G04 #@! TO.P,U3,12*
G04 #@! TO.N,Net-(U3-Pad12)*
X148850000Y-81580000D03*
G04 #@! TO.P,U3,11*
G04 #@! TO.N,Net-(U3-Pad11)*
X147580000Y-81580000D03*
G04 #@! TO.P,U3,10*
G04 #@! TO.N,Net-(U3-Pad10)*
X146310000Y-81580000D03*
G04 #@! TO.P,U3,9*
G04 #@! TO.N,Net-(U3-Pad9)*
X145040000Y-81580000D03*
G04 #@! TO.P,U3,8*
G04 #@! TO.N,Net-(U3-Pad8)*
X143770000Y-81580000D03*
G04 #@! TO.P,U3,7*
G04 #@! TO.N,Net-(U3-Pad7)*
X142500000Y-81580000D03*
G04 #@! TO.P,U3,6*
G04 #@! TO.N,LED_COM4*
X141230000Y-81580000D03*
G04 #@! TO.P,U3,5*
G04 #@! TO.N,LED_COM3*
X139960000Y-81580000D03*
G04 #@! TO.P,U3,4*
G04 #@! TO.N,LED_COM_DOT*
X138690000Y-81580000D03*
G04 #@! TO.P,U3,3*
G04 #@! TO.N,LED_COM2*
X137420000Y-81580000D03*
G04 #@! TO.P,U3,2*
G04 #@! TO.N,LED_COM1*
X136150000Y-81580000D03*
G04 #@! TO.P,U3,1*
G04 #@! TO.N,GND*
X134880000Y-81580000D03*
G04 #@! TD*
D22*
G04 #@! TO.P,U4,14*
G04 #@! TO.N,LED_COM1*
X131345000Y-84120000D03*
G04 #@! TO.P,U4,13*
G04 #@! TO.N,A*
X133885000Y-84120000D03*
G04 #@! TO.P,U4,12*
G04 #@! TO.N,F*
X136425000Y-84120000D03*
G04 #@! TO.P,U4,11*
G04 #@! TO.N,LED_COM2*
X138965000Y-84120000D03*
G04 #@! TO.P,U4,10*
G04 #@! TO.N,LED_COM3*
X141505000Y-84120000D03*
G04 #@! TO.P,U4,9*
G04 #@! TO.N,B*
X144045000Y-84120000D03*
G04 #@! TO.P,U4,8*
X146585000Y-84120000D03*
G04 #@! TO.P,U4,7*
G04 #@! TO.N,LED_COM_DOT*
X146585000Y-68880000D03*
G04 #@! TO.P,U4,6*
G04 #@! TO.N,LED_COM4*
X144045000Y-68880000D03*
G04 #@! TO.P,U4,5*
G04 #@! TO.N,G*
X141505000Y-68880000D03*
G04 #@! TO.P,U4,4*
G04 #@! TO.N,C*
X138965000Y-68880000D03*
G04 #@! TO.P,U4,3*
G04 #@! TO.N,DP*
X136425000Y-68880000D03*
G04 #@! TO.P,U4,2*
G04 #@! TO.N,D*
X133885000Y-68880000D03*
G04 #@! TO.P,U4,1*
G04 #@! TO.N,E*
X131345000Y-68880000D03*
G04 #@! TD*
D17*
G04 #@! TO.P,JP3,1*
G04 #@! TO.N,Net-(J3-Pad1)*
X134900000Y-58150000D03*
D12*
G04 #@! TD*
G04 #@! TO.N,Net-(J3-Pad1)*
G04 #@! TO.C,JP3*
G36*
X134600000Y-57650000D02*
X134600000Y-57250000D01*
X135200000Y-57250000D01*
X135200000Y-57650000D01*
X135650000Y-57650000D01*
X135650000Y-58150000D01*
X135649398Y-58150000D01*
X135649398Y-58174534D01*
X135644588Y-58223365D01*
X135635016Y-58271490D01*
X135620772Y-58318445D01*
X135601995Y-58363778D01*
X135578864Y-58407051D01*
X135551604Y-58447850D01*
X135520476Y-58485779D01*
X135485779Y-58520476D01*
X135447850Y-58551604D01*
X135407051Y-58578864D01*
X135363778Y-58601995D01*
X135318445Y-58620772D01*
X135271490Y-58635016D01*
X135223365Y-58644588D01*
X135174534Y-58649398D01*
X135150000Y-58649398D01*
X135150000Y-58650000D01*
X134650000Y-58650000D01*
X134650000Y-58649398D01*
X134625466Y-58649398D01*
X134576635Y-58644588D01*
X134528510Y-58635016D01*
X134481555Y-58620772D01*
X134436222Y-58601995D01*
X134392949Y-58578864D01*
X134352150Y-58551604D01*
X134314221Y-58520476D01*
X134279524Y-58485779D01*
X134248396Y-58447850D01*
X134221136Y-58407051D01*
X134198005Y-58363778D01*
X134179228Y-58318445D01*
X134164984Y-58271490D01*
X134155412Y-58223365D01*
X134150602Y-58174534D01*
X134150602Y-58150000D01*
X134150000Y-58150000D01*
X134150000Y-57650000D01*
X134600000Y-57650000D01*
X134600000Y-57650000D01*
G37*
D17*
G04 #@! TO.P,JP3,2*
G04 #@! TO.N,Net-(J4-Pad4)*
X134900000Y-56850000D03*
D12*
G04 #@! TD*
G04 #@! TO.N,Net-(J4-Pad4)*
G04 #@! TO.C,JP3*
G36*
X134150602Y-56850000D02*
X134150602Y-56825466D01*
X134155412Y-56776635D01*
X134164984Y-56728510D01*
X134179228Y-56681555D01*
X134198005Y-56636222D01*
X134221136Y-56592949D01*
X134248396Y-56552150D01*
X134279524Y-56514221D01*
X134314221Y-56479524D01*
X134352150Y-56448396D01*
X134392949Y-56421136D01*
X134436222Y-56398005D01*
X134481555Y-56379228D01*
X134528510Y-56364984D01*
X134576635Y-56355412D01*
X134625466Y-56350602D01*
X134650000Y-56350602D01*
X134650000Y-56350000D01*
X135150000Y-56350000D01*
X135150000Y-56350602D01*
X135174534Y-56350602D01*
X135223365Y-56355412D01*
X135271490Y-56364984D01*
X135318445Y-56379228D01*
X135363778Y-56398005D01*
X135407051Y-56421136D01*
X135447850Y-56448396D01*
X135485779Y-56479524D01*
X135520476Y-56514221D01*
X135551604Y-56552150D01*
X135578864Y-56592949D01*
X135601995Y-56636222D01*
X135620772Y-56681555D01*
X135635016Y-56728510D01*
X135644588Y-56776635D01*
X135649398Y-56825466D01*
X135649398Y-56850000D01*
X135650000Y-56850000D01*
X135650000Y-57350000D01*
X134150000Y-57350000D01*
X134150000Y-56850000D01*
X134150602Y-56850000D01*
X134150602Y-56850000D01*
G37*
D17*
G04 #@! TO.P,JP4,2*
G04 #@! TO.N,Net-(J4-Pad3)*
X137450000Y-56850000D03*
D12*
G04 #@! TD*
G04 #@! TO.N,Net-(J4-Pad3)*
G04 #@! TO.C,JP4*
G36*
X136700602Y-56850000D02*
X136700602Y-56825466D01*
X136705412Y-56776635D01*
X136714984Y-56728510D01*
X136729228Y-56681555D01*
X136748005Y-56636222D01*
X136771136Y-56592949D01*
X136798396Y-56552150D01*
X136829524Y-56514221D01*
X136864221Y-56479524D01*
X136902150Y-56448396D01*
X136942949Y-56421136D01*
X136986222Y-56398005D01*
X137031555Y-56379228D01*
X137078510Y-56364984D01*
X137126635Y-56355412D01*
X137175466Y-56350602D01*
X137200000Y-56350602D01*
X137200000Y-56350000D01*
X137700000Y-56350000D01*
X137700000Y-56350602D01*
X137724534Y-56350602D01*
X137773365Y-56355412D01*
X137821490Y-56364984D01*
X137868445Y-56379228D01*
X137913778Y-56398005D01*
X137957051Y-56421136D01*
X137997850Y-56448396D01*
X138035779Y-56479524D01*
X138070476Y-56514221D01*
X138101604Y-56552150D01*
X138128864Y-56592949D01*
X138151995Y-56636222D01*
X138170772Y-56681555D01*
X138185016Y-56728510D01*
X138194588Y-56776635D01*
X138199398Y-56825466D01*
X138199398Y-56850000D01*
X138200000Y-56850000D01*
X138200000Y-57350000D01*
X136700000Y-57350000D01*
X136700000Y-56850000D01*
X136700602Y-56850000D01*
X136700602Y-56850000D01*
G37*
D17*
G04 #@! TO.P,JP4,1*
G04 #@! TO.N,Net-(J5-Pad3)*
X137450000Y-58150000D03*
D12*
G04 #@! TD*
G04 #@! TO.N,Net-(J5-Pad3)*
G04 #@! TO.C,JP4*
G36*
X137150000Y-57650000D02*
X137150000Y-57250000D01*
X137750000Y-57250000D01*
X137750000Y-57650000D01*
X138200000Y-57650000D01*
X138200000Y-58150000D01*
X138199398Y-58150000D01*
X138199398Y-58174534D01*
X138194588Y-58223365D01*
X138185016Y-58271490D01*
X138170772Y-58318445D01*
X138151995Y-58363778D01*
X138128864Y-58407051D01*
X138101604Y-58447850D01*
X138070476Y-58485779D01*
X138035779Y-58520476D01*
X137997850Y-58551604D01*
X137957051Y-58578864D01*
X137913778Y-58601995D01*
X137868445Y-58620772D01*
X137821490Y-58635016D01*
X137773365Y-58644588D01*
X137724534Y-58649398D01*
X137700000Y-58649398D01*
X137700000Y-58650000D01*
X137200000Y-58650000D01*
X137200000Y-58649398D01*
X137175466Y-58649398D01*
X137126635Y-58644588D01*
X137078510Y-58635016D01*
X137031555Y-58620772D01*
X136986222Y-58601995D01*
X136942949Y-58578864D01*
X136902150Y-58551604D01*
X136864221Y-58520476D01*
X136829524Y-58485779D01*
X136798396Y-58447850D01*
X136771136Y-58407051D01*
X136748005Y-58363778D01*
X136729228Y-58318445D01*
X136714984Y-58271490D01*
X136705412Y-58223365D01*
X136700602Y-58174534D01*
X136700602Y-58150000D01*
X136700000Y-58150000D01*
X136700000Y-57650000D01*
X137150000Y-57650000D01*
X137150000Y-57650000D01*
G37*
D17*
G04 #@! TO.P,JP5,1*
G04 #@! TO.N,Net-(J5-Pad2)*
X140000000Y-58150000D03*
D12*
G04 #@! TD*
G04 #@! TO.N,Net-(J5-Pad2)*
G04 #@! TO.C,JP5*
G36*
X139700000Y-57650000D02*
X139700000Y-57250000D01*
X140300000Y-57250000D01*
X140300000Y-57650000D01*
X140750000Y-57650000D01*
X140750000Y-58150000D01*
X140749398Y-58150000D01*
X140749398Y-58174534D01*
X140744588Y-58223365D01*
X140735016Y-58271490D01*
X140720772Y-58318445D01*
X140701995Y-58363778D01*
X140678864Y-58407051D01*
X140651604Y-58447850D01*
X140620476Y-58485779D01*
X140585779Y-58520476D01*
X140547850Y-58551604D01*
X140507051Y-58578864D01*
X140463778Y-58601995D01*
X140418445Y-58620772D01*
X140371490Y-58635016D01*
X140323365Y-58644588D01*
X140274534Y-58649398D01*
X140250000Y-58649398D01*
X140250000Y-58650000D01*
X139750000Y-58650000D01*
X139750000Y-58649398D01*
X139725466Y-58649398D01*
X139676635Y-58644588D01*
X139628510Y-58635016D01*
X139581555Y-58620772D01*
X139536222Y-58601995D01*
X139492949Y-58578864D01*
X139452150Y-58551604D01*
X139414221Y-58520476D01*
X139379524Y-58485779D01*
X139348396Y-58447850D01*
X139321136Y-58407051D01*
X139298005Y-58363778D01*
X139279228Y-58318445D01*
X139264984Y-58271490D01*
X139255412Y-58223365D01*
X139250602Y-58174534D01*
X139250602Y-58150000D01*
X139250000Y-58150000D01*
X139250000Y-57650000D01*
X139700000Y-57650000D01*
X139700000Y-57650000D01*
G37*
D17*
G04 #@! TO.P,JP5,2*
G04 #@! TO.N,Net-(J4-Pad2)*
X140000000Y-56850000D03*
D12*
G04 #@! TD*
G04 #@! TO.N,Net-(J4-Pad2)*
G04 #@! TO.C,JP5*
G36*
X139250602Y-56850000D02*
X139250602Y-56825466D01*
X139255412Y-56776635D01*
X139264984Y-56728510D01*
X139279228Y-56681555D01*
X139298005Y-56636222D01*
X139321136Y-56592949D01*
X139348396Y-56552150D01*
X139379524Y-56514221D01*
X139414221Y-56479524D01*
X139452150Y-56448396D01*
X139492949Y-56421136D01*
X139536222Y-56398005D01*
X139581555Y-56379228D01*
X139628510Y-56364984D01*
X139676635Y-56355412D01*
X139725466Y-56350602D01*
X139750000Y-56350602D01*
X139750000Y-56350000D01*
X140250000Y-56350000D01*
X140250000Y-56350602D01*
X140274534Y-56350602D01*
X140323365Y-56355412D01*
X140371490Y-56364984D01*
X140418445Y-56379228D01*
X140463778Y-56398005D01*
X140507051Y-56421136D01*
X140547850Y-56448396D01*
X140585779Y-56479524D01*
X140620476Y-56514221D01*
X140651604Y-56552150D01*
X140678864Y-56592949D01*
X140701995Y-56636222D01*
X140720772Y-56681555D01*
X140735016Y-56728510D01*
X140744588Y-56776635D01*
X140749398Y-56825466D01*
X140749398Y-56850000D01*
X140750000Y-56850000D01*
X140750000Y-57350000D01*
X139250000Y-57350000D01*
X139250000Y-56850000D01*
X139250602Y-56850000D01*
X139250602Y-56850000D01*
G37*
D17*
G04 #@! TO.P,JP6,2*
G04 #@! TO.N,Net-(J4-Pad1)*
X142550000Y-56850000D03*
D12*
G04 #@! TD*
G04 #@! TO.N,Net-(J4-Pad1)*
G04 #@! TO.C,JP6*
G36*
X141800602Y-56850000D02*
X141800602Y-56825466D01*
X141805412Y-56776635D01*
X141814984Y-56728510D01*
X141829228Y-56681555D01*
X141848005Y-56636222D01*
X141871136Y-56592949D01*
X141898396Y-56552150D01*
X141929524Y-56514221D01*
X141964221Y-56479524D01*
X142002150Y-56448396D01*
X142042949Y-56421136D01*
X142086222Y-56398005D01*
X142131555Y-56379228D01*
X142178510Y-56364984D01*
X142226635Y-56355412D01*
X142275466Y-56350602D01*
X142300000Y-56350602D01*
X142300000Y-56350000D01*
X142800000Y-56350000D01*
X142800000Y-56350602D01*
X142824534Y-56350602D01*
X142873365Y-56355412D01*
X142921490Y-56364984D01*
X142968445Y-56379228D01*
X143013778Y-56398005D01*
X143057051Y-56421136D01*
X143097850Y-56448396D01*
X143135779Y-56479524D01*
X143170476Y-56514221D01*
X143201604Y-56552150D01*
X143228864Y-56592949D01*
X143251995Y-56636222D01*
X143270772Y-56681555D01*
X143285016Y-56728510D01*
X143294588Y-56776635D01*
X143299398Y-56825466D01*
X143299398Y-56850000D01*
X143300000Y-56850000D01*
X143300000Y-57350000D01*
X141800000Y-57350000D01*
X141800000Y-56850000D01*
X141800602Y-56850000D01*
X141800602Y-56850000D01*
G37*
D17*
G04 #@! TO.P,JP6,1*
G04 #@! TO.N,GND*
X142550000Y-58150000D03*
D12*
G04 #@! TD*
G04 #@! TO.N,GND*
G04 #@! TO.C,JP6*
G36*
X142250000Y-57650000D02*
X142250000Y-57250000D01*
X142850000Y-57250000D01*
X142850000Y-57650000D01*
X143300000Y-57650000D01*
X143300000Y-58150000D01*
X143299398Y-58150000D01*
X143299398Y-58174534D01*
X143294588Y-58223365D01*
X143285016Y-58271490D01*
X143270772Y-58318445D01*
X143251995Y-58363778D01*
X143228864Y-58407051D01*
X143201604Y-58447850D01*
X143170476Y-58485779D01*
X143135779Y-58520476D01*
X143097850Y-58551604D01*
X143057051Y-58578864D01*
X143013778Y-58601995D01*
X142968445Y-58620772D01*
X142921490Y-58635016D01*
X142873365Y-58644588D01*
X142824534Y-58649398D01*
X142800000Y-58649398D01*
X142800000Y-58650000D01*
X142300000Y-58650000D01*
X142300000Y-58649398D01*
X142275466Y-58649398D01*
X142226635Y-58644588D01*
X142178510Y-58635016D01*
X142131555Y-58620772D01*
X142086222Y-58601995D01*
X142042949Y-58578864D01*
X142002150Y-58551604D01*
X141964221Y-58520476D01*
X141929524Y-58485779D01*
X141898396Y-58447850D01*
X141871136Y-58407051D01*
X141848005Y-58363778D01*
X141829228Y-58318445D01*
X141814984Y-58271490D01*
X141805412Y-58223365D01*
X141800602Y-58174534D01*
X141800602Y-58150000D01*
X141800000Y-58150000D01*
X141800000Y-57650000D01*
X142250000Y-57650000D01*
X142250000Y-57650000D01*
G37*
D23*
G04 #@! TO.N,+5V*
X132500000Y-72300000D03*
X132500000Y-75700000D03*
G04 #@! TO.N,GND*
X156595000Y-66605000D03*
X129200000Y-70000000D03*
X130500000Y-78800000D03*
X125200000Y-75700000D03*
X125400000Y-70000000D03*
G04 #@! TO.N,SDA*
X128200000Y-73600000D03*
X157361644Y-83300000D03*
G04 #@! TO.N,SCL*
X127000000Y-74650000D03*
X159901644Y-84500000D03*
G04 #@! TO.N,Net-(J3-Pad1)*
X157900000Y-77035000D03*
X162200000Y-77700000D03*
G04 #@! TO.N,Net-(J3-Pad3)*
X159135000Y-73735000D03*
G04 #@! TO.N,Net-(J3-Pad4)*
X155300000Y-73800000D03*
G04 #@! TO.N,LED_COM1*
X136150000Y-79750000D03*
G04 #@! TO.N,LED_COM_DOT*
X144600000Y-78350000D03*
G04 #@! TO.N,LED_COM4*
X141950000Y-79350000D03*
G04 #@! TO.N,G*
X142300000Y-77400000D03*
G04 #@! TO.N,F*
X139649999Y-76600000D03*
G04 #@! TO.N,E*
X137300000Y-75400000D03*
G04 #@! TO.N,D*
X137700000Y-74300000D03*
G04 #@! TO.N,C*
X141200000Y-73400000D03*
G04 #@! TO.N,B*
X140000000Y-73400000D03*
G04 #@! TO.N,A*
X138700000Y-73300000D03*
G04 #@! TD*
D24*
G04 #@! TO.N,+5V*
X137745000Y-86350000D02*
X140285000Y-86350000D01*
X122825000Y-82400000D02*
X122825000Y-81150000D01*
X126775000Y-86350000D02*
X122825000Y-82400000D01*
X137745000Y-86350000D02*
X126775000Y-86350000D01*
X134080000Y-71420000D02*
X133200000Y-72300000D01*
X134880000Y-71420000D02*
X134080000Y-71420000D01*
X133200000Y-72300000D02*
X132500000Y-72300000D01*
X132500000Y-72300000D02*
X132500000Y-72300000D01*
X131934315Y-75700000D02*
X132500000Y-75700000D01*
X127025000Y-75700000D02*
X131934315Y-75700000D01*
X122825000Y-79900000D02*
X127025000Y-75700000D01*
X122825000Y-81150000D02*
X122825000Y-79900000D01*
X140285000Y-86350000D02*
X152750000Y-86350000D01*
X154461010Y-88061010D02*
X159901644Y-88061010D01*
X152750000Y-86350000D02*
X154461010Y-88061010D01*
X160701644Y-88061010D02*
X161900000Y-86862654D01*
X159901644Y-88061010D02*
X160701644Y-88061010D01*
X161900000Y-86862654D02*
X161900000Y-79500000D01*
X160405000Y-78005000D02*
X160405000Y-75650000D01*
X161900000Y-79500000D02*
X160405000Y-78005000D01*
X167110000Y-75650000D02*
X167460000Y-76000000D01*
X160405000Y-75650000D02*
X167110000Y-75650000D01*
G04 #@! TO.N,GND*
X140285000Y-88400000D02*
X140285000Y-91400000D01*
X166257919Y-70920000D02*
X166237919Y-70900000D01*
X167460000Y-70920000D02*
X166257919Y-70920000D01*
X156595000Y-69700000D02*
X156595000Y-68350000D01*
X157795000Y-70900000D02*
X156595000Y-69700000D01*
X166237919Y-70900000D02*
X157795000Y-70900000D01*
X156595000Y-68350000D02*
X156595000Y-66605000D01*
X156595000Y-66605000D02*
X156595000Y-66605000D01*
X125365000Y-71850000D02*
X130445000Y-71850000D01*
X134450000Y-81150000D02*
X134880000Y-81580000D01*
X126635000Y-81150000D02*
X134450000Y-81150000D01*
X129175000Y-70600000D02*
X129200000Y-70000000D01*
X129175000Y-71850000D02*
X129175000Y-70600000D01*
X129200000Y-70575000D02*
X129200000Y-70000000D01*
X129200000Y-70000000D02*
X129200000Y-70575000D01*
X130445000Y-81150000D02*
X130500000Y-78800000D01*
X130500000Y-78800000D02*
X130445000Y-78855000D01*
X111000000Y-76500000D02*
X124400000Y-76500000D01*
X124400000Y-76500000D02*
X125200000Y-75700000D01*
X125200000Y-75700000D02*
X125200000Y-75700000D01*
X125365000Y-71850000D02*
X125400000Y-70000000D01*
X125400000Y-70000000D02*
X125365000Y-70035000D01*
X142550000Y-61150000D02*
X142550000Y-58150000D01*
G04 #@! TO.N,Net-(CR1220-Pad1)*
X124095000Y-70600000D02*
X124095000Y-71850000D01*
X123395000Y-69900000D02*
X124095000Y-70600000D01*
X111000000Y-69900000D02*
X123395000Y-69900000D01*
G04 #@! TO.N,Net-(D1-Pad2)*
X137745000Y-91400000D02*
X137745000Y-88400000D01*
G04 #@! TO.N,SDA*
X136150000Y-72999500D02*
X135549500Y-73600000D01*
X136150000Y-71420000D02*
X136150000Y-72999500D01*
X122825000Y-73100000D02*
X122825000Y-71850000D01*
X123325000Y-73600000D02*
X122825000Y-73100000D01*
X135549500Y-73600000D02*
X128200000Y-73600000D01*
X157361644Y-86011010D02*
X157361644Y-83300000D01*
X128200000Y-73600000D02*
X123325000Y-73600000D01*
X157361644Y-83300000D02*
X157361644Y-82001010D01*
G04 #@! TO.N,SCL*
X159901644Y-81986010D02*
X159901644Y-84500000D01*
X159901644Y-84500000D02*
X159901644Y-86011010D01*
X135650000Y-74650000D02*
X127000000Y-74650000D01*
X137420000Y-71420000D02*
X137420000Y-72880000D01*
X137420000Y-72880000D02*
X135650000Y-74650000D01*
X121555000Y-73100000D02*
X121555000Y-71850000D01*
X127000000Y-74650000D02*
X123105000Y-74650000D01*
X123105000Y-74650000D02*
X121555000Y-73100000D01*
G04 #@! TO.N,Net-(J3-Pad1)*
X157865000Y-74300000D02*
X157865000Y-75650000D01*
X148765000Y-65200000D02*
X157865000Y-74300000D01*
X157865000Y-77000000D02*
X157900000Y-77035000D01*
X157865000Y-75650000D02*
X157865000Y-77000000D01*
X157900000Y-77035000D02*
X157900000Y-77035000D01*
X170000000Y-77350000D02*
X169650000Y-77700000D01*
X170000000Y-76000000D02*
X170000000Y-77350000D01*
X169650000Y-77700000D02*
X162200000Y-77700000D01*
X162200000Y-77700000D02*
X162200000Y-77700000D01*
X148765000Y-65200000D02*
X136400000Y-65200000D01*
X134930000Y-63730000D02*
X134930000Y-61150000D01*
X136400000Y-65200000D02*
X134930000Y-63730000D01*
X134930000Y-58180000D02*
X134900000Y-58150000D01*
X134930000Y-61150000D02*
X134930000Y-58180000D01*
G04 #@! TO.N,Net-(J3-Pad3)*
X159135000Y-79919366D02*
X159135000Y-75650000D01*
X159901644Y-80686010D02*
X159135000Y-79919366D01*
X159135000Y-75650000D02*
X159135000Y-73735000D01*
X159135000Y-73735000D02*
X159135000Y-73735000D01*
G04 #@! TO.N,Net-(J3-Pad4)*
X156595000Y-77000000D02*
X156595000Y-75650000D01*
X156595000Y-79334366D02*
X156595000Y-77000000D01*
X157361644Y-80101010D02*
X156595000Y-79334366D01*
X157361644Y-80701010D02*
X157361644Y-80101010D01*
X155770000Y-75650000D02*
X155300000Y-75180000D01*
X156595000Y-75650000D02*
X155770000Y-75650000D01*
X155300000Y-75180000D02*
X155300000Y-73800000D01*
X155300000Y-73800000D02*
X155300000Y-73800000D01*
G04 #@! TO.N,Net-(J3-Pad5)*
X161230000Y-68350000D02*
X160405000Y-68350000D01*
X168632081Y-68350000D02*
X161230000Y-68350000D01*
X170000000Y-69717919D02*
X168632081Y-68350000D01*
X170000000Y-70920000D02*
X170000000Y-69717919D01*
G04 #@! TO.N,LED_COM1*
X136150000Y-81580000D02*
X136150000Y-79750000D01*
G04 #@! TO.N,LED_COM2*
X137420000Y-82575000D02*
X138965000Y-84120000D01*
X137420000Y-81580000D02*
X137420000Y-82575000D01*
G04 #@! TO.N,LED_COM_DOT*
X138690000Y-81580000D02*
X138690000Y-80000500D01*
X138690000Y-80000500D02*
X140340501Y-78349999D01*
X144034315Y-78350000D02*
X144600000Y-78350000D01*
X140340501Y-78349999D02*
X144034315Y-78350000D01*
G04 #@! TO.N,LED_COM3*
X139960000Y-82575000D02*
X141505000Y-84120000D01*
X139960000Y-81580000D02*
X139960000Y-82575000D01*
G04 #@! TO.N,LED_COM4*
X141230000Y-80070000D02*
X141950000Y-79350000D01*
X141230000Y-81580000D02*
X141230000Y-80070000D01*
G04 #@! TO.N,DP*
X137186999Y-68118001D02*
X136425000Y-68880000D01*
X137737001Y-67567999D02*
X137186999Y-68118001D01*
X147214761Y-67567999D02*
X137737001Y-67567999D01*
X147897001Y-68250239D02*
X147214761Y-67567999D01*
X147897001Y-69523499D02*
X147897001Y-68250239D01*
X147580000Y-69840500D02*
X147897001Y-69523499D01*
X147580000Y-71420000D02*
X147580000Y-69840500D01*
G04 #@! TO.N,G*
X146310000Y-73390000D02*
X142300000Y-77400000D01*
X146310000Y-71420000D02*
X146310000Y-73390000D01*
G04 #@! TO.N,F*
X139649999Y-76600000D02*
X141693998Y-76600000D01*
X145040000Y-73253998D02*
X145040000Y-71420000D01*
X141693998Y-76600000D02*
X145040000Y-73253998D01*
G04 #@! TO.N,E*
X143770000Y-71420000D02*
X143770000Y-72999500D01*
X143770000Y-73367386D02*
X141737386Y-75400000D01*
X143770000Y-72999500D02*
X143770000Y-73367386D01*
X141737386Y-75400000D02*
X137300000Y-75400000D01*
X137300000Y-75400000D02*
X137300000Y-75400000D01*
G04 #@! TO.N,D*
X142500000Y-73506002D02*
X141656001Y-74350001D01*
X142500000Y-71420000D02*
X142500000Y-73506002D01*
X137700000Y-74400000D02*
X137749999Y-74350001D01*
X138265685Y-74300000D02*
X137700000Y-74300000D01*
X138315686Y-74350001D02*
X138265685Y-74300000D01*
X141656001Y-74350001D02*
X138315686Y-74350001D01*
G04 #@! TO.N,C*
X141230000Y-72999500D02*
X141200000Y-73400000D01*
X141230000Y-71420000D02*
X141230000Y-72999500D01*
X141200000Y-73029500D02*
X141200000Y-73400000D01*
X141200000Y-73400000D02*
X141200000Y-73029500D01*
G04 #@! TO.N,B*
X139960000Y-73360000D02*
X140000000Y-73400000D01*
X139960000Y-71420000D02*
X139960000Y-73360000D01*
G04 #@! TO.N,A*
X138690000Y-73290000D02*
X138700000Y-73300000D01*
X138690000Y-71420000D02*
X138690000Y-73290000D01*
G04 #@! TO.N,Net-(J4-Pad1)*
X142550000Y-55200000D02*
X142550000Y-56699990D01*
X142550000Y-53850000D02*
X142550000Y-55200000D01*
G04 #@! TO.N,Net-(J4-Pad2)*
X153600000Y-45264213D02*
X153600000Y-50350000D01*
X153600000Y-43850000D02*
X153600000Y-45264213D01*
X140000000Y-55062081D02*
X140000000Y-56699990D01*
X140010000Y-55052081D02*
X140000000Y-55062081D01*
X140010000Y-53850000D02*
X140010000Y-55052081D01*
X151700000Y-52250000D02*
X153600000Y-50350000D01*
X140407919Y-52250000D02*
X151700000Y-52250000D01*
X140010000Y-53850000D02*
X140010000Y-52647919D01*
X140010000Y-52647919D02*
X140407919Y-52250000D01*
G04 #@! TO.N,Net-(J4-Pad3)*
X136400000Y-45264213D02*
X136400000Y-50350000D01*
X136400000Y-43850000D02*
X136400000Y-45264213D01*
X137450000Y-55072081D02*
X137450000Y-56699990D01*
X137470000Y-55052081D02*
X137450000Y-55072081D01*
X137470000Y-53850000D02*
X137470000Y-55052081D01*
X137470000Y-51420000D02*
X136400000Y-50350000D01*
X137470000Y-53850000D02*
X137470000Y-51420000D01*
G04 #@! TO.N,Net-(J4-Pad4)*
X119100000Y-48935787D02*
X119100000Y-43850000D01*
X119100000Y-50350000D02*
X119100000Y-48935787D01*
X119100000Y-52500000D02*
X119100000Y-50350000D01*
X134930000Y-53850000D02*
X120450000Y-53850000D01*
X120450000Y-53850000D02*
X119100000Y-52500000D01*
X134900000Y-55082081D02*
X134900000Y-56699990D01*
X134930000Y-55052081D02*
X134900000Y-55082081D01*
X134930000Y-53850000D02*
X134930000Y-55052081D01*
G04 #@! TO.N,Net-(J5-Pad3)*
X157865000Y-65165000D02*
X157865000Y-68350000D01*
X156700000Y-64000000D02*
X157865000Y-65165000D01*
X156700000Y-64000000D02*
X138350000Y-64000000D01*
X137470000Y-63120000D02*
X137470000Y-61150000D01*
X138350000Y-64000000D02*
X137470000Y-63120000D01*
X137470000Y-58170000D02*
X137450000Y-58150000D01*
X137470000Y-61150000D02*
X137470000Y-58170000D01*
G04 #@! TO.N,Net-(J5-Pad2)*
X159135000Y-64835000D02*
X159135000Y-68350000D01*
X157100000Y-62800000D02*
X159135000Y-64835000D01*
X157100000Y-62800000D02*
X140400000Y-62800000D01*
X140010000Y-62410000D02*
X140010000Y-61150000D01*
X140400000Y-62800000D02*
X140010000Y-62410000D01*
X140010000Y-58160000D02*
X140000000Y-58150000D01*
X140010000Y-61150000D02*
X140010000Y-58160000D01*
G04 #@! TD*
D25*
G04 #@! TO.N,GND*
G36*
X133670713Y-58745397D02*
X133725169Y-58826896D01*
X133805686Y-58925006D01*
X133874994Y-58994314D01*
X133973104Y-59074831D01*
X134045001Y-59122871D01*
X134045000Y-59955344D01*
X133859375Y-60079375D01*
X133531161Y-60570582D01*
X133415908Y-61150000D01*
X133531161Y-61729418D01*
X133859375Y-62220625D01*
X134045001Y-62344656D01*
X134045000Y-63642839D01*
X134027663Y-63730000D01*
X134045000Y-63817161D01*
X134045000Y-63817164D01*
X134096348Y-64075309D01*
X134291951Y-64368049D01*
X134365847Y-64417425D01*
X135712577Y-65764156D01*
X135761951Y-65838049D01*
X135835844Y-65887423D01*
X135835845Y-65887424D01*
X136002309Y-65998652D01*
X136054690Y-66033652D01*
X136312835Y-66085000D01*
X136312839Y-66085000D01*
X136400000Y-66102337D01*
X136487161Y-66085000D01*
X148398422Y-66085000D01*
X155083021Y-72769600D01*
X154713720Y-72922569D01*
X154422569Y-73213720D01*
X154265000Y-73594126D01*
X154265000Y-74005874D01*
X154415001Y-74368008D01*
X154415000Y-75092839D01*
X154397663Y-75180000D01*
X154415000Y-75267161D01*
X154415000Y-75267164D01*
X154466348Y-75525309D01*
X154661951Y-75818049D01*
X154735847Y-75867425D01*
X155082575Y-76214153D01*
X155131951Y-76288049D01*
X155424690Y-76483652D01*
X155627326Y-76523959D01*
X155671843Y-76747765D01*
X155710000Y-76804871D01*
X155710000Y-77087164D01*
X155710001Y-77087169D01*
X155710000Y-79247205D01*
X155692663Y-79334366D01*
X155710000Y-79421527D01*
X155710000Y-79421530D01*
X155761348Y-79679675D01*
X155956951Y-79972415D01*
X156030847Y-80021791D01*
X156126196Y-80117140D01*
X156072525Y-80217550D01*
X156035016Y-80308106D01*
X155998174Y-80429559D01*
X155979052Y-80525692D01*
X155966612Y-80652001D01*
X155966612Y-80688904D01*
X155964204Y-80701010D01*
X155964204Y-81201010D01*
X155994041Y-81351010D01*
X155964204Y-81501010D01*
X155964204Y-82001010D01*
X155966612Y-82013116D01*
X155966612Y-82050019D01*
X155979052Y-82176328D01*
X155998174Y-82272461D01*
X156035016Y-82393914D01*
X156072525Y-82484470D01*
X156132357Y-82596407D01*
X156186813Y-82677906D01*
X156267330Y-82776016D01*
X156336638Y-82845324D01*
X156406091Y-82902323D01*
X156326644Y-83094126D01*
X156326644Y-83505874D01*
X156476645Y-83868009D01*
X156476644Y-84918064D01*
X156277058Y-85051424D01*
X156082517Y-85342574D01*
X156014204Y-85686009D01*
X156014204Y-86336011D01*
X156082517Y-86679446D01*
X156277058Y-86970596D01*
X156374957Y-87036010D01*
X156277058Y-87101424D01*
X156227221Y-87176010D01*
X154827589Y-87176010D01*
X153437425Y-85785847D01*
X153388049Y-85711951D01*
X153095310Y-85516348D01*
X152837165Y-85465000D01*
X152837161Y-85465000D01*
X152750000Y-85447663D01*
X152662839Y-85465000D01*
X146988420Y-85465000D01*
X147376337Y-85304320D01*
X147769320Y-84911337D01*
X147982000Y-84397881D01*
X147982000Y-83842119D01*
X147769320Y-83328663D01*
X147747597Y-83306940D01*
X147880000Y-83306940D01*
X148127765Y-83257657D01*
X148215000Y-83199368D01*
X148302235Y-83257657D01*
X148550000Y-83306940D01*
X149150000Y-83306940D01*
X149397765Y-83257657D01*
X149485000Y-83199368D01*
X149572235Y-83257657D01*
X149820000Y-83306940D01*
X150420000Y-83306940D01*
X150667765Y-83257657D01*
X150755000Y-83199368D01*
X150842235Y-83257657D01*
X151090000Y-83306940D01*
X151690000Y-83306940D01*
X151937765Y-83257657D01*
X152147809Y-83117309D01*
X152288157Y-82907265D01*
X152337440Y-82659500D01*
X152337440Y-80500500D01*
X152288157Y-80252735D01*
X152147809Y-80042691D01*
X151937765Y-79902343D01*
X151690000Y-79853060D01*
X151090000Y-79853060D01*
X150842235Y-79902343D01*
X150755000Y-79960632D01*
X150667765Y-79902343D01*
X150420000Y-79853060D01*
X149820000Y-79853060D01*
X149572235Y-79902343D01*
X149485000Y-79960632D01*
X149397765Y-79902343D01*
X149150000Y-79853060D01*
X148550000Y-79853060D01*
X148302235Y-79902343D01*
X148215000Y-79960632D01*
X148127765Y-79902343D01*
X147880000Y-79853060D01*
X147280000Y-79853060D01*
X147032235Y-79902343D01*
X146945000Y-79960632D01*
X146857765Y-79902343D01*
X146610000Y-79853060D01*
X146010000Y-79853060D01*
X145762235Y-79902343D01*
X145675000Y-79960632D01*
X145587765Y-79902343D01*
X145340000Y-79853060D01*
X144740000Y-79853060D01*
X144492235Y-79902343D01*
X144405000Y-79960632D01*
X144317765Y-79902343D01*
X144070000Y-79853060D01*
X143470000Y-79853060D01*
X143222235Y-79902343D01*
X143135000Y-79960632D01*
X143047765Y-79902343D01*
X142857190Y-79864436D01*
X142985000Y-79555874D01*
X142985000Y-79234999D01*
X143947150Y-79235000D01*
X144031993Y-79235000D01*
X144394126Y-79385000D01*
X144805874Y-79385000D01*
X145186280Y-79227431D01*
X145477431Y-78936280D01*
X145635000Y-78555874D01*
X145635000Y-78144126D01*
X145477431Y-77763720D01*
X145186280Y-77472569D01*
X144805874Y-77315000D01*
X144394126Y-77315000D01*
X144031993Y-77465000D01*
X143947150Y-77465000D01*
X143947145Y-77465001D01*
X143486577Y-77465001D01*
X146874156Y-74077423D01*
X146948049Y-74028049D01*
X147003335Y-73945309D01*
X147089504Y-73816348D01*
X147143652Y-73735310D01*
X147195000Y-73477165D01*
X147195000Y-73477161D01*
X147212337Y-73390001D01*
X147195000Y-73302841D01*
X147195000Y-73130033D01*
X147280000Y-73146940D01*
X147880000Y-73146940D01*
X148127765Y-73097657D01*
X148215000Y-73039368D01*
X148302235Y-73097657D01*
X148550000Y-73146940D01*
X149150000Y-73146940D01*
X149397765Y-73097657D01*
X149485000Y-73039368D01*
X149572235Y-73097657D01*
X149820000Y-73146940D01*
X150420000Y-73146940D01*
X150667765Y-73097657D01*
X150755000Y-73039368D01*
X150842235Y-73097657D01*
X151090000Y-73146940D01*
X151690000Y-73146940D01*
X151937765Y-73097657D01*
X152147809Y-72957309D01*
X152288157Y-72747265D01*
X152337440Y-72499500D01*
X152337440Y-70340500D01*
X152288157Y-70092735D01*
X152147809Y-69882691D01*
X151937765Y-69742343D01*
X151690000Y-69693060D01*
X151090000Y-69693060D01*
X150842235Y-69742343D01*
X150755000Y-69800632D01*
X150667765Y-69742343D01*
X150420000Y-69693060D01*
X149820000Y-69693060D01*
X149572235Y-69742343D01*
X149485000Y-69800632D01*
X149397765Y-69742343D01*
X149150000Y-69693060D01*
X148765611Y-69693060D01*
X148782001Y-69610664D01*
X148782001Y-69610659D01*
X148799338Y-69523500D01*
X148782001Y-69436340D01*
X148782001Y-68337398D01*
X148799338Y-68250238D01*
X148782001Y-68163079D01*
X148782001Y-68163074D01*
X148730653Y-67904929D01*
X148535050Y-67612190D01*
X148461157Y-67562816D01*
X147902186Y-67003846D01*
X147852810Y-66929950D01*
X147560071Y-66734347D01*
X147301926Y-66682999D01*
X147301922Y-66682999D01*
X147214761Y-66665662D01*
X147127600Y-66682999D01*
X137824160Y-66682999D01*
X137737000Y-66665662D01*
X137649840Y-66682999D01*
X137649836Y-66682999D01*
X137391691Y-66734347D01*
X137098952Y-66929950D01*
X137049576Y-67003846D01*
X136622847Y-67430575D01*
X136622844Y-67430577D01*
X136570421Y-67483000D01*
X136147119Y-67483000D01*
X135633663Y-67695680D01*
X135240680Y-68088663D01*
X135155000Y-68295513D01*
X135069320Y-68088663D01*
X134676337Y-67695680D01*
X134162881Y-67483000D01*
X133607119Y-67483000D01*
X133093663Y-67695680D01*
X132700680Y-68088663D01*
X132615000Y-68295513D01*
X132529320Y-68088663D01*
X132136337Y-67695680D01*
X131622881Y-67483000D01*
X131067119Y-67483000D01*
X130553663Y-67695680D01*
X130160680Y-68088663D01*
X129948000Y-68602119D01*
X129948000Y-69157881D01*
X130160680Y-69671337D01*
X130553663Y-70064320D01*
X131067119Y-70277000D01*
X131622881Y-70277000D01*
X132136337Y-70064320D01*
X132529320Y-69671337D01*
X132615000Y-69464487D01*
X132700680Y-69671337D01*
X133093663Y-70064320D01*
X133607119Y-70277000D01*
X133945191Y-70277000D01*
X133932560Y-70340500D01*
X133932560Y-70546989D01*
X133734690Y-70586348D01*
X133515845Y-70732576D01*
X133515844Y-70732577D01*
X133441951Y-70781951D01*
X133392577Y-70855844D01*
X132902130Y-71346292D01*
X132705874Y-71265000D01*
X132294126Y-71265000D01*
X131913720Y-71422569D01*
X131622569Y-71713720D01*
X131465000Y-72094126D01*
X131465000Y-72505874D01*
X131551623Y-72715000D01*
X131380000Y-72715000D01*
X131380000Y-72135750D01*
X131221250Y-71977000D01*
X130572000Y-71977000D01*
X130572000Y-71997000D01*
X130318000Y-71997000D01*
X130318000Y-71977000D01*
X129302000Y-71977000D01*
X129302000Y-71997000D01*
X129048000Y-71997000D01*
X129048000Y-71977000D01*
X128032000Y-71977000D01*
X128032000Y-71997000D01*
X127778000Y-71997000D01*
X127778000Y-71977000D01*
X126762000Y-71977000D01*
X126762000Y-71997000D01*
X126508000Y-71997000D01*
X126508000Y-71977000D01*
X125492000Y-71977000D01*
X125492000Y-71997000D01*
X125238000Y-71997000D01*
X125238000Y-71977000D01*
X125218000Y-71977000D01*
X125218000Y-71723000D01*
X125238000Y-71723000D01*
X125238000Y-70623750D01*
X125492000Y-70623750D01*
X125492000Y-71723000D01*
X126508000Y-71723000D01*
X126508000Y-70623750D01*
X126762000Y-70623750D01*
X126762000Y-71723000D01*
X127778000Y-71723000D01*
X127778000Y-70623750D01*
X128032000Y-70623750D01*
X128032000Y-71723000D01*
X129048000Y-71723000D01*
X129048000Y-70623750D01*
X129302000Y-70623750D01*
X129302000Y-71723000D01*
X130318000Y-71723000D01*
X130318000Y-70623750D01*
X130572000Y-70623750D01*
X130572000Y-71723000D01*
X131221250Y-71723000D01*
X131380000Y-71564250D01*
X131380000Y-70973691D01*
X131283327Y-70740302D01*
X131104699Y-70561673D01*
X130871310Y-70465000D01*
X130730750Y-70465000D01*
X130572000Y-70623750D01*
X130318000Y-70623750D01*
X130159250Y-70465000D01*
X130018690Y-70465000D01*
X129810000Y-70551442D01*
X129601310Y-70465000D01*
X129460750Y-70465000D01*
X129302000Y-70623750D01*
X129048000Y-70623750D01*
X128889250Y-70465000D01*
X128748690Y-70465000D01*
X128540000Y-70551442D01*
X128331310Y-70465000D01*
X128190750Y-70465000D01*
X128032000Y-70623750D01*
X127778000Y-70623750D01*
X127619250Y-70465000D01*
X127478690Y-70465000D01*
X127270000Y-70551442D01*
X127061310Y-70465000D01*
X126920750Y-70465000D01*
X126762000Y-70623750D01*
X126508000Y-70623750D01*
X126349250Y-70465000D01*
X126208690Y-70465000D01*
X126000000Y-70551442D01*
X125791310Y-70465000D01*
X125650750Y-70465000D01*
X125492000Y-70623750D01*
X125238000Y-70623750D01*
X125079250Y-70465000D01*
X124970485Y-70465000D01*
X124928652Y-70254690D01*
X124733049Y-69961951D01*
X124659156Y-69912577D01*
X124082425Y-69335847D01*
X124033049Y-69261951D01*
X123740310Y-69066348D01*
X123482165Y-69015000D01*
X123482161Y-69015000D01*
X123395000Y-68997663D01*
X123307839Y-69015000D01*
X112944329Y-69015000D01*
X112809966Y-68690620D01*
X112209380Y-68090034D01*
X111424678Y-67765000D01*
X110575322Y-67765000D01*
X109790620Y-68090034D01*
X109190034Y-68690620D01*
X108865000Y-69475322D01*
X108865000Y-70324678D01*
X109190034Y-71109380D01*
X109790620Y-71709966D01*
X110575322Y-72035000D01*
X111424678Y-72035000D01*
X112209380Y-71709966D01*
X112809966Y-71109380D01*
X112944329Y-70785000D01*
X120701768Y-70785000D01*
X120656843Y-70852235D01*
X120607560Y-71100000D01*
X120607560Y-72600000D01*
X120656843Y-72847765D01*
X120670000Y-72867456D01*
X120670000Y-73012839D01*
X120652663Y-73100000D01*
X120670000Y-73187161D01*
X120670000Y-73187164D01*
X120721348Y-73445309D01*
X120916951Y-73738049D01*
X120990847Y-73787425D01*
X122417577Y-75214156D01*
X122466951Y-75288049D01*
X122540844Y-75337423D01*
X122540845Y-75337424D01*
X122759690Y-75483652D01*
X123017835Y-75535000D01*
X123017838Y-75535000D01*
X123104999Y-75552337D01*
X123192160Y-75535000D01*
X125938421Y-75535000D01*
X122260845Y-79212577D01*
X122186952Y-79261951D01*
X122137578Y-79335844D01*
X122137576Y-79335846D01*
X121991348Y-79554691D01*
X121948299Y-79771118D01*
X121855000Y-79752560D01*
X121255000Y-79752560D01*
X121007235Y-79801843D01*
X120797191Y-79942191D01*
X120656843Y-80152235D01*
X120607560Y-80400000D01*
X120607560Y-81900000D01*
X120656843Y-82147765D01*
X120797191Y-82357809D01*
X121007235Y-82498157D01*
X121255000Y-82547440D01*
X121855000Y-82547440D01*
X121948298Y-82528882D01*
X121991348Y-82745309D01*
X122186951Y-83038049D01*
X122260847Y-83087425D01*
X126087577Y-86914156D01*
X126136951Y-86988049D01*
X126210844Y-87037423D01*
X126210845Y-87037424D01*
X126401980Y-87165137D01*
X126429690Y-87183652D01*
X126687835Y-87235000D01*
X126687839Y-87235000D01*
X126775000Y-87252337D01*
X126862161Y-87235000D01*
X136610577Y-87235000D01*
X136660414Y-87309586D01*
X136758313Y-87375000D01*
X136660414Y-87440414D01*
X136465873Y-87731564D01*
X136397560Y-88074999D01*
X136397560Y-88725001D01*
X136465873Y-89068436D01*
X136660414Y-89359586D01*
X136860001Y-89492946D01*
X136860000Y-90205344D01*
X136674375Y-90329375D01*
X136346161Y-90820582D01*
X136230908Y-91400000D01*
X136346161Y-91979418D01*
X136674375Y-92470625D01*
X137165582Y-92798839D01*
X137598744Y-92885000D01*
X137891256Y-92885000D01*
X138324418Y-92798839D01*
X138815625Y-92470625D01*
X138830096Y-92448967D01*
X138896673Y-92609698D01*
X139075301Y-92788327D01*
X139308690Y-92885000D01*
X139999250Y-92885000D01*
X140158000Y-92726250D01*
X140158000Y-91527000D01*
X140412000Y-91527000D01*
X140412000Y-92726250D01*
X140570750Y-92885000D01*
X141261310Y-92885000D01*
X141494699Y-92788327D01*
X141673327Y-92609698D01*
X141770000Y-92376309D01*
X141770000Y-91685750D01*
X141611250Y-91527000D01*
X140412000Y-91527000D01*
X140158000Y-91527000D01*
X140138000Y-91527000D01*
X140138000Y-91273000D01*
X140158000Y-91273000D01*
X140158000Y-90073750D01*
X140412000Y-90073750D01*
X140412000Y-91273000D01*
X141611250Y-91273000D01*
X141770000Y-91114250D01*
X141770000Y-90423691D01*
X141673327Y-90190302D01*
X141494699Y-90011673D01*
X141261310Y-89915000D01*
X140570750Y-89915000D01*
X140412000Y-90073750D01*
X140158000Y-90073750D01*
X139999250Y-89915000D01*
X139308690Y-89915000D01*
X139075301Y-90011673D01*
X138896673Y-90190302D01*
X138830096Y-90351033D01*
X138815625Y-90329375D01*
X138630000Y-90205344D01*
X138630000Y-89492946D01*
X138829586Y-89359586D01*
X138969961Y-89149500D01*
X139046673Y-89334698D01*
X139225301Y-89513327D01*
X139458690Y-89610000D01*
X139999250Y-89610000D01*
X140158000Y-89451250D01*
X140158000Y-88527000D01*
X140412000Y-88527000D01*
X140412000Y-89451250D01*
X140570750Y-89610000D01*
X141111310Y-89610000D01*
X141243051Y-89555431D01*
X166765000Y-89555431D01*
X166765000Y-90444569D01*
X167105259Y-91266026D01*
X167733974Y-91894741D01*
X168555431Y-92235000D01*
X169444569Y-92235000D01*
X170266026Y-91894741D01*
X170894741Y-91266026D01*
X171235000Y-90444569D01*
X171235000Y-89555431D01*
X170894741Y-88733974D01*
X170266026Y-88105259D01*
X169444569Y-87765000D01*
X168555431Y-87765000D01*
X167733974Y-88105259D01*
X167105259Y-88733974D01*
X166765000Y-89555431D01*
X141243051Y-89555431D01*
X141344699Y-89513327D01*
X141523327Y-89334698D01*
X141620000Y-89101309D01*
X141620000Y-88685750D01*
X141461250Y-88527000D01*
X140412000Y-88527000D01*
X140158000Y-88527000D01*
X140138000Y-88527000D01*
X140138000Y-88273000D01*
X140158000Y-88273000D01*
X140158000Y-88253000D01*
X140412000Y-88253000D01*
X140412000Y-88273000D01*
X141461250Y-88273000D01*
X141620000Y-88114250D01*
X141620000Y-87698691D01*
X141523327Y-87465302D01*
X141368403Y-87310377D01*
X141369586Y-87309586D01*
X141419423Y-87235000D01*
X152383422Y-87235000D01*
X153773587Y-88625166D01*
X153822961Y-88699059D01*
X153896854Y-88748433D01*
X153896855Y-88748434D01*
X154115700Y-88894662D01*
X154373845Y-88946010D01*
X154373849Y-88946010D01*
X154461010Y-88963347D01*
X154548171Y-88946010D01*
X156227221Y-88946010D01*
X156277058Y-89020596D01*
X156568208Y-89215137D01*
X156911643Y-89283450D01*
X157811645Y-89283450D01*
X158155080Y-89215137D01*
X158446230Y-89020596D01*
X158496067Y-88946010D01*
X158767221Y-88946010D01*
X158817058Y-89020596D01*
X159108208Y-89215137D01*
X159451643Y-89283450D01*
X160351645Y-89283450D01*
X160695080Y-89215137D01*
X160986230Y-89020596D01*
X161089269Y-88866388D01*
X161339693Y-88699059D01*
X161389069Y-88625163D01*
X162464156Y-87550077D01*
X162538049Y-87500703D01*
X162733652Y-87207964D01*
X162785000Y-86949819D01*
X162785000Y-86949815D01*
X162802337Y-86862655D01*
X162785000Y-86775495D01*
X162785000Y-81204615D01*
X165975000Y-81204615D01*
X165975000Y-81795385D01*
X166201078Y-82341185D01*
X166618815Y-82758922D01*
X167164615Y-82985000D01*
X167755385Y-82985000D01*
X168301185Y-82758922D01*
X168718922Y-82341185D01*
X168740791Y-82288389D01*
X168929375Y-82570625D01*
X169420582Y-82898839D01*
X169853744Y-82985000D01*
X170146256Y-82985000D01*
X170579418Y-82898839D01*
X171070625Y-82570625D01*
X171398839Y-82079418D01*
X171514092Y-81500000D01*
X171398839Y-80920582D01*
X171070625Y-80429375D01*
X170579418Y-80101161D01*
X170146256Y-80015000D01*
X169853744Y-80015000D01*
X169420582Y-80101161D01*
X168929375Y-80429375D01*
X168740791Y-80711611D01*
X168718922Y-80658815D01*
X168301185Y-80241078D01*
X167755385Y-80015000D01*
X167164615Y-80015000D01*
X166618815Y-80241078D01*
X166201078Y-80658815D01*
X165975000Y-81204615D01*
X162785000Y-81204615D01*
X162785000Y-79587159D01*
X162802337Y-79499999D01*
X162785000Y-79412839D01*
X162785000Y-79412835D01*
X162733652Y-79154690D01*
X162622979Y-78989057D01*
X162587424Y-78935845D01*
X162587423Y-78935844D01*
X162538049Y-78861951D01*
X162464156Y-78812577D01*
X162386579Y-78735000D01*
X162405874Y-78735000D01*
X162768007Y-78585000D01*
X169562839Y-78585000D01*
X169650000Y-78602337D01*
X169737161Y-78585000D01*
X169737165Y-78585000D01*
X169995310Y-78533652D01*
X170288049Y-78338049D01*
X170337425Y-78264153D01*
X170564153Y-78037425D01*
X170638049Y-77988049D01*
X170833652Y-77695310D01*
X170873959Y-77492674D01*
X171097765Y-77448157D01*
X171307809Y-77307809D01*
X171448157Y-77097765D01*
X171497440Y-76850000D01*
X171497440Y-75150000D01*
X171448157Y-74902235D01*
X171307809Y-74692191D01*
X171097765Y-74551843D01*
X171052381Y-74542816D01*
X171070625Y-74530625D01*
X171398839Y-74039418D01*
X171514092Y-73460000D01*
X171398839Y-72880582D01*
X171070625Y-72389375D01*
X170772239Y-72190000D01*
X171070625Y-71990625D01*
X171398839Y-71499418D01*
X171514092Y-70920000D01*
X171398839Y-70340582D01*
X171070625Y-69849375D01*
X170898999Y-69734698D01*
X170902337Y-69717919D01*
X170885000Y-69630758D01*
X170885000Y-69630754D01*
X170833652Y-69372609D01*
X170726721Y-69212576D01*
X170687424Y-69153764D01*
X170687423Y-69153763D01*
X170638049Y-69079870D01*
X170564156Y-69030496D01*
X169319506Y-67785847D01*
X169270130Y-67711951D01*
X168977391Y-67516348D01*
X168719246Y-67465000D01*
X168719242Y-67465000D01*
X168632081Y-67447663D01*
X168544920Y-67465000D01*
X161370478Y-67465000D01*
X161328157Y-67252235D01*
X161187809Y-67042191D01*
X160977765Y-66901843D01*
X160730000Y-66852560D01*
X160080000Y-66852560D01*
X160020000Y-66864495D01*
X160020000Y-64922161D01*
X160037337Y-64835000D01*
X160020000Y-64747839D01*
X160020000Y-64747835D01*
X159968652Y-64489690D01*
X159862851Y-64331348D01*
X159822424Y-64270845D01*
X159822423Y-64270844D01*
X159773049Y-64196951D01*
X159699156Y-64147577D01*
X158107010Y-62555431D01*
X166765000Y-62555431D01*
X166765000Y-63444569D01*
X167105259Y-64266026D01*
X167733974Y-64894741D01*
X168555431Y-65235000D01*
X169444569Y-65235000D01*
X170266026Y-64894741D01*
X170894741Y-64266026D01*
X171235000Y-63444569D01*
X171235000Y-62555431D01*
X170894741Y-61733974D01*
X170266026Y-61105259D01*
X169444569Y-60765000D01*
X168555431Y-60765000D01*
X167733974Y-61105259D01*
X167105259Y-61733974D01*
X166765000Y-62555431D01*
X158107010Y-62555431D01*
X157787424Y-62235846D01*
X157738049Y-62161951D01*
X157445310Y-61966348D01*
X157187165Y-61915000D01*
X157187161Y-61915000D01*
X157100000Y-61897663D01*
X157012839Y-61915000D01*
X144035000Y-61915000D01*
X144035000Y-61435750D01*
X143876250Y-61277000D01*
X142677000Y-61277000D01*
X142677000Y-61297000D01*
X142423000Y-61297000D01*
X142423000Y-61277000D01*
X142403000Y-61277000D01*
X142403000Y-61023000D01*
X142423000Y-61023000D01*
X142423000Y-59823750D01*
X142677000Y-59823750D01*
X142677000Y-61023000D01*
X143876250Y-61023000D01*
X144035000Y-60864250D01*
X144035000Y-60173691D01*
X143938327Y-59940302D01*
X143759699Y-59761673D01*
X143526310Y-59665000D01*
X142835750Y-59665000D01*
X142677000Y-59823750D01*
X142423000Y-59823750D01*
X142264250Y-59665000D01*
X141573690Y-59665000D01*
X141340301Y-59761673D01*
X141161673Y-59940302D01*
X141095096Y-60101033D01*
X141080625Y-60079375D01*
X140895000Y-59955344D01*
X140895000Y-59096143D01*
X140926896Y-59074831D01*
X141025006Y-58994314D01*
X141094314Y-58925006D01*
X141174831Y-58826896D01*
X141229287Y-58745397D01*
X141239121Y-58727000D01*
X141310879Y-58727000D01*
X141320713Y-58745397D01*
X141375169Y-58826896D01*
X141455686Y-58925006D01*
X141524994Y-58994314D01*
X141623104Y-59074831D01*
X141704603Y-59129287D01*
X141816540Y-59189119D01*
X141907096Y-59226628D01*
X142028549Y-59263470D01*
X142124682Y-59282592D01*
X142250991Y-59295032D01*
X142287894Y-59295032D01*
X142300000Y-59297440D01*
X142800000Y-59297440D01*
X142812106Y-59295032D01*
X142849009Y-59295032D01*
X142975318Y-59282592D01*
X143071451Y-59263470D01*
X143192904Y-59226628D01*
X143283460Y-59189119D01*
X143395397Y-59129287D01*
X143476896Y-59074831D01*
X143575006Y-58994314D01*
X143644314Y-58925006D01*
X143724831Y-58826896D01*
X143779287Y-58745397D01*
X143789120Y-58727000D01*
X169158863Y-58727000D01*
X169759192Y-58780578D01*
X170494389Y-58981705D01*
X171182351Y-59309846D01*
X171801331Y-59754628D01*
X172331761Y-60301988D01*
X172756884Y-60934639D01*
X173063251Y-61632561D01*
X173242499Y-62379183D01*
X173290001Y-63026044D01*
X173290000Y-89968382D01*
X173219422Y-90759193D01*
X173018295Y-91494389D01*
X172690152Y-92182355D01*
X172245374Y-92801328D01*
X171698012Y-93331761D01*
X171065362Y-93756883D01*
X170367439Y-94063251D01*
X169620819Y-94242499D01*
X169137645Y-94277980D01*
X169072388Y-94265000D01*
X108927612Y-94265000D01*
X108873067Y-94275850D01*
X108240807Y-94219422D01*
X107505611Y-94018295D01*
X106817645Y-93690152D01*
X106198672Y-93245374D01*
X105668239Y-92698012D01*
X105243117Y-92065362D01*
X104936749Y-91367439D01*
X104757501Y-90620819D01*
X104710000Y-89973970D01*
X104710000Y-89555431D01*
X106765000Y-89555431D01*
X106765000Y-90444569D01*
X107105259Y-91266026D01*
X107733974Y-91894741D01*
X108555431Y-92235000D01*
X109444569Y-92235000D01*
X110266026Y-91894741D01*
X110894741Y-91266026D01*
X111235000Y-90444569D01*
X111235000Y-89555431D01*
X110894741Y-88733974D01*
X110266026Y-88105259D01*
X109444569Y-87765000D01*
X108555431Y-87765000D01*
X107733974Y-88105259D01*
X107105259Y-88733974D01*
X106765000Y-89555431D01*
X104710000Y-89555431D01*
X104710000Y-82675322D01*
X108865000Y-82675322D01*
X108865000Y-83524678D01*
X109190034Y-84309380D01*
X109790620Y-84909966D01*
X110575322Y-85235000D01*
X111424678Y-85235000D01*
X112209380Y-84909966D01*
X112809966Y-84309380D01*
X113135000Y-83524678D01*
X113135000Y-82675322D01*
X112809966Y-81890620D01*
X112209380Y-81290034D01*
X111424678Y-80965000D01*
X110575322Y-80965000D01*
X109790620Y-81290034D01*
X109190034Y-81890620D01*
X108865000Y-82675322D01*
X104710000Y-82675322D01*
X104710000Y-76785750D01*
X108365000Y-76785750D01*
X108365000Y-78626309D01*
X108461673Y-78859698D01*
X108640301Y-79038327D01*
X108873690Y-79135000D01*
X110714250Y-79135000D01*
X110873000Y-78976250D01*
X110873000Y-76627000D01*
X111127000Y-76627000D01*
X111127000Y-78976250D01*
X111285750Y-79135000D01*
X113126310Y-79135000D01*
X113359699Y-79038327D01*
X113538327Y-78859698D01*
X113635000Y-78626309D01*
X113635000Y-76785750D01*
X113476250Y-76627000D01*
X111127000Y-76627000D01*
X110873000Y-76627000D01*
X108523750Y-76627000D01*
X108365000Y-76785750D01*
X104710000Y-76785750D01*
X104710000Y-74373691D01*
X108365000Y-74373691D01*
X108365000Y-76214250D01*
X108523750Y-76373000D01*
X110873000Y-76373000D01*
X110873000Y-74023750D01*
X111127000Y-74023750D01*
X111127000Y-76373000D01*
X113476250Y-76373000D01*
X113635000Y-76214250D01*
X113635000Y-74373691D01*
X113538327Y-74140302D01*
X113359699Y-73961673D01*
X113126310Y-73865000D01*
X111285750Y-73865000D01*
X111127000Y-74023750D01*
X110873000Y-74023750D01*
X110714250Y-73865000D01*
X108873690Y-73865000D01*
X108640301Y-73961673D01*
X108461673Y-74140302D01*
X108365000Y-74373691D01*
X104710000Y-74373691D01*
X104710000Y-63031618D01*
X104752498Y-62555431D01*
X106765000Y-62555431D01*
X106765000Y-63444569D01*
X107105259Y-64266026D01*
X107733974Y-64894741D01*
X108555431Y-65235000D01*
X109444569Y-65235000D01*
X110266026Y-64894741D01*
X110894741Y-64266026D01*
X111235000Y-63444569D01*
X111235000Y-62555431D01*
X110894741Y-61733974D01*
X110266026Y-61105259D01*
X109444569Y-60765000D01*
X108555431Y-60765000D01*
X107733974Y-61105259D01*
X107105259Y-61733974D01*
X106765000Y-62555431D01*
X104752498Y-62555431D01*
X104780578Y-62240808D01*
X104981705Y-61505611D01*
X105309846Y-60817649D01*
X105754628Y-60198669D01*
X106301988Y-59668239D01*
X106934639Y-59243116D01*
X107632561Y-58936749D01*
X108379183Y-58757501D01*
X108794532Y-58727000D01*
X133660880Y-58727000D01*
X133670713Y-58745397D01*
X133670713Y-58745397D01*
G37*
X133670713Y-58745397D02*
X133725169Y-58826896D01*
X133805686Y-58925006D01*
X133874994Y-58994314D01*
X133973104Y-59074831D01*
X134045001Y-59122871D01*
X134045000Y-59955344D01*
X133859375Y-60079375D01*
X133531161Y-60570582D01*
X133415908Y-61150000D01*
X133531161Y-61729418D01*
X133859375Y-62220625D01*
X134045001Y-62344656D01*
X134045000Y-63642839D01*
X134027663Y-63730000D01*
X134045000Y-63817161D01*
X134045000Y-63817164D01*
X134096348Y-64075309D01*
X134291951Y-64368049D01*
X134365847Y-64417425D01*
X135712577Y-65764156D01*
X135761951Y-65838049D01*
X135835844Y-65887423D01*
X135835845Y-65887424D01*
X136002309Y-65998652D01*
X136054690Y-66033652D01*
X136312835Y-66085000D01*
X136312839Y-66085000D01*
X136400000Y-66102337D01*
X136487161Y-66085000D01*
X148398422Y-66085000D01*
X155083021Y-72769600D01*
X154713720Y-72922569D01*
X154422569Y-73213720D01*
X154265000Y-73594126D01*
X154265000Y-74005874D01*
X154415001Y-74368008D01*
X154415000Y-75092839D01*
X154397663Y-75180000D01*
X154415000Y-75267161D01*
X154415000Y-75267164D01*
X154466348Y-75525309D01*
X154661951Y-75818049D01*
X154735847Y-75867425D01*
X155082575Y-76214153D01*
X155131951Y-76288049D01*
X155424690Y-76483652D01*
X155627326Y-76523959D01*
X155671843Y-76747765D01*
X155710000Y-76804871D01*
X155710000Y-77087164D01*
X155710001Y-77087169D01*
X155710000Y-79247205D01*
X155692663Y-79334366D01*
X155710000Y-79421527D01*
X155710000Y-79421530D01*
X155761348Y-79679675D01*
X155956951Y-79972415D01*
X156030847Y-80021791D01*
X156126196Y-80117140D01*
X156072525Y-80217550D01*
X156035016Y-80308106D01*
X155998174Y-80429559D01*
X155979052Y-80525692D01*
X155966612Y-80652001D01*
X155966612Y-80688904D01*
X155964204Y-80701010D01*
X155964204Y-81201010D01*
X155994041Y-81351010D01*
X155964204Y-81501010D01*
X155964204Y-82001010D01*
X155966612Y-82013116D01*
X155966612Y-82050019D01*
X155979052Y-82176328D01*
X155998174Y-82272461D01*
X156035016Y-82393914D01*
X156072525Y-82484470D01*
X156132357Y-82596407D01*
X156186813Y-82677906D01*
X156267330Y-82776016D01*
X156336638Y-82845324D01*
X156406091Y-82902323D01*
X156326644Y-83094126D01*
X156326644Y-83505874D01*
X156476645Y-83868009D01*
X156476644Y-84918064D01*
X156277058Y-85051424D01*
X156082517Y-85342574D01*
X156014204Y-85686009D01*
X156014204Y-86336011D01*
X156082517Y-86679446D01*
X156277058Y-86970596D01*
X156374957Y-87036010D01*
X156277058Y-87101424D01*
X156227221Y-87176010D01*
X154827589Y-87176010D01*
X153437425Y-85785847D01*
X153388049Y-85711951D01*
X153095310Y-85516348D01*
X152837165Y-85465000D01*
X152837161Y-85465000D01*
X152750000Y-85447663D01*
X152662839Y-85465000D01*
X146988420Y-85465000D01*
X147376337Y-85304320D01*
X147769320Y-84911337D01*
X147982000Y-84397881D01*
X147982000Y-83842119D01*
X147769320Y-83328663D01*
X147747597Y-83306940D01*
X147880000Y-83306940D01*
X148127765Y-83257657D01*
X148215000Y-83199368D01*
X148302235Y-83257657D01*
X148550000Y-83306940D01*
X149150000Y-83306940D01*
X149397765Y-83257657D01*
X149485000Y-83199368D01*
X149572235Y-83257657D01*
X149820000Y-83306940D01*
X150420000Y-83306940D01*
X150667765Y-83257657D01*
X150755000Y-83199368D01*
X150842235Y-83257657D01*
X151090000Y-83306940D01*
X151690000Y-83306940D01*
X151937765Y-83257657D01*
X152147809Y-83117309D01*
X152288157Y-82907265D01*
X152337440Y-82659500D01*
X152337440Y-80500500D01*
X152288157Y-80252735D01*
X152147809Y-80042691D01*
X151937765Y-79902343D01*
X151690000Y-79853060D01*
X151090000Y-79853060D01*
X150842235Y-79902343D01*
X150755000Y-79960632D01*
X150667765Y-79902343D01*
X150420000Y-79853060D01*
X149820000Y-79853060D01*
X149572235Y-79902343D01*
X149485000Y-79960632D01*
X149397765Y-79902343D01*
X149150000Y-79853060D01*
X148550000Y-79853060D01*
X148302235Y-79902343D01*
X148215000Y-79960632D01*
X148127765Y-79902343D01*
X147880000Y-79853060D01*
X147280000Y-79853060D01*
X147032235Y-79902343D01*
X146945000Y-79960632D01*
X146857765Y-79902343D01*
X146610000Y-79853060D01*
X146010000Y-79853060D01*
X145762235Y-79902343D01*
X145675000Y-79960632D01*
X145587765Y-79902343D01*
X145340000Y-79853060D01*
X144740000Y-79853060D01*
X144492235Y-79902343D01*
X144405000Y-79960632D01*
X144317765Y-79902343D01*
X144070000Y-79853060D01*
X143470000Y-79853060D01*
X143222235Y-79902343D01*
X143135000Y-79960632D01*
X143047765Y-79902343D01*
X142857190Y-79864436D01*
X142985000Y-79555874D01*
X142985000Y-79234999D01*
X143947150Y-79235000D01*
X144031993Y-79235000D01*
X144394126Y-79385000D01*
X144805874Y-79385000D01*
X145186280Y-79227431D01*
X145477431Y-78936280D01*
X145635000Y-78555874D01*
X145635000Y-78144126D01*
X145477431Y-77763720D01*
X145186280Y-77472569D01*
X144805874Y-77315000D01*
X144394126Y-77315000D01*
X144031993Y-77465000D01*
X143947150Y-77465000D01*
X143947145Y-77465001D01*
X143486577Y-77465001D01*
X146874156Y-74077423D01*
X146948049Y-74028049D01*
X147003335Y-73945309D01*
X147089504Y-73816348D01*
X147143652Y-73735310D01*
X147195000Y-73477165D01*
X147195000Y-73477161D01*
X147212337Y-73390001D01*
X147195000Y-73302841D01*
X147195000Y-73130033D01*
X147280000Y-73146940D01*
X147880000Y-73146940D01*
X148127765Y-73097657D01*
X148215000Y-73039368D01*
X148302235Y-73097657D01*
X148550000Y-73146940D01*
X149150000Y-73146940D01*
X149397765Y-73097657D01*
X149485000Y-73039368D01*
X149572235Y-73097657D01*
X149820000Y-73146940D01*
X150420000Y-73146940D01*
X150667765Y-73097657D01*
X150755000Y-73039368D01*
X150842235Y-73097657D01*
X151090000Y-73146940D01*
X151690000Y-73146940D01*
X151937765Y-73097657D01*
X152147809Y-72957309D01*
X152288157Y-72747265D01*
X152337440Y-72499500D01*
X152337440Y-70340500D01*
X152288157Y-70092735D01*
X152147809Y-69882691D01*
X151937765Y-69742343D01*
X151690000Y-69693060D01*
X151090000Y-69693060D01*
X150842235Y-69742343D01*
X150755000Y-69800632D01*
X150667765Y-69742343D01*
X150420000Y-69693060D01*
X149820000Y-69693060D01*
X149572235Y-69742343D01*
X149485000Y-69800632D01*
X149397765Y-69742343D01*
X149150000Y-69693060D01*
X148765611Y-69693060D01*
X148782001Y-69610664D01*
X148782001Y-69610659D01*
X148799338Y-69523500D01*
X148782001Y-69436340D01*
X148782001Y-68337398D01*
X148799338Y-68250238D01*
X148782001Y-68163079D01*
X148782001Y-68163074D01*
X148730653Y-67904929D01*
X148535050Y-67612190D01*
X148461157Y-67562816D01*
X147902186Y-67003846D01*
X147852810Y-66929950D01*
X147560071Y-66734347D01*
X147301926Y-66682999D01*
X147301922Y-66682999D01*
X147214761Y-66665662D01*
X147127600Y-66682999D01*
X137824160Y-66682999D01*
X137737000Y-66665662D01*
X137649840Y-66682999D01*
X137649836Y-66682999D01*
X137391691Y-66734347D01*
X137098952Y-66929950D01*
X137049576Y-67003846D01*
X136622847Y-67430575D01*
X136622844Y-67430577D01*
X136570421Y-67483000D01*
X136147119Y-67483000D01*
X135633663Y-67695680D01*
X135240680Y-68088663D01*
X135155000Y-68295513D01*
X135069320Y-68088663D01*
X134676337Y-67695680D01*
X134162881Y-67483000D01*
X133607119Y-67483000D01*
X133093663Y-67695680D01*
X132700680Y-68088663D01*
X132615000Y-68295513D01*
X132529320Y-68088663D01*
X132136337Y-67695680D01*
X131622881Y-67483000D01*
X131067119Y-67483000D01*
X130553663Y-67695680D01*
X130160680Y-68088663D01*
X129948000Y-68602119D01*
X129948000Y-69157881D01*
X130160680Y-69671337D01*
X130553663Y-70064320D01*
X131067119Y-70277000D01*
X131622881Y-70277000D01*
X132136337Y-70064320D01*
X132529320Y-69671337D01*
X132615000Y-69464487D01*
X132700680Y-69671337D01*
X133093663Y-70064320D01*
X133607119Y-70277000D01*
X133945191Y-70277000D01*
X133932560Y-70340500D01*
X133932560Y-70546989D01*
X133734690Y-70586348D01*
X133515845Y-70732576D01*
X133515844Y-70732577D01*
X133441951Y-70781951D01*
X133392577Y-70855844D01*
X132902130Y-71346292D01*
X132705874Y-71265000D01*
X132294126Y-71265000D01*
X131913720Y-71422569D01*
X131622569Y-71713720D01*
X131465000Y-72094126D01*
X131465000Y-72505874D01*
X131551623Y-72715000D01*
X131380000Y-72715000D01*
X131380000Y-72135750D01*
X131221250Y-71977000D01*
X130572000Y-71977000D01*
X130572000Y-71997000D01*
X130318000Y-71997000D01*
X130318000Y-71977000D01*
X129302000Y-71977000D01*
X129302000Y-71997000D01*
X129048000Y-71997000D01*
X129048000Y-71977000D01*
X128032000Y-71977000D01*
X128032000Y-71997000D01*
X127778000Y-71997000D01*
X127778000Y-71977000D01*
X126762000Y-71977000D01*
X126762000Y-71997000D01*
X126508000Y-71997000D01*
X126508000Y-71977000D01*
X125492000Y-71977000D01*
X125492000Y-71997000D01*
X125238000Y-71997000D01*
X125238000Y-71977000D01*
X125218000Y-71977000D01*
X125218000Y-71723000D01*
X125238000Y-71723000D01*
X125238000Y-70623750D01*
X125492000Y-70623750D01*
X125492000Y-71723000D01*
X126508000Y-71723000D01*
X126508000Y-70623750D01*
X126762000Y-70623750D01*
X126762000Y-71723000D01*
X127778000Y-71723000D01*
X127778000Y-70623750D01*
X128032000Y-70623750D01*
X128032000Y-71723000D01*
X129048000Y-71723000D01*
X129048000Y-70623750D01*
X129302000Y-70623750D01*
X129302000Y-71723000D01*
X130318000Y-71723000D01*
X130318000Y-70623750D01*
X130572000Y-70623750D01*
X130572000Y-71723000D01*
X131221250Y-71723000D01*
X131380000Y-71564250D01*
X131380000Y-70973691D01*
X131283327Y-70740302D01*
X131104699Y-70561673D01*
X130871310Y-70465000D01*
X130730750Y-70465000D01*
X130572000Y-70623750D01*
X130318000Y-70623750D01*
X130159250Y-70465000D01*
X130018690Y-70465000D01*
X129810000Y-70551442D01*
X129601310Y-70465000D01*
X129460750Y-70465000D01*
X129302000Y-70623750D01*
X129048000Y-70623750D01*
X128889250Y-70465000D01*
X128748690Y-70465000D01*
X128540000Y-70551442D01*
X128331310Y-70465000D01*
X128190750Y-70465000D01*
X128032000Y-70623750D01*
X127778000Y-70623750D01*
X127619250Y-70465000D01*
X127478690Y-70465000D01*
X127270000Y-70551442D01*
X127061310Y-70465000D01*
X126920750Y-70465000D01*
X126762000Y-70623750D01*
X126508000Y-70623750D01*
X126349250Y-70465000D01*
X126208690Y-70465000D01*
X126000000Y-70551442D01*
X125791310Y-70465000D01*
X125650750Y-70465000D01*
X125492000Y-70623750D01*
X125238000Y-70623750D01*
X125079250Y-70465000D01*
X124970485Y-70465000D01*
X124928652Y-70254690D01*
X124733049Y-69961951D01*
X124659156Y-69912577D01*
X124082425Y-69335847D01*
X124033049Y-69261951D01*
X123740310Y-69066348D01*
X123482165Y-69015000D01*
X123482161Y-69015000D01*
X123395000Y-68997663D01*
X123307839Y-69015000D01*
X112944329Y-69015000D01*
X112809966Y-68690620D01*
X112209380Y-68090034D01*
X111424678Y-67765000D01*
X110575322Y-67765000D01*
X109790620Y-68090034D01*
X109190034Y-68690620D01*
X108865000Y-69475322D01*
X108865000Y-70324678D01*
X109190034Y-71109380D01*
X109790620Y-71709966D01*
X110575322Y-72035000D01*
X111424678Y-72035000D01*
X112209380Y-71709966D01*
X112809966Y-71109380D01*
X112944329Y-70785000D01*
X120701768Y-70785000D01*
X120656843Y-70852235D01*
X120607560Y-71100000D01*
X120607560Y-72600000D01*
X120656843Y-72847765D01*
X120670000Y-72867456D01*
X120670000Y-73012839D01*
X120652663Y-73100000D01*
X120670000Y-73187161D01*
X120670000Y-73187164D01*
X120721348Y-73445309D01*
X120916951Y-73738049D01*
X120990847Y-73787425D01*
X122417577Y-75214156D01*
X122466951Y-75288049D01*
X122540844Y-75337423D01*
X122540845Y-75337424D01*
X122759690Y-75483652D01*
X123017835Y-75535000D01*
X123017838Y-75535000D01*
X123104999Y-75552337D01*
X123192160Y-75535000D01*
X125938421Y-75535000D01*
X122260845Y-79212577D01*
X122186952Y-79261951D01*
X122137578Y-79335844D01*
X122137576Y-79335846D01*
X121991348Y-79554691D01*
X121948299Y-79771118D01*
X121855000Y-79752560D01*
X121255000Y-79752560D01*
X121007235Y-79801843D01*
X120797191Y-79942191D01*
X120656843Y-80152235D01*
X120607560Y-80400000D01*
X120607560Y-81900000D01*
X120656843Y-82147765D01*
X120797191Y-82357809D01*
X121007235Y-82498157D01*
X121255000Y-82547440D01*
X121855000Y-82547440D01*
X121948298Y-82528882D01*
X121991348Y-82745309D01*
X122186951Y-83038049D01*
X122260847Y-83087425D01*
X126087577Y-86914156D01*
X126136951Y-86988049D01*
X126210844Y-87037423D01*
X126210845Y-87037424D01*
X126401980Y-87165137D01*
X126429690Y-87183652D01*
X126687835Y-87235000D01*
X126687839Y-87235000D01*
X126775000Y-87252337D01*
X126862161Y-87235000D01*
X136610577Y-87235000D01*
X136660414Y-87309586D01*
X136758313Y-87375000D01*
X136660414Y-87440414D01*
X136465873Y-87731564D01*
X136397560Y-88074999D01*
X136397560Y-88725001D01*
X136465873Y-89068436D01*
X136660414Y-89359586D01*
X136860001Y-89492946D01*
X136860000Y-90205344D01*
X136674375Y-90329375D01*
X136346161Y-90820582D01*
X136230908Y-91400000D01*
X136346161Y-91979418D01*
X136674375Y-92470625D01*
X137165582Y-92798839D01*
X137598744Y-92885000D01*
X137891256Y-92885000D01*
X138324418Y-92798839D01*
X138815625Y-92470625D01*
X138830096Y-92448967D01*
X138896673Y-92609698D01*
X139075301Y-92788327D01*
X139308690Y-92885000D01*
X139999250Y-92885000D01*
X140158000Y-92726250D01*
X140158000Y-91527000D01*
X140412000Y-91527000D01*
X140412000Y-92726250D01*
X140570750Y-92885000D01*
X141261310Y-92885000D01*
X141494699Y-92788327D01*
X141673327Y-92609698D01*
X141770000Y-92376309D01*
X141770000Y-91685750D01*
X141611250Y-91527000D01*
X140412000Y-91527000D01*
X140158000Y-91527000D01*
X140138000Y-91527000D01*
X140138000Y-91273000D01*
X140158000Y-91273000D01*
X140158000Y-90073750D01*
X140412000Y-90073750D01*
X140412000Y-91273000D01*
X141611250Y-91273000D01*
X141770000Y-91114250D01*
X141770000Y-90423691D01*
X141673327Y-90190302D01*
X141494699Y-90011673D01*
X141261310Y-89915000D01*
X140570750Y-89915000D01*
X140412000Y-90073750D01*
X140158000Y-90073750D01*
X139999250Y-89915000D01*
X139308690Y-89915000D01*
X139075301Y-90011673D01*
X138896673Y-90190302D01*
X138830096Y-90351033D01*
X138815625Y-90329375D01*
X138630000Y-90205344D01*
X138630000Y-89492946D01*
X138829586Y-89359586D01*
X138969961Y-89149500D01*
X139046673Y-89334698D01*
X139225301Y-89513327D01*
X139458690Y-89610000D01*
X139999250Y-89610000D01*
X140158000Y-89451250D01*
X140158000Y-88527000D01*
X140412000Y-88527000D01*
X140412000Y-89451250D01*
X140570750Y-89610000D01*
X141111310Y-89610000D01*
X141243051Y-89555431D01*
X166765000Y-89555431D01*
X166765000Y-90444569D01*
X167105259Y-91266026D01*
X167733974Y-91894741D01*
X168555431Y-92235000D01*
X169444569Y-92235000D01*
X170266026Y-91894741D01*
X170894741Y-91266026D01*
X171235000Y-90444569D01*
X171235000Y-89555431D01*
X170894741Y-88733974D01*
X170266026Y-88105259D01*
X169444569Y-87765000D01*
X168555431Y-87765000D01*
X167733974Y-88105259D01*
X167105259Y-88733974D01*
X166765000Y-89555431D01*
X141243051Y-89555431D01*
X141344699Y-89513327D01*
X141523327Y-89334698D01*
X141620000Y-89101309D01*
X141620000Y-88685750D01*
X141461250Y-88527000D01*
X140412000Y-88527000D01*
X140158000Y-88527000D01*
X140138000Y-88527000D01*
X140138000Y-88273000D01*
X140158000Y-88273000D01*
X140158000Y-88253000D01*
X140412000Y-88253000D01*
X140412000Y-88273000D01*
X141461250Y-88273000D01*
X141620000Y-88114250D01*
X141620000Y-87698691D01*
X141523327Y-87465302D01*
X141368403Y-87310377D01*
X141369586Y-87309586D01*
X141419423Y-87235000D01*
X152383422Y-87235000D01*
X153773587Y-88625166D01*
X153822961Y-88699059D01*
X153896854Y-88748433D01*
X153896855Y-88748434D01*
X154115700Y-88894662D01*
X154373845Y-88946010D01*
X154373849Y-88946010D01*
X154461010Y-88963347D01*
X154548171Y-88946010D01*
X156227221Y-88946010D01*
X156277058Y-89020596D01*
X156568208Y-89215137D01*
X156911643Y-89283450D01*
X157811645Y-89283450D01*
X158155080Y-89215137D01*
X158446230Y-89020596D01*
X158496067Y-88946010D01*
X158767221Y-88946010D01*
X158817058Y-89020596D01*
X159108208Y-89215137D01*
X159451643Y-89283450D01*
X160351645Y-89283450D01*
X160695080Y-89215137D01*
X160986230Y-89020596D01*
X161089269Y-88866388D01*
X161339693Y-88699059D01*
X161389069Y-88625163D01*
X162464156Y-87550077D01*
X162538049Y-87500703D01*
X162733652Y-87207964D01*
X162785000Y-86949819D01*
X162785000Y-86949815D01*
X162802337Y-86862655D01*
X162785000Y-86775495D01*
X162785000Y-81204615D01*
X165975000Y-81204615D01*
X165975000Y-81795385D01*
X166201078Y-82341185D01*
X166618815Y-82758922D01*
X167164615Y-82985000D01*
X167755385Y-82985000D01*
X168301185Y-82758922D01*
X168718922Y-82341185D01*
X168740791Y-82288389D01*
X168929375Y-82570625D01*
X169420582Y-82898839D01*
X169853744Y-82985000D01*
X170146256Y-82985000D01*
X170579418Y-82898839D01*
X171070625Y-82570625D01*
X171398839Y-82079418D01*
X171514092Y-81500000D01*
X171398839Y-80920582D01*
X171070625Y-80429375D01*
X170579418Y-80101161D01*
X170146256Y-80015000D01*
X169853744Y-80015000D01*
X169420582Y-80101161D01*
X168929375Y-80429375D01*
X168740791Y-80711611D01*
X168718922Y-80658815D01*
X168301185Y-80241078D01*
X167755385Y-80015000D01*
X167164615Y-80015000D01*
X166618815Y-80241078D01*
X166201078Y-80658815D01*
X165975000Y-81204615D01*
X162785000Y-81204615D01*
X162785000Y-79587159D01*
X162802337Y-79499999D01*
X162785000Y-79412839D01*
X162785000Y-79412835D01*
X162733652Y-79154690D01*
X162622979Y-78989057D01*
X162587424Y-78935845D01*
X162587423Y-78935844D01*
X162538049Y-78861951D01*
X162464156Y-78812577D01*
X162386579Y-78735000D01*
X162405874Y-78735000D01*
X162768007Y-78585000D01*
X169562839Y-78585000D01*
X169650000Y-78602337D01*
X169737161Y-78585000D01*
X169737165Y-78585000D01*
X169995310Y-78533652D01*
X170288049Y-78338049D01*
X170337425Y-78264153D01*
X170564153Y-78037425D01*
X170638049Y-77988049D01*
X170833652Y-77695310D01*
X170873959Y-77492674D01*
X171097765Y-77448157D01*
X171307809Y-77307809D01*
X171448157Y-77097765D01*
X171497440Y-76850000D01*
X171497440Y-75150000D01*
X171448157Y-74902235D01*
X171307809Y-74692191D01*
X171097765Y-74551843D01*
X171052381Y-74542816D01*
X171070625Y-74530625D01*
X171398839Y-74039418D01*
X171514092Y-73460000D01*
X171398839Y-72880582D01*
X171070625Y-72389375D01*
X170772239Y-72190000D01*
X171070625Y-71990625D01*
X171398839Y-71499418D01*
X171514092Y-70920000D01*
X171398839Y-70340582D01*
X171070625Y-69849375D01*
X170898999Y-69734698D01*
X170902337Y-69717919D01*
X170885000Y-69630758D01*
X170885000Y-69630754D01*
X170833652Y-69372609D01*
X170726721Y-69212576D01*
X170687424Y-69153764D01*
X170687423Y-69153763D01*
X170638049Y-69079870D01*
X170564156Y-69030496D01*
X169319506Y-67785847D01*
X169270130Y-67711951D01*
X168977391Y-67516348D01*
X168719246Y-67465000D01*
X168719242Y-67465000D01*
X168632081Y-67447663D01*
X168544920Y-67465000D01*
X161370478Y-67465000D01*
X161328157Y-67252235D01*
X161187809Y-67042191D01*
X160977765Y-66901843D01*
X160730000Y-66852560D01*
X160080000Y-66852560D01*
X160020000Y-66864495D01*
X160020000Y-64922161D01*
X160037337Y-64835000D01*
X160020000Y-64747839D01*
X160020000Y-64747835D01*
X159968652Y-64489690D01*
X159862851Y-64331348D01*
X159822424Y-64270845D01*
X159822423Y-64270844D01*
X159773049Y-64196951D01*
X159699156Y-64147577D01*
X158107010Y-62555431D01*
X166765000Y-62555431D01*
X166765000Y-63444569D01*
X167105259Y-64266026D01*
X167733974Y-64894741D01*
X168555431Y-65235000D01*
X169444569Y-65235000D01*
X170266026Y-64894741D01*
X170894741Y-64266026D01*
X171235000Y-63444569D01*
X171235000Y-62555431D01*
X170894741Y-61733974D01*
X170266026Y-61105259D01*
X169444569Y-60765000D01*
X168555431Y-60765000D01*
X167733974Y-61105259D01*
X167105259Y-61733974D01*
X166765000Y-62555431D01*
X158107010Y-62555431D01*
X157787424Y-62235846D01*
X157738049Y-62161951D01*
X157445310Y-61966348D01*
X157187165Y-61915000D01*
X157187161Y-61915000D01*
X157100000Y-61897663D01*
X157012839Y-61915000D01*
X144035000Y-61915000D01*
X144035000Y-61435750D01*
X143876250Y-61277000D01*
X142677000Y-61277000D01*
X142677000Y-61297000D01*
X142423000Y-61297000D01*
X142423000Y-61277000D01*
X142403000Y-61277000D01*
X142403000Y-61023000D01*
X142423000Y-61023000D01*
X142423000Y-59823750D01*
X142677000Y-59823750D01*
X142677000Y-61023000D01*
X143876250Y-61023000D01*
X144035000Y-60864250D01*
X144035000Y-60173691D01*
X143938327Y-59940302D01*
X143759699Y-59761673D01*
X143526310Y-59665000D01*
X142835750Y-59665000D01*
X142677000Y-59823750D01*
X142423000Y-59823750D01*
X142264250Y-59665000D01*
X141573690Y-59665000D01*
X141340301Y-59761673D01*
X141161673Y-59940302D01*
X141095096Y-60101033D01*
X141080625Y-60079375D01*
X140895000Y-59955344D01*
X140895000Y-59096143D01*
X140926896Y-59074831D01*
X141025006Y-58994314D01*
X141094314Y-58925006D01*
X141174831Y-58826896D01*
X141229287Y-58745397D01*
X141239121Y-58727000D01*
X141310879Y-58727000D01*
X141320713Y-58745397D01*
X141375169Y-58826896D01*
X141455686Y-58925006D01*
X141524994Y-58994314D01*
X141623104Y-59074831D01*
X141704603Y-59129287D01*
X141816540Y-59189119D01*
X141907096Y-59226628D01*
X142028549Y-59263470D01*
X142124682Y-59282592D01*
X142250991Y-59295032D01*
X142287894Y-59295032D01*
X142300000Y-59297440D01*
X142800000Y-59297440D01*
X142812106Y-59295032D01*
X142849009Y-59295032D01*
X142975318Y-59282592D01*
X143071451Y-59263470D01*
X143192904Y-59226628D01*
X143283460Y-59189119D01*
X143395397Y-59129287D01*
X143476896Y-59074831D01*
X143575006Y-58994314D01*
X143644314Y-58925006D01*
X143724831Y-58826896D01*
X143779287Y-58745397D01*
X143789120Y-58727000D01*
X169158863Y-58727000D01*
X169759192Y-58780578D01*
X170494389Y-58981705D01*
X171182351Y-59309846D01*
X171801331Y-59754628D01*
X172331761Y-60301988D01*
X172756884Y-60934639D01*
X173063251Y-61632561D01*
X173242499Y-62379183D01*
X173290001Y-63026044D01*
X173290000Y-89968382D01*
X173219422Y-90759193D01*
X173018295Y-91494389D01*
X172690152Y-92182355D01*
X172245374Y-92801328D01*
X171698012Y-93331761D01*
X171065362Y-93756883D01*
X170367439Y-94063251D01*
X169620819Y-94242499D01*
X169137645Y-94277980D01*
X169072388Y-94265000D01*
X108927612Y-94265000D01*
X108873067Y-94275850D01*
X108240807Y-94219422D01*
X107505611Y-94018295D01*
X106817645Y-93690152D01*
X106198672Y-93245374D01*
X105668239Y-92698012D01*
X105243117Y-92065362D01*
X104936749Y-91367439D01*
X104757501Y-90620819D01*
X104710000Y-89973970D01*
X104710000Y-89555431D01*
X106765000Y-89555431D01*
X106765000Y-90444569D01*
X107105259Y-91266026D01*
X107733974Y-91894741D01*
X108555431Y-92235000D01*
X109444569Y-92235000D01*
X110266026Y-91894741D01*
X110894741Y-91266026D01*
X111235000Y-90444569D01*
X111235000Y-89555431D01*
X110894741Y-88733974D01*
X110266026Y-88105259D01*
X109444569Y-87765000D01*
X108555431Y-87765000D01*
X107733974Y-88105259D01*
X107105259Y-88733974D01*
X106765000Y-89555431D01*
X104710000Y-89555431D01*
X104710000Y-82675322D01*
X108865000Y-82675322D01*
X108865000Y-83524678D01*
X109190034Y-84309380D01*
X109790620Y-84909966D01*
X110575322Y-85235000D01*
X111424678Y-85235000D01*
X112209380Y-84909966D01*
X112809966Y-84309380D01*
X113135000Y-83524678D01*
X113135000Y-82675322D01*
X112809966Y-81890620D01*
X112209380Y-81290034D01*
X111424678Y-80965000D01*
X110575322Y-80965000D01*
X109790620Y-81290034D01*
X109190034Y-81890620D01*
X108865000Y-82675322D01*
X104710000Y-82675322D01*
X104710000Y-76785750D01*
X108365000Y-76785750D01*
X108365000Y-78626309D01*
X108461673Y-78859698D01*
X108640301Y-79038327D01*
X108873690Y-79135000D01*
X110714250Y-79135000D01*
X110873000Y-78976250D01*
X110873000Y-76627000D01*
X111127000Y-76627000D01*
X111127000Y-78976250D01*
X111285750Y-79135000D01*
X113126310Y-79135000D01*
X113359699Y-79038327D01*
X113538327Y-78859698D01*
X113635000Y-78626309D01*
X113635000Y-76785750D01*
X113476250Y-76627000D01*
X111127000Y-76627000D01*
X110873000Y-76627000D01*
X108523750Y-76627000D01*
X108365000Y-76785750D01*
X104710000Y-76785750D01*
X104710000Y-74373691D01*
X108365000Y-74373691D01*
X108365000Y-76214250D01*
X108523750Y-76373000D01*
X110873000Y-76373000D01*
X110873000Y-74023750D01*
X111127000Y-74023750D01*
X111127000Y-76373000D01*
X113476250Y-76373000D01*
X113635000Y-76214250D01*
X113635000Y-74373691D01*
X113538327Y-74140302D01*
X113359699Y-73961673D01*
X113126310Y-73865000D01*
X111285750Y-73865000D01*
X111127000Y-74023750D01*
X110873000Y-74023750D01*
X110714250Y-73865000D01*
X108873690Y-73865000D01*
X108640301Y-73961673D01*
X108461673Y-74140302D01*
X108365000Y-74373691D01*
X104710000Y-74373691D01*
X104710000Y-63031618D01*
X104752498Y-62555431D01*
X106765000Y-62555431D01*
X106765000Y-63444569D01*
X107105259Y-64266026D01*
X107733974Y-64894741D01*
X108555431Y-65235000D01*
X109444569Y-65235000D01*
X110266026Y-64894741D01*
X110894741Y-64266026D01*
X111235000Y-63444569D01*
X111235000Y-62555431D01*
X110894741Y-61733974D01*
X110266026Y-61105259D01*
X109444569Y-60765000D01*
X108555431Y-60765000D01*
X107733974Y-61105259D01*
X107105259Y-61733974D01*
X106765000Y-62555431D01*
X104752498Y-62555431D01*
X104780578Y-62240808D01*
X104981705Y-61505611D01*
X105309846Y-60817649D01*
X105754628Y-60198669D01*
X106301988Y-59668239D01*
X106934639Y-59243116D01*
X107632561Y-58936749D01*
X108379183Y-58757501D01*
X108794532Y-58727000D01*
X133660880Y-58727000D01*
X133670713Y-58745397D01*
G36*
X136265000Y-75605874D02*
X136422569Y-75986280D01*
X136713720Y-76277431D01*
X137094126Y-76435000D01*
X137505874Y-76435000D01*
X137868007Y-76285000D01*
X138660200Y-76285000D01*
X138614999Y-76394126D01*
X138614999Y-76805874D01*
X138772568Y-77186280D01*
X139063719Y-77477431D01*
X139444125Y-77635000D01*
X139817615Y-77635000D01*
X139776346Y-77662575D01*
X139776343Y-77662578D01*
X139702453Y-77711950D01*
X139653081Y-77785840D01*
X138125845Y-79313077D01*
X138051952Y-79362451D01*
X138002578Y-79436344D01*
X138002576Y-79436346D01*
X137856348Y-79655191D01*
X137813299Y-79871618D01*
X137720000Y-79853060D01*
X137185000Y-79853060D01*
X137185000Y-79544126D01*
X137027431Y-79163720D01*
X136736280Y-78872569D01*
X136355874Y-78715000D01*
X135944126Y-78715000D01*
X135563720Y-78872569D01*
X135272569Y-79163720D01*
X135115000Y-79544126D01*
X135115000Y-79916250D01*
X135007000Y-80024250D01*
X135007000Y-81453000D01*
X135027000Y-81453000D01*
X135027000Y-81707000D01*
X135007000Y-81707000D01*
X135007000Y-81727000D01*
X134753000Y-81727000D01*
X134753000Y-81707000D01*
X134103750Y-81707000D01*
X133945000Y-81865750D01*
X133945000Y-82723000D01*
X133607119Y-82723000D01*
X133093663Y-82935680D01*
X132700680Y-83328663D01*
X132615000Y-83535513D01*
X132529320Y-83328663D01*
X132136337Y-82935680D01*
X131622881Y-82723000D01*
X131067119Y-82723000D01*
X130553663Y-82935680D01*
X130160680Y-83328663D01*
X129948000Y-83842119D01*
X129948000Y-84397881D01*
X130160680Y-84911337D01*
X130553663Y-85304320D01*
X130941580Y-85465000D01*
X127141579Y-85465000D01*
X124224018Y-82547440D01*
X124395000Y-82547440D01*
X124642765Y-82498157D01*
X124730000Y-82439868D01*
X124817235Y-82498157D01*
X125065000Y-82547440D01*
X125665000Y-82547440D01*
X125912765Y-82498157D01*
X125991972Y-82445232D01*
X126208690Y-82535000D01*
X126349250Y-82535000D01*
X126508000Y-82376250D01*
X126508000Y-81277000D01*
X126762000Y-81277000D01*
X126762000Y-82376250D01*
X126920750Y-82535000D01*
X127061310Y-82535000D01*
X127270000Y-82448558D01*
X127478690Y-82535000D01*
X127619250Y-82535000D01*
X127778000Y-82376250D01*
X127778000Y-81277000D01*
X128032000Y-81277000D01*
X128032000Y-82376250D01*
X128190750Y-82535000D01*
X128331310Y-82535000D01*
X128540000Y-82448558D01*
X128748690Y-82535000D01*
X128889250Y-82535000D01*
X129048000Y-82376250D01*
X129048000Y-81277000D01*
X129302000Y-81277000D01*
X129302000Y-82376250D01*
X129460750Y-82535000D01*
X129601310Y-82535000D01*
X129810000Y-82448558D01*
X130018690Y-82535000D01*
X130159250Y-82535000D01*
X130318000Y-82376250D01*
X130318000Y-81277000D01*
X130572000Y-81277000D01*
X130572000Y-82376250D01*
X130730750Y-82535000D01*
X130871310Y-82535000D01*
X131104699Y-82438327D01*
X131283327Y-82259698D01*
X131380000Y-82026309D01*
X131380000Y-81435750D01*
X131221250Y-81277000D01*
X130572000Y-81277000D01*
X130318000Y-81277000D01*
X129302000Y-81277000D01*
X129048000Y-81277000D01*
X128032000Y-81277000D01*
X127778000Y-81277000D01*
X126762000Y-81277000D01*
X126508000Y-81277000D01*
X126488000Y-81277000D01*
X126488000Y-81023000D01*
X126508000Y-81023000D01*
X126508000Y-79923750D01*
X126762000Y-79923750D01*
X126762000Y-81023000D01*
X127778000Y-81023000D01*
X127778000Y-79923750D01*
X128032000Y-79923750D01*
X128032000Y-81023000D01*
X129048000Y-81023000D01*
X129048000Y-79923750D01*
X129302000Y-79923750D01*
X129302000Y-81023000D01*
X130318000Y-81023000D01*
X130318000Y-79923750D01*
X130572000Y-79923750D01*
X130572000Y-81023000D01*
X131221250Y-81023000D01*
X131380000Y-80864250D01*
X131380000Y-80374191D01*
X133945000Y-80374191D01*
X133945000Y-81294250D01*
X134103750Y-81453000D01*
X134753000Y-81453000D01*
X134753000Y-80024250D01*
X134594250Y-79865500D01*
X134453690Y-79865500D01*
X134220301Y-79962173D01*
X134041673Y-80140802D01*
X133945000Y-80374191D01*
X131380000Y-80374191D01*
X131380000Y-80273691D01*
X131283327Y-80040302D01*
X131104699Y-79861673D01*
X130871310Y-79765000D01*
X130730750Y-79765000D01*
X130572000Y-79923750D01*
X130318000Y-79923750D01*
X130159250Y-79765000D01*
X130018690Y-79765000D01*
X129810000Y-79851442D01*
X129601310Y-79765000D01*
X129460750Y-79765000D01*
X129302000Y-79923750D01*
X129048000Y-79923750D01*
X128889250Y-79765000D01*
X128748690Y-79765000D01*
X128540000Y-79851442D01*
X128331310Y-79765000D01*
X128190750Y-79765000D01*
X128032000Y-79923750D01*
X127778000Y-79923750D01*
X127619250Y-79765000D01*
X127478690Y-79765000D01*
X127270000Y-79851442D01*
X127061310Y-79765000D01*
X126920750Y-79765000D01*
X126762000Y-79923750D01*
X126508000Y-79923750D01*
X126349250Y-79765000D01*
X126208690Y-79765000D01*
X125991972Y-79854768D01*
X125912765Y-79801843D01*
X125665000Y-79752560D01*
X125065000Y-79752560D01*
X124817235Y-79801843D01*
X124730000Y-79860132D01*
X124642765Y-79801843D01*
X124395000Y-79752560D01*
X124224018Y-79752560D01*
X127391579Y-76585000D01*
X131931993Y-76585000D01*
X132294126Y-76735000D01*
X132705874Y-76735000D01*
X133086280Y-76577431D01*
X133377431Y-76286280D01*
X133535000Y-75905874D01*
X133535000Y-75535000D01*
X135562839Y-75535000D01*
X135650000Y-75552337D01*
X135737161Y-75535000D01*
X135737165Y-75535000D01*
X135995310Y-75483652D01*
X136265000Y-75303450D01*
X136265000Y-75605874D01*
X136265000Y-75605874D01*
G37*
X136265000Y-75605874D02*
X136422569Y-75986280D01*
X136713720Y-76277431D01*
X137094126Y-76435000D01*
X137505874Y-76435000D01*
X137868007Y-76285000D01*
X138660200Y-76285000D01*
X138614999Y-76394126D01*
X138614999Y-76805874D01*
X138772568Y-77186280D01*
X139063719Y-77477431D01*
X139444125Y-77635000D01*
X139817615Y-77635000D01*
X139776346Y-77662575D01*
X139776343Y-77662578D01*
X139702453Y-77711950D01*
X139653081Y-77785840D01*
X138125845Y-79313077D01*
X138051952Y-79362451D01*
X138002578Y-79436344D01*
X138002576Y-79436346D01*
X137856348Y-79655191D01*
X137813299Y-79871618D01*
X137720000Y-79853060D01*
X137185000Y-79853060D01*
X137185000Y-79544126D01*
X137027431Y-79163720D01*
X136736280Y-78872569D01*
X136355874Y-78715000D01*
X135944126Y-78715000D01*
X135563720Y-78872569D01*
X135272569Y-79163720D01*
X135115000Y-79544126D01*
X135115000Y-79916250D01*
X135007000Y-80024250D01*
X135007000Y-81453000D01*
X135027000Y-81453000D01*
X135027000Y-81707000D01*
X135007000Y-81707000D01*
X135007000Y-81727000D01*
X134753000Y-81727000D01*
X134753000Y-81707000D01*
X134103750Y-81707000D01*
X133945000Y-81865750D01*
X133945000Y-82723000D01*
X133607119Y-82723000D01*
X133093663Y-82935680D01*
X132700680Y-83328663D01*
X132615000Y-83535513D01*
X132529320Y-83328663D01*
X132136337Y-82935680D01*
X131622881Y-82723000D01*
X131067119Y-82723000D01*
X130553663Y-82935680D01*
X130160680Y-83328663D01*
X129948000Y-83842119D01*
X129948000Y-84397881D01*
X130160680Y-84911337D01*
X130553663Y-85304320D01*
X130941580Y-85465000D01*
X127141579Y-85465000D01*
X124224018Y-82547440D01*
X124395000Y-82547440D01*
X124642765Y-82498157D01*
X124730000Y-82439868D01*
X124817235Y-82498157D01*
X125065000Y-82547440D01*
X125665000Y-82547440D01*
X125912765Y-82498157D01*
X125991972Y-82445232D01*
X126208690Y-82535000D01*
X126349250Y-82535000D01*
X126508000Y-82376250D01*
X126508000Y-81277000D01*
X126762000Y-81277000D01*
X126762000Y-82376250D01*
X126920750Y-82535000D01*
X127061310Y-82535000D01*
X127270000Y-82448558D01*
X127478690Y-82535000D01*
X127619250Y-82535000D01*
X127778000Y-82376250D01*
X127778000Y-81277000D01*
X128032000Y-81277000D01*
X128032000Y-82376250D01*
X128190750Y-82535000D01*
X128331310Y-82535000D01*
X128540000Y-82448558D01*
X128748690Y-82535000D01*
X128889250Y-82535000D01*
X129048000Y-82376250D01*
X129048000Y-81277000D01*
X129302000Y-81277000D01*
X129302000Y-82376250D01*
X129460750Y-82535000D01*
X129601310Y-82535000D01*
X129810000Y-82448558D01*
X130018690Y-82535000D01*
X130159250Y-82535000D01*
X130318000Y-82376250D01*
X130318000Y-81277000D01*
X130572000Y-81277000D01*
X130572000Y-82376250D01*
X130730750Y-82535000D01*
X130871310Y-82535000D01*
X131104699Y-82438327D01*
X131283327Y-82259698D01*
X131380000Y-82026309D01*
X131380000Y-81435750D01*
X131221250Y-81277000D01*
X130572000Y-81277000D01*
X130318000Y-81277000D01*
X129302000Y-81277000D01*
X129048000Y-81277000D01*
X128032000Y-81277000D01*
X127778000Y-81277000D01*
X126762000Y-81277000D01*
X126508000Y-81277000D01*
X126488000Y-81277000D01*
X126488000Y-81023000D01*
X126508000Y-81023000D01*
X126508000Y-79923750D01*
X126762000Y-79923750D01*
X126762000Y-81023000D01*
X127778000Y-81023000D01*
X127778000Y-79923750D01*
X128032000Y-79923750D01*
X128032000Y-81023000D01*
X129048000Y-81023000D01*
X129048000Y-79923750D01*
X129302000Y-79923750D01*
X129302000Y-81023000D01*
X130318000Y-81023000D01*
X130318000Y-79923750D01*
X130572000Y-79923750D01*
X130572000Y-81023000D01*
X131221250Y-81023000D01*
X131380000Y-80864250D01*
X131380000Y-80374191D01*
X133945000Y-80374191D01*
X133945000Y-81294250D01*
X134103750Y-81453000D01*
X134753000Y-81453000D01*
X134753000Y-80024250D01*
X134594250Y-79865500D01*
X134453690Y-79865500D01*
X134220301Y-79962173D01*
X134041673Y-80140802D01*
X133945000Y-80374191D01*
X131380000Y-80374191D01*
X131380000Y-80273691D01*
X131283327Y-80040302D01*
X131104699Y-79861673D01*
X130871310Y-79765000D01*
X130730750Y-79765000D01*
X130572000Y-79923750D01*
X130318000Y-79923750D01*
X130159250Y-79765000D01*
X130018690Y-79765000D01*
X129810000Y-79851442D01*
X129601310Y-79765000D01*
X129460750Y-79765000D01*
X129302000Y-79923750D01*
X129048000Y-79923750D01*
X128889250Y-79765000D01*
X128748690Y-79765000D01*
X128540000Y-79851442D01*
X128331310Y-79765000D01*
X128190750Y-79765000D01*
X128032000Y-79923750D01*
X127778000Y-79923750D01*
X127619250Y-79765000D01*
X127478690Y-79765000D01*
X127270000Y-79851442D01*
X127061310Y-79765000D01*
X126920750Y-79765000D01*
X126762000Y-79923750D01*
X126508000Y-79923750D01*
X126349250Y-79765000D01*
X126208690Y-79765000D01*
X125991972Y-79854768D01*
X125912765Y-79801843D01*
X125665000Y-79752560D01*
X125065000Y-79752560D01*
X124817235Y-79801843D01*
X124730000Y-79860132D01*
X124642765Y-79801843D01*
X124395000Y-79752560D01*
X124224018Y-79752560D01*
X127391579Y-76585000D01*
X131931993Y-76585000D01*
X132294126Y-76735000D01*
X132705874Y-76735000D01*
X133086280Y-76577431D01*
X133377431Y-76286280D01*
X133535000Y-75905874D01*
X133535000Y-75535000D01*
X135562839Y-75535000D01*
X135650000Y-75552337D01*
X135737161Y-75535000D01*
X135737165Y-75535000D01*
X135995310Y-75483652D01*
X136265000Y-75303450D01*
X136265000Y-75605874D01*
G36*
X156980000Y-65531579D02*
X156980001Y-66865000D01*
X156880750Y-66865000D01*
X156722000Y-67023750D01*
X156722000Y-68223000D01*
X156742000Y-68223000D01*
X156742000Y-68477000D01*
X156722000Y-68477000D01*
X156722000Y-69676250D01*
X156880750Y-69835000D01*
X157046310Y-69835000D01*
X157232162Y-69758017D01*
X157292235Y-69798157D01*
X157540000Y-69847440D01*
X158190000Y-69847440D01*
X158437765Y-69798157D01*
X158500000Y-69756573D01*
X158562235Y-69798157D01*
X158810000Y-69847440D01*
X159460000Y-69847440D01*
X159707765Y-69798157D01*
X159770000Y-69756573D01*
X159832235Y-69798157D01*
X160080000Y-69847440D01*
X160730000Y-69847440D01*
X160977765Y-69798157D01*
X161187809Y-69657809D01*
X161328157Y-69447765D01*
X161370478Y-69235000D01*
X168265503Y-69235000D01*
X168909549Y-69879047D01*
X168728647Y-70149786D01*
X168341358Y-69724817D01*
X167816892Y-69478514D01*
X167587000Y-69599181D01*
X167587000Y-70793000D01*
X167607000Y-70793000D01*
X167607000Y-71047000D01*
X167587000Y-71047000D01*
X167587000Y-71067000D01*
X167333000Y-71067000D01*
X167333000Y-71047000D01*
X166139845Y-71047000D01*
X166018524Y-71276890D01*
X166188355Y-71686924D01*
X166578642Y-72115183D01*
X166708478Y-72176157D01*
X166389375Y-72389375D01*
X166061161Y-72880582D01*
X165945908Y-73460000D01*
X166061161Y-74039418D01*
X166389375Y-74530625D01*
X166687761Y-74730000D01*
X166635380Y-74765000D01*
X161370478Y-74765000D01*
X161328157Y-74552235D01*
X161187809Y-74342191D01*
X160977765Y-74201843D01*
X160730000Y-74152560D01*
X160082317Y-74152560D01*
X160170000Y-73940874D01*
X160170000Y-73529126D01*
X160012431Y-73148720D01*
X159721280Y-72857569D01*
X159340874Y-72700000D01*
X158929126Y-72700000D01*
X158548720Y-72857569D01*
X158257569Y-73148720D01*
X158171965Y-73355386D01*
X155379689Y-70563110D01*
X166018524Y-70563110D01*
X166139845Y-70793000D01*
X167333000Y-70793000D01*
X167333000Y-69599181D01*
X167103108Y-69478514D01*
X166578642Y-69724817D01*
X166188355Y-70153076D01*
X166018524Y-70563110D01*
X155379689Y-70563110D01*
X153452329Y-68635750D01*
X155635000Y-68635750D01*
X155635000Y-69326309D01*
X155731673Y-69559698D01*
X155910301Y-69738327D01*
X156143690Y-69835000D01*
X156309250Y-69835000D01*
X156468000Y-69676250D01*
X156468000Y-68477000D01*
X155793750Y-68477000D01*
X155635000Y-68635750D01*
X153452329Y-68635750D01*
X152190270Y-67373691D01*
X155635000Y-67373691D01*
X155635000Y-68064250D01*
X155793750Y-68223000D01*
X156468000Y-68223000D01*
X156468000Y-67023750D01*
X156309250Y-66865000D01*
X156143690Y-66865000D01*
X155910301Y-66961673D01*
X155731673Y-67140302D01*
X155635000Y-67373691D01*
X152190270Y-67373691D01*
X149701578Y-64885000D01*
X156333422Y-64885000D01*
X156980000Y-65531579D01*
X156980000Y-65531579D01*
G37*
X156980000Y-65531579D02*
X156980001Y-66865000D01*
X156880750Y-66865000D01*
X156722000Y-67023750D01*
X156722000Y-68223000D01*
X156742000Y-68223000D01*
X156742000Y-68477000D01*
X156722000Y-68477000D01*
X156722000Y-69676250D01*
X156880750Y-69835000D01*
X157046310Y-69835000D01*
X157232162Y-69758017D01*
X157292235Y-69798157D01*
X157540000Y-69847440D01*
X158190000Y-69847440D01*
X158437765Y-69798157D01*
X158500000Y-69756573D01*
X158562235Y-69798157D01*
X158810000Y-69847440D01*
X159460000Y-69847440D01*
X159707765Y-69798157D01*
X159770000Y-69756573D01*
X159832235Y-69798157D01*
X160080000Y-69847440D01*
X160730000Y-69847440D01*
X160977765Y-69798157D01*
X161187809Y-69657809D01*
X161328157Y-69447765D01*
X161370478Y-69235000D01*
X168265503Y-69235000D01*
X168909549Y-69879047D01*
X168728647Y-70149786D01*
X168341358Y-69724817D01*
X167816892Y-69478514D01*
X167587000Y-69599181D01*
X167587000Y-70793000D01*
X167607000Y-70793000D01*
X167607000Y-71047000D01*
X167587000Y-71047000D01*
X167587000Y-71067000D01*
X167333000Y-71067000D01*
X167333000Y-71047000D01*
X166139845Y-71047000D01*
X166018524Y-71276890D01*
X166188355Y-71686924D01*
X166578642Y-72115183D01*
X166708478Y-72176157D01*
X166389375Y-72389375D01*
X166061161Y-72880582D01*
X165945908Y-73460000D01*
X166061161Y-74039418D01*
X166389375Y-74530625D01*
X166687761Y-74730000D01*
X166635380Y-74765000D01*
X161370478Y-74765000D01*
X161328157Y-74552235D01*
X161187809Y-74342191D01*
X160977765Y-74201843D01*
X160730000Y-74152560D01*
X160082317Y-74152560D01*
X160170000Y-73940874D01*
X160170000Y-73529126D01*
X160012431Y-73148720D01*
X159721280Y-72857569D01*
X159340874Y-72700000D01*
X158929126Y-72700000D01*
X158548720Y-72857569D01*
X158257569Y-73148720D01*
X158171965Y-73355386D01*
X155379689Y-70563110D01*
X166018524Y-70563110D01*
X166139845Y-70793000D01*
X167333000Y-70793000D01*
X167333000Y-69599181D01*
X167103108Y-69478514D01*
X166578642Y-69724817D01*
X166188355Y-70153076D01*
X166018524Y-70563110D01*
X155379689Y-70563110D01*
X153452329Y-68635750D01*
X155635000Y-68635750D01*
X155635000Y-69326309D01*
X155731673Y-69559698D01*
X155910301Y-69738327D01*
X156143690Y-69835000D01*
X156309250Y-69835000D01*
X156468000Y-69676250D01*
X156468000Y-68477000D01*
X155793750Y-68477000D01*
X155635000Y-68635750D01*
X153452329Y-68635750D01*
X152190270Y-67373691D01*
X155635000Y-67373691D01*
X155635000Y-68064250D01*
X155793750Y-68223000D01*
X156468000Y-68223000D01*
X156468000Y-67023750D01*
X156309250Y-66865000D01*
X156143690Y-66865000D01*
X155910301Y-66961673D01*
X155731673Y-67140302D01*
X155635000Y-67373691D01*
X152190270Y-67373691D01*
X149701578Y-64885000D01*
X156333422Y-64885000D01*
X156980000Y-65531579D01*
G04 #@! TD*
M02*
