G04 #@! TF.GenerationSoftware,KiCad,Pcbnew,(5.0.2)-1*
G04 #@! TF.CreationDate,2020-01-03T22:31:12+01:00*
G04 #@! TF.ProjectId,clock,636c6f63-6b2e-46b6-9963-61645f706362,rev?*
G04 #@! TF.SameCoordinates,Original*
G04 #@! TF.FileFunction,Profile,NP*
%FSLAX46Y46*%
G04 Gerber Fmt 4.6, Leading zero omitted, Abs format (unit mm)*
G04 Created by KiCad (PCBNEW (5.0.2)-1) date 03/01/2020 22:31:12*
%MOMM*%
%LPD*%
G01*
G04 APERTURE LIST*
%ADD10C,0.150000*%
%ADD11C,0.200000*%
G04 APERTURE END LIST*
D10*
X131500000Y-58000000D02*
X109000000Y-58000000D01*
X109000000Y-57000000D02*
X131500000Y-57000000D01*
X146000000Y-58000000D02*
X169000000Y-58000000D01*
X146000000Y-57000000D02*
X169000000Y-57000000D01*
X146000000Y-58000000D02*
G75*
G02X146000000Y-57000000I0J500000D01*
G01*
X131500000Y-57000000D02*
G75*
G02X131500000Y-58000000I0J-500000D01*
G01*
X174000000Y-52000000D02*
G75*
G02X169000000Y-57000000I-5000000J0D01*
G01*
X109000000Y-57000000D02*
G75*
G02X104000000Y-52000000I0J5000000D01*
G01*
X169000000Y-41000000D02*
G75*
G02X174000000Y-46000000I0J-5000000D01*
G01*
X104000000Y-46000000D02*
G75*
G02X109000000Y-41000000I5000000J0D01*
G01*
X174000000Y-52000000D02*
X174000000Y-46000000D01*
X104000000Y-46000000D02*
X104000000Y-52000000D01*
X109000000Y-41000000D02*
X169000000Y-41000000D01*
X104000000Y-63000000D02*
G75*
G02X109000000Y-58000000I5000000J0D01*
G01*
X169000000Y-58000000D02*
G75*
G02X174000000Y-63000000I0J-5000000D01*
G01*
X104000000Y-90000000D02*
X104000000Y-63000000D01*
X174000000Y-90000000D02*
X174000000Y-63000000D01*
X109000000Y-95000000D02*
G75*
G02X104000000Y-90000000I0J5000000D01*
G01*
X174000000Y-90000000D02*
G75*
G02X169000000Y-95000000I-5000000J0D01*
G01*
D11*
X169000000Y-95000000D02*
X109000000Y-95000000D01*
M02*
