G04 #@! TF.GenerationSoftware,KiCad,Pcbnew,(5.0.2)-1*
G04 #@! TF.CreationDate,2020-01-03T22:31:12+01:00*
G04 #@! TF.ProjectId,clock,636c6f63-6b2e-46b6-9963-61645f706362,rev?*
G04 #@! TF.SameCoordinates,Original*
G04 #@! TF.FileFunction,Soldermask,Top*
G04 #@! TF.FilePolarity,Negative*
%FSLAX46Y46*%
G04 Gerber Fmt 4.6, Leading zero omitted, Abs format (unit mm)*
G04 Created by KiCad (PCBNEW (5.0.2)-1) date 03/01/2020 22:31:12*
%MOMM*%
%LPD*%
G01*
G04 APERTURE LIST*
%ADD10C,0.100000*%
G04 APERTURE END LIST*
D10*
G36*
X141186000Y-92301000D02*
X139384000Y-92301000D01*
X139384000Y-90499000D01*
X141186000Y-90499000D01*
X141186000Y-92301000D01*
X141186000Y-92301000D01*
G37*
G36*
X137855442Y-90505518D02*
X137921627Y-90512037D01*
X138034853Y-90546384D01*
X138091467Y-90563557D01*
X138230087Y-90637652D01*
X138247991Y-90647222D01*
X138283729Y-90676552D01*
X138385186Y-90759814D01*
X138468448Y-90861271D01*
X138497778Y-90897009D01*
X138497779Y-90897011D01*
X138581443Y-91053533D01*
X138581443Y-91053534D01*
X138632963Y-91223373D01*
X138650359Y-91400000D01*
X138632963Y-91576627D01*
X138610402Y-91651000D01*
X138581443Y-91746467D01*
X138507348Y-91885087D01*
X138497778Y-91902991D01*
X138468448Y-91938729D01*
X138385186Y-92040186D01*
X138283729Y-92123448D01*
X138247991Y-92152778D01*
X138247989Y-92152779D01*
X138091467Y-92236443D01*
X138034853Y-92253616D01*
X137921627Y-92287963D01*
X137855442Y-92294482D01*
X137789260Y-92301000D01*
X137700740Y-92301000D01*
X137634558Y-92294482D01*
X137568373Y-92287963D01*
X137455147Y-92253616D01*
X137398533Y-92236443D01*
X137242011Y-92152779D01*
X137242009Y-92152778D01*
X137206271Y-92123448D01*
X137104814Y-92040186D01*
X137021552Y-91938729D01*
X136992222Y-91902991D01*
X136982652Y-91885087D01*
X136908557Y-91746467D01*
X136879598Y-91651000D01*
X136857037Y-91576627D01*
X136839641Y-91400000D01*
X136857037Y-91223373D01*
X136908557Y-91053534D01*
X136908557Y-91053533D01*
X136992221Y-90897011D01*
X136992222Y-90897009D01*
X137021552Y-90861271D01*
X137104814Y-90759814D01*
X137206271Y-90676552D01*
X137242009Y-90647222D01*
X137259913Y-90637652D01*
X137398533Y-90563557D01*
X137455147Y-90546384D01*
X137568373Y-90512037D01*
X137634558Y-90505518D01*
X137700740Y-90499000D01*
X137789260Y-90499000D01*
X137855442Y-90505518D01*
X137855442Y-90505518D01*
G37*
G36*
X109375256Y-88391298D02*
X109481579Y-88412447D01*
X109694037Y-88500450D01*
X109738804Y-88518993D01*
X109782042Y-88536903D01*
X109975686Y-88666292D01*
X110052454Y-88717587D01*
X110282413Y-88947546D01*
X110282415Y-88947549D01*
X110463097Y-89217958D01*
X110587553Y-89518421D01*
X110651000Y-89837391D01*
X110651000Y-90162609D01*
X110587553Y-90481579D01*
X110518942Y-90647221D01*
X110463098Y-90782040D01*
X110282413Y-91052454D01*
X110052454Y-91282413D01*
X110052451Y-91282415D01*
X109782042Y-91463097D01*
X109481579Y-91587553D01*
X109375256Y-91608702D01*
X109162611Y-91651000D01*
X108837389Y-91651000D01*
X108624744Y-91608702D01*
X108518421Y-91587553D01*
X108217958Y-91463097D01*
X107947549Y-91282415D01*
X107947546Y-91282413D01*
X107717587Y-91052454D01*
X107536902Y-90782040D01*
X107481058Y-90647221D01*
X107412447Y-90481579D01*
X107349000Y-90162609D01*
X107349000Y-89837391D01*
X107412447Y-89518421D01*
X107536903Y-89217958D01*
X107717585Y-88947549D01*
X107717587Y-88947546D01*
X107947546Y-88717587D01*
X108024314Y-88666292D01*
X108217958Y-88536903D01*
X108261197Y-88518993D01*
X108305963Y-88500450D01*
X108518421Y-88412447D01*
X108624744Y-88391298D01*
X108837389Y-88349000D01*
X109162611Y-88349000D01*
X109375256Y-88391298D01*
X109375256Y-88391298D01*
G37*
G36*
X169375256Y-88391298D02*
X169481579Y-88412447D01*
X169694037Y-88500450D01*
X169738804Y-88518993D01*
X169782042Y-88536903D01*
X169975686Y-88666292D01*
X170052454Y-88717587D01*
X170282413Y-88947546D01*
X170282415Y-88947549D01*
X170463097Y-89217958D01*
X170587553Y-89518421D01*
X170651000Y-89837391D01*
X170651000Y-90162609D01*
X170587553Y-90481579D01*
X170518942Y-90647221D01*
X170463098Y-90782040D01*
X170282413Y-91052454D01*
X170052454Y-91282413D01*
X170052451Y-91282415D01*
X169782042Y-91463097D01*
X169481579Y-91587553D01*
X169375256Y-91608702D01*
X169162611Y-91651000D01*
X168837389Y-91651000D01*
X168624744Y-91608702D01*
X168518421Y-91587553D01*
X168217958Y-91463097D01*
X167947549Y-91282415D01*
X167947546Y-91282413D01*
X167717587Y-91052454D01*
X167536902Y-90782040D01*
X167481058Y-90647221D01*
X167412447Y-90481579D01*
X167349000Y-90162609D01*
X167349000Y-89837391D01*
X167412447Y-89518421D01*
X167536903Y-89217958D01*
X167717585Y-88947549D01*
X167717587Y-88947546D01*
X167947546Y-88717587D01*
X168024314Y-88666292D01*
X168217958Y-88536903D01*
X168261197Y-88518993D01*
X168305963Y-88500450D01*
X168518421Y-88412447D01*
X168624744Y-88391298D01*
X168837389Y-88349000D01*
X169162611Y-88349000D01*
X169375256Y-88391298D01*
X169375256Y-88391298D01*
G37*
G36*
X140873677Y-87778465D02*
X140911364Y-87789898D01*
X140946103Y-87808466D01*
X140976548Y-87833452D01*
X141001534Y-87863897D01*
X141020102Y-87898636D01*
X141031535Y-87936323D01*
X141036000Y-87981661D01*
X141036000Y-88818339D01*
X141031535Y-88863677D01*
X141020102Y-88901364D01*
X141001534Y-88936103D01*
X140976548Y-88966548D01*
X140946103Y-88991534D01*
X140911364Y-89010102D01*
X140873677Y-89021535D01*
X140828339Y-89026000D01*
X139741661Y-89026000D01*
X139696323Y-89021535D01*
X139658636Y-89010102D01*
X139623897Y-88991534D01*
X139593452Y-88966548D01*
X139568466Y-88936103D01*
X139549898Y-88901364D01*
X139538465Y-88863677D01*
X139534000Y-88818339D01*
X139534000Y-87981661D01*
X139538465Y-87936323D01*
X139549898Y-87898636D01*
X139568466Y-87863897D01*
X139593452Y-87833452D01*
X139623897Y-87808466D01*
X139658636Y-87789898D01*
X139696323Y-87778465D01*
X139741661Y-87774000D01*
X140828339Y-87774000D01*
X140873677Y-87778465D01*
X140873677Y-87778465D01*
G37*
G36*
X138333677Y-87778465D02*
X138371364Y-87789898D01*
X138406103Y-87808466D01*
X138436548Y-87833452D01*
X138461534Y-87863897D01*
X138480102Y-87898636D01*
X138491535Y-87936323D01*
X138496000Y-87981661D01*
X138496000Y-88818339D01*
X138491535Y-88863677D01*
X138480102Y-88901364D01*
X138461534Y-88936103D01*
X138436548Y-88966548D01*
X138406103Y-88991534D01*
X138371364Y-89010102D01*
X138333677Y-89021535D01*
X138288339Y-89026000D01*
X137201661Y-89026000D01*
X137156323Y-89021535D01*
X137118636Y-89010102D01*
X137083897Y-88991534D01*
X137053452Y-88966548D01*
X137028466Y-88936103D01*
X137009898Y-88901364D01*
X136998465Y-88863677D01*
X136994000Y-88818339D01*
X136994000Y-87981661D01*
X136998465Y-87936323D01*
X137009898Y-87898636D01*
X137028466Y-87863897D01*
X137053452Y-87833452D01*
X137083897Y-87808466D01*
X137118636Y-87789898D01*
X137156323Y-87778465D01*
X137201661Y-87774000D01*
X138288339Y-87774000D01*
X138333677Y-87778465D01*
X138333677Y-87778465D01*
G37*
G36*
X157950321Y-87439475D02*
X157988008Y-87450908D01*
X158022747Y-87469476D01*
X158053192Y-87494462D01*
X158078178Y-87524907D01*
X158096746Y-87559646D01*
X158108179Y-87597333D01*
X158112644Y-87642671D01*
X158112644Y-88479349D01*
X158108179Y-88524687D01*
X158096746Y-88562374D01*
X158078178Y-88597113D01*
X158053192Y-88627558D01*
X158022747Y-88652544D01*
X157988008Y-88671112D01*
X157950321Y-88682545D01*
X157904983Y-88687010D01*
X156818305Y-88687010D01*
X156772967Y-88682545D01*
X156735280Y-88671112D01*
X156700541Y-88652544D01*
X156670096Y-88627558D01*
X156645110Y-88597113D01*
X156626542Y-88562374D01*
X156615109Y-88524687D01*
X156610644Y-88479349D01*
X156610644Y-87642671D01*
X156615109Y-87597333D01*
X156626542Y-87559646D01*
X156645110Y-87524907D01*
X156670096Y-87494462D01*
X156700541Y-87469476D01*
X156735280Y-87450908D01*
X156772967Y-87439475D01*
X156818305Y-87435010D01*
X157904983Y-87435010D01*
X157950321Y-87439475D01*
X157950321Y-87439475D01*
G37*
G36*
X160490321Y-87439475D02*
X160528008Y-87450908D01*
X160562747Y-87469476D01*
X160593192Y-87494462D01*
X160618178Y-87524907D01*
X160636746Y-87559646D01*
X160648179Y-87597333D01*
X160652644Y-87642671D01*
X160652644Y-88479349D01*
X160648179Y-88524687D01*
X160636746Y-88562374D01*
X160618178Y-88597113D01*
X160593192Y-88627558D01*
X160562747Y-88652544D01*
X160528008Y-88671112D01*
X160490321Y-88682545D01*
X160444983Y-88687010D01*
X159358305Y-88687010D01*
X159312967Y-88682545D01*
X159275280Y-88671112D01*
X159240541Y-88652544D01*
X159210096Y-88627558D01*
X159185110Y-88597113D01*
X159166542Y-88562374D01*
X159155109Y-88524687D01*
X159150644Y-88479349D01*
X159150644Y-87642671D01*
X159155109Y-87597333D01*
X159166542Y-87559646D01*
X159185110Y-87524907D01*
X159210096Y-87494462D01*
X159240541Y-87469476D01*
X159275280Y-87450908D01*
X159312967Y-87439475D01*
X159358305Y-87435010D01*
X160444983Y-87435010D01*
X160490321Y-87439475D01*
X160490321Y-87439475D01*
G37*
G36*
X138333677Y-85728465D02*
X138371364Y-85739898D01*
X138406103Y-85758466D01*
X138436548Y-85783452D01*
X138461534Y-85813897D01*
X138480102Y-85848636D01*
X138491535Y-85886323D01*
X138496000Y-85931661D01*
X138496000Y-86768339D01*
X138491535Y-86813677D01*
X138480102Y-86851364D01*
X138461534Y-86886103D01*
X138436548Y-86916548D01*
X138406103Y-86941534D01*
X138371364Y-86960102D01*
X138333677Y-86971535D01*
X138288339Y-86976000D01*
X137201661Y-86976000D01*
X137156323Y-86971535D01*
X137118636Y-86960102D01*
X137083897Y-86941534D01*
X137053452Y-86916548D01*
X137028466Y-86886103D01*
X137009898Y-86851364D01*
X136998465Y-86813677D01*
X136994000Y-86768339D01*
X136994000Y-85931661D01*
X136998465Y-85886323D01*
X137009898Y-85848636D01*
X137028466Y-85813897D01*
X137053452Y-85783452D01*
X137083897Y-85758466D01*
X137118636Y-85739898D01*
X137156323Y-85728465D01*
X137201661Y-85724000D01*
X138288339Y-85724000D01*
X138333677Y-85728465D01*
X138333677Y-85728465D01*
G37*
G36*
X140873677Y-85728465D02*
X140911364Y-85739898D01*
X140946103Y-85758466D01*
X140976548Y-85783452D01*
X141001534Y-85813897D01*
X141020102Y-85848636D01*
X141031535Y-85886323D01*
X141036000Y-85931661D01*
X141036000Y-86768339D01*
X141031535Y-86813677D01*
X141020102Y-86851364D01*
X141001534Y-86886103D01*
X140976548Y-86916548D01*
X140946103Y-86941534D01*
X140911364Y-86960102D01*
X140873677Y-86971535D01*
X140828339Y-86976000D01*
X139741661Y-86976000D01*
X139696323Y-86971535D01*
X139658636Y-86960102D01*
X139623897Y-86941534D01*
X139593452Y-86916548D01*
X139568466Y-86886103D01*
X139549898Y-86851364D01*
X139538465Y-86813677D01*
X139534000Y-86768339D01*
X139534000Y-85931661D01*
X139538465Y-85886323D01*
X139549898Y-85848636D01*
X139568466Y-85813897D01*
X139593452Y-85783452D01*
X139623897Y-85758466D01*
X139658636Y-85739898D01*
X139696323Y-85728465D01*
X139741661Y-85724000D01*
X140828339Y-85724000D01*
X140873677Y-85728465D01*
X140873677Y-85728465D01*
G37*
G36*
X157950321Y-85389475D02*
X157988008Y-85400908D01*
X158022747Y-85419476D01*
X158053192Y-85444462D01*
X158078178Y-85474907D01*
X158096746Y-85509646D01*
X158108179Y-85547333D01*
X158112644Y-85592671D01*
X158112644Y-86429349D01*
X158108179Y-86474687D01*
X158096746Y-86512374D01*
X158078178Y-86547113D01*
X158053192Y-86577558D01*
X158022747Y-86602544D01*
X157988008Y-86621112D01*
X157950321Y-86632545D01*
X157904983Y-86637010D01*
X156818305Y-86637010D01*
X156772967Y-86632545D01*
X156735280Y-86621112D01*
X156700541Y-86602544D01*
X156670096Y-86577558D01*
X156645110Y-86547113D01*
X156626542Y-86512374D01*
X156615109Y-86474687D01*
X156610644Y-86429349D01*
X156610644Y-85592671D01*
X156615109Y-85547333D01*
X156626542Y-85509646D01*
X156645110Y-85474907D01*
X156670096Y-85444462D01*
X156700541Y-85419476D01*
X156735280Y-85400908D01*
X156772967Y-85389475D01*
X156818305Y-85385010D01*
X157904983Y-85385010D01*
X157950321Y-85389475D01*
X157950321Y-85389475D01*
G37*
G36*
X160490321Y-85389475D02*
X160528008Y-85400908D01*
X160562747Y-85419476D01*
X160593192Y-85444462D01*
X160618178Y-85474907D01*
X160636746Y-85509646D01*
X160648179Y-85547333D01*
X160652644Y-85592671D01*
X160652644Y-86429349D01*
X160648179Y-86474687D01*
X160636746Y-86512374D01*
X160618178Y-86547113D01*
X160593192Y-86577558D01*
X160562747Y-86602544D01*
X160528008Y-86621112D01*
X160490321Y-86632545D01*
X160444983Y-86637010D01*
X159358305Y-86637010D01*
X159312967Y-86632545D01*
X159275280Y-86621112D01*
X159240541Y-86602544D01*
X159210096Y-86577558D01*
X159185110Y-86547113D01*
X159166542Y-86512374D01*
X159155109Y-86474687D01*
X159150644Y-86429349D01*
X159150644Y-85592671D01*
X159155109Y-85547333D01*
X159166542Y-85509646D01*
X159185110Y-85474907D01*
X159210096Y-85444462D01*
X159240541Y-85419476D01*
X159275280Y-85400908D01*
X159312967Y-85389475D01*
X159358305Y-85385010D01*
X160444983Y-85385010D01*
X160490321Y-85389475D01*
X160490321Y-85389475D01*
G37*
G36*
X134122142Y-83338242D02*
X134270102Y-83399530D01*
X134403258Y-83488502D01*
X134516498Y-83601742D01*
X134605470Y-83734898D01*
X134666758Y-83882858D01*
X134698000Y-84039925D01*
X134698000Y-84200075D01*
X134666758Y-84357142D01*
X134605470Y-84505102D01*
X134516498Y-84638258D01*
X134403258Y-84751498D01*
X134270102Y-84840470D01*
X134122142Y-84901758D01*
X133965075Y-84933000D01*
X133804925Y-84933000D01*
X133647858Y-84901758D01*
X133499898Y-84840470D01*
X133366742Y-84751498D01*
X133253502Y-84638258D01*
X133164530Y-84505102D01*
X133103242Y-84357142D01*
X133072000Y-84200075D01*
X133072000Y-84039925D01*
X133103242Y-83882858D01*
X133164530Y-83734898D01*
X133253502Y-83601742D01*
X133366742Y-83488502D01*
X133499898Y-83399530D01*
X133647858Y-83338242D01*
X133804925Y-83307000D01*
X133965075Y-83307000D01*
X134122142Y-83338242D01*
X134122142Y-83338242D01*
G37*
G36*
X141742142Y-83338242D02*
X141890102Y-83399530D01*
X142023258Y-83488502D01*
X142136498Y-83601742D01*
X142225470Y-83734898D01*
X142286758Y-83882858D01*
X142318000Y-84039925D01*
X142318000Y-84200075D01*
X142286758Y-84357142D01*
X142225470Y-84505102D01*
X142136498Y-84638258D01*
X142023258Y-84751498D01*
X141890102Y-84840470D01*
X141742142Y-84901758D01*
X141585075Y-84933000D01*
X141424925Y-84933000D01*
X141267858Y-84901758D01*
X141119898Y-84840470D01*
X140986742Y-84751498D01*
X140873502Y-84638258D01*
X140784530Y-84505102D01*
X140723242Y-84357142D01*
X140692000Y-84200075D01*
X140692000Y-84039925D01*
X140723242Y-83882858D01*
X140784530Y-83734898D01*
X140873502Y-83601742D01*
X140986742Y-83488502D01*
X141119898Y-83399530D01*
X141267858Y-83338242D01*
X141424925Y-83307000D01*
X141585075Y-83307000D01*
X141742142Y-83338242D01*
X141742142Y-83338242D01*
G37*
G36*
X144282142Y-83338242D02*
X144430102Y-83399530D01*
X144563258Y-83488502D01*
X144676498Y-83601742D01*
X144765470Y-83734898D01*
X144826758Y-83882858D01*
X144858000Y-84039925D01*
X144858000Y-84200075D01*
X144826758Y-84357142D01*
X144765470Y-84505102D01*
X144676498Y-84638258D01*
X144563258Y-84751498D01*
X144430102Y-84840470D01*
X144282142Y-84901758D01*
X144125075Y-84933000D01*
X143964925Y-84933000D01*
X143807858Y-84901758D01*
X143659898Y-84840470D01*
X143526742Y-84751498D01*
X143413502Y-84638258D01*
X143324530Y-84505102D01*
X143263242Y-84357142D01*
X143232000Y-84200075D01*
X143232000Y-84039925D01*
X143263242Y-83882858D01*
X143324530Y-83734898D01*
X143413502Y-83601742D01*
X143526742Y-83488502D01*
X143659898Y-83399530D01*
X143807858Y-83338242D01*
X143964925Y-83307000D01*
X144125075Y-83307000D01*
X144282142Y-83338242D01*
X144282142Y-83338242D01*
G37*
G36*
X146822142Y-83338242D02*
X146970102Y-83399530D01*
X147103258Y-83488502D01*
X147216498Y-83601742D01*
X147305470Y-83734898D01*
X147366758Y-83882858D01*
X147398000Y-84039925D01*
X147398000Y-84200075D01*
X147366758Y-84357142D01*
X147305470Y-84505102D01*
X147216498Y-84638258D01*
X147103258Y-84751498D01*
X146970102Y-84840470D01*
X146822142Y-84901758D01*
X146665075Y-84933000D01*
X146504925Y-84933000D01*
X146347858Y-84901758D01*
X146199898Y-84840470D01*
X146066742Y-84751498D01*
X145953502Y-84638258D01*
X145864530Y-84505102D01*
X145803242Y-84357142D01*
X145772000Y-84200075D01*
X145772000Y-84039925D01*
X145803242Y-83882858D01*
X145864530Y-83734898D01*
X145953502Y-83601742D01*
X146066742Y-83488502D01*
X146199898Y-83399530D01*
X146347858Y-83338242D01*
X146504925Y-83307000D01*
X146665075Y-83307000D01*
X146822142Y-83338242D01*
X146822142Y-83338242D01*
G37*
G36*
X136662142Y-83338242D02*
X136810102Y-83399530D01*
X136943258Y-83488502D01*
X137056498Y-83601742D01*
X137145470Y-83734898D01*
X137206758Y-83882858D01*
X137238000Y-84039925D01*
X137238000Y-84200075D01*
X137206758Y-84357142D01*
X137145470Y-84505102D01*
X137056498Y-84638258D01*
X136943258Y-84751498D01*
X136810102Y-84840470D01*
X136662142Y-84901758D01*
X136505075Y-84933000D01*
X136344925Y-84933000D01*
X136187858Y-84901758D01*
X136039898Y-84840470D01*
X135906742Y-84751498D01*
X135793502Y-84638258D01*
X135704530Y-84505102D01*
X135643242Y-84357142D01*
X135612000Y-84200075D01*
X135612000Y-84039925D01*
X135643242Y-83882858D01*
X135704530Y-83734898D01*
X135793502Y-83601742D01*
X135906742Y-83488502D01*
X136039898Y-83399530D01*
X136187858Y-83338242D01*
X136344925Y-83307000D01*
X136505075Y-83307000D01*
X136662142Y-83338242D01*
X136662142Y-83338242D01*
G37*
G36*
X131582142Y-83338242D02*
X131730102Y-83399530D01*
X131863258Y-83488502D01*
X131976498Y-83601742D01*
X132065470Y-83734898D01*
X132126758Y-83882858D01*
X132158000Y-84039925D01*
X132158000Y-84200075D01*
X132126758Y-84357142D01*
X132065470Y-84505102D01*
X131976498Y-84638258D01*
X131863258Y-84751498D01*
X131730102Y-84840470D01*
X131582142Y-84901758D01*
X131425075Y-84933000D01*
X131264925Y-84933000D01*
X131107858Y-84901758D01*
X130959898Y-84840470D01*
X130826742Y-84751498D01*
X130713502Y-84638258D01*
X130624530Y-84505102D01*
X130563242Y-84357142D01*
X130532000Y-84200075D01*
X130532000Y-84039925D01*
X130563242Y-83882858D01*
X130624530Y-83734898D01*
X130713502Y-83601742D01*
X130826742Y-83488502D01*
X130959898Y-83399530D01*
X131107858Y-83338242D01*
X131264925Y-83307000D01*
X131425075Y-83307000D01*
X131582142Y-83338242D01*
X131582142Y-83338242D01*
G37*
G36*
X139202142Y-83338242D02*
X139350102Y-83399530D01*
X139483258Y-83488502D01*
X139596498Y-83601742D01*
X139685470Y-83734898D01*
X139746758Y-83882858D01*
X139778000Y-84039925D01*
X139778000Y-84200075D01*
X139746758Y-84357142D01*
X139685470Y-84505102D01*
X139596498Y-84638258D01*
X139483258Y-84751498D01*
X139350102Y-84840470D01*
X139202142Y-84901758D01*
X139045075Y-84933000D01*
X138884925Y-84933000D01*
X138727858Y-84901758D01*
X138579898Y-84840470D01*
X138446742Y-84751498D01*
X138333502Y-84638258D01*
X138244530Y-84505102D01*
X138183242Y-84357142D01*
X138152000Y-84200075D01*
X138152000Y-84039925D01*
X138183242Y-83882858D01*
X138244530Y-83734898D01*
X138333502Y-83601742D01*
X138446742Y-83488502D01*
X138579898Y-83399530D01*
X138727858Y-83338242D01*
X138884925Y-83307000D01*
X139045075Y-83307000D01*
X139202142Y-83338242D01*
X139202142Y-83338242D01*
G37*
G36*
X111352527Y-81588736D02*
X111452410Y-81608604D01*
X111734674Y-81725521D01*
X111988705Y-81895259D01*
X112204741Y-82111295D01*
X112374479Y-82365326D01*
X112491396Y-82647590D01*
X112511264Y-82747473D01*
X112551000Y-82947238D01*
X112551000Y-83252762D01*
X112521806Y-83399529D01*
X112491396Y-83552410D01*
X112374479Y-83834674D01*
X112204741Y-84088705D01*
X111988705Y-84304741D01*
X111734674Y-84474479D01*
X111452410Y-84591396D01*
X111352527Y-84611264D01*
X111152762Y-84651000D01*
X110847238Y-84651000D01*
X110647473Y-84611264D01*
X110547590Y-84591396D01*
X110265326Y-84474479D01*
X110011295Y-84304741D01*
X109795259Y-84088705D01*
X109625521Y-83834674D01*
X109508604Y-83552410D01*
X109478194Y-83399529D01*
X109449000Y-83252762D01*
X109449000Y-82947238D01*
X109488736Y-82747473D01*
X109508604Y-82647590D01*
X109625521Y-82365326D01*
X109795259Y-82111295D01*
X110011295Y-81895259D01*
X110265326Y-81725521D01*
X110547590Y-81608604D01*
X110647473Y-81588736D01*
X110847238Y-81549000D01*
X111152762Y-81549000D01*
X111352527Y-81588736D01*
X111352527Y-81588736D01*
G37*
G36*
X147931000Y-82710500D02*
X147229000Y-82710500D01*
X147229000Y-80449500D01*
X147931000Y-80449500D01*
X147931000Y-82710500D01*
X147931000Y-82710500D01*
G37*
G36*
X151741000Y-82710500D02*
X151039000Y-82710500D01*
X151039000Y-80449500D01*
X151741000Y-80449500D01*
X151741000Y-82710500D01*
X151741000Y-82710500D01*
G37*
G36*
X150471000Y-82710500D02*
X149769000Y-82710500D01*
X149769000Y-80449500D01*
X150471000Y-80449500D01*
X150471000Y-82710500D01*
X150471000Y-82710500D01*
G37*
G36*
X149201000Y-82710500D02*
X148499000Y-82710500D01*
X148499000Y-80449500D01*
X149201000Y-80449500D01*
X149201000Y-82710500D01*
X149201000Y-82710500D01*
G37*
G36*
X146661000Y-82710500D02*
X145959000Y-82710500D01*
X145959000Y-80449500D01*
X146661000Y-80449500D01*
X146661000Y-82710500D01*
X146661000Y-82710500D01*
G37*
G36*
X144121000Y-82710500D02*
X143419000Y-82710500D01*
X143419000Y-80449500D01*
X144121000Y-80449500D01*
X144121000Y-82710500D01*
X144121000Y-82710500D01*
G37*
G36*
X142851000Y-82710500D02*
X142149000Y-82710500D01*
X142149000Y-80449500D01*
X142851000Y-80449500D01*
X142851000Y-82710500D01*
X142851000Y-82710500D01*
G37*
G36*
X140311000Y-82710500D02*
X139609000Y-82710500D01*
X139609000Y-80449500D01*
X140311000Y-80449500D01*
X140311000Y-82710500D01*
X140311000Y-82710500D01*
G37*
G36*
X139041000Y-82710500D02*
X138339000Y-82710500D01*
X138339000Y-80449500D01*
X139041000Y-80449500D01*
X139041000Y-82710500D01*
X139041000Y-82710500D01*
G37*
G36*
X137771000Y-82710500D02*
X137069000Y-82710500D01*
X137069000Y-80449500D01*
X137771000Y-80449500D01*
X137771000Y-82710500D01*
X137771000Y-82710500D01*
G37*
G36*
X136501000Y-82710500D02*
X135799000Y-82710500D01*
X135799000Y-80449500D01*
X136501000Y-80449500D01*
X136501000Y-82710500D01*
X136501000Y-82710500D01*
G37*
G36*
X135231000Y-82710500D02*
X134529000Y-82710500D01*
X134529000Y-80449500D01*
X135231000Y-80449500D01*
X135231000Y-82710500D01*
X135231000Y-82710500D01*
G37*
G36*
X145391000Y-82710500D02*
X144689000Y-82710500D01*
X144689000Y-80449500D01*
X145391000Y-80449500D01*
X145391000Y-82710500D01*
X145391000Y-82710500D01*
G37*
G36*
X141581000Y-82710500D02*
X140879000Y-82710500D01*
X140879000Y-80449500D01*
X141581000Y-80449500D01*
X141581000Y-82710500D01*
X141581000Y-82710500D01*
G37*
G36*
X157623842Y-80150964D02*
X157636094Y-80151566D01*
X157654513Y-80151566D01*
X157676793Y-80153760D01*
X157760880Y-80170486D01*
X157782299Y-80176984D01*
X157861515Y-80209795D01*
X157881251Y-80220345D01*
X157952541Y-80267979D01*
X157969852Y-80282186D01*
X158030468Y-80342802D01*
X158044675Y-80360113D01*
X158092309Y-80431403D01*
X158102859Y-80451139D01*
X158135670Y-80530355D01*
X158142168Y-80551774D01*
X158158894Y-80635861D01*
X158161088Y-80658141D01*
X158161088Y-80676560D01*
X158161690Y-80688812D01*
X158163496Y-80707150D01*
X158163496Y-81194870D01*
X158161907Y-81211009D01*
X158158991Y-81220621D01*
X158154256Y-81229479D01*
X158147881Y-81237247D01*
X158135442Y-81247456D01*
X158125076Y-81254382D01*
X158107749Y-81271708D01*
X158094134Y-81292083D01*
X158084756Y-81314721D01*
X158079975Y-81338755D01*
X158079975Y-81363259D01*
X158084755Y-81387293D01*
X158094131Y-81409932D01*
X158107745Y-81430307D01*
X158125071Y-81447634D01*
X158135440Y-81454562D01*
X158147881Y-81464773D01*
X158154256Y-81472541D01*
X158158991Y-81481399D01*
X158161907Y-81491011D01*
X158163496Y-81507150D01*
X158163496Y-81994871D01*
X158161690Y-82013208D01*
X158161088Y-82025460D01*
X158161088Y-82043879D01*
X158158894Y-82066159D01*
X158142168Y-82150246D01*
X158135670Y-82171665D01*
X158102859Y-82250881D01*
X158092309Y-82270617D01*
X158044675Y-82341907D01*
X158030468Y-82359218D01*
X157969852Y-82419834D01*
X157952541Y-82434041D01*
X157881251Y-82481675D01*
X157861515Y-82492225D01*
X157782299Y-82525036D01*
X157760880Y-82531534D01*
X157676793Y-82548260D01*
X157654513Y-82550454D01*
X157636094Y-82550454D01*
X157623842Y-82551056D01*
X157605505Y-82552862D01*
X157117783Y-82552862D01*
X157099446Y-82551056D01*
X157087194Y-82550454D01*
X157068775Y-82550454D01*
X157046495Y-82548260D01*
X156962408Y-82531534D01*
X156940989Y-82525036D01*
X156861773Y-82492225D01*
X156842037Y-82481675D01*
X156770747Y-82434041D01*
X156753436Y-82419834D01*
X156692820Y-82359218D01*
X156678613Y-82341907D01*
X156630979Y-82270617D01*
X156620429Y-82250881D01*
X156587618Y-82171665D01*
X156581120Y-82150246D01*
X156564394Y-82066159D01*
X156562200Y-82043879D01*
X156562200Y-82025460D01*
X156561598Y-82013208D01*
X156559792Y-81994871D01*
X156559792Y-81507150D01*
X156561381Y-81491011D01*
X156564297Y-81481399D01*
X156569032Y-81472541D01*
X156575407Y-81464773D01*
X156587846Y-81454564D01*
X156598212Y-81447638D01*
X156615539Y-81430312D01*
X156629154Y-81409937D01*
X156638532Y-81387299D01*
X156643313Y-81363265D01*
X156643313Y-81338761D01*
X156638533Y-81314727D01*
X156629157Y-81292088D01*
X156615543Y-81271713D01*
X156598217Y-81254386D01*
X156587848Y-81247458D01*
X156575407Y-81237247D01*
X156569032Y-81229479D01*
X156564297Y-81220621D01*
X156561381Y-81211009D01*
X156559792Y-81194870D01*
X156559792Y-80707150D01*
X156561598Y-80688812D01*
X156562200Y-80676560D01*
X156562200Y-80658141D01*
X156564394Y-80635861D01*
X156581120Y-80551774D01*
X156587618Y-80530355D01*
X156620429Y-80451139D01*
X156630979Y-80431403D01*
X156678613Y-80360113D01*
X156692820Y-80342802D01*
X156753436Y-80282186D01*
X156770747Y-80267979D01*
X156842037Y-80220345D01*
X156861773Y-80209795D01*
X156940989Y-80176984D01*
X156962408Y-80170486D01*
X157046495Y-80153760D01*
X157068775Y-80151566D01*
X157087194Y-80151566D01*
X157099446Y-80150964D01*
X157117784Y-80149158D01*
X157605504Y-80149158D01*
X157623842Y-80150964D01*
X157623842Y-80150964D01*
G37*
G36*
X160163842Y-80135964D02*
X160176094Y-80136566D01*
X160194513Y-80136566D01*
X160216793Y-80138760D01*
X160300880Y-80155486D01*
X160322299Y-80161984D01*
X160401515Y-80194795D01*
X160421251Y-80205345D01*
X160492541Y-80252979D01*
X160509852Y-80267186D01*
X160570468Y-80327802D01*
X160584675Y-80345113D01*
X160632309Y-80416403D01*
X160642859Y-80436139D01*
X160675670Y-80515355D01*
X160682168Y-80536774D01*
X160698894Y-80620861D01*
X160701088Y-80643141D01*
X160701088Y-80661560D01*
X160701690Y-80673812D01*
X160703496Y-80692150D01*
X160703496Y-81179870D01*
X160701907Y-81196009D01*
X160698991Y-81205621D01*
X160694256Y-81214479D01*
X160687881Y-81222247D01*
X160675442Y-81232456D01*
X160665076Y-81239382D01*
X160647749Y-81256708D01*
X160634134Y-81277083D01*
X160624756Y-81299721D01*
X160619975Y-81323755D01*
X160619975Y-81348259D01*
X160624755Y-81372293D01*
X160634131Y-81394932D01*
X160647745Y-81415307D01*
X160665071Y-81432634D01*
X160675440Y-81439562D01*
X160687881Y-81449773D01*
X160694256Y-81457541D01*
X160698991Y-81466399D01*
X160701907Y-81476011D01*
X160703496Y-81492150D01*
X160703496Y-81979871D01*
X160701690Y-81998208D01*
X160701088Y-82010460D01*
X160701088Y-82028879D01*
X160698894Y-82051159D01*
X160682168Y-82135246D01*
X160675670Y-82156665D01*
X160642859Y-82235881D01*
X160632309Y-82255617D01*
X160584675Y-82326907D01*
X160570468Y-82344218D01*
X160509852Y-82404834D01*
X160492541Y-82419041D01*
X160421251Y-82466675D01*
X160401515Y-82477225D01*
X160322299Y-82510036D01*
X160300880Y-82516534D01*
X160216793Y-82533260D01*
X160194513Y-82535454D01*
X160176094Y-82535454D01*
X160163842Y-82536056D01*
X160145505Y-82537862D01*
X159657783Y-82537862D01*
X159639446Y-82536056D01*
X159627194Y-82535454D01*
X159608775Y-82535454D01*
X159586495Y-82533260D01*
X159502408Y-82516534D01*
X159480989Y-82510036D01*
X159401773Y-82477225D01*
X159382037Y-82466675D01*
X159310747Y-82419041D01*
X159293436Y-82404834D01*
X159232820Y-82344218D01*
X159218613Y-82326907D01*
X159170979Y-82255617D01*
X159160429Y-82235881D01*
X159127618Y-82156665D01*
X159121120Y-82135246D01*
X159104394Y-82051159D01*
X159102200Y-82028879D01*
X159102200Y-82010460D01*
X159101598Y-81998208D01*
X159099792Y-81979871D01*
X159099792Y-81492150D01*
X159101381Y-81476011D01*
X159104297Y-81466399D01*
X159109032Y-81457541D01*
X159115407Y-81449773D01*
X159127846Y-81439564D01*
X159138212Y-81432638D01*
X159155539Y-81415312D01*
X159169154Y-81394937D01*
X159178532Y-81372299D01*
X159183313Y-81348265D01*
X159183313Y-81323761D01*
X159178533Y-81299727D01*
X159169157Y-81277088D01*
X159155543Y-81256713D01*
X159138217Y-81239386D01*
X159127848Y-81232458D01*
X159115407Y-81222247D01*
X159109032Y-81214479D01*
X159104297Y-81205621D01*
X159101381Y-81196009D01*
X159099792Y-81179870D01*
X159099792Y-80692150D01*
X159101598Y-80673812D01*
X159102200Y-80661560D01*
X159102200Y-80643141D01*
X159104394Y-80620861D01*
X159121120Y-80536774D01*
X159127618Y-80515355D01*
X159160429Y-80436139D01*
X159170979Y-80416403D01*
X159218613Y-80345113D01*
X159232820Y-80327802D01*
X159293436Y-80267186D01*
X159310747Y-80252979D01*
X159382037Y-80205345D01*
X159401773Y-80194795D01*
X159480989Y-80161984D01*
X159502408Y-80155486D01*
X159586495Y-80138760D01*
X159608775Y-80136566D01*
X159627194Y-80136566D01*
X159639446Y-80135964D01*
X159657784Y-80134158D01*
X160145504Y-80134158D01*
X160163842Y-80135964D01*
X160163842Y-80135964D01*
G37*
G36*
X167722812Y-80633624D02*
X167886784Y-80701544D01*
X168034354Y-80800147D01*
X168159853Y-80925646D01*
X168258456Y-81073216D01*
X168326376Y-81237188D01*
X168361000Y-81411259D01*
X168361000Y-81588741D01*
X168326376Y-81762812D01*
X168258456Y-81926784D01*
X168159853Y-82074354D01*
X168034354Y-82199853D01*
X167886784Y-82298456D01*
X167722812Y-82366376D01*
X167548741Y-82401000D01*
X167371259Y-82401000D01*
X167197188Y-82366376D01*
X167033216Y-82298456D01*
X166885646Y-82199853D01*
X166760147Y-82074354D01*
X166661544Y-81926784D01*
X166593624Y-81762812D01*
X166559000Y-81588741D01*
X166559000Y-81411259D01*
X166593624Y-81237188D01*
X166661544Y-81073216D01*
X166760147Y-80925646D01*
X166885646Y-80800147D01*
X167033216Y-80701544D01*
X167197188Y-80633624D01*
X167371259Y-80599000D01*
X167548741Y-80599000D01*
X167722812Y-80633624D01*
X167722812Y-80633624D01*
G37*
G36*
X170110443Y-80605519D02*
X170176627Y-80612037D01*
X170255164Y-80635861D01*
X170346467Y-80663557D01*
X170485087Y-80737652D01*
X170502991Y-80747222D01*
X170538729Y-80776552D01*
X170640186Y-80859814D01*
X170723448Y-80961271D01*
X170752778Y-80997009D01*
X170752779Y-80997011D01*
X170836443Y-81153533D01*
X170848982Y-81194870D01*
X170887963Y-81323373D01*
X170905359Y-81500000D01*
X170887963Y-81676627D01*
X170873131Y-81725521D01*
X170836443Y-81846467D01*
X170810361Y-81895262D01*
X170752778Y-82002991D01*
X170734338Y-82025460D01*
X170640186Y-82140186D01*
X170567480Y-82199853D01*
X170502991Y-82252778D01*
X170502989Y-82252779D01*
X170346467Y-82336443D01*
X170312726Y-82346678D01*
X170176627Y-82387963D01*
X170110442Y-82394482D01*
X170044260Y-82401000D01*
X169955740Y-82401000D01*
X169889558Y-82394482D01*
X169823373Y-82387963D01*
X169687274Y-82346678D01*
X169653533Y-82336443D01*
X169497011Y-82252779D01*
X169497009Y-82252778D01*
X169432520Y-82199853D01*
X169359814Y-82140186D01*
X169265662Y-82025460D01*
X169247222Y-82002991D01*
X169189639Y-81895262D01*
X169163557Y-81846467D01*
X169126869Y-81725521D01*
X169112037Y-81676627D01*
X169094641Y-81500000D01*
X169112037Y-81323373D01*
X169151018Y-81194870D01*
X169163557Y-81153533D01*
X169247221Y-80997011D01*
X169247222Y-80997009D01*
X169276552Y-80961271D01*
X169359814Y-80859814D01*
X169461271Y-80776552D01*
X169497009Y-80747222D01*
X169514913Y-80737652D01*
X169653533Y-80663557D01*
X169744836Y-80635861D01*
X169823373Y-80612037D01*
X169889557Y-80605519D01*
X169955740Y-80599000D01*
X170044260Y-80599000D01*
X170110443Y-80605519D01*
X170110443Y-80605519D01*
G37*
G36*
X126986000Y-81951000D02*
X126284000Y-81951000D01*
X126284000Y-80349000D01*
X126986000Y-80349000D01*
X126986000Y-81951000D01*
X126986000Y-81951000D01*
G37*
G36*
X129526000Y-81951000D02*
X128824000Y-81951000D01*
X128824000Y-80349000D01*
X129526000Y-80349000D01*
X129526000Y-81951000D01*
X129526000Y-81951000D01*
G37*
G36*
X128256000Y-81951000D02*
X127554000Y-81951000D01*
X127554000Y-80349000D01*
X128256000Y-80349000D01*
X128256000Y-81951000D01*
X128256000Y-81951000D01*
G37*
G36*
X125716000Y-81951000D02*
X125014000Y-81951000D01*
X125014000Y-80349000D01*
X125716000Y-80349000D01*
X125716000Y-81951000D01*
X125716000Y-81951000D01*
G37*
G36*
X123176000Y-81951000D02*
X122474000Y-81951000D01*
X122474000Y-80349000D01*
X123176000Y-80349000D01*
X123176000Y-81951000D01*
X123176000Y-81951000D01*
G37*
G36*
X121906000Y-81951000D02*
X121204000Y-81951000D01*
X121204000Y-80349000D01*
X121906000Y-80349000D01*
X121906000Y-81951000D01*
X121906000Y-81951000D01*
G37*
G36*
X130796000Y-81951000D02*
X130094000Y-81951000D01*
X130094000Y-80349000D01*
X130796000Y-80349000D01*
X130796000Y-81951000D01*
X130796000Y-81951000D01*
G37*
G36*
X124446000Y-81951000D02*
X123744000Y-81951000D01*
X123744000Y-80349000D01*
X124446000Y-80349000D01*
X124446000Y-81951000D01*
X124446000Y-81951000D01*
G37*
G36*
X113051000Y-78551000D02*
X108949000Y-78551000D01*
X108949000Y-74449000D01*
X113051000Y-74449000D01*
X113051000Y-78551000D01*
X113051000Y-78551000D01*
G37*
G36*
X170901000Y-76901000D02*
X169099000Y-76901000D01*
X169099000Y-75099000D01*
X170901000Y-75099000D01*
X170901000Y-76901000D01*
X170901000Y-76901000D01*
G37*
G36*
X167570442Y-75105518D02*
X167636627Y-75112037D01*
X167749853Y-75146384D01*
X167806467Y-75163557D01*
X167945087Y-75237652D01*
X167962991Y-75247222D01*
X167998729Y-75276552D01*
X168100186Y-75359814D01*
X168183448Y-75461271D01*
X168212778Y-75497009D01*
X168212779Y-75497011D01*
X168296443Y-75653533D01*
X168296443Y-75653534D01*
X168347963Y-75823373D01*
X168365359Y-76000000D01*
X168347963Y-76176627D01*
X168313616Y-76289853D01*
X168296443Y-76346467D01*
X168222348Y-76485087D01*
X168212778Y-76502991D01*
X168183448Y-76538729D01*
X168100186Y-76640186D01*
X167998729Y-76723448D01*
X167962991Y-76752778D01*
X167962989Y-76752779D01*
X167806467Y-76836443D01*
X167749853Y-76853616D01*
X167636627Y-76887963D01*
X167570442Y-76894482D01*
X167504260Y-76901000D01*
X167415740Y-76901000D01*
X167349558Y-76894482D01*
X167283373Y-76887963D01*
X167170147Y-76853616D01*
X167113533Y-76836443D01*
X166957011Y-76752779D01*
X166957009Y-76752778D01*
X166921271Y-76723448D01*
X166819814Y-76640186D01*
X166736552Y-76538729D01*
X166707222Y-76502991D01*
X166697652Y-76485087D01*
X166623557Y-76346467D01*
X166606384Y-76289853D01*
X166572037Y-76176627D01*
X166554641Y-76000000D01*
X166572037Y-75823373D01*
X166623557Y-75653534D01*
X166623557Y-75653533D01*
X166707221Y-75497011D01*
X166707222Y-75497009D01*
X166736552Y-75461271D01*
X166819814Y-75359814D01*
X166921271Y-75276552D01*
X166957009Y-75247222D01*
X166974913Y-75237652D01*
X167113533Y-75163557D01*
X167170147Y-75146384D01*
X167283373Y-75112037D01*
X167349558Y-75105518D01*
X167415740Y-75099000D01*
X167504260Y-75099000D01*
X167570442Y-75105518D01*
X167570442Y-75105518D01*
G37*
G36*
X160781000Y-76551000D02*
X160029000Y-76551000D01*
X160029000Y-74749000D01*
X160781000Y-74749000D01*
X160781000Y-76551000D01*
X160781000Y-76551000D01*
G37*
G36*
X158241000Y-76551000D02*
X157489000Y-76551000D01*
X157489000Y-74749000D01*
X158241000Y-74749000D01*
X158241000Y-76551000D01*
X158241000Y-76551000D01*
G37*
G36*
X159511000Y-76551000D02*
X158759000Y-76551000D01*
X158759000Y-74749000D01*
X159511000Y-74749000D01*
X159511000Y-76551000D01*
X159511000Y-76551000D01*
G37*
G36*
X156971000Y-76551000D02*
X156219000Y-76551000D01*
X156219000Y-74749000D01*
X156971000Y-74749000D01*
X156971000Y-76551000D01*
X156971000Y-76551000D01*
G37*
G36*
X170110443Y-72565519D02*
X170176627Y-72572037D01*
X170289853Y-72606384D01*
X170346467Y-72623557D01*
X170397808Y-72651000D01*
X170502991Y-72707222D01*
X170538729Y-72736552D01*
X170640186Y-72819814D01*
X170723448Y-72921271D01*
X170752778Y-72957009D01*
X170752779Y-72957011D01*
X170836443Y-73113533D01*
X170836443Y-73113534D01*
X170887963Y-73283373D01*
X170905359Y-73460000D01*
X170887963Y-73636627D01*
X170853616Y-73749853D01*
X170836443Y-73806467D01*
X170762348Y-73945087D01*
X170752778Y-73962991D01*
X170723448Y-73998729D01*
X170640186Y-74100186D01*
X170538729Y-74183448D01*
X170502991Y-74212778D01*
X170502989Y-74212779D01*
X170346467Y-74296443D01*
X170289853Y-74313616D01*
X170176627Y-74347963D01*
X170110442Y-74354482D01*
X170044260Y-74361000D01*
X169955740Y-74361000D01*
X169889558Y-74354482D01*
X169823373Y-74347963D01*
X169710147Y-74313616D01*
X169653533Y-74296443D01*
X169497011Y-74212779D01*
X169497009Y-74212778D01*
X169461271Y-74183448D01*
X169359814Y-74100186D01*
X169276552Y-73998729D01*
X169247222Y-73962991D01*
X169237652Y-73945087D01*
X169163557Y-73806467D01*
X169146384Y-73749853D01*
X169112037Y-73636627D01*
X169094641Y-73460000D01*
X169112037Y-73283373D01*
X169163557Y-73113534D01*
X169163557Y-73113533D01*
X169247221Y-72957011D01*
X169247222Y-72957009D01*
X169276552Y-72921271D01*
X169359814Y-72819814D01*
X169461271Y-72736552D01*
X169497009Y-72707222D01*
X169602192Y-72651000D01*
X169653533Y-72623557D01*
X169710147Y-72606384D01*
X169823373Y-72572037D01*
X169889557Y-72565519D01*
X169955740Y-72559000D01*
X170044260Y-72559000D01*
X170110443Y-72565519D01*
X170110443Y-72565519D01*
G37*
G36*
X167570443Y-72565519D02*
X167636627Y-72572037D01*
X167749853Y-72606384D01*
X167806467Y-72623557D01*
X167857808Y-72651000D01*
X167962991Y-72707222D01*
X167998729Y-72736552D01*
X168100186Y-72819814D01*
X168183448Y-72921271D01*
X168212778Y-72957009D01*
X168212779Y-72957011D01*
X168296443Y-73113533D01*
X168296443Y-73113534D01*
X168347963Y-73283373D01*
X168365359Y-73460000D01*
X168347963Y-73636627D01*
X168313616Y-73749853D01*
X168296443Y-73806467D01*
X168222348Y-73945087D01*
X168212778Y-73962991D01*
X168183448Y-73998729D01*
X168100186Y-74100186D01*
X167998729Y-74183448D01*
X167962991Y-74212778D01*
X167962989Y-74212779D01*
X167806467Y-74296443D01*
X167749853Y-74313616D01*
X167636627Y-74347963D01*
X167570442Y-74354482D01*
X167504260Y-74361000D01*
X167415740Y-74361000D01*
X167349558Y-74354482D01*
X167283373Y-74347963D01*
X167170147Y-74313616D01*
X167113533Y-74296443D01*
X166957011Y-74212779D01*
X166957009Y-74212778D01*
X166921271Y-74183448D01*
X166819814Y-74100186D01*
X166736552Y-73998729D01*
X166707222Y-73962991D01*
X166697652Y-73945087D01*
X166623557Y-73806467D01*
X166606384Y-73749853D01*
X166572037Y-73636627D01*
X166554641Y-73460000D01*
X166572037Y-73283373D01*
X166623557Y-73113534D01*
X166623557Y-73113533D01*
X166707221Y-72957011D01*
X166707222Y-72957009D01*
X166736552Y-72921271D01*
X166819814Y-72819814D01*
X166921271Y-72736552D01*
X166957009Y-72707222D01*
X167062192Y-72651000D01*
X167113533Y-72623557D01*
X167170147Y-72606384D01*
X167283373Y-72572037D01*
X167349557Y-72565519D01*
X167415740Y-72559000D01*
X167504260Y-72559000D01*
X167570443Y-72565519D01*
X167570443Y-72565519D01*
G37*
G36*
X121906000Y-72651000D02*
X121204000Y-72651000D01*
X121204000Y-71049000D01*
X121906000Y-71049000D01*
X121906000Y-72651000D01*
X121906000Y-72651000D01*
G37*
G36*
X124446000Y-72651000D02*
X123744000Y-72651000D01*
X123744000Y-71049000D01*
X124446000Y-71049000D01*
X124446000Y-72651000D01*
X124446000Y-72651000D01*
G37*
G36*
X125716000Y-72651000D02*
X125014000Y-72651000D01*
X125014000Y-71049000D01*
X125716000Y-71049000D01*
X125716000Y-72651000D01*
X125716000Y-72651000D01*
G37*
G36*
X130796000Y-72651000D02*
X130094000Y-72651000D01*
X130094000Y-71049000D01*
X130796000Y-71049000D01*
X130796000Y-72651000D01*
X130796000Y-72651000D01*
G37*
G36*
X128256000Y-72651000D02*
X127554000Y-72651000D01*
X127554000Y-71049000D01*
X128256000Y-71049000D01*
X128256000Y-72651000D01*
X128256000Y-72651000D01*
G37*
G36*
X129526000Y-72651000D02*
X128824000Y-72651000D01*
X128824000Y-71049000D01*
X129526000Y-71049000D01*
X129526000Y-72651000D01*
X129526000Y-72651000D01*
G37*
G36*
X123176000Y-72651000D02*
X122474000Y-72651000D01*
X122474000Y-71049000D01*
X123176000Y-71049000D01*
X123176000Y-72651000D01*
X123176000Y-72651000D01*
G37*
G36*
X126986000Y-72651000D02*
X126284000Y-72651000D01*
X126284000Y-71049000D01*
X126986000Y-71049000D01*
X126986000Y-72651000D01*
X126986000Y-72651000D01*
G37*
G36*
X135231000Y-72550500D02*
X134529000Y-72550500D01*
X134529000Y-70289500D01*
X135231000Y-70289500D01*
X135231000Y-72550500D01*
X135231000Y-72550500D01*
G37*
G36*
X146661000Y-72550500D02*
X145959000Y-72550500D01*
X145959000Y-70289500D01*
X146661000Y-70289500D01*
X146661000Y-72550500D01*
X146661000Y-72550500D01*
G37*
G36*
X150471000Y-72550500D02*
X149769000Y-72550500D01*
X149769000Y-70289500D01*
X150471000Y-70289500D01*
X150471000Y-72550500D01*
X150471000Y-72550500D01*
G37*
G36*
X151741000Y-72550500D02*
X151039000Y-72550500D01*
X151039000Y-70289500D01*
X151741000Y-70289500D01*
X151741000Y-72550500D01*
X151741000Y-72550500D01*
G37*
G36*
X136501000Y-72550500D02*
X135799000Y-72550500D01*
X135799000Y-70289500D01*
X136501000Y-70289500D01*
X136501000Y-72550500D01*
X136501000Y-72550500D01*
G37*
G36*
X137771000Y-72550500D02*
X137069000Y-72550500D01*
X137069000Y-70289500D01*
X137771000Y-70289500D01*
X137771000Y-72550500D01*
X137771000Y-72550500D01*
G37*
G36*
X149201000Y-72550500D02*
X148499000Y-72550500D01*
X148499000Y-70289500D01*
X149201000Y-70289500D01*
X149201000Y-72550500D01*
X149201000Y-72550500D01*
G37*
G36*
X145391000Y-72550500D02*
X144689000Y-72550500D01*
X144689000Y-70289500D01*
X145391000Y-70289500D01*
X145391000Y-72550500D01*
X145391000Y-72550500D01*
G37*
G36*
X144121000Y-72550500D02*
X143419000Y-72550500D01*
X143419000Y-70289500D01*
X144121000Y-70289500D01*
X144121000Y-72550500D01*
X144121000Y-72550500D01*
G37*
G36*
X142851000Y-72550500D02*
X142149000Y-72550500D01*
X142149000Y-70289500D01*
X142851000Y-70289500D01*
X142851000Y-72550500D01*
X142851000Y-72550500D01*
G37*
G36*
X141581000Y-72550500D02*
X140879000Y-72550500D01*
X140879000Y-70289500D01*
X141581000Y-70289500D01*
X141581000Y-72550500D01*
X141581000Y-72550500D01*
G37*
G36*
X140311000Y-72550500D02*
X139609000Y-72550500D01*
X139609000Y-70289500D01*
X140311000Y-70289500D01*
X140311000Y-72550500D01*
X140311000Y-72550500D01*
G37*
G36*
X139041000Y-72550500D02*
X138339000Y-72550500D01*
X138339000Y-70289500D01*
X139041000Y-70289500D01*
X139041000Y-72550500D01*
X139041000Y-72550500D01*
G37*
G36*
X147931000Y-72550500D02*
X147229000Y-72550500D01*
X147229000Y-70289500D01*
X147931000Y-70289500D01*
X147931000Y-72550500D01*
X147931000Y-72550500D01*
G37*
G36*
X170110442Y-70025518D02*
X170176627Y-70032037D01*
X170244948Y-70052762D01*
X170346467Y-70083557D01*
X170485087Y-70157652D01*
X170502991Y-70167222D01*
X170538729Y-70196552D01*
X170640186Y-70279814D01*
X170699762Y-70352409D01*
X170752778Y-70417009D01*
X170752779Y-70417011D01*
X170836443Y-70573533D01*
X170836443Y-70573534D01*
X170887963Y-70743373D01*
X170905359Y-70920000D01*
X170887963Y-71096627D01*
X170853616Y-71209853D01*
X170836443Y-71266467D01*
X170832160Y-71274479D01*
X170752778Y-71422991D01*
X170729791Y-71451000D01*
X170640186Y-71560186D01*
X170538729Y-71643448D01*
X170502991Y-71672778D01*
X170502989Y-71672779D01*
X170346467Y-71756443D01*
X170289853Y-71773616D01*
X170176627Y-71807963D01*
X170110443Y-71814481D01*
X170044260Y-71821000D01*
X169955740Y-71821000D01*
X169889557Y-71814481D01*
X169823373Y-71807963D01*
X169710147Y-71773616D01*
X169653533Y-71756443D01*
X169497011Y-71672779D01*
X169497009Y-71672778D01*
X169461271Y-71643448D01*
X169359814Y-71560186D01*
X169270209Y-71451000D01*
X169247222Y-71422991D01*
X169167840Y-71274479D01*
X169163557Y-71266467D01*
X169146384Y-71209853D01*
X169112037Y-71096627D01*
X169094641Y-70920000D01*
X169112037Y-70743373D01*
X169163557Y-70573534D01*
X169163557Y-70573533D01*
X169247221Y-70417011D01*
X169247222Y-70417009D01*
X169300238Y-70352409D01*
X169359814Y-70279814D01*
X169461271Y-70196552D01*
X169497009Y-70167222D01*
X169514913Y-70157652D01*
X169653533Y-70083557D01*
X169755052Y-70052762D01*
X169823373Y-70032037D01*
X169889558Y-70025518D01*
X169955740Y-70019000D01*
X170044260Y-70019000D01*
X170110442Y-70025518D01*
X170110442Y-70025518D01*
G37*
G36*
X167570442Y-70025518D02*
X167636627Y-70032037D01*
X167704948Y-70052762D01*
X167806467Y-70083557D01*
X167945087Y-70157652D01*
X167962991Y-70167222D01*
X167998729Y-70196552D01*
X168100186Y-70279814D01*
X168159762Y-70352409D01*
X168212778Y-70417009D01*
X168212779Y-70417011D01*
X168296443Y-70573533D01*
X168296443Y-70573534D01*
X168347963Y-70743373D01*
X168365359Y-70920000D01*
X168347963Y-71096627D01*
X168313616Y-71209853D01*
X168296443Y-71266467D01*
X168292160Y-71274479D01*
X168212778Y-71422991D01*
X168189791Y-71451000D01*
X168100186Y-71560186D01*
X167998729Y-71643448D01*
X167962991Y-71672778D01*
X167962989Y-71672779D01*
X167806467Y-71756443D01*
X167749853Y-71773616D01*
X167636627Y-71807963D01*
X167570443Y-71814481D01*
X167504260Y-71821000D01*
X167415740Y-71821000D01*
X167349557Y-71814481D01*
X167283373Y-71807963D01*
X167170147Y-71773616D01*
X167113533Y-71756443D01*
X166957011Y-71672779D01*
X166957009Y-71672778D01*
X166921271Y-71643448D01*
X166819814Y-71560186D01*
X166730209Y-71451000D01*
X166707222Y-71422991D01*
X166627840Y-71274479D01*
X166623557Y-71266467D01*
X166606384Y-71209853D01*
X166572037Y-71096627D01*
X166554641Y-70920000D01*
X166572037Y-70743373D01*
X166623557Y-70573534D01*
X166623557Y-70573533D01*
X166707221Y-70417011D01*
X166707222Y-70417009D01*
X166760238Y-70352409D01*
X166819814Y-70279814D01*
X166921271Y-70196552D01*
X166957009Y-70167222D01*
X166974913Y-70157652D01*
X167113533Y-70083557D01*
X167215052Y-70052762D01*
X167283373Y-70032037D01*
X167349558Y-70025518D01*
X167415740Y-70019000D01*
X167504260Y-70019000D01*
X167570442Y-70025518D01*
X167570442Y-70025518D01*
G37*
G36*
X111352527Y-68388736D02*
X111452410Y-68408604D01*
X111734674Y-68525521D01*
X111988705Y-68695259D01*
X112204741Y-68911295D01*
X112374479Y-69165326D01*
X112470962Y-69398258D01*
X112491396Y-69447591D01*
X112533997Y-69661757D01*
X112551000Y-69747240D01*
X112551000Y-70052760D01*
X112491396Y-70352410D01*
X112374479Y-70634674D01*
X112204741Y-70888705D01*
X111988705Y-71104741D01*
X111734674Y-71274479D01*
X111452410Y-71391396D01*
X111352527Y-71411264D01*
X111152762Y-71451000D01*
X110847238Y-71451000D01*
X110647473Y-71411264D01*
X110547590Y-71391396D01*
X110265326Y-71274479D01*
X110011295Y-71104741D01*
X109795259Y-70888705D01*
X109625521Y-70634674D01*
X109508604Y-70352410D01*
X109449000Y-70052760D01*
X109449000Y-69747240D01*
X109466004Y-69661757D01*
X109508604Y-69447591D01*
X109529038Y-69398258D01*
X109625521Y-69165326D01*
X109795259Y-68911295D01*
X110011295Y-68695259D01*
X110265326Y-68525521D01*
X110547590Y-68408604D01*
X110647473Y-68388736D01*
X110847238Y-68349000D01*
X111152762Y-68349000D01*
X111352527Y-68388736D01*
X111352527Y-68388736D01*
G37*
G36*
X134122142Y-68098242D02*
X134270102Y-68159530D01*
X134403258Y-68248502D01*
X134516498Y-68361742D01*
X134605470Y-68494898D01*
X134666758Y-68642858D01*
X134698000Y-68799925D01*
X134698000Y-68960075D01*
X134666758Y-69117142D01*
X134605470Y-69265102D01*
X134516498Y-69398258D01*
X134403258Y-69511498D01*
X134270102Y-69600470D01*
X134122142Y-69661758D01*
X133965075Y-69693000D01*
X133804925Y-69693000D01*
X133647858Y-69661758D01*
X133499898Y-69600470D01*
X133366742Y-69511498D01*
X133253502Y-69398258D01*
X133164530Y-69265102D01*
X133103242Y-69117142D01*
X133072000Y-68960075D01*
X133072000Y-68799925D01*
X133103242Y-68642858D01*
X133164530Y-68494898D01*
X133253502Y-68361742D01*
X133366742Y-68248502D01*
X133499898Y-68159530D01*
X133647858Y-68098242D01*
X133804925Y-68067000D01*
X133965075Y-68067000D01*
X134122142Y-68098242D01*
X134122142Y-68098242D01*
G37*
G36*
X146822142Y-68098242D02*
X146970102Y-68159530D01*
X147103258Y-68248502D01*
X147216498Y-68361742D01*
X147305470Y-68494898D01*
X147366758Y-68642858D01*
X147398000Y-68799925D01*
X147398000Y-68960075D01*
X147366758Y-69117142D01*
X147305470Y-69265102D01*
X147216498Y-69398258D01*
X147103258Y-69511498D01*
X146970102Y-69600470D01*
X146822142Y-69661758D01*
X146665075Y-69693000D01*
X146504925Y-69693000D01*
X146347858Y-69661758D01*
X146199898Y-69600470D01*
X146066742Y-69511498D01*
X145953502Y-69398258D01*
X145864530Y-69265102D01*
X145803242Y-69117142D01*
X145772000Y-68960075D01*
X145772000Y-68799925D01*
X145803242Y-68642858D01*
X145864530Y-68494898D01*
X145953502Y-68361742D01*
X146066742Y-68248502D01*
X146199898Y-68159530D01*
X146347858Y-68098242D01*
X146504925Y-68067000D01*
X146665075Y-68067000D01*
X146822142Y-68098242D01*
X146822142Y-68098242D01*
G37*
G36*
X136662142Y-68098242D02*
X136810102Y-68159530D01*
X136943258Y-68248502D01*
X137056498Y-68361742D01*
X137145470Y-68494898D01*
X137206758Y-68642858D01*
X137238000Y-68799925D01*
X137238000Y-68960075D01*
X137206758Y-69117142D01*
X137145470Y-69265102D01*
X137056498Y-69398258D01*
X136943258Y-69511498D01*
X136810102Y-69600470D01*
X136662142Y-69661758D01*
X136505075Y-69693000D01*
X136344925Y-69693000D01*
X136187858Y-69661758D01*
X136039898Y-69600470D01*
X135906742Y-69511498D01*
X135793502Y-69398258D01*
X135704530Y-69265102D01*
X135643242Y-69117142D01*
X135612000Y-68960075D01*
X135612000Y-68799925D01*
X135643242Y-68642858D01*
X135704530Y-68494898D01*
X135793502Y-68361742D01*
X135906742Y-68248502D01*
X136039898Y-68159530D01*
X136187858Y-68098242D01*
X136344925Y-68067000D01*
X136505075Y-68067000D01*
X136662142Y-68098242D01*
X136662142Y-68098242D01*
G37*
G36*
X139202142Y-68098242D02*
X139350102Y-68159530D01*
X139483258Y-68248502D01*
X139596498Y-68361742D01*
X139685470Y-68494898D01*
X139746758Y-68642858D01*
X139778000Y-68799925D01*
X139778000Y-68960075D01*
X139746758Y-69117142D01*
X139685470Y-69265102D01*
X139596498Y-69398258D01*
X139483258Y-69511498D01*
X139350102Y-69600470D01*
X139202142Y-69661758D01*
X139045075Y-69693000D01*
X138884925Y-69693000D01*
X138727858Y-69661758D01*
X138579898Y-69600470D01*
X138446742Y-69511498D01*
X138333502Y-69398258D01*
X138244530Y-69265102D01*
X138183242Y-69117142D01*
X138152000Y-68960075D01*
X138152000Y-68799925D01*
X138183242Y-68642858D01*
X138244530Y-68494898D01*
X138333502Y-68361742D01*
X138446742Y-68248502D01*
X138579898Y-68159530D01*
X138727858Y-68098242D01*
X138884925Y-68067000D01*
X139045075Y-68067000D01*
X139202142Y-68098242D01*
X139202142Y-68098242D01*
G37*
G36*
X141742142Y-68098242D02*
X141890102Y-68159530D01*
X142023258Y-68248502D01*
X142136498Y-68361742D01*
X142225470Y-68494898D01*
X142286758Y-68642858D01*
X142318000Y-68799925D01*
X142318000Y-68960075D01*
X142286758Y-69117142D01*
X142225470Y-69265102D01*
X142136498Y-69398258D01*
X142023258Y-69511498D01*
X141890102Y-69600470D01*
X141742142Y-69661758D01*
X141585075Y-69693000D01*
X141424925Y-69693000D01*
X141267858Y-69661758D01*
X141119898Y-69600470D01*
X140986742Y-69511498D01*
X140873502Y-69398258D01*
X140784530Y-69265102D01*
X140723242Y-69117142D01*
X140692000Y-68960075D01*
X140692000Y-68799925D01*
X140723242Y-68642858D01*
X140784530Y-68494898D01*
X140873502Y-68361742D01*
X140986742Y-68248502D01*
X141119898Y-68159530D01*
X141267858Y-68098242D01*
X141424925Y-68067000D01*
X141585075Y-68067000D01*
X141742142Y-68098242D01*
X141742142Y-68098242D01*
G37*
G36*
X144282142Y-68098242D02*
X144430102Y-68159530D01*
X144563258Y-68248502D01*
X144676498Y-68361742D01*
X144765470Y-68494898D01*
X144826758Y-68642858D01*
X144858000Y-68799925D01*
X144858000Y-68960075D01*
X144826758Y-69117142D01*
X144765470Y-69265102D01*
X144676498Y-69398258D01*
X144563258Y-69511498D01*
X144430102Y-69600470D01*
X144282142Y-69661758D01*
X144125075Y-69693000D01*
X143964925Y-69693000D01*
X143807858Y-69661758D01*
X143659898Y-69600470D01*
X143526742Y-69511498D01*
X143413502Y-69398258D01*
X143324530Y-69265102D01*
X143263242Y-69117142D01*
X143232000Y-68960075D01*
X143232000Y-68799925D01*
X143263242Y-68642858D01*
X143324530Y-68494898D01*
X143413502Y-68361742D01*
X143526742Y-68248502D01*
X143659898Y-68159530D01*
X143807858Y-68098242D01*
X143964925Y-68067000D01*
X144125075Y-68067000D01*
X144282142Y-68098242D01*
X144282142Y-68098242D01*
G37*
G36*
X131582142Y-68098242D02*
X131730102Y-68159530D01*
X131863258Y-68248502D01*
X131976498Y-68361742D01*
X132065470Y-68494898D01*
X132126758Y-68642858D01*
X132158000Y-68799925D01*
X132158000Y-68960075D01*
X132126758Y-69117142D01*
X132065470Y-69265102D01*
X131976498Y-69398258D01*
X131863258Y-69511498D01*
X131730102Y-69600470D01*
X131582142Y-69661758D01*
X131425075Y-69693000D01*
X131264925Y-69693000D01*
X131107858Y-69661758D01*
X130959898Y-69600470D01*
X130826742Y-69511498D01*
X130713502Y-69398258D01*
X130624530Y-69265102D01*
X130563242Y-69117142D01*
X130532000Y-68960075D01*
X130532000Y-68799925D01*
X130563242Y-68642858D01*
X130624530Y-68494898D01*
X130713502Y-68361742D01*
X130826742Y-68248502D01*
X130959898Y-68159530D01*
X131107858Y-68098242D01*
X131264925Y-68067000D01*
X131425075Y-68067000D01*
X131582142Y-68098242D01*
X131582142Y-68098242D01*
G37*
G36*
X160781000Y-69251000D02*
X160029000Y-69251000D01*
X160029000Y-67449000D01*
X160781000Y-67449000D01*
X160781000Y-69251000D01*
X160781000Y-69251000D01*
G37*
G36*
X156971000Y-69251000D02*
X156219000Y-69251000D01*
X156219000Y-67449000D01*
X156971000Y-67449000D01*
X156971000Y-69251000D01*
X156971000Y-69251000D01*
G37*
G36*
X159511000Y-69251000D02*
X158759000Y-69251000D01*
X158759000Y-67449000D01*
X159511000Y-67449000D01*
X159511000Y-69251000D01*
X159511000Y-69251000D01*
G37*
G36*
X158241000Y-69251000D02*
X157489000Y-69251000D01*
X157489000Y-67449000D01*
X158241000Y-67449000D01*
X158241000Y-69251000D01*
X158241000Y-69251000D01*
G37*
G36*
X169375256Y-61391298D02*
X169481579Y-61412447D01*
X169782042Y-61536903D01*
X170048852Y-61715180D01*
X170052454Y-61717587D01*
X170282413Y-61947546D01*
X170463098Y-62217960D01*
X170587553Y-62518422D01*
X170651000Y-62837389D01*
X170651000Y-63162611D01*
X170587553Y-63481578D01*
X170463098Y-63782040D01*
X170282413Y-64052454D01*
X170052454Y-64282413D01*
X170052451Y-64282415D01*
X169782042Y-64463097D01*
X169481579Y-64587553D01*
X169375256Y-64608702D01*
X169162611Y-64651000D01*
X168837389Y-64651000D01*
X168624744Y-64608702D01*
X168518421Y-64587553D01*
X168217958Y-64463097D01*
X167947549Y-64282415D01*
X167947546Y-64282413D01*
X167717587Y-64052454D01*
X167536902Y-63782040D01*
X167412447Y-63481578D01*
X167349000Y-63162611D01*
X167349000Y-62837389D01*
X167412447Y-62518422D01*
X167536902Y-62217960D01*
X167717587Y-61947546D01*
X167947546Y-61717587D01*
X167951148Y-61715180D01*
X168217958Y-61536903D01*
X168518421Y-61412447D01*
X168624744Y-61391298D01*
X168837389Y-61349000D01*
X169162611Y-61349000D01*
X169375256Y-61391298D01*
X169375256Y-61391298D01*
G37*
G36*
X109375256Y-61391298D02*
X109481579Y-61412447D01*
X109782042Y-61536903D01*
X110048852Y-61715180D01*
X110052454Y-61717587D01*
X110282413Y-61947546D01*
X110463098Y-62217960D01*
X110587553Y-62518422D01*
X110651000Y-62837389D01*
X110651000Y-63162611D01*
X110587553Y-63481578D01*
X110463098Y-63782040D01*
X110282413Y-64052454D01*
X110052454Y-64282413D01*
X110052451Y-64282415D01*
X109782042Y-64463097D01*
X109481579Y-64587553D01*
X109375256Y-64608702D01*
X109162611Y-64651000D01*
X108837389Y-64651000D01*
X108624744Y-64608702D01*
X108518421Y-64587553D01*
X108217958Y-64463097D01*
X107947549Y-64282415D01*
X107947546Y-64282413D01*
X107717587Y-64052454D01*
X107536902Y-63782040D01*
X107412447Y-63481578D01*
X107349000Y-63162611D01*
X107349000Y-62837389D01*
X107412447Y-62518422D01*
X107536902Y-62217960D01*
X107717587Y-61947546D01*
X107947546Y-61717587D01*
X107951148Y-61715180D01*
X108217958Y-61536903D01*
X108518421Y-61412447D01*
X108624744Y-61391298D01*
X108837389Y-61349000D01*
X109162611Y-61349000D01*
X109375256Y-61391298D01*
X109375256Y-61391298D01*
G37*
G36*
X135040442Y-60255518D02*
X135106627Y-60262037D01*
X135219853Y-60296384D01*
X135276467Y-60313557D01*
X135415087Y-60387652D01*
X135432991Y-60397222D01*
X135468729Y-60426552D01*
X135570186Y-60509814D01*
X135653448Y-60611271D01*
X135682778Y-60647009D01*
X135682779Y-60647011D01*
X135766443Y-60803533D01*
X135766443Y-60803534D01*
X135817963Y-60973373D01*
X135835359Y-61150000D01*
X135817963Y-61326627D01*
X135811176Y-61349000D01*
X135766443Y-61496467D01*
X135744829Y-61536903D01*
X135682778Y-61652991D01*
X135653448Y-61688729D01*
X135570186Y-61790186D01*
X135468729Y-61873448D01*
X135432991Y-61902778D01*
X135432989Y-61902779D01*
X135276467Y-61986443D01*
X135219853Y-62003616D01*
X135106627Y-62037963D01*
X135040443Y-62044481D01*
X134974260Y-62051000D01*
X134885740Y-62051000D01*
X134819557Y-62044481D01*
X134753373Y-62037963D01*
X134640147Y-62003616D01*
X134583533Y-61986443D01*
X134427011Y-61902779D01*
X134427009Y-61902778D01*
X134391271Y-61873448D01*
X134289814Y-61790186D01*
X134206552Y-61688729D01*
X134177222Y-61652991D01*
X134115171Y-61536903D01*
X134093557Y-61496467D01*
X134048824Y-61349000D01*
X134042037Y-61326627D01*
X134024641Y-61150000D01*
X134042037Y-60973373D01*
X134093557Y-60803534D01*
X134093557Y-60803533D01*
X134177221Y-60647011D01*
X134177222Y-60647009D01*
X134206552Y-60611271D01*
X134289814Y-60509814D01*
X134391271Y-60426552D01*
X134427009Y-60397222D01*
X134444913Y-60387652D01*
X134583533Y-60313557D01*
X134640147Y-60296384D01*
X134753373Y-60262037D01*
X134819558Y-60255518D01*
X134885740Y-60249000D01*
X134974260Y-60249000D01*
X135040442Y-60255518D01*
X135040442Y-60255518D01*
G37*
G36*
X137580442Y-60255518D02*
X137646627Y-60262037D01*
X137759853Y-60296384D01*
X137816467Y-60313557D01*
X137955087Y-60387652D01*
X137972991Y-60397222D01*
X138008729Y-60426552D01*
X138110186Y-60509814D01*
X138193448Y-60611271D01*
X138222778Y-60647009D01*
X138222779Y-60647011D01*
X138306443Y-60803533D01*
X138306443Y-60803534D01*
X138357963Y-60973373D01*
X138375359Y-61150000D01*
X138357963Y-61326627D01*
X138351176Y-61349000D01*
X138306443Y-61496467D01*
X138284829Y-61536903D01*
X138222778Y-61652991D01*
X138193448Y-61688729D01*
X138110186Y-61790186D01*
X138008729Y-61873448D01*
X137972991Y-61902778D01*
X137972989Y-61902779D01*
X137816467Y-61986443D01*
X137759853Y-62003616D01*
X137646627Y-62037963D01*
X137580443Y-62044481D01*
X137514260Y-62051000D01*
X137425740Y-62051000D01*
X137359557Y-62044481D01*
X137293373Y-62037963D01*
X137180147Y-62003616D01*
X137123533Y-61986443D01*
X136967011Y-61902779D01*
X136967009Y-61902778D01*
X136931271Y-61873448D01*
X136829814Y-61790186D01*
X136746552Y-61688729D01*
X136717222Y-61652991D01*
X136655171Y-61536903D01*
X136633557Y-61496467D01*
X136588824Y-61349000D01*
X136582037Y-61326627D01*
X136564641Y-61150000D01*
X136582037Y-60973373D01*
X136633557Y-60803534D01*
X136633557Y-60803533D01*
X136717221Y-60647011D01*
X136717222Y-60647009D01*
X136746552Y-60611271D01*
X136829814Y-60509814D01*
X136931271Y-60426552D01*
X136967009Y-60397222D01*
X136984913Y-60387652D01*
X137123533Y-60313557D01*
X137180147Y-60296384D01*
X137293373Y-60262037D01*
X137359558Y-60255518D01*
X137425740Y-60249000D01*
X137514260Y-60249000D01*
X137580442Y-60255518D01*
X137580442Y-60255518D01*
G37*
G36*
X140120442Y-60255518D02*
X140186627Y-60262037D01*
X140299853Y-60296384D01*
X140356467Y-60313557D01*
X140495087Y-60387652D01*
X140512991Y-60397222D01*
X140548729Y-60426552D01*
X140650186Y-60509814D01*
X140733448Y-60611271D01*
X140762778Y-60647009D01*
X140762779Y-60647011D01*
X140846443Y-60803533D01*
X140846443Y-60803534D01*
X140897963Y-60973373D01*
X140915359Y-61150000D01*
X140897963Y-61326627D01*
X140891176Y-61349000D01*
X140846443Y-61496467D01*
X140824829Y-61536903D01*
X140762778Y-61652991D01*
X140733448Y-61688729D01*
X140650186Y-61790186D01*
X140548729Y-61873448D01*
X140512991Y-61902778D01*
X140512989Y-61902779D01*
X140356467Y-61986443D01*
X140299853Y-62003616D01*
X140186627Y-62037963D01*
X140120443Y-62044481D01*
X140054260Y-62051000D01*
X139965740Y-62051000D01*
X139899557Y-62044481D01*
X139833373Y-62037963D01*
X139720147Y-62003616D01*
X139663533Y-61986443D01*
X139507011Y-61902779D01*
X139507009Y-61902778D01*
X139471271Y-61873448D01*
X139369814Y-61790186D01*
X139286552Y-61688729D01*
X139257222Y-61652991D01*
X139195171Y-61536903D01*
X139173557Y-61496467D01*
X139128824Y-61349000D01*
X139122037Y-61326627D01*
X139104641Y-61150000D01*
X139122037Y-60973373D01*
X139173557Y-60803534D01*
X139173557Y-60803533D01*
X139257221Y-60647011D01*
X139257222Y-60647009D01*
X139286552Y-60611271D01*
X139369814Y-60509814D01*
X139471271Y-60426552D01*
X139507009Y-60397222D01*
X139524913Y-60387652D01*
X139663533Y-60313557D01*
X139720147Y-60296384D01*
X139833373Y-60262037D01*
X139899558Y-60255518D01*
X139965740Y-60249000D01*
X140054260Y-60249000D01*
X140120442Y-60255518D01*
X140120442Y-60255518D01*
G37*
G36*
X143451000Y-62051000D02*
X141649000Y-62051000D01*
X141649000Y-60249000D01*
X143451000Y-60249000D01*
X143451000Y-62051000D01*
X143451000Y-62051000D01*
G37*
G36*
X137712198Y-56299954D02*
X137724450Y-56300556D01*
X137742869Y-56300556D01*
X137765149Y-56302750D01*
X137849236Y-56319476D01*
X137870655Y-56325974D01*
X137949871Y-56358785D01*
X137969607Y-56369335D01*
X138040897Y-56416969D01*
X138058208Y-56431176D01*
X138118824Y-56491792D01*
X138133031Y-56509103D01*
X138180665Y-56580393D01*
X138191215Y-56600129D01*
X138224026Y-56679345D01*
X138230524Y-56700764D01*
X138247250Y-56784851D01*
X138249444Y-56807131D01*
X138249444Y-56825550D01*
X138250046Y-56837802D01*
X138251852Y-56856140D01*
X138251852Y-57343860D01*
X138250263Y-57359999D01*
X138247347Y-57369611D01*
X138242612Y-57378469D01*
X138236237Y-57386237D01*
X138223798Y-57396446D01*
X138213432Y-57403372D01*
X138196105Y-57420698D01*
X138182490Y-57441073D01*
X138173112Y-57463711D01*
X138168331Y-57487745D01*
X138168331Y-57512249D01*
X138173111Y-57536283D01*
X138182487Y-57558922D01*
X138196101Y-57579297D01*
X138213427Y-57596624D01*
X138223796Y-57603552D01*
X138236237Y-57613763D01*
X138242612Y-57621531D01*
X138247347Y-57630389D01*
X138250263Y-57640001D01*
X138251852Y-57656140D01*
X138251852Y-58143861D01*
X138250046Y-58162198D01*
X138249444Y-58174450D01*
X138249444Y-58192869D01*
X138247250Y-58215149D01*
X138230524Y-58299236D01*
X138224026Y-58320655D01*
X138191215Y-58399871D01*
X138180665Y-58419607D01*
X138133031Y-58490897D01*
X138118824Y-58508208D01*
X138058208Y-58568824D01*
X138040897Y-58583031D01*
X137969607Y-58630665D01*
X137949871Y-58641215D01*
X137870655Y-58674026D01*
X137849236Y-58680524D01*
X137765149Y-58697250D01*
X137742869Y-58699444D01*
X137724450Y-58699444D01*
X137712198Y-58700046D01*
X137693861Y-58701852D01*
X137206139Y-58701852D01*
X137187802Y-58700046D01*
X137175550Y-58699444D01*
X137157131Y-58699444D01*
X137134851Y-58697250D01*
X137050764Y-58680524D01*
X137029345Y-58674026D01*
X136950129Y-58641215D01*
X136930393Y-58630665D01*
X136859103Y-58583031D01*
X136841792Y-58568824D01*
X136781176Y-58508208D01*
X136766969Y-58490897D01*
X136719335Y-58419607D01*
X136708785Y-58399871D01*
X136675974Y-58320655D01*
X136669476Y-58299236D01*
X136652750Y-58215149D01*
X136650556Y-58192869D01*
X136650556Y-58174450D01*
X136649954Y-58162198D01*
X136648148Y-58143861D01*
X136648148Y-57656140D01*
X136649737Y-57640001D01*
X136652653Y-57630389D01*
X136657388Y-57621531D01*
X136663763Y-57613763D01*
X136676202Y-57603554D01*
X136686568Y-57596628D01*
X136703895Y-57579302D01*
X136717510Y-57558927D01*
X136726888Y-57536289D01*
X136731669Y-57512255D01*
X136731669Y-57487751D01*
X136726889Y-57463717D01*
X136717513Y-57441078D01*
X136703899Y-57420703D01*
X136686573Y-57403376D01*
X136676204Y-57396448D01*
X136663763Y-57386237D01*
X136657388Y-57378469D01*
X136652653Y-57369611D01*
X136649737Y-57359999D01*
X136648148Y-57343860D01*
X136648148Y-56856140D01*
X136649954Y-56837802D01*
X136650556Y-56825550D01*
X136650556Y-56807131D01*
X136652750Y-56784851D01*
X136669476Y-56700764D01*
X136675974Y-56679345D01*
X136708785Y-56600129D01*
X136719335Y-56580393D01*
X136766969Y-56509103D01*
X136781176Y-56491792D01*
X136841792Y-56431176D01*
X136859103Y-56416969D01*
X136930393Y-56369335D01*
X136950129Y-56358785D01*
X137029345Y-56325974D01*
X137050764Y-56319476D01*
X137134851Y-56302750D01*
X137157131Y-56300556D01*
X137175550Y-56300556D01*
X137187802Y-56299954D01*
X137206140Y-56298148D01*
X137693860Y-56298148D01*
X137712198Y-56299954D01*
X137712198Y-56299954D01*
G37*
G36*
X135162198Y-56299954D02*
X135174450Y-56300556D01*
X135192869Y-56300556D01*
X135215149Y-56302750D01*
X135299236Y-56319476D01*
X135320655Y-56325974D01*
X135399871Y-56358785D01*
X135419607Y-56369335D01*
X135490897Y-56416969D01*
X135508208Y-56431176D01*
X135568824Y-56491792D01*
X135583031Y-56509103D01*
X135630665Y-56580393D01*
X135641215Y-56600129D01*
X135674026Y-56679345D01*
X135680524Y-56700764D01*
X135697250Y-56784851D01*
X135699444Y-56807131D01*
X135699444Y-56825550D01*
X135700046Y-56837802D01*
X135701852Y-56856140D01*
X135701852Y-57343860D01*
X135700263Y-57359999D01*
X135697347Y-57369611D01*
X135692612Y-57378469D01*
X135686237Y-57386237D01*
X135673798Y-57396446D01*
X135663432Y-57403372D01*
X135646105Y-57420698D01*
X135632490Y-57441073D01*
X135623112Y-57463711D01*
X135618331Y-57487745D01*
X135618331Y-57512249D01*
X135623111Y-57536283D01*
X135632487Y-57558922D01*
X135646101Y-57579297D01*
X135663427Y-57596624D01*
X135673796Y-57603552D01*
X135686237Y-57613763D01*
X135692612Y-57621531D01*
X135697347Y-57630389D01*
X135700263Y-57640001D01*
X135701852Y-57656140D01*
X135701852Y-58143861D01*
X135700046Y-58162198D01*
X135699444Y-58174450D01*
X135699444Y-58192869D01*
X135697250Y-58215149D01*
X135680524Y-58299236D01*
X135674026Y-58320655D01*
X135641215Y-58399871D01*
X135630665Y-58419607D01*
X135583031Y-58490897D01*
X135568824Y-58508208D01*
X135508208Y-58568824D01*
X135490897Y-58583031D01*
X135419607Y-58630665D01*
X135399871Y-58641215D01*
X135320655Y-58674026D01*
X135299236Y-58680524D01*
X135215149Y-58697250D01*
X135192869Y-58699444D01*
X135174450Y-58699444D01*
X135162198Y-58700046D01*
X135143861Y-58701852D01*
X134656139Y-58701852D01*
X134637802Y-58700046D01*
X134625550Y-58699444D01*
X134607131Y-58699444D01*
X134584851Y-58697250D01*
X134500764Y-58680524D01*
X134479345Y-58674026D01*
X134400129Y-58641215D01*
X134380393Y-58630665D01*
X134309103Y-58583031D01*
X134291792Y-58568824D01*
X134231176Y-58508208D01*
X134216969Y-58490897D01*
X134169335Y-58419607D01*
X134158785Y-58399871D01*
X134125974Y-58320655D01*
X134119476Y-58299236D01*
X134102750Y-58215149D01*
X134100556Y-58192869D01*
X134100556Y-58174450D01*
X134099954Y-58162198D01*
X134098148Y-58143861D01*
X134098148Y-57656140D01*
X134099737Y-57640001D01*
X134102653Y-57630389D01*
X134107388Y-57621531D01*
X134113763Y-57613763D01*
X134126202Y-57603554D01*
X134136568Y-57596628D01*
X134153895Y-57579302D01*
X134167510Y-57558927D01*
X134176888Y-57536289D01*
X134181669Y-57512255D01*
X134181669Y-57487751D01*
X134176889Y-57463717D01*
X134167513Y-57441078D01*
X134153899Y-57420703D01*
X134136573Y-57403376D01*
X134126204Y-57396448D01*
X134113763Y-57386237D01*
X134107388Y-57378469D01*
X134102653Y-57369611D01*
X134099737Y-57359999D01*
X134098148Y-57343860D01*
X134098148Y-56856140D01*
X134099954Y-56837802D01*
X134100556Y-56825550D01*
X134100556Y-56807131D01*
X134102750Y-56784851D01*
X134119476Y-56700764D01*
X134125974Y-56679345D01*
X134158785Y-56600129D01*
X134169335Y-56580393D01*
X134216969Y-56509103D01*
X134231176Y-56491792D01*
X134291792Y-56431176D01*
X134309103Y-56416969D01*
X134380393Y-56369335D01*
X134400129Y-56358785D01*
X134479345Y-56325974D01*
X134500764Y-56319476D01*
X134584851Y-56302750D01*
X134607131Y-56300556D01*
X134625550Y-56300556D01*
X134637802Y-56299954D01*
X134656140Y-56298148D01*
X135143860Y-56298148D01*
X135162198Y-56299954D01*
X135162198Y-56299954D01*
G37*
G36*
X140262198Y-56299954D02*
X140274450Y-56300556D01*
X140292869Y-56300556D01*
X140315149Y-56302750D01*
X140399236Y-56319476D01*
X140420655Y-56325974D01*
X140499871Y-56358785D01*
X140519607Y-56369335D01*
X140590897Y-56416969D01*
X140608208Y-56431176D01*
X140668824Y-56491792D01*
X140683031Y-56509103D01*
X140730665Y-56580393D01*
X140741215Y-56600129D01*
X140774026Y-56679345D01*
X140780524Y-56700764D01*
X140797250Y-56784851D01*
X140799444Y-56807131D01*
X140799444Y-56825550D01*
X140800046Y-56837802D01*
X140801852Y-56856140D01*
X140801852Y-57343860D01*
X140800263Y-57359999D01*
X140797347Y-57369611D01*
X140792612Y-57378469D01*
X140786237Y-57386237D01*
X140773798Y-57396446D01*
X140763432Y-57403372D01*
X140746105Y-57420698D01*
X140732490Y-57441073D01*
X140723112Y-57463711D01*
X140718331Y-57487745D01*
X140718331Y-57512249D01*
X140723111Y-57536283D01*
X140732487Y-57558922D01*
X140746101Y-57579297D01*
X140763427Y-57596624D01*
X140773796Y-57603552D01*
X140786237Y-57613763D01*
X140792612Y-57621531D01*
X140797347Y-57630389D01*
X140800263Y-57640001D01*
X140801852Y-57656140D01*
X140801852Y-58143861D01*
X140800046Y-58162198D01*
X140799444Y-58174450D01*
X140799444Y-58192869D01*
X140797250Y-58215149D01*
X140780524Y-58299236D01*
X140774026Y-58320655D01*
X140741215Y-58399871D01*
X140730665Y-58419607D01*
X140683031Y-58490897D01*
X140668824Y-58508208D01*
X140608208Y-58568824D01*
X140590897Y-58583031D01*
X140519607Y-58630665D01*
X140499871Y-58641215D01*
X140420655Y-58674026D01*
X140399236Y-58680524D01*
X140315149Y-58697250D01*
X140292869Y-58699444D01*
X140274450Y-58699444D01*
X140262198Y-58700046D01*
X140243861Y-58701852D01*
X139756139Y-58701852D01*
X139737802Y-58700046D01*
X139725550Y-58699444D01*
X139707131Y-58699444D01*
X139684851Y-58697250D01*
X139600764Y-58680524D01*
X139579345Y-58674026D01*
X139500129Y-58641215D01*
X139480393Y-58630665D01*
X139409103Y-58583031D01*
X139391792Y-58568824D01*
X139331176Y-58508208D01*
X139316969Y-58490897D01*
X139269335Y-58419607D01*
X139258785Y-58399871D01*
X139225974Y-58320655D01*
X139219476Y-58299236D01*
X139202750Y-58215149D01*
X139200556Y-58192869D01*
X139200556Y-58174450D01*
X139199954Y-58162198D01*
X139198148Y-58143861D01*
X139198148Y-57656140D01*
X139199737Y-57640001D01*
X139202653Y-57630389D01*
X139207388Y-57621531D01*
X139213763Y-57613763D01*
X139226202Y-57603554D01*
X139236568Y-57596628D01*
X139253895Y-57579302D01*
X139267510Y-57558927D01*
X139276888Y-57536289D01*
X139281669Y-57512255D01*
X139281669Y-57487751D01*
X139276889Y-57463717D01*
X139267513Y-57441078D01*
X139253899Y-57420703D01*
X139236573Y-57403376D01*
X139226204Y-57396448D01*
X139213763Y-57386237D01*
X139207388Y-57378469D01*
X139202653Y-57369611D01*
X139199737Y-57359999D01*
X139198148Y-57343860D01*
X139198148Y-56856140D01*
X139199954Y-56837802D01*
X139200556Y-56825550D01*
X139200556Y-56807131D01*
X139202750Y-56784851D01*
X139219476Y-56700764D01*
X139225974Y-56679345D01*
X139258785Y-56600129D01*
X139269335Y-56580393D01*
X139316969Y-56509103D01*
X139331176Y-56491792D01*
X139391792Y-56431176D01*
X139409103Y-56416969D01*
X139480393Y-56369335D01*
X139500129Y-56358785D01*
X139579345Y-56325974D01*
X139600764Y-56319476D01*
X139684851Y-56302750D01*
X139707131Y-56300556D01*
X139725550Y-56300556D01*
X139737802Y-56299954D01*
X139756140Y-56298148D01*
X140243860Y-56298148D01*
X140262198Y-56299954D01*
X140262198Y-56299954D01*
G37*
G36*
X142812198Y-56299954D02*
X142824450Y-56300556D01*
X142842869Y-56300556D01*
X142865149Y-56302750D01*
X142949236Y-56319476D01*
X142970655Y-56325974D01*
X143049871Y-56358785D01*
X143069607Y-56369335D01*
X143140897Y-56416969D01*
X143158208Y-56431176D01*
X143218824Y-56491792D01*
X143233031Y-56509103D01*
X143280665Y-56580393D01*
X143291215Y-56600129D01*
X143324026Y-56679345D01*
X143330524Y-56700764D01*
X143347250Y-56784851D01*
X143349444Y-56807131D01*
X143349444Y-56825550D01*
X143350046Y-56837802D01*
X143351852Y-56856140D01*
X143351852Y-57343860D01*
X143350263Y-57359999D01*
X143347347Y-57369611D01*
X143342612Y-57378469D01*
X143336237Y-57386237D01*
X143323798Y-57396446D01*
X143313432Y-57403372D01*
X143296105Y-57420698D01*
X143282490Y-57441073D01*
X143273112Y-57463711D01*
X143268331Y-57487745D01*
X143268331Y-57512249D01*
X143273111Y-57536283D01*
X143282487Y-57558922D01*
X143296101Y-57579297D01*
X143313427Y-57596624D01*
X143323796Y-57603552D01*
X143336237Y-57613763D01*
X143342612Y-57621531D01*
X143347347Y-57630389D01*
X143350263Y-57640001D01*
X143351852Y-57656140D01*
X143351852Y-58143861D01*
X143350046Y-58162198D01*
X143349444Y-58174450D01*
X143349444Y-58192869D01*
X143347250Y-58215149D01*
X143330524Y-58299236D01*
X143324026Y-58320655D01*
X143291215Y-58399871D01*
X143280665Y-58419607D01*
X143233031Y-58490897D01*
X143218824Y-58508208D01*
X143158208Y-58568824D01*
X143140897Y-58583031D01*
X143069607Y-58630665D01*
X143049871Y-58641215D01*
X142970655Y-58674026D01*
X142949236Y-58680524D01*
X142865149Y-58697250D01*
X142842869Y-58699444D01*
X142824450Y-58699444D01*
X142812198Y-58700046D01*
X142793861Y-58701852D01*
X142306139Y-58701852D01*
X142287802Y-58700046D01*
X142275550Y-58699444D01*
X142257131Y-58699444D01*
X142234851Y-58697250D01*
X142150764Y-58680524D01*
X142129345Y-58674026D01*
X142050129Y-58641215D01*
X142030393Y-58630665D01*
X141959103Y-58583031D01*
X141941792Y-58568824D01*
X141881176Y-58508208D01*
X141866969Y-58490897D01*
X141819335Y-58419607D01*
X141808785Y-58399871D01*
X141775974Y-58320655D01*
X141769476Y-58299236D01*
X141752750Y-58215149D01*
X141750556Y-58192869D01*
X141750556Y-58174450D01*
X141749954Y-58162198D01*
X141748148Y-58143861D01*
X141748148Y-57656140D01*
X141749737Y-57640001D01*
X141752653Y-57630389D01*
X141757388Y-57621531D01*
X141763763Y-57613763D01*
X141776202Y-57603554D01*
X141786568Y-57596628D01*
X141803895Y-57579302D01*
X141817510Y-57558927D01*
X141826888Y-57536289D01*
X141831669Y-57512255D01*
X141831669Y-57487751D01*
X141826889Y-57463717D01*
X141817513Y-57441078D01*
X141803899Y-57420703D01*
X141786573Y-57403376D01*
X141776204Y-57396448D01*
X141763763Y-57386237D01*
X141757388Y-57378469D01*
X141752653Y-57369611D01*
X141749737Y-57359999D01*
X141748148Y-57343860D01*
X141748148Y-56856140D01*
X141749954Y-56837802D01*
X141750556Y-56825550D01*
X141750556Y-56807131D01*
X141752750Y-56784851D01*
X141769476Y-56700764D01*
X141775974Y-56679345D01*
X141808785Y-56600129D01*
X141819335Y-56580393D01*
X141866969Y-56509103D01*
X141881176Y-56491792D01*
X141941792Y-56431176D01*
X141959103Y-56416969D01*
X142030393Y-56369335D01*
X142050129Y-56358785D01*
X142129345Y-56325974D01*
X142150764Y-56319476D01*
X142234851Y-56302750D01*
X142257131Y-56300556D01*
X142275550Y-56300556D01*
X142287802Y-56299954D01*
X142306140Y-56298148D01*
X142793860Y-56298148D01*
X142812198Y-56299954D01*
X142812198Y-56299954D01*
G37*
G36*
X135040442Y-52955518D02*
X135106627Y-52962037D01*
X135219853Y-52996384D01*
X135276467Y-53013557D01*
X135415087Y-53087652D01*
X135432991Y-53097222D01*
X135468729Y-53126552D01*
X135570186Y-53209814D01*
X135653448Y-53311271D01*
X135682778Y-53347009D01*
X135682779Y-53347011D01*
X135766443Y-53503533D01*
X135766443Y-53503534D01*
X135817963Y-53673373D01*
X135835359Y-53850000D01*
X135817963Y-54026627D01*
X135783616Y-54139853D01*
X135766443Y-54196467D01*
X135692348Y-54335087D01*
X135682778Y-54352991D01*
X135653448Y-54388729D01*
X135570186Y-54490186D01*
X135468729Y-54573448D01*
X135432991Y-54602778D01*
X135432989Y-54602779D01*
X135276467Y-54686443D01*
X135219853Y-54703616D01*
X135106627Y-54737963D01*
X135040442Y-54744482D01*
X134974260Y-54751000D01*
X134885740Y-54751000D01*
X134819558Y-54744482D01*
X134753373Y-54737963D01*
X134640147Y-54703616D01*
X134583533Y-54686443D01*
X134427011Y-54602779D01*
X134427009Y-54602778D01*
X134391271Y-54573448D01*
X134289814Y-54490186D01*
X134206552Y-54388729D01*
X134177222Y-54352991D01*
X134167652Y-54335087D01*
X134093557Y-54196467D01*
X134076384Y-54139853D01*
X134042037Y-54026627D01*
X134024641Y-53850000D01*
X134042037Y-53673373D01*
X134093557Y-53503534D01*
X134093557Y-53503533D01*
X134177221Y-53347011D01*
X134177222Y-53347009D01*
X134206552Y-53311271D01*
X134289814Y-53209814D01*
X134391271Y-53126552D01*
X134427009Y-53097222D01*
X134444913Y-53087652D01*
X134583533Y-53013557D01*
X134640147Y-52996384D01*
X134753373Y-52962037D01*
X134819558Y-52955518D01*
X134885740Y-52949000D01*
X134974260Y-52949000D01*
X135040442Y-52955518D01*
X135040442Y-52955518D01*
G37*
G36*
X137580442Y-52955518D02*
X137646627Y-52962037D01*
X137759853Y-52996384D01*
X137816467Y-53013557D01*
X137955087Y-53087652D01*
X137972991Y-53097222D01*
X138008729Y-53126552D01*
X138110186Y-53209814D01*
X138193448Y-53311271D01*
X138222778Y-53347009D01*
X138222779Y-53347011D01*
X138306443Y-53503533D01*
X138306443Y-53503534D01*
X138357963Y-53673373D01*
X138375359Y-53850000D01*
X138357963Y-54026627D01*
X138323616Y-54139853D01*
X138306443Y-54196467D01*
X138232348Y-54335087D01*
X138222778Y-54352991D01*
X138193448Y-54388729D01*
X138110186Y-54490186D01*
X138008729Y-54573448D01*
X137972991Y-54602778D01*
X137972989Y-54602779D01*
X137816467Y-54686443D01*
X137759853Y-54703616D01*
X137646627Y-54737963D01*
X137580442Y-54744482D01*
X137514260Y-54751000D01*
X137425740Y-54751000D01*
X137359558Y-54744482D01*
X137293373Y-54737963D01*
X137180147Y-54703616D01*
X137123533Y-54686443D01*
X136967011Y-54602779D01*
X136967009Y-54602778D01*
X136931271Y-54573448D01*
X136829814Y-54490186D01*
X136746552Y-54388729D01*
X136717222Y-54352991D01*
X136707652Y-54335087D01*
X136633557Y-54196467D01*
X136616384Y-54139853D01*
X136582037Y-54026627D01*
X136564641Y-53850000D01*
X136582037Y-53673373D01*
X136633557Y-53503534D01*
X136633557Y-53503533D01*
X136717221Y-53347011D01*
X136717222Y-53347009D01*
X136746552Y-53311271D01*
X136829814Y-53209814D01*
X136931271Y-53126552D01*
X136967009Y-53097222D01*
X136984913Y-53087652D01*
X137123533Y-53013557D01*
X137180147Y-52996384D01*
X137293373Y-52962037D01*
X137359558Y-52955518D01*
X137425740Y-52949000D01*
X137514260Y-52949000D01*
X137580442Y-52955518D01*
X137580442Y-52955518D01*
G37*
G36*
X143451000Y-54751000D02*
X141649000Y-54751000D01*
X141649000Y-52949000D01*
X143451000Y-52949000D01*
X143451000Y-54751000D01*
X143451000Y-54751000D01*
G37*
G36*
X140120442Y-52955518D02*
X140186627Y-52962037D01*
X140299853Y-52996384D01*
X140356467Y-53013557D01*
X140495087Y-53087652D01*
X140512991Y-53097222D01*
X140548729Y-53126552D01*
X140650186Y-53209814D01*
X140733448Y-53311271D01*
X140762778Y-53347009D01*
X140762779Y-53347011D01*
X140846443Y-53503533D01*
X140846443Y-53503534D01*
X140897963Y-53673373D01*
X140915359Y-53850000D01*
X140897963Y-54026627D01*
X140863616Y-54139853D01*
X140846443Y-54196467D01*
X140772348Y-54335087D01*
X140762778Y-54352991D01*
X140733448Y-54388729D01*
X140650186Y-54490186D01*
X140548729Y-54573448D01*
X140512991Y-54602778D01*
X140512989Y-54602779D01*
X140356467Y-54686443D01*
X140299853Y-54703616D01*
X140186627Y-54737963D01*
X140120442Y-54744482D01*
X140054260Y-54751000D01*
X139965740Y-54751000D01*
X139899558Y-54744482D01*
X139833373Y-54737963D01*
X139720147Y-54703616D01*
X139663533Y-54686443D01*
X139507011Y-54602779D01*
X139507009Y-54602778D01*
X139471271Y-54573448D01*
X139369814Y-54490186D01*
X139286552Y-54388729D01*
X139257222Y-54352991D01*
X139247652Y-54335087D01*
X139173557Y-54196467D01*
X139156384Y-54139853D01*
X139122037Y-54026627D01*
X139104641Y-53850000D01*
X139122037Y-53673373D01*
X139173557Y-53503534D01*
X139173557Y-53503533D01*
X139257221Y-53347011D01*
X139257222Y-53347009D01*
X139286552Y-53311271D01*
X139369814Y-53209814D01*
X139471271Y-53126552D01*
X139507009Y-53097222D01*
X139524913Y-53087652D01*
X139663533Y-53013557D01*
X139720147Y-52996384D01*
X139833373Y-52962037D01*
X139899558Y-52955518D01*
X139965740Y-52949000D01*
X140054260Y-52949000D01*
X140120442Y-52955518D01*
X140120442Y-52955518D01*
G37*
G36*
X153906565Y-49339389D02*
X154097834Y-49418615D01*
X154269976Y-49533637D01*
X154416363Y-49680024D01*
X154531385Y-49852166D01*
X154610611Y-50043435D01*
X154651000Y-50246484D01*
X154651000Y-50453516D01*
X154610611Y-50656565D01*
X154531385Y-50847834D01*
X154416363Y-51019976D01*
X154269976Y-51166363D01*
X154097834Y-51281385D01*
X153906565Y-51360611D01*
X153703516Y-51401000D01*
X153496484Y-51401000D01*
X153293435Y-51360611D01*
X153102166Y-51281385D01*
X152930024Y-51166363D01*
X152783637Y-51019976D01*
X152668615Y-50847834D01*
X152589389Y-50656565D01*
X152549000Y-50453516D01*
X152549000Y-50246484D01*
X152589389Y-50043435D01*
X152668615Y-49852166D01*
X152783637Y-49680024D01*
X152930024Y-49533637D01*
X153102166Y-49418615D01*
X153293435Y-49339389D01*
X153496484Y-49299000D01*
X153703516Y-49299000D01*
X153906565Y-49339389D01*
X153906565Y-49339389D01*
G37*
G36*
X158406565Y-49339389D02*
X158597834Y-49418615D01*
X158769976Y-49533637D01*
X158916363Y-49680024D01*
X159031385Y-49852166D01*
X159110611Y-50043435D01*
X159151000Y-50246484D01*
X159151000Y-50453516D01*
X159110611Y-50656565D01*
X159031385Y-50847834D01*
X158916363Y-51019976D01*
X158769976Y-51166363D01*
X158597834Y-51281385D01*
X158406565Y-51360611D01*
X158203516Y-51401000D01*
X157996484Y-51401000D01*
X157793435Y-51360611D01*
X157602166Y-51281385D01*
X157430024Y-51166363D01*
X157283637Y-51019976D01*
X157168615Y-50847834D01*
X157089389Y-50656565D01*
X157049000Y-50453516D01*
X157049000Y-50246484D01*
X157089389Y-50043435D01*
X157168615Y-49852166D01*
X157283637Y-49680024D01*
X157430024Y-49533637D01*
X157602166Y-49418615D01*
X157793435Y-49339389D01*
X157996484Y-49299000D01*
X158203516Y-49299000D01*
X158406565Y-49339389D01*
X158406565Y-49339389D01*
G37*
G36*
X141206565Y-49339389D02*
X141397834Y-49418615D01*
X141569976Y-49533637D01*
X141716363Y-49680024D01*
X141831385Y-49852166D01*
X141910611Y-50043435D01*
X141951000Y-50246484D01*
X141951000Y-50453516D01*
X141910611Y-50656565D01*
X141831385Y-50847834D01*
X141716363Y-51019976D01*
X141569976Y-51166363D01*
X141397834Y-51281385D01*
X141206565Y-51360611D01*
X141003516Y-51401000D01*
X140796484Y-51401000D01*
X140593435Y-51360611D01*
X140402166Y-51281385D01*
X140230024Y-51166363D01*
X140083637Y-51019976D01*
X139968615Y-50847834D01*
X139889389Y-50656565D01*
X139849000Y-50453516D01*
X139849000Y-50246484D01*
X139889389Y-50043435D01*
X139968615Y-49852166D01*
X140083637Y-49680024D01*
X140230024Y-49533637D01*
X140402166Y-49418615D01*
X140593435Y-49339389D01*
X140796484Y-49299000D01*
X141003516Y-49299000D01*
X141206565Y-49339389D01*
X141206565Y-49339389D01*
G37*
G36*
X136706565Y-49339389D02*
X136897834Y-49418615D01*
X137069976Y-49533637D01*
X137216363Y-49680024D01*
X137331385Y-49852166D01*
X137410611Y-50043435D01*
X137451000Y-50246484D01*
X137451000Y-50453516D01*
X137410611Y-50656565D01*
X137331385Y-50847834D01*
X137216363Y-51019976D01*
X137069976Y-51166363D01*
X136897834Y-51281385D01*
X136706565Y-51360611D01*
X136503516Y-51401000D01*
X136296484Y-51401000D01*
X136093435Y-51360611D01*
X135902166Y-51281385D01*
X135730024Y-51166363D01*
X135583637Y-51019976D01*
X135468615Y-50847834D01*
X135389389Y-50656565D01*
X135349000Y-50453516D01*
X135349000Y-50246484D01*
X135389389Y-50043435D01*
X135468615Y-49852166D01*
X135583637Y-49680024D01*
X135730024Y-49533637D01*
X135902166Y-49418615D01*
X136093435Y-49339389D01*
X136296484Y-49299000D01*
X136503516Y-49299000D01*
X136706565Y-49339389D01*
X136706565Y-49339389D01*
G37*
G36*
X123906565Y-49339389D02*
X124097834Y-49418615D01*
X124269976Y-49533637D01*
X124416363Y-49680024D01*
X124531385Y-49852166D01*
X124610611Y-50043435D01*
X124651000Y-50246484D01*
X124651000Y-50453516D01*
X124610611Y-50656565D01*
X124531385Y-50847834D01*
X124416363Y-51019976D01*
X124269976Y-51166363D01*
X124097834Y-51281385D01*
X123906565Y-51360611D01*
X123703516Y-51401000D01*
X123496484Y-51401000D01*
X123293435Y-51360611D01*
X123102166Y-51281385D01*
X122930024Y-51166363D01*
X122783637Y-51019976D01*
X122668615Y-50847834D01*
X122589389Y-50656565D01*
X122549000Y-50453516D01*
X122549000Y-50246484D01*
X122589389Y-50043435D01*
X122668615Y-49852166D01*
X122783637Y-49680024D01*
X122930024Y-49533637D01*
X123102166Y-49418615D01*
X123293435Y-49339389D01*
X123496484Y-49299000D01*
X123703516Y-49299000D01*
X123906565Y-49339389D01*
X123906565Y-49339389D01*
G37*
G36*
X119406565Y-49339389D02*
X119597834Y-49418615D01*
X119769976Y-49533637D01*
X119916363Y-49680024D01*
X120031385Y-49852166D01*
X120110611Y-50043435D01*
X120151000Y-50246484D01*
X120151000Y-50453516D01*
X120110611Y-50656565D01*
X120031385Y-50847834D01*
X119916363Y-51019976D01*
X119769976Y-51166363D01*
X119597834Y-51281385D01*
X119406565Y-51360611D01*
X119203516Y-51401000D01*
X118996484Y-51401000D01*
X118793435Y-51360611D01*
X118602166Y-51281385D01*
X118430024Y-51166363D01*
X118283637Y-51019976D01*
X118168615Y-50847834D01*
X118089389Y-50656565D01*
X118049000Y-50453516D01*
X118049000Y-50246484D01*
X118089389Y-50043435D01*
X118168615Y-49852166D01*
X118283637Y-49680024D01*
X118430024Y-49533637D01*
X118602166Y-49418615D01*
X118793435Y-49339389D01*
X118996484Y-49299000D01*
X119203516Y-49299000D01*
X119406565Y-49339389D01*
X119406565Y-49339389D01*
G37*
G36*
X109375256Y-44891298D02*
X109481579Y-44912447D01*
X109782042Y-45036903D01*
X110048852Y-45215180D01*
X110052454Y-45217587D01*
X110282413Y-45447546D01*
X110463098Y-45717960D01*
X110587553Y-46018422D01*
X110651000Y-46337389D01*
X110651000Y-46662611D01*
X110587553Y-46981578D01*
X110463098Y-47282040D01*
X110282413Y-47552454D01*
X110052454Y-47782413D01*
X110052451Y-47782415D01*
X109782042Y-47963097D01*
X109481579Y-48087553D01*
X109375256Y-48108702D01*
X109162611Y-48151000D01*
X108837389Y-48151000D01*
X108624744Y-48108702D01*
X108518421Y-48087553D01*
X108217958Y-47963097D01*
X107947549Y-47782415D01*
X107947546Y-47782413D01*
X107717587Y-47552454D01*
X107536902Y-47282040D01*
X107412447Y-46981578D01*
X107349000Y-46662611D01*
X107349000Y-46337389D01*
X107412447Y-46018422D01*
X107536902Y-45717960D01*
X107717587Y-45447546D01*
X107947546Y-45217587D01*
X107951148Y-45215180D01*
X108217958Y-45036903D01*
X108518421Y-44912447D01*
X108624744Y-44891298D01*
X108837389Y-44849000D01*
X109162611Y-44849000D01*
X109375256Y-44891298D01*
X109375256Y-44891298D01*
G37*
G36*
X169375256Y-44891298D02*
X169481579Y-44912447D01*
X169782042Y-45036903D01*
X170048852Y-45215180D01*
X170052454Y-45217587D01*
X170282413Y-45447546D01*
X170463098Y-45717960D01*
X170587553Y-46018422D01*
X170651000Y-46337389D01*
X170651000Y-46662611D01*
X170587553Y-46981578D01*
X170463098Y-47282040D01*
X170282413Y-47552454D01*
X170052454Y-47782413D01*
X170052451Y-47782415D01*
X169782042Y-47963097D01*
X169481579Y-48087553D01*
X169375256Y-48108702D01*
X169162611Y-48151000D01*
X168837389Y-48151000D01*
X168624744Y-48108702D01*
X168518421Y-48087553D01*
X168217958Y-47963097D01*
X167947549Y-47782415D01*
X167947546Y-47782413D01*
X167717587Y-47552454D01*
X167536902Y-47282040D01*
X167412447Y-46981578D01*
X167349000Y-46662611D01*
X167349000Y-46337389D01*
X167412447Y-46018422D01*
X167536902Y-45717960D01*
X167717587Y-45447546D01*
X167947546Y-45217587D01*
X167951148Y-45215180D01*
X168217958Y-45036903D01*
X168518421Y-44912447D01*
X168624744Y-44891298D01*
X168837389Y-44849000D01*
X169162611Y-44849000D01*
X169375256Y-44891298D01*
X169375256Y-44891298D01*
G37*
G36*
X136706565Y-42839389D02*
X136897834Y-42918615D01*
X137069976Y-43033637D01*
X137216363Y-43180024D01*
X137331385Y-43352166D01*
X137410611Y-43543435D01*
X137451000Y-43746484D01*
X137451000Y-43953516D01*
X137410611Y-44156565D01*
X137331385Y-44347834D01*
X137216363Y-44519976D01*
X137069976Y-44666363D01*
X136897834Y-44781385D01*
X136706565Y-44860611D01*
X136503516Y-44901000D01*
X136296484Y-44901000D01*
X136093435Y-44860611D01*
X135902166Y-44781385D01*
X135730024Y-44666363D01*
X135583637Y-44519976D01*
X135468615Y-44347834D01*
X135389389Y-44156565D01*
X135349000Y-43953516D01*
X135349000Y-43746484D01*
X135389389Y-43543435D01*
X135468615Y-43352166D01*
X135583637Y-43180024D01*
X135730024Y-43033637D01*
X135902166Y-42918615D01*
X136093435Y-42839389D01*
X136296484Y-42799000D01*
X136503516Y-42799000D01*
X136706565Y-42839389D01*
X136706565Y-42839389D01*
G37*
G36*
X123906565Y-42839389D02*
X124097834Y-42918615D01*
X124269976Y-43033637D01*
X124416363Y-43180024D01*
X124531385Y-43352166D01*
X124610611Y-43543435D01*
X124651000Y-43746484D01*
X124651000Y-43953516D01*
X124610611Y-44156565D01*
X124531385Y-44347834D01*
X124416363Y-44519976D01*
X124269976Y-44666363D01*
X124097834Y-44781385D01*
X123906565Y-44860611D01*
X123703516Y-44901000D01*
X123496484Y-44901000D01*
X123293435Y-44860611D01*
X123102166Y-44781385D01*
X122930024Y-44666363D01*
X122783637Y-44519976D01*
X122668615Y-44347834D01*
X122589389Y-44156565D01*
X122549000Y-43953516D01*
X122549000Y-43746484D01*
X122589389Y-43543435D01*
X122668615Y-43352166D01*
X122783637Y-43180024D01*
X122930024Y-43033637D01*
X123102166Y-42918615D01*
X123293435Y-42839389D01*
X123496484Y-42799000D01*
X123703516Y-42799000D01*
X123906565Y-42839389D01*
X123906565Y-42839389D01*
G37*
G36*
X141206565Y-42839389D02*
X141397834Y-42918615D01*
X141569976Y-43033637D01*
X141716363Y-43180024D01*
X141831385Y-43352166D01*
X141910611Y-43543435D01*
X141951000Y-43746484D01*
X141951000Y-43953516D01*
X141910611Y-44156565D01*
X141831385Y-44347834D01*
X141716363Y-44519976D01*
X141569976Y-44666363D01*
X141397834Y-44781385D01*
X141206565Y-44860611D01*
X141003516Y-44901000D01*
X140796484Y-44901000D01*
X140593435Y-44860611D01*
X140402166Y-44781385D01*
X140230024Y-44666363D01*
X140083637Y-44519976D01*
X139968615Y-44347834D01*
X139889389Y-44156565D01*
X139849000Y-43953516D01*
X139849000Y-43746484D01*
X139889389Y-43543435D01*
X139968615Y-43352166D01*
X140083637Y-43180024D01*
X140230024Y-43033637D01*
X140402166Y-42918615D01*
X140593435Y-42839389D01*
X140796484Y-42799000D01*
X141003516Y-42799000D01*
X141206565Y-42839389D01*
X141206565Y-42839389D01*
G37*
G36*
X153906565Y-42839389D02*
X154097834Y-42918615D01*
X154269976Y-43033637D01*
X154416363Y-43180024D01*
X154531385Y-43352166D01*
X154610611Y-43543435D01*
X154651000Y-43746484D01*
X154651000Y-43953516D01*
X154610611Y-44156565D01*
X154531385Y-44347834D01*
X154416363Y-44519976D01*
X154269976Y-44666363D01*
X154097834Y-44781385D01*
X153906565Y-44860611D01*
X153703516Y-44901000D01*
X153496484Y-44901000D01*
X153293435Y-44860611D01*
X153102166Y-44781385D01*
X152930024Y-44666363D01*
X152783637Y-44519976D01*
X152668615Y-44347834D01*
X152589389Y-44156565D01*
X152549000Y-43953516D01*
X152549000Y-43746484D01*
X152589389Y-43543435D01*
X152668615Y-43352166D01*
X152783637Y-43180024D01*
X152930024Y-43033637D01*
X153102166Y-42918615D01*
X153293435Y-42839389D01*
X153496484Y-42799000D01*
X153703516Y-42799000D01*
X153906565Y-42839389D01*
X153906565Y-42839389D01*
G37*
G36*
X158406565Y-42839389D02*
X158597834Y-42918615D01*
X158769976Y-43033637D01*
X158916363Y-43180024D01*
X159031385Y-43352166D01*
X159110611Y-43543435D01*
X159151000Y-43746484D01*
X159151000Y-43953516D01*
X159110611Y-44156565D01*
X159031385Y-44347834D01*
X158916363Y-44519976D01*
X158769976Y-44666363D01*
X158597834Y-44781385D01*
X158406565Y-44860611D01*
X158203516Y-44901000D01*
X157996484Y-44901000D01*
X157793435Y-44860611D01*
X157602166Y-44781385D01*
X157430024Y-44666363D01*
X157283637Y-44519976D01*
X157168615Y-44347834D01*
X157089389Y-44156565D01*
X157049000Y-43953516D01*
X157049000Y-43746484D01*
X157089389Y-43543435D01*
X157168615Y-43352166D01*
X157283637Y-43180024D01*
X157430024Y-43033637D01*
X157602166Y-42918615D01*
X157793435Y-42839389D01*
X157996484Y-42799000D01*
X158203516Y-42799000D01*
X158406565Y-42839389D01*
X158406565Y-42839389D01*
G37*
G36*
X119406565Y-42839389D02*
X119597834Y-42918615D01*
X119769976Y-43033637D01*
X119916363Y-43180024D01*
X120031385Y-43352166D01*
X120110611Y-43543435D01*
X120151000Y-43746484D01*
X120151000Y-43953516D01*
X120110611Y-44156565D01*
X120031385Y-44347834D01*
X119916363Y-44519976D01*
X119769976Y-44666363D01*
X119597834Y-44781385D01*
X119406565Y-44860611D01*
X119203516Y-44901000D01*
X118996484Y-44901000D01*
X118793435Y-44860611D01*
X118602166Y-44781385D01*
X118430024Y-44666363D01*
X118283637Y-44519976D01*
X118168615Y-44347834D01*
X118089389Y-44156565D01*
X118049000Y-43953516D01*
X118049000Y-43746484D01*
X118089389Y-43543435D01*
X118168615Y-43352166D01*
X118283637Y-43180024D01*
X118430024Y-43033637D01*
X118602166Y-42918615D01*
X118793435Y-42839389D01*
X118996484Y-42799000D01*
X119203516Y-42799000D01*
X119406565Y-42839389D01*
X119406565Y-42839389D01*
G37*
M02*
