M48
;DRILL file {KiCad (5.0.2)-1} date 03/01/2020 22:31:51
;FORMAT={-:-/ absolute / inch / decimal}
FMAT,2
INCH,TZ
T1C0.0157
T2C0.0300
T3C0.0394
T4C0.0433
T5C0.0748
%
G90
G05
T1
X4.9291Y-2.9803
X4.937Y-2.7559
X5.Y-2.939
X5.0472Y-2.8976
X5.0866Y-2.7559
X5.1378Y-3.1024
X5.2165Y-2.8465
X5.2165Y-2.9803
X5.3602Y-3.1398
X5.4055Y-2.9685
X5.4213Y-2.9252
X5.4606Y-2.8858
X5.498Y-3.0157
X5.5118Y-2.8898
X5.5591Y-2.8898
X5.5886Y-3.124
X5.6024Y-3.0472
X5.6929Y-3.0846
X6.1142Y-2.9055
X6.1652Y-2.6222
X6.1953Y-3.2795
X6.2165Y-3.0329
X6.2652Y-2.903
X6.2953Y-3.3268
X6.3858Y-3.0591
T2
X5.1711Y-2.7118
X5.1711Y-3.3118
X5.2711Y-2.7118
X5.2711Y-3.3118
X5.3711Y-2.7118
X5.3711Y-3.3118
X5.4711Y-2.7118
X5.4711Y-3.3118
X5.5711Y-2.7118
X5.5711Y-3.3118
X5.6711Y-2.7118
X5.6711Y-3.3118
X5.7711Y-2.7118
X5.7711Y-3.3118
T3
X5.423Y-3.5984
X5.523Y-3.5984
X5.3122Y-2.1201
X5.4122Y-2.1201
X5.5122Y-2.1201
X5.6122Y-2.1201
X6.5929Y-3.2087
X6.6929Y-3.2087
X6.5929Y-2.7921
X6.5929Y-2.8921
X6.5929Y-2.9921
X6.6929Y-2.7921
X6.6929Y-2.8921
X6.6929Y-2.9921
X5.3122Y-2.4075
X5.4122Y-2.4075
X5.5122Y-2.4075
X5.6122Y-2.4075
T4
X4.689Y-1.7264
X4.689Y-1.9823
X4.8661Y-1.7264
X4.8661Y-1.9823
X6.0472Y-1.7264
X6.0472Y-1.9823
X6.2244Y-1.7264
X6.2244Y-1.9823
X5.3701Y-1.7264
X5.3701Y-1.9823
X5.5472Y-1.7264
X5.5472Y-1.9823
T5
X4.3701Y-2.752
X4.3701Y-3.2717
T0
M30
