G04 #@! TF.GenerationSoftware,KiCad,Pcbnew,(5.0.2)-1*
G04 #@! TF.CreationDate,2020-01-01T22:46:37+01:00*
G04 #@! TF.ProjectId,clock,636c6f63-6b2e-46b6-9963-61645f706362,rev?*
G04 #@! TF.SameCoordinates,Original*
G04 #@! TF.FileFunction,Legend,Bot*
G04 #@! TF.FilePolarity,Positive*
%FSLAX46Y46*%
G04 Gerber Fmt 4.6, Leading zero omitted, Abs format (unit mm)*
G04 Created by KiCad (PCBNEW (5.0.2)-1) date 01/01/2020 22:46:37*
%MOMM*%
%LPD*%
G01*
G04 APERTURE LIST*
%ADD10C,0.120000*%
%ADD11C,0.150000*%
G04 APERTURE END LIST*
D10*
G04 #@! TO.C,SW1*
X122100000Y-50600000D02*
X120600000Y-50600000D01*
X118100000Y-49350000D02*
X118100000Y-44850000D01*
X120600000Y-43600000D02*
X122100000Y-43600000D01*
X124600000Y-44850000D02*
X124600000Y-49350000D01*
G04 #@! TO.C,SW2*
X139400000Y-50600000D02*
X137900000Y-50600000D01*
X135400000Y-49350000D02*
X135400000Y-44850000D01*
X137900000Y-43600000D02*
X139400000Y-43600000D01*
X141900000Y-44850000D02*
X141900000Y-49350000D01*
G04 #@! TO.C,SW3*
X156600000Y-50600000D02*
X155100000Y-50600000D01*
X152600000Y-49350000D02*
X152600000Y-44850000D01*
X155100000Y-43600000D02*
X156600000Y-43600000D01*
X159100000Y-44850000D02*
X159100000Y-49350000D01*
D11*
G04 #@! TO.C,U4*
X113865000Y-86000000D02*
X113865000Y-67000000D01*
X164065000Y-67000000D02*
X164065000Y-86000000D01*
X113865000Y-67000000D02*
X164065000Y-67000000D01*
X113865000Y-86000000D02*
X164065000Y-86000000D01*
G04 #@! TO.C,SW1*
X117504761Y-45766666D02*
X117552380Y-45909523D01*
X117552380Y-46147619D01*
X117504761Y-46242857D01*
X117457142Y-46290476D01*
X117361904Y-46338095D01*
X117266666Y-46338095D01*
X117171428Y-46290476D01*
X117123809Y-46242857D01*
X117076190Y-46147619D01*
X117028571Y-45957142D01*
X116980952Y-45861904D01*
X116933333Y-45814285D01*
X116838095Y-45766666D01*
X116742857Y-45766666D01*
X116647619Y-45814285D01*
X116600000Y-45861904D01*
X116552380Y-45957142D01*
X116552380Y-46195238D01*
X116600000Y-46338095D01*
X116552380Y-46671428D02*
X117552380Y-46909523D01*
X116838095Y-47100000D01*
X117552380Y-47290476D01*
X116552380Y-47528571D01*
X117552380Y-48433333D02*
X117552380Y-47861904D01*
X117552380Y-48147619D02*
X116552380Y-48147619D01*
X116695238Y-48052380D01*
X116790476Y-47957142D01*
X116838095Y-47861904D01*
G04 #@! TO.C,SW2*
X134804761Y-45766666D02*
X134852380Y-45909523D01*
X134852380Y-46147619D01*
X134804761Y-46242857D01*
X134757142Y-46290476D01*
X134661904Y-46338095D01*
X134566666Y-46338095D01*
X134471428Y-46290476D01*
X134423809Y-46242857D01*
X134376190Y-46147619D01*
X134328571Y-45957142D01*
X134280952Y-45861904D01*
X134233333Y-45814285D01*
X134138095Y-45766666D01*
X134042857Y-45766666D01*
X133947619Y-45814285D01*
X133900000Y-45861904D01*
X133852380Y-45957142D01*
X133852380Y-46195238D01*
X133900000Y-46338095D01*
X133852380Y-46671428D02*
X134852380Y-46909523D01*
X134138095Y-47100000D01*
X134852380Y-47290476D01*
X133852380Y-47528571D01*
X133947619Y-47861904D02*
X133900000Y-47909523D01*
X133852380Y-48004761D01*
X133852380Y-48242857D01*
X133900000Y-48338095D01*
X133947619Y-48385714D01*
X134042857Y-48433333D01*
X134138095Y-48433333D01*
X134280952Y-48385714D01*
X134852380Y-47814285D01*
X134852380Y-48433333D01*
G04 #@! TO.C,SW3*
X152004761Y-45766666D02*
X152052380Y-45909523D01*
X152052380Y-46147619D01*
X152004761Y-46242857D01*
X151957142Y-46290476D01*
X151861904Y-46338095D01*
X151766666Y-46338095D01*
X151671428Y-46290476D01*
X151623809Y-46242857D01*
X151576190Y-46147619D01*
X151528571Y-45957142D01*
X151480952Y-45861904D01*
X151433333Y-45814285D01*
X151338095Y-45766666D01*
X151242857Y-45766666D01*
X151147619Y-45814285D01*
X151100000Y-45861904D01*
X151052380Y-45957142D01*
X151052380Y-46195238D01*
X151100000Y-46338095D01*
X151052380Y-46671428D02*
X152052380Y-46909523D01*
X151338095Y-47100000D01*
X152052380Y-47290476D01*
X151052380Y-47528571D01*
X151052380Y-47814285D02*
X151052380Y-48433333D01*
X151433333Y-48100000D01*
X151433333Y-48242857D01*
X151480952Y-48338095D01*
X151528571Y-48385714D01*
X151623809Y-48433333D01*
X151861904Y-48433333D01*
X151957142Y-48385714D01*
X152004761Y-48338095D01*
X152052380Y-48242857D01*
X152052380Y-47957142D01*
X152004761Y-47861904D01*
X151957142Y-47814285D01*
G04 #@! TO.C,U4*
X160155476Y-75904761D02*
X160631666Y-75666666D01*
X160869761Y-75428571D01*
X161107857Y-74952380D01*
X161107857Y-74714285D01*
X160869761Y-74238095D01*
X160631666Y-74000000D01*
X160155476Y-73761904D01*
X159203095Y-73761904D01*
X158726904Y-74000000D01*
X158488809Y-74238095D01*
X158250714Y-74714285D01*
X158250714Y-74952380D01*
X158488809Y-75428571D01*
X158726904Y-75666666D01*
X159203095Y-75904761D01*
X160155476Y-75904761D01*
X160631666Y-76142857D01*
X160869761Y-76380952D01*
X161107857Y-76857142D01*
X161107857Y-77809523D01*
X160869761Y-78285714D01*
X160631666Y-78523809D01*
X160155476Y-78761904D01*
X159203095Y-78761904D01*
X158726904Y-78523809D01*
X158488809Y-78285714D01*
X158250714Y-77809523D01*
X158250714Y-76857142D01*
X158488809Y-76380952D01*
X158726904Y-76142857D01*
X159203095Y-75904761D01*
X156107857Y-78285714D02*
X155869761Y-78523809D01*
X156107857Y-78761904D01*
X156345952Y-78523809D01*
X156107857Y-78285714D01*
X156107857Y-78761904D01*
X149203095Y-75904761D02*
X149679285Y-75666666D01*
X149917380Y-75428571D01*
X150155476Y-74952380D01*
X150155476Y-74714285D01*
X149917380Y-74238095D01*
X149679285Y-74000000D01*
X149203095Y-73761904D01*
X148250714Y-73761904D01*
X147774523Y-74000000D01*
X147536428Y-74238095D01*
X147298333Y-74714285D01*
X147298333Y-74952380D01*
X147536428Y-75428571D01*
X147774523Y-75666666D01*
X148250714Y-75904761D01*
X149203095Y-75904761D01*
X149679285Y-76142857D01*
X149917380Y-76380952D01*
X150155476Y-76857142D01*
X150155476Y-77809523D01*
X149917380Y-78285714D01*
X149679285Y-78523809D01*
X149203095Y-78761904D01*
X148250714Y-78761904D01*
X147774523Y-78523809D01*
X147536428Y-78285714D01*
X147298333Y-77809523D01*
X147298333Y-76857142D01*
X147536428Y-76380952D01*
X147774523Y-76142857D01*
X148250714Y-75904761D01*
X145155476Y-78285714D02*
X144917380Y-78523809D01*
X145155476Y-78761904D01*
X145393571Y-78523809D01*
X145155476Y-78285714D01*
X145155476Y-78761904D01*
X138965000Y-78285714D02*
X138726904Y-78523809D01*
X138965000Y-78761904D01*
X139203095Y-78523809D01*
X138965000Y-78285714D01*
X138965000Y-78761904D01*
X138965000Y-75666666D02*
X138726904Y-75904761D01*
X138965000Y-76142857D01*
X139203095Y-75904761D01*
X138965000Y-75666666D01*
X138965000Y-76142857D01*
X132060238Y-75904761D02*
X132536428Y-75666666D01*
X132774523Y-75428571D01*
X133012619Y-74952380D01*
X133012619Y-74714285D01*
X132774523Y-74238095D01*
X132536428Y-74000000D01*
X132060238Y-73761904D01*
X131107857Y-73761904D01*
X130631666Y-74000000D01*
X130393571Y-74238095D01*
X130155476Y-74714285D01*
X130155476Y-74952380D01*
X130393571Y-75428571D01*
X130631666Y-75666666D01*
X131107857Y-75904761D01*
X132060238Y-75904761D01*
X132536428Y-76142857D01*
X132774523Y-76380952D01*
X133012619Y-76857142D01*
X133012619Y-77809523D01*
X132774523Y-78285714D01*
X132536428Y-78523809D01*
X132060238Y-78761904D01*
X131107857Y-78761904D01*
X130631666Y-78523809D01*
X130393571Y-78285714D01*
X130155476Y-77809523D01*
X130155476Y-76857142D01*
X130393571Y-76380952D01*
X130631666Y-76142857D01*
X131107857Y-75904761D01*
X128012619Y-78285714D02*
X127774523Y-78523809D01*
X128012619Y-78761904D01*
X128250714Y-78523809D01*
X128012619Y-78285714D01*
X128012619Y-78761904D01*
X121107857Y-75904761D02*
X121584047Y-75666666D01*
X121822142Y-75428571D01*
X122060238Y-74952380D01*
X122060238Y-74714285D01*
X121822142Y-74238095D01*
X121584047Y-74000000D01*
X121107857Y-73761904D01*
X120155476Y-73761904D01*
X119679285Y-74000000D01*
X119441190Y-74238095D01*
X119203095Y-74714285D01*
X119203095Y-74952380D01*
X119441190Y-75428571D01*
X119679285Y-75666666D01*
X120155476Y-75904761D01*
X121107857Y-75904761D01*
X121584047Y-76142857D01*
X121822142Y-76380952D01*
X122060238Y-76857142D01*
X122060238Y-77809523D01*
X121822142Y-78285714D01*
X121584047Y-78523809D01*
X121107857Y-78761904D01*
X120155476Y-78761904D01*
X119679285Y-78523809D01*
X119441190Y-78285714D01*
X119203095Y-77809523D01*
X119203095Y-76857142D01*
X119441190Y-76380952D01*
X119679285Y-76142857D01*
X120155476Y-75904761D01*
X117060238Y-78285714D02*
X116822142Y-78523809D01*
X117060238Y-78761904D01*
X117298333Y-78523809D01*
X117060238Y-78285714D01*
X117060238Y-78761904D01*
G04 #@! TD*
M02*
